<?xml version="1.0" encoding="utf-8"?>
<!-- Generator: Adobe Illustrator 26.2.1, SVG Export Plug-In . SVG Version: 6.00 Build 0)  -->
<svg version="1.1" id="Vrstva_1" xmlns="http://www.w3.org/2000/svg" xmlns:xlink="http://www.w3.org/1999/xlink" x="0px" y="0px"
	 viewBox="0 0 595.28 841.89" style="enable-background:new 0 0 595.28 841.89;" xml:space="preserve">
<style type="text/css">
	.st0{fill:#45B0E5;}
	.st1{fill:#FFFFFF;}
</style>
<path class="st0" d="M219.76,356.28c-4.08,1.1-5.24-1.08-8.33-6.91l-0.64-1.19c-2.83-5.26-5.94-4.67-10.24-3.85
	c-0.91,0.18-1.85,0.36-2.85,0.49c-5.57,0.74-7.01-2.57-9.38-8.07l-0.64-1.45c-0.65-1.49-1.14-2.72-1.56-3.8
	c-1.39-3.54-2.09-5.31-5.95-8.94c-4.93-4.63-5.75-7.98-7.41-14.66l-0.3-1.18c-0.93-3.76-2.94-5.11-5.05-6.52
	c-1.93-1.3-3.93-2.63-5-5.86c-2.01-6.03,0-11,2.13-16.27c0.22-0.54,0.44-1.1,0.67-1.67c1.78-4.52-0.12-6.66-2.13-8.94
	c-0.48-0.53-0.97-1.09-1.4-1.67c-2.48-3.37-2.76-10.39,3.19-14.81c1.56-1.17,2.33-2.42,2.31-3.73c-0.09-3.14-4.73-6.23-6.48-7.4
	c-1.53-1.02-2.98-1.44-4.25-1.81c-1.72-0.51-3.2-0.93-3.81-2.72c-0.65-1.97-2.48-2.02-6.22-1.93c-0.7,0.01-1.44,0.03-2.23,0.03
	c-5,0-7.44-1.52-9.36-5.81c-0.74-1.67-1.49-2.58-2.22-2.68c-0.67-0.12-1.45,0.41-2.54,1.68c-0.73,0.84-1.58,1.67-2.46,1.48
	c-0.8-0.19-1.37-1.15-1.94-3.33c-0.26-1.04-0.88-1.65-1.76-1.78c-1.61-0.26-3.77,1.06-4.95,2.97c-1.02,1.65-3.19,2.13-5.28,2.59
	c-2.32,0.51-4.72,1.04-5.72,3.1c-1.63,3.41,0.31,6.95,2.19,10.37c0.31,0.57,0.62,1.13,0.91,1.68c1.63,3.12,1.78,5.87,2,10.01
	c0.05,1.09,0.12,2.29,0.22,3.63c0.44,6.01-2.24,13.12-2.66,14.17c0.97,3.32,2.61,10.14,3.07,14.1c0.49,4.11-2.45,8.8-4.28,10.93
	c-0.56,0.65-1.39,1.22-2.27,1.83c-2.24,1.54-4.8,3.29-4.68,7.21c0.05,2.07,0.39,3.42,0.66,4.51c0.48,1.92,0.76,3.08-1.05,5.72
	c-0.82,1.21-1.65,2.1-2.29,2.84c-1.59,1.74-2.32,2.54-1.23,4.74c1.72,3.55,1.83,4.87-0.82,6.84c-2.19,1.63-2.79,2.06-1.63,7.27
	c0.16,0.73,0.31,1.37,0.45,1.98c0.88,3.77,1.3,5.5-0.66,8.84c-1.91,3.28-5.61,10.02-6.43,11.5c0.32,0.22,0.65,0.49,0.95,0.84
	c4.02,4.55,6.09,4.35,7.88,3.76l0.45-0.16c2.06-0.71,4.89-1.7,6.69,2.31c0.87,1.91,1.63,2.88,2.5,3.14c0.78,0.23,1.74-0.06,3.2-0.99
	c2.64-1.67,5.09-1.54,8.19-1.37c0.49,0.03,1.02,0.05,1.57,0.08c0.97,0.04,2.09-0.08,3.28-0.21c3.59-0.36,7.66-0.78,8.1,3.27
	c0.56,4.94,1.01,6.51,4.3,6.16c1.71-0.18,3.54,0.35,5.16,0.82c2,0.57,3.72,1.06,4.69,0.21c1.8-1.59,3.84-2.35,6.38-2.35l0.48,0.01
	c1.39,0.01,3.47,0.03,4.15-0.89c0.27-0.39,0.29-0.96,0.04-1.7c-0.73-2.13,0.1-3.88,1.24-4.67c1.17-0.82,2.66-0.71,3.88,0.29
	c1.06,0.87,2.85,0.56,4.42,0.27c1.44-0.25,2.67-0.47,3.41,0.14c0.35,0.3,0.53,0.75,0.53,1.36c0,2.94,1.17,2.94,2.77,2.94
	c2.07,0,3.06,1.56,4.17,4.43c1.11,2.89,2.18,5.09,4.9,5.09h0.61c2.49,0.01,2.8,0.04,6.23,1.83c3.49,1.81,4.64,1.61,7.4,1.1
	l0.25-0.05c0.76-0.14,1.72-0.39,2.73-0.65c3.02-0.76,6.79-1.72,9.51-1.13c0.41,0.09,0.8,0.18,1.17,0.26
	c2.72,0.61,3.95,0.89,5.38-0.4c1.94-1.78,5.5-2.46,9.58-3.12c0.7-0.1,1.3-0.16,1.81-0.17c-0.54-2.49-2.59-13.35,1.79-19.14
	c0.52-0.7,1.1-1.37,1.7-2.03C227.35,355.01,222.41,355.56,219.76,356.28"/>
<path class="st0" d="M387.05,281.86c0.36-3.54,0.79-7.54-1.32-8.84c-3.45-2.14-3.94-5.6-1.54-10.89c1.22-2.67,1.57-5.53,1.93-8.57
	c0.32-2.66,0.66-5.42,1.62-8.14c2-5.66,2.15-7.17,2-11.63c-0.03-0.88-0.03-1.66-0.01-2.37c0.04-2.92,0.06-4.38-2.79-6.64
	c-0.6-0.47-1.14-0.87-1.66-1.26c-2.71-1.96-4.5-3.27-4.23-8.68c0.12-2.16,0.64-3.63,1.43-4.68c-0.76-1.11-4.16-6.12-5.42-9.9
	c-1.36-4.07-5.48-4.95-7.78-4.54c-2.68,0.47-5.44-0.4-10.89-6.17c-4.68-4.95-10.59,0.08-14.5,3.41l-0.76,0.66
	c-2.73,2.29-1.27,6.21,0.3,10.34c0.49,1.31,1,2.66,1.37,3.97c0.48,1.68,0.18,3.18-0.87,4.3c-2.33,2.48-7.56,2.67-11.68,1.76
	c-5.05-1.1-8.45,1.75-10.39,8.71c-1.45,5.24-5.98,4.35-12.83,3.05c-0.99-0.19-2.02-0.39-3.11-0.58c-3.36-0.61-5.15-1.59-5.46-3.05
	c-0.32-1.56,1.15-3.43,4.52-5.74c2-1.35,3.11-2.88,3.16-4.32c0.04-1.08-0.53-2.09-1.63-2.94c-2.41-1.88-6.2,0.01-10.14,5.04
	c-2.15,2.76-5.42,3.02-8.42,2.84c0.04,1.56,0.08,6.8-1.28,9.8c-1.48,3.24-3.23,8.37-3.69,13.04c-0.21,2.16-1.31,3.64-2.46,5.21
	c-1.41,1.92-3.01,4.08-3.27,7.96c-0.19,3.01-1.49,4.9-2.64,6.57c-1.59,2.33-2.75,4.01-0.06,7.74c2.35,3.24,3.31,6.44,2.8,9.24
	c-0.38,2.1-1.57,3.91-3.37,5.11c-0.67,0.45-1.36,0.84-2.03,1.21c-2.57,1.43-4.6,2.55-4.13,6.48c0.08,0.75,0.21,1.53,0.35,2.35
	c0.74,4.59,1.65,10.25-4.73,12.86c0.89,0.51,1.71,1.31,2.45,2.46c3.19,5,3.98,5.53,7.67,5.08c4.61-0.56,7.37,1.65,8.96,7.1
	l0.05,0.18c1.68,5.86,2.54,8.8,7.43,8.22c4.77-0.56,14.71-1.74,16.23,4.17c0.26,1,0.47,1.87,0.64,2.63
	c0.76,3.29,1.02,4.41,3.54,5.96l0.79,0.48c2.77,1.67,4.6,2.79,6.2,8.89c1.54,5.87,3.19,7.49,5.46,9.73l0.65,0.64
	c2.23,2.23,6,5.17,7.02,5.96c0.26-0.23,0.54-0.41,0.82-0.53c2.37-1.04,6.42,0.58,8.05,2.1c2.16,2.01,7.47,0.23,10.43-1.01
	c3.4-1.41,5.05,0.13,6.66,1.62c0.29,0.26,0.57,0.52,0.87,0.76c2.38,2.02,4.03,3.21,5.51,1.74c1.85-1.85,1.93-4.98,0.23-8.39
	c-1.67-3.36-1.4-4.81-0.78-8.01c0.08-0.47,0.18-0.97,0.29-1.53c0.23-1.36,0.04-2.5-0.6-3.41c-0.91-1.3-2.7-2.16-5.44-2.64
	c-2.61-0.45-3.98-2.18-5.72-4.37c-0.76-0.96-1.62-2.05-2.71-3.19c-3.71-3.86-2.44-5.53-0.49-8.06l0.16-0.19
	c1.91-2.5,3.47-1.79,6.91-0.22c0.57,0.26,1.22,0.56,1.93,0.87c4.43,1.94,4.48,1.84,5.96-0.87l0.19-0.35
	c1.18-2.15,2.64-2.03,5.07-1.81c1.46,0.13,3.29,0.29,5.78,0.05c2.71-0.25,4.48-1.15,5.09-2.62c0.58-1.35,0.14-3.15-1.18-4.8
	l-0.47-0.57c-1.15-1.41-2.06-2.53-1.87-3.94c0.21-1.48,1.62-3.03,4.73-5.2c1.45-1.01,2.15-1.88,2.1-2.57
	c-0.08-0.99-1.63-1.76-3.15-2.51c-1.53-0.75-2.97-1.46-3.28-2.55c-0.26-0.87-0.17-1.57,0.25-2.1c0.95-1.18,3.41-1.27,6.82-1.04
	c4.68,0.31,5.26,0.13,7.75-2.51c0.27-0.3,0.56-0.52,0.83-0.67c-0.89-1.61-4.32-7.92-4.45-11.54
	C386.74,284.83,386.89,283.39,387.05,281.86"/>
<path class="st0" d="M267.36,291.83c-0.13-0.82-0.26-1.62-0.35-2.37c-0.53-4.46,1.93-5.83,4.54-7.27c0.66-0.36,1.33-0.74,1.98-1.17
	c1.62-1.08,2.7-2.71,3.03-4.59c0.47-2.59-0.45-5.59-2.67-8.65c-3.01-4.17-1.58-6.25,0.06-8.65c1.09-1.59,2.32-3.38,2.5-6.18
	c0.27-4.11,1.94-6.36,3.41-8.37c1.14-1.54,2.13-2.88,2.32-4.81c0.48-4.77,2.26-9.99,3.76-13.3c1.3-2.85,1.24-8.13,1.22-9.53
	c-0.41-0.03-0.83-0.06-1.22-0.1c-1.81-0.16-3.51-0.31-4.63,0.09c-3.28,1.19-10.87,1.1-15.99-2.2c-2.22-1.44-4.59-1.11-6.18-0.6
	c-2.97,0.97-5.68,3.43-6.73,6.13c-1.72,4.46-3.1,4.2-6.3,3.11c-0.35-0.13-0.74-0.26-1.17-0.39c-4.13-1.34-7.76-5.21-10.77-11.52
	c-1.71-3.6-2.73-3.29-4.76-2.67c-1.4,0.44-3.16,0.99-5.66,0.4c-2.64-0.61-4.2,0.6-5.05,1.72c-1.61,2.13-1.74,5.25-0.87,6.84
	c0.69,1.26,0.79,2.18,0.32,2.81c-0.79,1.04-3.07,1.06-7.43,0.09c-6.57-1.48-13.22-1.43-18.24,0.14c-4.69,1.48-7.15-0.17-12.07-3.45
	c-0.99-0.66-2.06-1.39-3.29-2.18c-2.63-1.67-5.03-2.13-7.14-1.32c-2.35,0.88-4.33,3.38-5.29,6.69c-1.45,5.02-2.89,5.85-7.47,6.33
	c-3.59,0.38-5.47,4.78-5.94,6.05c0.97,0.35,1.7,0.96,2.09,2.11c0.47,1.4,1.58,1.72,3.27,2.22c1.27,0.36,2.84,0.82,4.48,1.92
	c3.12,2.09,6.74,4.89,6.82,8.02c0.04,1.59-0.84,3.07-2.62,4.39c-5.99,4.46-4.93,11.12-3.02,13.71c0.41,0.56,0.87,1.08,1.36,1.62
	c1.97,2.24,4.21,4.78,2.26,9.76c-0.22,0.56-0.45,1.11-0.67,1.67c-2.07,5.13-4.03,9.98-2.11,15.72c0.99,2.97,2.79,4.17,4.69,5.44
	c2.15,1.44,4.38,2.93,5.39,6.99l0.3,1.18c1.62,6.53,2.44,9.82,7.18,14.28c3.99,3.75,4.76,5.69,6.14,9.23
	c0.43,1.08,0.89,2.29,1.54,3.76l0.64,1.46c2.38,5.51,3.58,8.28,8.57,7.61c0.97-0.13,1.91-0.31,2.8-0.48c4.29-0.82,8-1.53,11.08,4.25
	l0.64,1.19c3.05,5.72,3.95,7.45,7.44,6.51c2.81-0.75,8.05-1.35,11.94,2.96c0.84-0.91,1.72-1.79,2.59-2.64
	c4.1-4.07,7.63-7.6,5.96-12.18c-0.49-1.35-1.01-2.61-1.52-3.81c-2.01-4.85-3.6-8.68,0.27-11.22c2-1.31,5.13-1.11,7.91-0.95
	c2.48,0.16,4.82,0.3,5.65-0.66c0.36-0.43,0.43-1.09,0.22-2.01c-1.54-6.84-2.54-15.55,1.41-18.08c2.54-1.63,5.42-3.46,8.1-2.88
	c0.09,0.01,0.18,0.06,0.27,0.09C269,301.89,268.16,296.78,267.36,291.83"/>
<path class="st0" d="M375.05,473.81c-1.4-0.52-2.86-1.06-4.2-1.68c-5.96-2.75-10.07-11.79-11.07-17.33
	c-0.96-5.22-1.89-7.18-4.35-9.06c-1.26-0.96-2.29-1.85-2.35-3.02c-0.04-1.14,0.82-2.37,2.94-4.25c1.49-1.31,2.19-2.29,2.23-3.08
	c0.04-0.84-0.65-1.58-1.61-2.61c-0.26-0.27-0.53-0.57-0.8-0.88c-1.59-1.8-1.84-1.66-4.19-0.29c-0.69,0.4-1.54,0.89-2.62,1.45
	c-1.35,0.7-2.4,0.79-3.21,0.29c-1.89-1.15-1.88-5.21-1.87-9.51v-1.04c0-5.72-3.66-6.57-6.33-7.21c-1.05-0.25-2.06-1.33-2.88-3.08
	c-1.31-2.79-2.02-7.17-0.52-10.19c0.97-1.93,1.02-4.23,0.14-6.31c-0.82-1.93-2.35-3.42-4.1-3.98c-1.09-0.35-2.18-0.51-3.25-0.66
	c-2.59-0.38-5.05-0.74-5.53-4.01c-0.64-4.3,0.67-6,3.97-9.77c0.61-0.7,1.14-1.24,1.58-1.72c1.91-1.98,2.35-2.46,2.35-6.84
	c0-1.04,0.25-1.79,0.6-2.33c-1.08-0.83-4.83-3.77-7.08-6.01l-0.65-0.64c-2.36-2.32-4.07-4-5.66-10.08
	c-1.52-5.81-3.15-6.79-5.85-8.42l-0.79-0.48c-2.8-1.74-3.12-3.11-3.89-6.45c-0.18-0.75-0.38-1.62-0.64-2.62
	c-1.33-5.24-10.82-4.11-15.37-3.58c-5.55,0.66-6.58-2.9-8.28-8.79l-0.05-0.18c-1.46-5.08-3.9-7.04-8.1-6.53
	c-4.06,0.49-5.08-0.17-8.44-5.44c-0.96-1.52-2.02-2.38-3.27-2.66c-2.36-0.52-5.08,1.23-7.49,2.77c-2.8,1.79-3.18,7.91-1.08,17.25
	c0.27,1.18,0.14,2.06-0.4,2.68c-1.08,1.27-3.49,1.11-6.3,0.95c-2.63-0.17-5.64-0.35-7.41,0.82c-3.33,2.18-2,5.39,0.03,10.25
	c0.51,1.22,1.02,2.49,1.53,3.85c1.84,5.07-2.05,8.92-6.16,13.01c-1.66,1.65-3.37,3.34-4.76,5.18c-4.26,5.64-2,16.86-1.58,18.72
	c0.74,0.1,1.26,0.36,1.59,0.8c0.7,0.91,0.53,2.44-0.56,4.98c-0.19,0.48-0.41,0.95-0.62,1.43c-1.75,3.88-3.27,7.23,0.84,9.54
	c5.08,2.85,5.16,4.58,5.38,9.18l0.01,0.22c0.16,2.98-1.21,6.08-3.36,7.7c-1.23,0.92-3.31,1.81-6.16,0.83
	c-3.06-1.08-5.34-1.14-6.6-0.21c-0.92,0.7-1.34,1.96-1.24,3.76c0.18,3.73-0.17,7.95-0.31,9.47c1.88-0.57,4.13-0.56,6.45,0.17
	c4.26,1.32,9.15,5.21,12.46,9.92c2.96,4.2,9.25,7.34,12.79,8.22c3.71,0.92,6.16,3.38,9.67,7.89c1.27,1.63,2.76,3.06,4.35,4.56
	c2.38,2.28,5.08,4.85,7.44,8.63c3.02,4.82,6.55,5.88,10.29,6.99c0.93,0.29,1.89,0.57,2.84,0.92c3.59,1.31,3.34,3.86,3.06,6.82
	c-0.12,1.18-0.25,2.5-0.17,3.91c0.29,4.54,1.84,7.05,5.35,8.65c3.59,1.63,9.01,0.26,14.49-3.68c2.35-1.68,4.12-2.23,5.42-1.65
	c1.92,0.86,2.42,3.97,2.8,7.35c0.18,1.7,0.6,2.8,1.23,3.27c0.64,0.47,1.49,0.3,2.4,0.13c0.47-0.09,0.95-0.18,1.4-0.18
	c2.58,0,3.06,2.51,3.19,4.72c0.14,2.55,1.7,3.99,4.6,4.28c3.29,0.31,5.38,2.33,6.39,6.18c0.61,2.36,1.93,3.27,3.62,4.42
	c0.74,0.51,1.5,1.02,2.31,1.74c2.19,1.94,3.1,9.32,3.38,12.34c0.19-0.34,0.41-0.66,0.69-0.99c1.15-1.37,3.07-2.73,6.29-4.81
	c1.68-1.09,3.46-2,5.17-2.88c4.73-2.42,8.96-4.59,8.85-9.29c-0.08-3.02-0.05-5.15-0.03-6.83c0.01-2.02,0.04-3.41-0.13-4.91
	c-0.17-1.48-0.25-2.96,0.7-4.02c0.93-1.02,2.8-1.58,6.51-1.18c2.55,0.27,4.9-0.09,7.05-0.44c1.67-0.26,3.21-0.51,4.67-0.43
	c0.16-1.06,1.31-9.33,1.59-15.5C384.64,477.37,379.98,475.65,375.05,473.81"/>
<path class="st0" d="M554.53,436.86c1.71-1.94,3.49-3.95,3.76-6.05c0.18-1.33,0.79-2.23,1.63-2.81c-0.73-1.31-3.73-6.47-6.87-8.42
	c-2.93-1.83-4.5-1.24-5.64-0.82c-0.26,0.1-0.51,0.19-0.73,0.25c-0.76,0.19-2.19-0.01-3.45-0.79c-0.79-0.49-1.8-1.4-2.15-2.92
	c-0.31-1.43-0.79-3.11-1.68-3.43c-0.51-0.18-1.18,0.06-2.02,0.71c-1.36,1.06-2.37,0.93-2.98,0.64c-1.23-0.6-2-2.5-2-4.98
	c0-1.63,1.96-2.99,4.23-4.58c2.9-2.02,6.52-4.55,6.78-8.31l0.09-1.32c0.43-6.77,0.97-15.18,7.43-15.18c0.05,0,0.12,0,0.17,0.01
	c6.42,0.13,6.6-0.89,7.19-4.33c0.58-3.32,0.3-3.81-3.85-6.57c-3.81-2.54-5.21-4.32-6.82-6.36l-0.56-0.7c-2-2.49-5.03-2.62-9.27-0.36
	c-4.96,2.63-8.22,3.64-13.31,2.2c-5.05-1.41-7-1.67-10.41-1.39c-3.45,0.31-5.7-0.06-8.37-2.9c-0.8-0.86-1.37-1.57-1.88-2.2
	c-1.1-1.39-1.97-2.49-4.56-4.25l-0.95-0.64c-2.53-1.7-4.54-3.03-4.68-4.74c-0.06-0.84,0.34-1.67,1.23-2.51
	c3.5-3.33,3.55-6.84,0.13-10.77c-2.24-2.58-8.27-8.18-15.64-4.41l-0.44,0.23c-4.16,2.14-6.91,3.55-8.88,2.88
	c-0.87-0.29-1.54-0.96-2.06-2.05c-0.91-1.91-1.93-1.76-3.47-1.57c-1.02,0.13-2.19,0.27-3.45-0.26c-0.89-0.38-1.76-1.06-2.61-1.72
	c-2.13-1.68-3.95-3.14-6.25-0.54c-2.23,2.53-5.4,3.81-7.88,3.19c-1.5-0.38-2.51-1.4-2.88-2.89c-0.09-0.4-0.19-0.82-0.29-1.24
	c-0.6-2.63-1.27-5.61-2.8-6.42c-0.56-0.29-1.19-0.29-1.96,0.03c-1.5,0.6-2.61,0.65-3.38,0.17c-1.14-0.71-1.24-2.4-1.35-3.88
	c-0.09-1.44-0.7-2.7-1.59-3.34c-0.7-0.51-1.57-0.64-2.55-0.38c-5.95,1.57-8.26-0.43-9.15-2.38c-0.97-2.15-3.03-5.83-5.88-6.35
	c-1.49-0.26-3.05,0.39-4.63,1.97c-1.83,1.83-3.45,2.71-4.89,2.68c-1.78-0.03-2.99-1.32-4.19-2.58c-0.52-0.54-1-1.06-1.53-1.46
	c-0.88-0.67-1.63-1.65-2.35-2.58c-0.92-1.18-1.79-2.31-2.63-2.35c-0.41-0.03-0.84,0.21-1.31,0.7c-2.75,2.92-3.69,3.07-8.37,2.76
	c-2.61-0.18-5.38-0.22-6.14,0.74c-0.26,0.32-0.3,0.78-0.12,1.39c0.22,0.75,1.57,1.43,2.88,2.07c1.71,0.86,3.49,1.72,3.59,3.15
	c0.08,1.01-0.73,2.09-2.44,3.28c-2.88,2.01-4.24,3.45-4.41,4.67c-0.14,1.06,0.62,2.01,1.7,3.32l0.47,0.58c1.5,1.88,2,3.98,1.31,5.6
	c-0.52,1.22-1.94,2.75-5.77,3.1c-2.55,0.25-4.42,0.08-5.92-0.05c-2.37-0.21-3.36-0.3-4.3,1.4l-0.19,0.36
	c-1.66,3.05-2.16,3.31-6.97,1.21c-0.71-0.31-1.36-0.61-1.94-0.88c-3.4-1.56-4.42-2.02-5.95-0.01l-0.16,0.19
	c-1.92,2.51-2.8,3.66,0.44,7.04c1.11,1.17,1.98,2.27,2.76,3.24c1.7,2.14,2.92,3.68,5.24,4.08c2.97,0.52,4.91,1.49,5.95,2.97
	c0.76,1.09,1,2.44,0.73,4c-0.1,0.56-0.21,1.08-0.3,1.54c-0.58,3.1-0.83,4.38,0.73,7.5c1.85,3.72,1.71,7.19-0.39,9.29
	c-2.1,2.1-4.56,0.03-6.53-1.65c-0.35-0.3-0.65-0.57-0.93-0.83c-1.62-1.5-2.9-2.68-5.83-1.46c-3.84,1.59-8.9,3.05-11.26,0.84
	c-1.5-1.39-5.18-2.83-7.19-1.94c-0.96,0.41-1.45,1.33-1.45,2.75c0,4.69-0.6,5.31-2.55,7.39c-0.45,0.47-0.97,1.01-1.57,1.7
	c-3.33,3.82-4.37,5.21-3.78,9.14c0.4,2.68,2.28,2.96,4.87,3.33c1.1,0.16,2.23,0.32,3.38,0.7c1.96,0.62,3.68,2.28,4.58,4.43
	c0.97,2.28,0.91,4.82-0.16,6.96c-1.33,2.67-0.75,6.79,0.52,9.5c0.7,1.48,1.56,2.48,2.32,2.64c2.62,0.62,6.96,1.65,6.96,7.98v1.04
	c-0.01,3.89-0.03,7.92,1.49,8.84c0.56,0.34,1.37,0.23,2.44-0.31c1.06-0.54,1.91-1.04,2.58-1.44c2.42-1.41,3.16-1.84,5.17,0.44
	c0.29,0.31,0.54,0.6,0.8,0.87c1.05,1.13,1.87,2.01,1.81,3.19c-0.05,1.02-0.82,2.15-2.49,3.63c-1.88,1.67-2.71,2.79-2.68,3.63
	c0.03,0.75,0.74,1.44,2.03,2.44c2.63,2,3.67,4.13,4.65,9.54c0.97,5.37,4.91,14.11,10.62,16.76c1.32,0.6,2.76,1.14,4.15,1.66
	c4.99,1.85,10.14,3.77,9.88,9.25c-0.29,6.14-1.43,14.35-1.59,15.53c1.61,0.23,3.1,0.96,4.46,2.63c2.07,2.53,3.64,4.41,5.29,5.37
	c1.61,0.93,3.33,1,5.77-0.04c0.09-0.04,0.17-0.08,0.26-0.12c2.37-1.08,4.3-3.06,5.37-5.4c1.06-2.33,1.27-5.03,0.19-7.57
	c-0.04-0.08-0.08-0.16-0.1-0.23c-0.73-1.58-1.56-2.84-2.28-3.95c-1.8-2.75-3.03-4.63-0.96-8.3c1.37-2.46,2.27-4.06,2.8-5.61
	c0.53-1.54,0.71-3.06,0.71-5.38c0-1.01-0.05-1.84-0.09-2.54c-0.18-2.73-0.25-3.76,2.94-6.18c1.85-1.41,2.76-2.57,2.94-4.07
	c0.19-1.54-0.36-3.49-1.43-6.47c-0.29-0.79-0.66-1.74-1.05-2.75c-2.5-6.38-6.22-15.89-2.83-24.3c1.94-4.83,3.75-8.62,5.66-11.28
	c1.96-2.72,4.04-4.28,6.56-4.6c4.33-0.56,5.52,0.82,7.22,2.76c0.26,0.29,0.52,0.58,0.83,0.92c1.02,1.1,2.09,1.68,3.43,1.96
	c1.37,0.29,3.05,0.25,5.28,0.09c1.02-0.06,2.02-0.23,2.98-0.39c3.28-0.53,6.04-0.99,8.18,2.41c0.41,0.65,0.83,1.26,1.22,1.83
	c2.14,3.12,3.59,5.26,1.28,10.14c-1.3,2.75-2.26,4.82-2.29,6.16c-0.03,1.18,0.76,1.8,2.92,1.87c1.76,0.06,2.84,0.38,3.67,0.64
	c1.36,0.4,2.03,0.61,4.48-1.18c2.05-1.5,3.8-2.53,5.57-2.97c1.79-0.44,3.6-0.29,5.77,0.6c2.01,0.82,3.41,1.09,4.55,0.64
	c1.15-0.45,2.11-1.63,3.23-3.73c0.34-0.61,0.44-0.83,0.56-1.02c1.85-3.41,2.66-4.91,0.62-6.43c-1.33-1-2.07-2.02-2.03-3.12
	c0.04-1.09,0.87-2.19,2.68-3.34c3.1-1.97,4.07-0.89,5.77,0.97c0.3,0.34,0.64,0.7,1.02,1.09c1.02,1.04,2.26,1.54,3.53,1.66
	c1.46,0.14,3.01-0.23,4.43-0.95c0.14-0.08,0.36-0.18,0.56-0.29c2.59-1.33,4.39-2.27,10.06,2.5c2.92,2.45,5.91,4.33,9.25,5.75
	c3.33,1.41,7.02,2.38,11.34,2.99l0.74,0.1c8.24,1.18,10.23,1.46,11.17,6.07c0.06,0.32,0.12,0.53,0.16,0.75
	c0.73,3.69,0.93,4.74,11.51,7.04c1.21,0.26,2.24,0.48,3.27,0.7c0.08,0.01,0.16,0.03,0.22,0.04
	C550.82,441.11,552.61,439.04,554.53,436.86"/>
<path class="st0" d="M160.31,496.82c0.93-6.69-1.65-21.76-2.63-26.52c-0.41-2.03,0.08-3.97,1.43-5.56c1.75-2.07,4.83-3.4,7.66-3.28
	c3.24,0.1,5.05-0.73,8.33-2.26c0.83-0.39,1.75-0.82,2.8-1.28c5.48-2.42,9.64-1.87,15.4-1.11c4.91,0.65,5.25-0.99,6.08-4.93
	c0.09-0.45,0.19-0.93,0.31-1.44c1.18-5.26,5.33-6.74,9.11-7.72c2.55-0.66,2.97-3.82,3.36-6.87c0.21-1.57,0.4-3.05,0.87-4.21
	c0.64-1.54,1.85-2.68,3.43-3.36c0.1-1.01,0.54-5.66,0.35-9.73c-0.12-2.07,0.41-3.56,1.56-4.42c1.49-1.13,3.95-1.1,7.34,0.08
	c2,0.69,3.86,0.44,5.42-0.71c1.96-1.46,3.18-4.29,3.05-7.02l-0.01-0.22c-0.22-4.52-0.29-5.88-4.98-8.53
	c-4.74-2.66-2.93-6.67-1.19-10.55c0.22-0.47,0.43-0.95,0.64-1.41c0.93-2.18,1.14-3.55,0.66-4.17c-0.45-0.57-1.59-0.7-3.5-0.4
	c-3.81,0.62-7.39,1.31-9.16,2.93c-1.72,1.58-3.28,1.23-6.09,0.58c-0.36-0.08-0.75-0.17-1.15-0.26c-2.55-0.54-6.22,0.39-9.16,1.14
	c-1.02,0.26-2,0.51-2.77,0.65l-0.26,0.05c-2.77,0.51-4.17,0.76-7.91-1.18c-3.36-1.75-3.55-1.74-5.87-1.74h-0.61
	c-3.21,0-4.46-2.53-5.64-5.6c-1.14-2.98-1.97-3.93-3.42-3.93c-1.59,0-3.58,0-3.58-3.73c0-0.36-0.08-0.61-0.25-0.75
	c-0.44-0.38-1.62-0.17-2.76,0.03c-1.74,0.31-3.72,0.66-5.05-0.44c-0.95-0.76-2.05-0.87-2.93-0.25c-0.89,0.62-1.54,2.02-0.95,3.77
	c0.34,0.99,0.29,1.8-0.16,2.41c-0.91,1.26-3.15,1.23-4.78,1.21h-0.47c-2.35,0-4.21,0.69-5.86,2.15c-1.3,1.14-3.31,0.57-5.43-0.05
	c-1.63-0.47-3.32-0.95-4.87-0.78c-4.15,0.43-4.63-2.06-5.16-6.86c-0.34-3.05-3.08-2.99-7.23-2.57c-1.22,0.12-2.37,0.25-3.4,0.19
	c-0.54-0.01-1.08-0.04-1.58-0.06c-3.07-0.17-5.29-0.29-7.72,1.24c-1.67,1.06-2.83,1.39-3.85,1.08c-1.1-0.32-2.03-1.43-2.99-3.56
	c-1.5-3.34-3.66-2.61-5.72-1.89l-0.47,0.17c-2.41,0.8-4.82,0.43-8.71-3.99c-0.78-0.89-1.56-1.28-2.35-1.18
	c-2.32,0.3-4.47,4.55-5.77,7.09c-0.17,0.32-0.32,0.64-0.47,0.91c-1.1,2.1-2.53,3.34-4.02,3.5c-1.3,0.13-2.53-0.53-3.68-1.96
	c-1.49-1.84-2.13-2.15-2.41-2.09c-0.45,0.1-0.82,1.54-0.93,2.01c-0.44,1.76-0.73,4.72-1.04,7.84c-0.18,1.8-0.36,3.66-0.58,5.44
	c-0.62,4.95,0.88,7.92,2.26,9.95c1.61,2.36,2.4,4.06-0.16,7.72c-1.41,2.05-3.49,4.69-5.9,7.75c-1.79,2.29-3.82,4.87-5.88,7.61
	c-4.39,5.81-4.15,14.18-4.11,15.2c1.31,0.04,2.59,0.48,3.81,1.56c1.39,1.21,2.07,2.44,2.68,3.55c1.06,1.91,1.88,3.38,6,3.33
	c5.82-0.06,6.29,0.78,8.04,3.97c0.31,0.57,0.67,1.22,1.1,1.93c1.54,2.57,3.76,6.99,5.72,10.89c1.59,3.18,3.01,6,3.73,7.17l0.19,0.3
	c1.39,2.28,2.16,3.54,6.65,1.5c2.53-1.14,4.33-1.83,5.99-1.79c1.7,0.04,3.2,0.82,5.09,2.63c1.84,1.76,3.05,3.02,3.78,4.29
	c0.76,1.28,1.05,2.57,1.05,4.33c0,0.91-0.14,1.94-0.29,2.97c-0.1,0.67-0.19,1.36-0.25,2.01c-0.16,1.88,0.08,3.43,1.92,3.59
	l0.54,0.04c3.53,0.27,4.48,0.35,5.88,4.77c0.29,0.92,0.49,1.71,0.69,2.41c0.7,2.58,1.04,3.85,3.8,5.37c2.73,1.52,2.86,2.84,2.1,4.21
	c-0.3,0.54-0.75,1.08-1.22,1.65l-0.09,0.1c-0.66,0.8-1.04,1.31-0.84,1.57c0.27,0.38,1.31,0.62,3.49,0.88
	c2.4,0.29,3.75,0.58,4.39,1.7c0.05,0.1,0.1,0.21,0.14,0.31c1.14-0.48,4.61-1.36,9.01,3.37c1.44,1.54,2.73,3.32,4.03,5.09
	C155.12,514.33,159.2,504.77,160.31,496.82"/>
<path class="st0" d="M339.13,521.81c-0.76-0.67-1.5-1.18-2.23-1.67c-1.74-1.19-3.24-2.23-3.94-4.87c-0.92-3.54-2.73-5.31-5.69-5.6
	c-3.31-0.31-5.15-2.05-5.33-5.02c-0.16-2.83-0.86-3.97-2.38-3.97c-0.39,0-0.8,0.08-1.24,0.16c-1,0.19-2.11,0.4-3.03-0.27
	c-0.82-0.61-1.32-1.85-1.54-3.81c-0.34-3.02-0.79-6.03-2.33-6.71c-1.01-0.44-2.57,0.08-4.64,1.57c-5.72,4.11-11.42,5.51-15.27,3.76
	c-3.77-1.71-5.51-4.5-5.82-9.32c-0.09-1.46,0.05-2.84,0.17-4.04c0.29-2.94,0.48-4.89-2.54-6c-0.92-0.34-1.88-0.62-2.8-0.89
	c-3.71-1.1-7.56-2.24-10.73-7.32c-2.31-3.69-4.86-6.13-7.32-8.48c-1.61-1.53-3.12-2.98-4.43-4.67c-3.38-4.35-5.74-6.73-9.23-7.61
	c-3.66-0.91-10.17-4.16-13.25-8.52c-2.63-3.75-7.37-8.17-12.04-9.62c-4.37-1.36-8.48-0.09-9.75,3.03c-0.43,1.06-0.62,2.49-0.82,4.02
	c-0.4,3.15-0.87,6.73-3.94,7.52c-4.55,1.18-7.57,2.79-8.55,7.14c-0.1,0.51-0.21,0.99-0.3,1.43c-0.82,3.93-1.31,6.29-6.95,5.55
	c-5.64-0.74-9.71-1.27-14.98,1.05c-1.05,0.47-1.97,0.89-2.79,1.28c-3.28,1.53-5.26,2.45-8.7,2.32c-2.55-0.06-5.44,1.14-7.02,3.01
	c-1.19,1.41-1.62,3.1-1.26,4.89c1.06,5.13,3.59,19.96,2.64,26.79c-1.14,8.15-5.31,17.9-18.61,18.47c3.21,4.41,6.57,8.75,12.2,9.69
	c1.01,0.17,1.85,0.3,2.64,0.41c6.47,1.01,8.79,1.37,10.64,6.79l0.08,0.22c1.89,5.52,2.24,6.55,6.92,7.13
	c1.71,0.22,3.29,0.84,4.35,1.72c0.66,0.56,1.14,1.22,1.32,1.96c0.19,0.75,0.09,1.57-0.38,2.42c-0.62,1.11-1.89,2.29-4.02,3.47
	c-2.41,1.32-3.94,2.51-4.76,3.56c-0.51,0.65-0.73,1.22-0.71,1.72c0.01,0.49,0.26,0.93,0.67,1.34c0.54,0.49,1.37,0.92,2.41,1.26
	c2.22,0.71,3.77,1.35,4.78,2.28c1.05,0.96,1.5,2.2,1.5,4.1c0,1.65,0.04,2.58,0.87,3.06c0.95,0.54,2.88,0.7,6.69,0.78
	c1.45,0.03,3.11,0.03,4.89,0.01c7.87-0.01,18.21-0.03,23.33,2.66l1.09,0.57c5.12,2.71,6.04,3.19,9.98,2.35
	c2.22-0.48,4.26-0.83,6.47-0.45c2.22,0.38,4.56,1.49,7.32,3.94c2.68,2.37,4.39,3.71,5.66,4.1c1.17,0.35,1.98-0.16,2.97-1.41
	c1.13-1.45,2.38-2.7,3.89-3.15c1.52-0.45,3.27-0.09,5.3,1.7c1.06,0.95,1.96,1.44,2.67,1.62c0.52,0.14,0.95,0.1,1.27-0.05
	c0.32-0.16,0.57-0.44,0.73-0.79c0.21-0.44,0.3-0.99,0.26-1.57c-0.05-0.82-0.78-1.63-1.54-2.5c-1.35-1.54-2.8-3.19-1.43-5.46
	c1.1-1.83,2.38-2.19,3.69-1.84c1.22,0.32,2.41,1.31,3.49,2.23h0.01c0.97,0.83,1.72,1.39,2.51,1.28c0.84-0.12,1.84-0.93,3.33-2.86
	c0.8-1.04,1.5-1.78,2.1-2.38c1.65-1.71,2.41-2.51,1.85-6.97c-0.26-2.14-0.17-3.98,0.31-5.26c0.3-0.79,0.73-1.39,1.32-1.72
	c0.6-0.35,1.32-0.43,2.19-0.18c1.14,0.32,2.54,1.23,4.21,2.85c5.7,5.56,6.49,5.47,9.09,5.18l0.09-0.01
	c1.44-0.17,2.68-0.16,3.94,0.29c1.26,0.45,2.51,1.34,3.94,2.93c0.47,0.51,0.96,0.92,1.45,1.22c0.87,0.53,1.79,0.74,2.7,0.64
	c0.91-0.12,1.83-0.56,2.7-1.34c0.62-0.56,1.21-1.28,1.75-2.18c1.05-1.72,2.15-3.07,3.18-3.81c0.58-0.43,1.14-0.66,1.67-0.69
	c0.57-0.01,1.09,0.21,1.52,0.71c0.39,0.44,0.71,1.1,0.93,2.02l0.21,0.82c0.83,3.4,0.93,3.82,4.48,4.51c2.11,0.4,3.29,1.02,3.95,1.92
	c0.66,0.89,0.75,2.01,0.66,3.41c-0.06,1.15,1.21,1.54,3.23,1.66c1.19,0.06,2.62,0.04,4.17,0.01c0.96-0.01,1.96-0.04,2.88-0.04
	c2.83,0,4.54-0.57,5.47-1.68c0.92-1.1,1.1-2.77,0.84-4.98c-0.34-2.81-1.21-10.81-1.78-17.51c-0.36-4.19-0.61-7.88-0.56-9.5
	c0.04-0.97,0.14-1.79,0.34-2.53c-0.03-0.05-0.06-0.09-0.06-0.16C342.36,534.8,341.62,524,339.13,521.81"/>
<g>
	<path class="st1" d="M322.04,296.1l-1.96,2.44h1.52l2.67-2.44H322.04z M321.91,313.4h-1.85v-6.03l-4.48-8.18h2.09l2,3.91
		c0.56,1.08,0.97,1.94,1.41,2.93h0.05c0.39-0.92,0.88-1.85,1.43-2.93l2.05-3.91h2.09l-4.77,8.15V313.4z M305.62,313.4h1.84v-5.42
		l1.35-1.56l4.68,6.97h2.16l-5.53-8.18l5.13-6.03h-2.27l-4.34,5.33c-0.36,0.47-0.74,0.97-1.11,1.52h-0.06v-6.84h-1.84V313.4z
		 M294.51,312.7c0.76,0.51,2.26,0.91,3.63,0.91c3.36,0,4.98-1.89,4.98-4.08c0-2.09-1.22-3.25-3.63-4.17
		c-1.96-0.76-2.83-1.41-2.83-2.75c0-0.97,0.74-2.13,2.68-2.13c1.28,0,2.23,0.43,2.7,0.67l0.51-1.49c-0.64-0.36-1.68-0.7-3.14-0.7
		c-2.76,0-4.6,1.65-4.6,3.86c0,2,1.44,3.2,3.76,4.02c1.92,0.74,2.67,1.5,2.67,2.83c0,1.44-1.09,2.42-2.97,2.42
		c-1.27,0-2.46-0.43-3.29-0.93L294.51,312.7z M292.22,305.22h-5.52v-4.5h5.83v-1.53h-7.66v14.21h7.98v-1.54h-6.16v-5.12h5.52V305.22
		z M279.45,298.37l2.16-2.4h-1.52l-1.32,1.48h-0.05l-1.35-1.48h-1.56l2.22,2.4H279.45z M282.19,311.48
		c-0.74,0.35-1.88,0.58-2.99,0.58c-3.46,0-5.46-2.23-5.46-5.7c0-3.73,2.22-5.86,5.55-5.86c1.18,0,2.16,0.25,2.86,0.58l0.44-1.49
		c-0.49-0.26-1.61-0.64-3.37-0.64c-4.41,0-7.43,3.01-7.43,7.47c0,4.65,3.02,7.18,7.02,7.18c1.72,0,3.07-0.34,3.75-0.67
		L282.19,311.48z M263.78,300.45c3.06,0,4.54,2.96,4.54,5.78c0,3.23-1.65,5.9-4.55,5.9c-2.89,0-4.54-2.72-4.54-5.75
		C259.23,303.27,260.75,300.45,263.78,300.45 M263.87,298.96c-3.8,0-6.6,2.96-6.6,7.47c0,4.29,2.63,7.21,6.39,7.21
		c3.62,0,6.6-2.59,6.6-7.49C270.26,301.93,267.75,298.96,263.87,298.96 M244.38,299.2v14.21h1.83v-6.66h6.87v6.66h1.85V299.2h-1.85
		v5.94h-6.87v-5.94H244.38z M239.34,313.4h1.83V299.2h-1.83V313.4z M234.45,308.55c0,2.79-0.97,3.51-2.62,3.51
		c-0.61,0-1.15-0.12-1.54-0.27l-0.27,1.5c0.47,0.18,1.28,0.34,1.96,0.34c2.45,0,4.3-1.17,4.3-4.94v-9.5h-1.83V308.55z"/>
</g>
</svg>
