<?xml version="1.0" encoding="utf-8"?>
<!-- Generator: Adobe Illustrator 26.2.1, SVG Export Plug-In . SVG Version: 6.00 Build 0)  -->
<svg version="1.1" id="Vrstva_1" xmlns="http://www.w3.org/2000/svg" xmlns:xlink="http://www.w3.org/1999/xlink" x="0px" y="0px"
	 viewBox="0 0 595.28 841.89" style="enable-background:new 0 0 595.28 841.89;" xml:space="preserve">
<style type="text/css">
	.st0{fill:#81B8D6;}
	.st1{fill:#C4E6F5;}
	.st2{fill:#FFFFFF;}
</style>
<path class="st0" d="M345.21,326.37c2.5,3.67,7.45,3.78,13.17,3.9c2.13,0.05,4.33,0.09,6.58,0.32c1.26,0.12,2.5,0.27,3.76,0.43
	c3.1,0.35,6.29,0.74,9.42,0.74c4.63,0,8.42-0.83,11.97-2.61c8.55-4.27,12.32-23.33,13.05-30.3c0.5-4.68-1.13-6.21-3.83-8.72
	c-1.72-1.61-3.87-3.62-6.05-7.06c-2.45-3.87-4.82-4.18-6.86-4.18c-0.41,0-0.8,0.02-1.19,0.04c-2.48,0.09-5.05,0.18-7.41-3.24
	c-2.55-3.71-6.51-4.49-9.38-4.49c-4.13,0-8.78,1.6-12.77,4.42c-2.23,0.98-4.22,1.68-5.98,2.29c-3.88,1.37-6.95,2.45-9.63,5.27
	c-3.9,4.1-9.33,12.16-7.32,16.37c1.51,3.17,1.67,5.44,1.9,8.87c0.11,1.54,0.21,3.3,0.48,5.5c0.5,4.2,2.7,5.87,5.27,7.8
	C342.05,322.94,343.77,324.26,345.21,326.37"/>
<path class="st1" d="M502.24,454.98c-0.14-1.84-0.23-3.48-0.3-4.98c-0.28-5.53-0.48-9.17-2.61-13.25c-0.39-0.76-0.8-1.51-1.22-2.29
	c-2.59-4.68-5.51-10-3.03-15.16c0.44-0.9,1.03-1.61,1.72-2.2c3.94-5.85,1.77-17.62-1.63-22.71c-3.44-5.18-2.73-15.89-1.13-21.86
	c0.71-2.61,0.43-5.14-0.76-7.11c-1.08-1.76-2.84-2.98-4.98-3.46c-2.23-0.48-4.02-1.28-6.12-2.18c-2.52-1.12-5.39-2.38-10-3.55
	c-4.06-1.01-6.44-2.89-6.56-5.18c-0.14-2.8,3.16-5.6,9.04-7.71c3.9-1.4,5.89-3.26,5.6-5.27c-0.35-2.55-4.26-4.95-8.53-5.25
	c-2.32-0.16-3.79-0.99-4.34-2.45c-1.6-4.13,4.93-11.31,6.97-13.42c6.31-6.53,9.79-7.38,18.44-6.95c5.04,0.27,5.66-0.71,6.9-2.68
	c0.71-1.13,1.61-2.57,3.53-4.18c5.12-4.31,8.19-7.13,6.63-10.82c-0.64-1.56-1.76-1.63-3.83-1.67c-2.07-0.02-4.65-0.05-6.88-2.66
	c-4.79-5.53,1.65-14.49,4.65-18.07c4.02-4.84,3.94-6.03,2-13.95c-1.05-4.36,1.21-9.15,3.6-14.24c2.16-4.57,4.4-9.29,4.88-14.56
	c0.78-8.48-2-11.56-5.23-15.14c-1.05-1.15-2.13-2.34-3.16-3.79c-0.67-0.94-1.26-1.81-1.81-2.61c-2.82-4.17-4.1-6.06-8.99-6.06
	c-1.76,0-2.93,0.39-3.87,0.71c-2.73,0.92-3.48,0.5-5.96-6.37c-2.39-6.61-4.59-6.21-7.64-5.64c-1.31,0.25-2.8,0.53-4.45,0.27
	c-5.48-0.89-8.19-2.98-14.56-11.24c-6.4-8.32-11.21-8.07-16.47-5.14c-6.6,3.65-10.9,0.16-14.24-3.74c-3.42-3.99-4.24-4.06-8.1-4.4
	l-0.87-0.07c-4.11-0.37-4.38-1.1-5.28-5.34c-0.2-0.87-0.41-1.9-0.71-3.14c-0.87-3.6-1.76-3.42-3.71-3.01
	c-1.47,0.32-3.28,0.69-5.55-0.44c-4.88-2.43-8.39-1.63-17.18,1.31c-4.63,1.54-7.04,0.41-8.26-0.8c-2.39-2.41-2.5-7.41-0.27-14.1
	c2.06-6.17,0.05-9.15-1.33-10.39c-1.77-1.58-4.22-1.88-5.57-1.24c-1.31,0.6-4.65,1.91-6.93,0.71c-1.03-0.53-1.65-1.49-1.88-2.82
	c-0.28-1.67-1.17-3.01-2.52-3.78c-1.58-0.9-3.65-0.9-5.87-0.04c-4.7,1.83-6.06-0.09-8.81-3.9c-0.35-0.5-0.73-1.03-1.15-1.6
	c-3.24-4.4-13.21-16.24-14.97-18.3c-0.51,0.27-1.03,0.53-1.54,0.87c-3.76,2.41-6.06,5.89-7.91,8.67c-0.44,0.67-0.87,1.31-1.28,1.9
	c-1.67,2.32-3.14,5.64-0.78,8.33c2.31,2.62,3.81,7.2,0.46,11.44c-0.83,1.05-1.12,2.06-0.85,3c0.6,2.2,3.85,3.6,4.84,3.97
	c3.48,1.31,6.06,4.22,6.44,7.23l0.04,0.34c0.18,1.42,0.34,2.75-0.57,3.74c-0.98,1.08-3,1.49-6.76,1.38
	c-2.23-0.05-3.62,0.3-4.15,1.05c-0.73,1.01,0.02,2.96,0.8,5.02c0.25,0.62,0.5,1.28,0.71,1.93c0.96,2.85,0.02,4.06-1.28,5.73
	c-0.9,1.17-2.02,2.62-2.98,5.23c-0.74,2.06-1.86,3.28-3.32,3.65c-2.7,0.69-6.05-1.65-10.27-5.35c-4.08-3.58-14.18-5.39-22.32-6.83
	c-2.13-0.39-4.15-0.74-5.83-1.1c-5.04-1.06-7.91,2.8-10.69,6.53c-1.49,1.99-2.87,3.87-4.57,5.05c-5.11,3.55-11.97,8.32-19.38,11.92
	c-5.53,2.7-5.87,4.42-6.54,7.85c-0.2,0.99-0.43,2.13-0.8,3.46c-1.47,5.18-3.32,13.09-3.74,14.91c1.99,1.08,3.55,2.7,4.43,4.4
	c0.53,1.06,0.89,1.91,1.21,2.75c0.8,1.97,1.47,3.65,4.56,7.34c1.7,2.02,4.61,3.46,7.7,4.96c4.79,2.36,9.73,4.79,11.06,9.86
	c1.38,5.21-1.84,7.04-4.43,8.49c-1.72,0.98-3.21,1.81-3.39,3.37c-0.16,1.37,0.18,2.52,1.01,3.42c1.31,1.42,3.6,1.99,5.32,1.91
	c2.41-0.09,6.61,0.25,7.64,3.56c0.89,2.91,3.94,15.53,4.57,22.59c0.34,3.74,3,6.99,5.35,9.82c1.95,2.36,3.78,4.59,4.18,6.88
	c0.87,5-0.39,8.17-4.45,11.33c-1.06,0.82-2.13,1.44-3.07,1.97c-2.5,1.42-4.15,2.36-3.72,6.03c0.64,5.44,0.89,7.71-2.38,15.53
	c-1.28,3.09-1.79,5.2-2.27,7.23c-0.43,1.76-0.82,3.37-1.65,5.37c2.64-0.12,11.05-0.87,14.97-5.64c1.29-1.58,2.2-2.96,3.01-4.18
	c2.18-3.33,3.51-5.35,9.08-5.35c2.85,0,4.86-2.34,6.63-4.42c1.52-1.77,2.84-3.33,4.47-3.17c1.22,0.11,2.36,1.13,3.56,3.21
	c5.05,8.62,7.06,11.53,12.66,11.38c1.83-0.05,3.97,0.16,6.03,0.35c4.57,0.46,9.33,0.94,10.92-1.58c2.25-3.56,6.4-12.45,7.23-14.24
	c-1.42-1.45-2.52-3.28-2.87-6.19c-0.27-2.23-0.37-4.01-0.48-5.55c-0.23-3.44-0.37-5.5-1.81-8.49c-2.23-4.72,3.28-13.09,7.52-17.55
	c2.87-3.01,6.21-4.18,10.07-5.55c1.81-0.64,3.69-1.29,5.8-2.22c4.08-2.87,8.95-4.56,13.28-4.56c4.5,0,8.05,1.72,10.28,4.96
	c1.6,2.32,3.23,2.8,5.32,2.8c0.37,0,0.76-0.02,1.15-0.04c2.89-0.09,5.98-0.14,9.01,4.66c2.11,3.32,4.2,5.27,5.89,6.84
	c2.73,2.57,4.72,4.42,4.17,9.61c-0.74,7.16-4.66,26.69-13.65,31.17c-3.71,1.86-7.66,2.71-12.45,2.71c-3.19,0-6.42-0.37-9.54-0.74
	c-1.26-0.16-2.5-0.3-3.76-0.43c-2.2-0.21-4.38-0.27-6.49-0.32c-6.03-0.12-11.22-0.23-14.04-4.36c-1.33-1.97-2.98-3.23-4.57-4.43
	c-0.69-0.51-1.37-1.01-1.99-1.58c-1.12,2.41-4.96,10.57-7.16,14.04c-1.95,3.1-7.02,2.59-11.93,2.09c-2.04-0.21-4.11-0.41-5.89-0.35
	c-6.26,0.21-8.56-3.28-13.64-11.93c-0.99-1.68-1.9-2.59-2.71-2.66c-1.06-0.09-2.23,1.24-3.55,2.78c-1.84,2.15-4.11,4.82-7.46,4.82
	c-4.98,0-6.05,1.61-8.17,4.86c-0.82,1.24-1.76,2.64-3.09,4.26c-4.56,5.57-14.29,6.03-16.28,6.08c-0.51,1.1-1.13,2.31-1.99,3.72
	c-3.79,6.37-11.24,7.32-14.82,7.78c-0.48,0.07-0.99,0.14-1.31,0.2c0.04,2.61-0.35,5.11-0.55,6.26c-0.85,4.77-0.34,5.55,2.23,6.74
	c1.63,0.76,2.93,1.17,3.88,0.73c0.83-0.39,1.47-1.45,1.93-3.24c0.6-2.23,1.93-3.83,3.74-4.47c2.13-0.74,4.79-0.11,7.29,1.74
	c4.38,3.23,5.16,3.48,8.78,0.64c2.07-1.61,3.88-2.25,5.51-1.93c1.6,0.32,2.96,1.52,4.2,3.69c2.02,3.56,5.87,7.27,10.76,11.95
	l1.22,1.17c2.91,2.8,4.22,4.95,4.24,6.95c0.02,1.77-0.9,3.42-3.17,5.69c-3.56,3.56-3.26,11.1-0.74,15.9
	c2.13,4.08,10.23,10.43,11.84,11.67c1.15-0.76,2.5-1.12,4.1-1.12c2.54,0,4.52-1.79,5.3-4.79c0.41-1.6,0.96-2.46,1.79-2.87
	c1.17-0.59,2.75-0.11,5.09,0.92c3.51,1.51,4.42,0.53,6.1-2.62c1.79-3.35,7.91-7.04,12.61-7.61c1.45-0.16,2.82-1.13,4.13-2.07
	c1.58-1.12,3.09-2.2,4.72-1.86c1.1,0.21,2.07,1.03,3.01,2.5c0.46,0.71,0.85,1.35,1.21,1.92c2.5,4.02,2.64,4.27,6.65,4.61
	c2.64,0.23,4.82,1.86,5.55,4.17c0.74,2.38-0.21,4.88-2.59,6.86c-5.73,4.75-2.94,10.2-0.78,13.03c1.88,2.45,3.39,3.58,4.63,3.42
	c1.13-0.12,2.27-1.38,3.37-3.74c1.72-3.72,3.67-7.93,6.84-9.01c1.52-0.51,3.17-0.28,5.02,0.69c2.75,1.45,4.47,1.45,6.6,1.45
	c2.32,0.04,4.89,0,9.47,1.7c5.18,1.93,8.37,4.59,9.26,7.68c0.62,2.15,0.07,4.45-1.6,6.63c-0.51,0.66-1.01,1.28-1.45,1.84
	c-2.98,3.71-4.33,5.41-1.35,8.46c4.11,4.24,8.03,5.48,12.7,4.01c5.35-1.68,8.58-2.52,13.03-0.18c1.77,0.92,3.79,0.04,6.12-1.01
	c2.66-1.17,5.69-2.52,8.81-1.01c2.89,1.38,4.17,4.06,5.32,6.42c1.12,2.32,2.09,4.33,4.29,4.66c1.76,0.27,6.1,0.44,11.14,0.64
	c8.9,0.35,19.97,0.8,24.33,2.02c0.78,0.21,1.56,0.43,2.34,0.64c5.37,1.45,10.48,2.85,12.43,6.29
	C500.15,469.78,502.74,461.73,502.24,454.98"/>
<path class="st1" d="M114.61,372.61c1.84,0.69,3.58,1.52,5.12,2.25c3.26,1.58,5.85,2.8,7.77,2.09c1.01-0.39,1.84-1.37,2.54-3
	c3.01-7.09,5.82-8.65,12.71-9.75c2.61-0.41,4.24-1.31,5.67-2.09c2.16-1.17,3.87-2.09,7.27-0.41c0.59,0.3,1.13,0.59,1.63,0.83
	c3.88,2.02,5.05,2.62,11.37,1.24c1.93-0.41,3.99-1.05,6.19-1.74c6.05-1.86,12.31-3.81,15.78-0.9c0.76,0.62,1.4,1.22,2,1.77
	c1.4,1.29,2.43,2.23,3.3,2.11c0.85-0.12,1.88-1.24,3.23-3.53c4.1-6.93,11.05-12.68,17.32-9.86c0.98,0.43,1.81,0.83,2.54,1.17
	c3.83,1.84,4.63,2.22,7.94-0.27c4.04-3.03,8.14-5.46,10.78-2.82c1.29,1.31,1.81,3.55,1.95,5.85c0.3-0.05,0.66-0.11,1.21-0.18
	c3.4-0.44,10.51-1.35,14.03-7.25c2.7-4.56,3.3-7.06,3.99-9.93c0.48-1.99,1.01-4.22,2.34-7.39c3.14-7.57,2.91-9.59,2.29-15
	c-0.51-4.38,1.7-5.64,4.27-7.09c0.94-0.53,1.93-1.1,2.93-1.88c3.74-2.91,4.84-5.69,4.04-10.28c-0.35-2-2.09-4.13-3.95-6.37
	c-2.45-2.98-5.21-6.35-5.59-10.43c-0.64-6.86-3.69-19.59-4.54-22.38c-0.82-2.61-4.45-2.87-6.56-2.78c-1.95,0.07-4.61-0.6-6.15-2.27
	c-1.06-1.15-1.51-2.59-1.31-4.27c0.25-2.13,2.13-3.17,3.94-4.2c2.62-1.47,5.09-2.87,3.94-7.27c-1.21-4.59-5.94-6.92-10.5-9.15
	c-3.19-1.58-6.21-3.05-8.05-5.27c-3.21-3.81-3.95-5.66-4.73-7.62c-0.32-0.82-0.66-1.65-1.17-2.64c-1.6-3.09-5.71-5.87-10.21-4.91
	l-0.89,0.18c-4.01,0.85-6.21,1.33-11.68-0.3c-5.48-1.61-6.53-1.49-10.11,1.38c-3.88,3.1-8.42,2.07-14.97-0.76l-0.82-0.35
	c-3.56-1.56-5.66-2.46-8.55-2.59h-0.02c-1.76-0.09-3.79,0.12-6.63,0.64c-3.39,0.62-5.96,1.45-8.46,2.23
	c-3.48,1.12-6.76,2.16-11.95,2.66c-8.6,0.82-9.08,1.61-10.34,7.62c-0.78,3.81-1.29,5.99-2.8,6.44c-1.15,0.34-2.57-0.46-4.89-2.78
	c-2.77-2.77-4.72-4.52-6.63-4.54c-1.29,0.04-2.71,0.92-4.45,2.84c-0.82,0.87-1.51,1.72-2.16,2.48c-3.19,3.78-5.3,6.26-10.75,4.01
	c-5.16-2.13-12.06-3.1-13.94-3.33c-1.1,4.33-4.79,9.13-8.39,13.85c-1.17,1.52-2.32,3.05-3.39,4.52c-1.52,2.13-3.28,4.33-5.05,6.53
	c-4.38,5.43-8.78,10.9-9.59,15.55c-0.34,1.9,0.07,4.42,0.5,7.02c0.21,1.35,0.44,2.73,0.57,4.08c0.48,5.04-0.37,9.49-7.54,10.18
	c-6.06,0.57-10.59,1.4-13.01,3.39c-2.34,1.91-2.71,5.04-0.59,10.27c2.22,5.43,4.08,9.11,6.26,12.34c2.16,3.21,4.68,5.96,8.23,9.49
	c5.16,5.16,8.3,5.64,11.61,6.14c1.19,0.16,2.41,0.35,3.76,0.74c2.93,0.85,5.89,2.85,7.71,6.26c1.44,2.71,2.16,6.31,1.52,10.9
	c-0.14,1.13-0.28,2.07-0.41,2.93c-1.08,7.36-1.37,9.29,4.47,13.58l0.8,0.59c5.73,4.2,8.87,6.53,9.22,13.07
	C99.08,373.2,107.72,370,114.61,372.61"/>
<path class="st1" d="M428.07,671c2.84-3.74,5.6-7.29,8.07-10.43c3.28-4.17,6.12-7.78,8.03-10.55c3.16-4.54,2.2-6.42,0.21-9.34
	c-1.84-2.71-4.18-7.15-3.28-14.36c0.32-2.43,0.57-4.96,0.8-7.41c0.43-4.33,0.83-8.4,1.45-10.89c0.5-2.02,1.03-3.3,2.09-3.55
	c1.06-0.25,2.29,0.67,4.36,3.23c1.33,1.65,2.71,2.41,4.1,2.29c1.67-0.18,3.32-1.67,4.65-4.22c0.2-0.35,0.41-0.78,0.64-1.22
	c1.99-3.9,4.98-9.81,8.71-10.27c0.66-0.09,1.29,0.02,1.92,0.28c1.12-2.04,6.19-11.26,8.81-15.75c2.45-4.2,1.99-6.14,0.78-11.31
	c-0.2-0.82-0.41-1.72-0.64-2.71c-1.65-7.5-0.82-8.48,2.64-11.05c2.98-2.2,3.09-3.33,0.8-8.01c-1.79-3.69-0.34-5.28,1.84-7.71
	c0.94-1.01,1.99-2.18,3.07-3.76c2.2-3.21,1.9-4.45,1.28-6.95c-0.39-1.52-0.87-3.44-0.94-6.4c-0.16-5.94,3.74-8.62,6.88-10.78
	c1.13-0.78,2.22-1.52,2.89-2.31c2.22-2.59,6.22-8.85,5.6-14.11c-0.66-5.43-2.91-14.86-4.22-19.31c-1.13-3.83-6.53-5.28-12.23-6.83
	c-0.78-0.21-1.56-0.43-2.34-0.64c-4.24-1.19-15.25-1.63-24.08-1.99c-5.07-0.2-9.45-0.37-11.26-0.66c-2.77-0.43-3.9-2.77-5.11-5.27
	c-1.12-2.31-2.27-4.68-4.81-5.9c-2.68-1.29-5.34-0.11-7.91,1.03c-2.48,1.1-4.82,2.15-7.06,0.98c-4.08-2.15-6.99-1.38-12.2,0.25
	c-5.11,1.6-9.36,0.28-13.81-4.27c-3.63-3.74-1.68-6.19,1.28-9.89c0.46-0.57,0.94-1.19,1.45-1.84c1.47-1.91,1.95-3.83,1.42-5.66
	c-0.8-2.75-3.76-5.16-8.6-6.97c-4.4-1.63-6.88-1.63-9.1-1.63c-2.2,0.02-4.11,0-7.09-1.58c-1.58-0.83-2.94-1.03-4.18-0.62
	c-2.73,0.92-4.57,4.91-6.21,8.42c-1.28,2.77-2.66,4.2-4.22,4.38c-1.67,0.2-3.44-1.05-5.6-3.85c-4.1-5.34-3.76-10.64,0.94-14.52
	c2.04-1.68,2.85-3.78,2.25-5.71c-0.6-1.88-2.39-3.21-4.61-3.4c-4.54-0.39-4.93-1.03-7.48-5.12c-0.34-0.57-0.74-1.19-1.19-1.91
	c-0.78-1.21-1.52-1.86-2.32-2.02c-1.17-0.23-2.48,0.71-3.88,1.7c-1.35,0.96-2.89,2.06-4.63,2.27c-4.33,0.51-10.16,3.99-11.77,7.02
	c-1.67,3.12-3.07,5.02-7.48,3.1c-1.95-0.83-3.4-1.31-4.18-0.94c-0.53,0.27-0.9,0.92-1.22,2.18c-0.89,3.46-3.32,5.6-6.35,5.6
	c-2.89,0-4.77,1.29-6.31,4.36c-0.6,1.22-1.24,2.06-1.86,2.85c-1.24,1.61-2.52,3.26-3.71,8.37c-0.8,3.46-2.62,6.22-4.38,8.88
	c-2.22,3.35-4.13,6.26-3.56,9.88c0.85,5.39,7.22,14.33,11.01,19.68c0.92,1.28,1.7,2.38,2.27,3.21c1.51,2.29,2.04,4.79,1.51,7.23
	c-0.69,3.14-3.1,6.08-6.99,8.48c-4.61,2.85-4.27,5.53-3.81,9.24c0.25,2.04,0.53,4.34,0.04,7.04c-1.4,7.7-10.48,10.11-20.05,11.58
	c-7.87,1.21-17.2,2.77-19.36,3.14c0.07,0.89-0.11,2.07-0.55,3.69c-0.12,0.48-0.25,0.96-0.37,1.38c-1.22,4.27-1.29,4.54,5.98,11.61
	c3.4,3.3,7.13,5.3,10.25,6.99c4.45,2.38,7.71,4.13,7.39,8.12c-0.07,0.8-0.16,1.6-0.23,2.29c-0.41,4.08-0.48,4.86,2.85,8.37
	l0.89,0.94c3.78,3.97,7.75,8.14,10.71,12.59c1.58,2.36,3.1,4.18,4.59,5.73c1.49,1.52,2.96,2.75,4.43,3.92
	c0.37,0.3,0.8,0.6,1.22,0.92c3.05,2.23,6.7,4.93,4.31,9.52c-2.25,4.33-1.1,5.55,1.84,8.67l0.51,0.53c0.73,0.78,1.33,1.6,1.93,2.41
	c2.25,3.07,4.47,6.12,13.6,5.71c1.81-0.07,3.39-0.18,4.75-0.27c7.48-0.44,8.9-0.53,15.46,3.85c3.69,2.46,9.36,6.61,14.89,10.83
	c5.89,4.49,11.61,9.04,14.63,11.68c5.73,5,6.06,8.28,6.67,14.08l0.07,0.74c0.09,0.96,0.18,1.83,0.25,2.59
	c0.34,3.67,0.41,4.36,2.15,7.75l0.14,0.3c2.13,4.13,3,5.82-0.76,9.47c-1.74,1.68-3.01,3.16-3.16,4.59
	c-0.14,1.38,0.82,2.84,3.55,4.57c2.94,1.88,7.43,4.5,11.67,6.84c4.11,2.29,7.98,4.33,10,5.21c1.95,0.85,3.62,0.96,5.41,0.5
	c1.83-0.48,3.85-1.56,6.47-3.03c0.43-0.25,0.9-0.51,1.38-0.78c3.05-1.76,6.31-3.6,9.5-3.88C422.15,690.88,421.79,679.32,428.07,671"
	/>
<path class="st1" d="M288.15,509.14c0.46-2.54,0.2-4.75-0.05-6.72c-0.46-3.79-0.87-7.06,4.33-10.28c3.63-2.25,5.87-4.95,6.49-7.78
	c0.48-2.16,0-4.38-1.35-6.4c-0.57-0.83-1.33-1.93-2.25-3.21c-4.1-5.76-10.32-14.49-11.19-20.12c-0.64-4.03,1.49-7.23,3.72-10.64
	c1.7-2.59,3.48-5.27,4.24-8.55c1.24-5.32,2.59-7.07,3.9-8.78c0.6-0.8,1.19-1.54,1.76-2.68c0.67-1.35,1.42-2.38,2.29-3.16
	c-2.11-1.63-9.75-7.7-11.92-11.84c-2.68-5.12-3.09-13.14,0.94-17.16c2.04-2.04,2.87-3.48,2.85-4.93c-0.02-1.68-1.22-3.6-3.9-6.17
	l-1.22-1.17c-4.95-4.75-8.87-8.51-10.96-12.2c-1.06-1.88-2.2-2.91-3.46-3.17c-1.31-0.25-2.84,0.32-4.65,1.74
	c-4.11,3.23-5.39,2.84-10.09-0.62c-2.22-1.65-4.5-2.22-6.29-1.6c-1.47,0.53-2.54,1.81-3.03,3.72c-0.57,2.13-1.4,3.4-2.54,3.94
	c-1.49,0.69-3.26,0-4.79-0.71c-3.42-1.6-3.69-3.19-2.85-7.91c0.82-4.56,0.94-10.18-1.12-12.23c-1.67-1.67-4.38-0.83-9.38,2.91
	c-3.83,2.87-5.14,2.25-9.04,0.37c-0.73-0.34-1.56-0.73-2.52-1.17c-5.67-2.54-12.11,2.91-15.96,9.43c-1.58,2.7-2.75,3.87-3.99,4.04
	c-1.4,0.2-2.57-0.89-4.2-2.38c-0.59-0.53-1.22-1.13-1.95-1.74c-3.03-2.54-9.01-0.67-14.77,1.12c-2.13,0.66-4.31,1.33-6.29,1.76
	c-6.67,1.45-8.14,0.69-12.09-1.33c-0.48-0.27-1.03-0.53-1.61-0.83c-2.89-1.45-4.17-0.76-6.26,0.39c-1.44,0.78-3.23,1.76-6.03,2.2
	c-6.67,1.06-9.03,2.39-11.88,9.11c-0.82,1.91-1.84,3.09-3.16,3.58c-2.34,0.87-5.11-0.44-8.62-2.13c-1.58-0.74-3.23-1.52-5.04-2.22
	c-6.86-2.59-15.98,1.06-17.61,1.77c0.02,0.41,0,0.83,0,1.28c-0.07,1.49-0.16,2.91-0.27,4.29c-0.48,6.61-0.9,12.39,4.56,17.61
	c3.39,3.21,6.14,5.5,8.55,7.06c2.38,1.54,4.42,2.36,6.37,2.68c2.2,0.34,3.42,1.13,4.13,2.71c0.66,1.47,0.83,3.62,0.94,6.76
	c0.04,0.89,0.05,1.95,0.07,3.1c0.16,6.61,0.39,16.45,2.39,19.31c0.46,0.67,0.92,1.24,1.35,1.77c1.93,2.32,3.16,3.81,0.8,8.78
	c-1.33,2.84-1.99,4.45-1.88,5.62c0.11,1.08,0.96,1.88,2.59,3.12c1.68,1.29,3.51,2.07,5.18,2.32c1.63,0.25,3.1-0.02,4.22-0.83
	c1.31-0.98,2.68-1.47,4.42-1.13c1.65,0.32,3.63,1.42,6.24,3.58c0.41,0.35,0.89,0.74,1.37,1.15c4.73,3.88,9.59,7.91,12.45,14.18
	c1.33,2.96,2.94,5.6,4.42,8.01c1.91,3.12,3.58,5.87,4.2,8.51c0.5,2.16,1.31,3.85,2.7,4.82c1.38,0.99,3.35,1.29,6.17,0.74l0.67-0.14
	c5.48-1.08,6.06-1.19,13.35,3.49c3.65,2.34,6.37,3.74,8.49,3.85c2,0.09,3.55-1.05,4.93-3.76c1.54-3.05,3.16-5.2,5.64-5.76
	c2.45-0.55,5.66,0.51,10.34,3.88c3.9,2.82,7.55,6.49,10.87,9.82c4.42,4.42,8.23,8.25,11.17,8.65c0.43,0.05,0.99,0.12,1.49,0.18
	c1.17,0.14,2.13,0.27,2.91,0.48c1.05,0.28,1.74,0.71,2.09,1.45c1.91-0.32,11.45-1.93,19.47-3.16
	C278.19,518.43,286.88,516.16,288.15,509.14"/>
<g>
	<path class="st2" d="M301.88,325.36l-2.7,3.33h2.09l3.65-3.33H301.88z M301.7,349.03h-2.54v-8.24l-6.15-11.19h2.85l2.75,5.35
		c0.74,1.47,1.33,2.66,1.93,4.01h0.05c0.55-1.26,1.21-2.54,1.97-4.01l2.78-5.35h2.85l-6.51,11.15V349.03z M279.41,349.03h2.5v-7.41
		l1.84-2.15l6.4,9.56h2.98l-7.59-11.19l7.04-8.24h-3.12l-5.94,7.29c-0.48,0.64-0.99,1.33-1.52,2.07h-0.09v-9.36h-2.5V349.03z
		 M264.21,348.07c1.03,0.69,3.09,1.24,4.96,1.24c4.57,0,6.79-2.59,6.79-5.6c0-2.85-1.67-4.43-4.95-5.71
		c-2.7-1.03-3.87-1.91-3.87-3.74c0-1.33,1.01-2.91,3.65-2.91c1.77,0,3.07,0.57,3.69,0.92l0.69-2.06c-0.85-0.48-2.31-0.94-4.29-0.94
		c-3.78,0-6.28,2.25-6.28,5.27c0,2.75,1.95,4.38,5.12,5.51c2.62,1.01,3.67,2.04,3.67,3.87c0,1.95-1.51,3.32-4.08,3.32
		c-1.72,0-3.37-0.59-4.49-1.28L264.21,348.07z M251.43,328.41c0.07-0.78,0.3-1.28,0.76-1.28c0.41,0,0.8,0.27,1.35,0.55
		c0.64,0.32,1.15,0.55,1.76,0.55c1.33,0,1.97-0.98,1.93-2.8h-1.31c-0.09,0.92-0.35,1.13-0.78,1.13c-0.46,0-0.92-0.27-1.38-0.51
		c-0.62-0.32-1.08-0.59-1.7-0.59c-1.28,0-2.02,1.19-1.97,2.94H251.43z M248.59,349.03v-8.32c0-3.23-0.07-5.57-0.21-8.01l0.09-0.02
		c0.98,2.09,2.27,4.33,3.63,6.49l6.17,9.86h2.54V329.6h-2.36v8.12c0,3.03,0.05,5.39,0.28,8l-0.05,0.02
		c-0.92-1.99-2.06-4.02-3.49-6.31l-6.22-9.82h-2.75v19.43H248.59z M242.1,337.84h-7.55v-6.15h7.98v-2.09h-10.5v19.43h10.92v-2.11
		h-8.4v-7h7.55V337.84z M214.76,349.03h14.18v-2.11h-10.87v-0.09l10.73-15.71v-1.52h-13.12v2.09h9.86v0.09l-10.78,15.78V349.03z
		 M202.47,349.03h10.82v-2.11h-8.3V329.6h-2.52V349.03z M189.66,331.64c0.43-0.11,1.26-0.2,2.36-0.2c2.77,0,4.59,1.24,4.59,3.79
		c0,2.7-1.86,4.17-4.88,4.17c-0.83,0-1.52-0.07-2.07-0.21V331.64z M187.14,349.03h2.52v-7.78c0.57,0.14,1.26,0.16,2,0.16
		c2.46,0,4.63-0.71,5.94-2.13c0.99-1.01,1.51-2.39,1.51-4.15c0-1.74-0.64-3.14-1.7-4.06c-1.15-1.05-2.96-1.63-5.44-1.63
		c-2.02,0-3.62,0.18-4.82,0.39V349.03z"/>
</g>
</svg>
