<?xml version="1.0" encoding="utf-8"?>
<!-- Generator: Adobe Illustrator 26.2.1, SVG Export Plug-In . SVG Version: 6.00 Build 0)  -->
<svg version="1.1" id="Vrstva_1" xmlns="http://www.w3.org/2000/svg" xmlns:xlink="http://www.w3.org/1999/xlink" x="0px" y="0px"
	 viewBox="0 0 595.28 841.89" style="enable-background:new 0 0 595.28 841.89;" xml:space="preserve">
<style type="text/css">
	.st0{fill:#3379BE;}
	.st1{fill:#C4E6F5;}
	.st2{fill:#FFFFFF;}
</style>
<path class="st0" d="M279.11,213.48c-2.87,1.83-6.01,2.61-8.79,3.28c-3.32,0.81-6.17,1.51-8.05,3.7
	c-3.26,3.84-5.07,10.76-5.07,19.49c0,3.43-0.58,5.45-1.93,6.75c-1.98,1.9-5.6,2.1-12.44,1.8c-4.14-0.17-7.08,0.58-8.49,2.19
	c-0.97,1.09-0.96,2.24-0.93,2.59c2.16,1.78,3.37,4.4,4.43,6.7c0.33,0.71,0.64,1.4,0.98,2.04c2.45,4.72,0.94,7.76-2.27,11.11
	c-2.2,2.31-2.46,4.36-2.86,7.47c-0.21,1.57-0.43,3.34-0.96,5.52c-1.07,4.4,1.1,6.74,3.41,9.2c0.81,0.86,1.64,1.77,2.35,2.78
	c1.06-1.09,4.49-4.36,7.68-4.36c0.03,0,0.05,0,0.09,0.01c1.24,0.01,2.31,0.55,3.16,1.57c2.54,3.08,6.68,5.08,8.67,4.19
	c1-0.43,1.38-1.59,1.11-3.41c-0.54-3.93,0.04-6.72,1.69-8.1c1.23-1.02,3-1.19,5.11-0.48c4.67,1.56,7.01,1.35,12.62-0.17
	c5.06-1.36,14.74-2.73,18.84,0.88c1.06,0.92,2.08,2.31,3.26,3.93c3.13,4.27,7.02,9.59,14.03,9.59c8.33,0,16.58,0.14,18.88,0.18
	c-0.69-1.86-0.35-5.28-0.01-8.62c0.17-1.7,0.33-3.3,0.33-4.52c0-1.85-0.8-2.92-1.51-3.87c-0.71-0.94-1.38-1.85-0.98-3.21
	c0.55-1.89,0.21-3.81-0.42-7.31c-0.14-0.79-0.3-1.66-0.46-2.62c-0.14-0.9-0.26-1.68-0.35-2.36c-0.45-3.11-0.56-3.94-3.04-6.11
	c-3.67-3.21-0.71-7.76,1.83-10.89c2.75-3.38,5.02-3.14,8.16-2.82c0.52,0.07,1.07,0.12,1.65,0.16c3.68,0.29,5.49-3.47,7.36-8.05
	c1.32-3.28-0.86-4.47-3.89-6.11c-0.54-0.29-1.1-0.6-1.66-0.93c-3.18-1.85-3.05-4.6-2.88-8.4c0.05-0.98,0.1-2.1,0.1-3.3
	c0-3.76-0.88-4.23-2.79-5.29c-0.89-0.48-1.99-1.09-3.26-2.15c-3.29-2.79-2-4.35,0.12-6.96c0.71-0.86,1.51-1.83,2.32-3.05
	c2.65-3.98,1.32-9.03,0.84-10.52c-2.54,1.59-6.13,2.45-9.37,3.22c-1.32,0.31-2.58,0.6-3.64,0.93c-2.69,0.81-5.71,1.59-8.16,1.59
	c-1.66,0-3.07-0.37-3.92-1.31c-1.98-2.21-2.87-3.68-2.45-7.52c0.1-1.05-0.09-1.82-0.59-2.4c-0.93-1.02-2.76-1.15-4.27-1.15h-1.04
	c-3.09,0.01-9.4,0.03-12.66-0.28C288.49,191,284.93,209.74,279.11,213.48"/>
<path class="st0" d="M334.94,205.95c-0.84,1.24-1.65,2.24-2.36,3.12c-2.12,2.59-2.92,3.56-0.22,5.83c1.21,1.02,2.27,1.61,3.12,2.07
	c2,1.1,3.21,1.76,3.21,5.99c0,1.22-0.05,2.36-0.09,3.35c-0.18,3.77-0.29,6.05,2.48,7.67c0.56,0.33,1.11,0.62,1.64,0.9
	c3.14,1.7,5.86,3.17,4.26,7.12c-1.53,3.75-3.63,8.9-8.16,8.54c-0.59-0.04-1.15-0.1-1.68-0.16c-3.11-0.33-4.98-0.52-7.46,2.53
	c-3.77,4.64-4.36,7.65-1.93,9.78c2.7,2.37,2.84,3.43,3.3,6.6c0.09,0.67,0.2,1.43,0.35,2.33c0.16,0.96,0.31,1.82,0.46,2.62
	c0.62,3.49,1,5.6,0.39,7.67c-0.29,0.98,0.2,1.62,0.85,2.52c0.75,1,1.66,2.23,1.66,4.35c0,1.24-0.16,2.87-0.33,4.59
	c-0.35,3.46-0.75,7.36,0.18,8.74c1.05,1.53,5.48,1.57,9.78,1.62c1.3,0.01,2.61,0.03,3.85,0.08c5.86,0.24,8.01-1.65,9.42-4.56
	c1.6-3.28,1.02-10.27,0.37-13.29c-0.29-1.27,0.05-2.45,0.96-3.41c1.39-1.48,3.96-2.19,6.54-1.77c1.36,0.21,2.58-0.22,3.75-0.64
	c2-0.71,4.09-1.44,5.73,2.28l0.04,0.1c2.28,5.16,3.33,7.52,9.25,6.71c1.87-0.25,3.54-0.39,4.99-0.51c3.37-0.29,5.58-0.47,6.58-1.77
	c1.66-2.16,3.79-3.13,6.45-2.97c1.52,0.1,3.83-0.28,5.35-1.64c0.98-0.89,1.52-2.07,1.6-3.54c0.05-1.09,0.01-2.53-0.04-4.08
	c-0.17-5.2-0.37-11.68,2.96-12.2c0.45-0.08,0.88-0.14,1.28-0.2c3.18-0.48,5.49-0.83,7.06-3.32c0.47-0.75,0.94-1.82,1.45-2.97
	c1.48-3.41,3.34-7.64,6.75-6.67c3.89,1.1,5.46,0.1,8.33-1.72l0.2-0.12c2.91-1.83,4.01-5.01,2.61-7.53c-1.43-2.57-3.2-6.36-2.07-9.5
	c0.51-1.4,1.91-1.85,3.42-2.33c1.87-0.6,3.83-1.23,4.56-3.75c0.34-1.14,0.69-2.14,1.01-3.01c1.01-2.83,1.56-4.4,0.09-6.26
	c-0.54-0.67-1.15-1.26-1.81-1.87c-1.89-1.8-3.84-3.66-3.52-7.5c0.38-4.82,0.25-5.57-0.84-8.53c-0.22-0.56-0.47-1.11-0.73-1.7
	c-1.05-2.33-2.25-4.98-0.68-9.23c0.6-1.65,1.19-2.86,1.66-3.84c1-2.06,1.45-3,0.76-4.98c-0.34-0.96-0.71-1.52-1.11-1.69
	c-0.59-0.25-1.47,0.16-2.67,0.72c-0.29,0.13-0.59,0.28-0.92,0.42c-1.11,0.5-2.25,0.47-3.29-0.09c-1.44-0.76-2.58-2.46-2.91-4.35
	c-0.24-1.34-0.94-2.32-1.76-3.46c-0.71-0.98-1.51-2.1-2.07-3.6c-1.15-3.08-3.55-4.98-6.28-4.98c-3.08,0-6.25,0-7.19-3.11
	c-0.22-0.69-0.33-1.28-0.42-1.81c-0.28-1.61-0.39-2.28-3.12-2.78c-1.18-0.21-2.25-0.25-3.2-0.28c-2.15-0.08-4.01-0.14-5.6-2.31
	c-2.1-2.88-3.16-3.51-5.67-3.37c-2.35,0.14-6.43,0.56-7.52,0.68c-0.71,2.15-3.17,3.63-6.32,5.5c-1.04,0.62-2.1,1.24-3.22,1.98
	c-4.23,2.74-4.35,4.52-4.53,6.98c-0.04,0.67-0.09,1.36-0.22,2.14l-0.03,0.16c-0.66,3.76-1.13,4.84-8.32,7.13
	c-7.08,2.27-7.72,4.49-8.5,9.33c-0.66,4.09-3.35,3.96-6.77,3.77c-1.02-0.05-2.18-0.1-3.39-0.08c-3.45,0.1-5.39,2.99-7.25,5.79
	c-0.94,1.42-1.83,2.74-2.92,3.73c-0.21,0.21-0.47,0.39-0.72,0.58C336.25,195.81,337.97,201.42,334.94,205.95"/>
<path class="st0" d="M546.13,392.31c-0.73-0.63-1.24-1.68-1.69-3.47c-0.86-3.45-2.36-3.76-7.95-4.39c-0.68-0.08-1.27-0.13-1.8-0.18
	c-4-0.34-4.6-0.62-9.62-7.67c-3.51-4.95-7.55-6.25-11.1-7.39c-2.23-0.72-4.34-1.4-6.07-2.88c-2.23-1.9-3.21-4.14-2.97-6.75
	c-2.79,1.38-13.65,7.01-14.83,11.86c-1.22,5.01-3.66,4.87-6.22,4.73c-0.6-0.03-1.21-0.07-1.82-0.04c-2.99,0.14-5.43,2.57-5.43,5.4
	c0,1.93-2.27,3.01-4.69,4.15c-1.8,0.86-3.66,1.76-4.64,2.99c-2.12,2.7-8.99,3.39-12.68,3.76c-0.56,0.07-1.04,0.1-1.36,0.16
	c-2.28,0.3-6.42,3.3-9.91,8.44c-0.43,0.64-0.81,1.22-1.15,1.76c-2.59,3.93-3.38,5.12-8.29,4.69c-1.19-0.1-2.35-0.35-3.46-0.58
	c-3.91-0.83-6.98-1.47-9.3,4.09c-1.24,3.01-4.51,10.06-7.71,10.54c-0.79,0.12-1.49-0.18-2.06-0.88c-1.95-2.37-3.26-2.08-5.88-1.49
	l-0.51,0.12c-1.8,0.39-3.66,0.81-5.03-0.14c-0.89-0.62-1.44-1.72-1.66-3.38c-0.31-2.25-1.22-4.81-2.8-5.2
	c-1.4-0.35-3.28,1.02-5.41,3.97c-6.54,9.09-7.55,15.31-3.17,19.54c2.14,2.08,5.27,4.53,8.28,6.91c4.42,3.45,8.58,6.71,10.26,9.13
	c1.01,1.47,3.28,1.82,5.67,2.2c3.92,0.6,8.37,1.3,9.28,6.89c0.18,1.17,0.34,2.31,0.51,3.42c1.07,7.38,1.93,13.22,6.68,14.11
	c1.56,0.3,3.25,0.47,5.03,0.64c4.77,0.47,9.71,0.96,11.98,4.06c2.53,3.46,12.3,8.87,14.78,10.19c0.13-2.88,2.74-5.57,5.91-8.52
	c3.41-3.17,3.33-5.71,3.21-10.33c-0.04-1.34-0.09-2.84-0.05-4.59c0.05-2.63,0.86-4.35,2.41-5.11c2.63-1.28,6.72,0.58,9.67,2.76
	c1.83,1.36,2.8,1.87,3.35,1.81c0.33-0.05,0.58-0.38,1.02-1c0.21-0.28,0.43-0.58,0.72-0.92c1.66-1.97,6.54-5.37,10.27-4.35
	c3.47,0.94,5.12,0.21,6.09-2.73l0.18-0.55c1.02-3.14,1.98-6.12,10.59-5.2c6.62,0.71,7.36-4.22,8.37-11.03
	c0.26-1.72,0.52-3.47,0.9-5.25c1.57-7.34,10.12-9.68,13.46-10.33c-1.72-0.85-3.05-1.9-3.72-3.38c-2.08-4.67,0.39-7.99,2.57-10.94
	c0.71-0.94,1.38-1.85,1.83-2.73l0.43-0.81c1.6-3.05,2.48-4.73,2.35-8.23C538.81,396.69,544.3,393.33,546.13,392.31"/>
<path class="st1" d="M277.67,389.89c1.34-0.31,2.84-0.67,4.48-1.47c1.9-0.92,3.68-1.55,5.4-2.15c2.67-0.94,4.99-1.76,7.05-3.45
	c9.8-8.01,16.73-10.43,20.65-7.22c1.89-0.58,4.26-0.42,6.36-0.28c0.43,0.04,0.84,0.07,1.24,0.1c3.63,0.29,5.82,0.47,8.94-2.65
	c3.32-3.32,2.83-5.2-0.84-10.94c-0.96-1.52-1.19-2.92-0.68-4.18c1.17-2.88,5.88-4.35,10.81-5.52c0.66-0.14,1.27-0.3,1.85-0.45
	c0.18-0.04,0.35-0.09,0.54-0.13c-0.79-1.7-3.84-8.06-6.87-10.42c-1.43-1.13-2.19-2.15-2.87-3.07c-1.05-1.42-1.87-2.53-4.84-3.46
	c-0.56-0.17-1.09-0.33-1.56-0.47c-3.68-1.11-4.8-1.44-6.81-5.2c-2.06-3.81-6.2-6.05-11.45-8.9l-0.62-0.34
	c-4.74-2.58-8.52-1.53-11.83-0.6c-0.41,0.12-0.8,0.22-1.19,0.33c-3.09,0.81-4.69,0.37-7.88-0.51c-0.64-0.17-1.38-0.37-2.19-0.59
	c-4.76-1.22-5.71-0.79-10.68,2c-1.21,0.68-2.16,1.36-3.08,2.02c-2.83,2.04-5.07,3.64-12.19,3.04c-7.02-0.59-8.58,0.76-11.41,3.22
	c-0.81,0.69-1.73,1.49-2.9,2.35c-0.9,0.66-1.97,1.38-3.09,2.14c-5.08,3.42-12.06,8.11-11.32,12.51c0.29,1.73,0.66,2.94,0.96,3.91
	c0.68,2.24,1.06,3.49-0.51,7.29c-2.11,5.12-0.66,6.64,4.4,10.01c5.25,3.5,5.46,3.75,7.21,8.5c0.37,1,0.63,1.95,0.88,2.8
	c0.51,1.86,0.93,3.33,1.95,3.91c0.71,0.39,1.78,0.37,3.26-0.07c4.48-1.32,8.69-2.37,10.93-0.73c0.94,0.68,1.44,1.8,1.48,3.3
	c0.08,2.38,1.07,4.06,2.14,5.84c1.31,2.2,2.67,4.49,2.41,8.29c-0.24,3.47,0.26,5.84,1.48,7.02c0.72,0.69,1.7,0.98,2.94,0.85
	c1.18-0.12,1.18-1.98,1.01-5.01c-0.12-2.38-0.26-5.08,0.54-7.27C272.97,391,275.04,390.52,277.67,389.89"/>
<path class="st0" d="M164.93,265.85c-2.53,0.75-4.34,2.57-5.54,5.56c-1.32,3.32-3.35,4.47-9.59,7.57c-5.6,2.8-8.39,5.11-10.57,7.73
	c1.61,1.26,8.95,7.1,11.52,10.81c0.84,1.21,1.42,2.27,1.91,3.2c1.21,2.2,1.94,3.54,4.77,4.48c1.55,0.51,2.44,1.34,2.66,2.46
	c0.46,2.29-2.07,4.87-3.62,6.21c-1.44,1.24-2.27,3.25-2.28,5.53c-0.01,3.01,1.39,5.98,3.85,8.12c0.69,0.62,1.44,1.21,2.19,1.81
	c2.86,2.28,5.56,4.44,5.45,7.18c-0.08,1.97-1.61,3.94-4.7,6.05c-7.98,5.45-6.71,10.37-5.6,14.7c0.16,0.63,0.31,1.23,0.43,1.81
	c0.47,2.24,1.77,2.32,3.56,2.42c1.47,0.08,3.13,0.18,4.48,1.61c2.44,2.58,3.8,7.15,4.18,8.6c0.64-0.25,1.38-0.42,2.27-0.42
	c3.76,0,4.4-0.83,6.08-3.72c1.93-3.34,7.17-7.4,13.64-4.86c2.53,0.97,4.49,0.86,6.22,0.76c1.48-0.08,2.84-0.16,4.26,0.42
	c2.69-1.68,9.16-6.24,9.51-8.86c0.13-0.93,0.12-1.91,0.1-2.87c-0.04-2.42-0.08-4.94,2.73-5.46c3.45-0.62,4.55-1.36,4.69-4.78
	c0.17-3.98,0.55-6.71,4.31-8.35c3.47-1.51,4.44-2.8,4.15-5.54c-0.17-1.65,0.56-3.03,1.42-4.63c0.77-1.47,1.66-3.13,2.03-5.35
	c0.14-0.84,0.24-1.6,0.33-2.29c0.43-3.24,0.71-5.39,4.09-7.55c3.03-1.94,4.69-3.79,5.1-5.66c0.26-1.21-0.01-2.4-0.84-3.66
	c-0.72-1.11-1.65-2.1-2.56-3.05c-2.35-2.52-4.78-5.11-3.6-9.95c0.51-2.12,0.73-3.88,0.93-5.43c0.41-3.14,0.69-5.43,3.08-7.91
	c3.55-3.71,4.11-6.38,2.14-10.19c-0.34-0.66-0.67-1.36-1-2.08c-1.8-3.92-3.84-8.36-10.09-8.36c-2.11,0-3.89-0.05-5.45-0.1
	c-4.15-0.14-7.14-0.25-12.33,0.88c-1.77,0.39-2.97,0.69-3.94,0.96c-3,0.77-3.34,0.81-8.27-0.01c-5.82-0.97-13.73-3.34-15.48-3.87
	c-0.01,0.03-0.01,0.07-0.04,0.09c-1.01,1.99-5.08,3.28-9.4,4.63l-0.76,0.24c-1.82,0.58-2.92,1.28-3.34,2.19
	c-0.52,1.07,0,2.38,0.51,3.66c0.09,0.24,0.18,0.46,0.26,0.68c0.35,0.94,0.37,1.72,0.04,2.37
	C168.24,264.79,166.64,265.34,164.93,265.85"/>
<path class="st0" d="M258.42,300.23c-2.57,1.14-7.13-1.42-9.61-4.42c-0.71-0.85-1.55-1.27-2.57-1.3c-0.03,0-0.05,0-0.08,0
	c-2.96,0-6.38,3.37-7.22,4.23c0.8,1.34,1.07,2.67,0.8,3.98c-0.46,2.08-2.24,4.1-5.45,6.17c-3.07,1.95-3.3,3.73-3.72,6.97
	c-0.09,0.71-0.2,1.47-0.34,2.31c-0.39,2.36-1.31,4.08-2.11,5.6c-0.83,1.55-1.48,2.76-1.32,4.17c0.31,3.12-0.85,4.72-4.63,6.37
	c-3.34,1.45-3.68,3.85-3.84,7.64c-0.17,3.97-1.72,4.89-5.35,5.54c-2.04,0.38-2.12,1.94-2.07,4.67c0.01,0.98,0.03,1.99-0.1,2.99
	c-0.43,3.12-7.38,7.82-9.47,9.17c0.88,0.52,1.81,1.34,2.8,2.59c1.68,2.12,2.48,3.68,3.12,4.93c1.14,2.21,1.66,3.22,5.77,4.49
	l0.12,0.04c6.93,2.14,18.53,5.73,17.87,11.36c-0.18,1.56-0.42,2.8-0.63,3.9c-0.48,2.56-0.79,4.1,0.28,6.54
	c0.31,0.72,0.71,1.39,1.09,2.03c1.45,2.52,2.83,4.89-1.66,8.47c-4.7,3.73-6.8,12.76-7.33,16.56c0.47-0.04,0.9,0.01,1.28,0.22
	c1.24,0.64,1.57,2.4,1,5.23c-1.42,6.97-1.02,7.63,2.54,10.75c3.52,3.09,5.33,1.68,9.67-1.73c2.19-1.73,4.78-3.42,7.39-3
	c1.89,0.3,3.6,1.68,5.25,4.19c1.74,2.65,3.58,3.75,5.2,4.7c1.89,1.13,3.52,2.1,3.8,5.19c0.29,3.37,1.36,11.22,4.97,11.54
	c3.04,0.28,9.45,1.69,11.09,2.06c0.39-1.68,1.21-2.88,3.07-2.88c4.01,0,5.83-1.86,7.8-5.28c4.84-8.48,8.9-12.66,12.12-12.42
	c2.74,0.2,4.38-0.16,5.31-1.15c0.89-0.94,1.17-2.52,0.85-4.82c-0.21-1.52-0.56-3.07-0.92-4.56c-0.94-4.02-1.82-7.82,0.46-10.39
	c-1.36-0.86-5.49-3.68-6.58-7.23c-1.14-3.71,3.52-9.95,7.64-15.44c0.63-0.85,1.24-1.68,1.82-2.46c3.7-5.07,4.6-11.98,5.2-16.55
	c0.07-0.58,0.14-1.11,0.21-1.6c0.28-1.91,1.19-3.01,2.45-3.64c-3.66-2.5-10.13,0.01-19.28,7.5c-2.16,1.77-4.67,2.65-7.3,3.58
	c-1.7,0.59-3.46,1.21-5.32,2.11c-1.72,0.84-3.26,1.21-4.64,1.53c-2.58,0.6-4.29,1.01-5.35,3.89c-0.73,2.02-0.6,4.64-0.48,6.95
	c0.16,3.03,0.3,5.63-1.72,5.84c-0.22,0.03-0.45,0.04-0.66,0.04c-1.18,0-2.16-0.38-2.92-1.11c-1.4-1.35-1.99-3.93-1.73-7.65
	c0.25-3.55-1.05-5.73-2.31-7.84c-1.06-1.78-2.16-3.63-2.24-6.22c-0.03-1.27-0.41-2.14-1.15-2.69c-2.11-1.53-7-0.09-10.23,0.86
	c-1.73,0.5-2.95,0.5-3.88-0.01c-1.31-0.72-1.77-2.33-2.33-4.38c-0.24-0.84-0.51-1.78-0.86-2.75c-1.69-4.61-1.74-4.68-6.89-8.11
	c-5.25-3.5-7.01-5.35-4.69-10.98c1.45-3.54,1.13-4.61,0.47-6.75c-0.3-0.98-0.67-2.23-0.97-4.01c-0.81-4.9,6.09-9.57,11.66-13.3
	c1.11-0.76,2.18-1.47,3.07-2.12c1.14-0.83,2.04-1.61,2.84-2.31c2.9-2.52,4.65-4.04,12-3.41c6.83,0.58,8.86-0.88,11.66-2.9
	c0.89-0.64,1.9-1.38,3.14-2.07c5.02-2.82,6.25-3.37,11.27-2.08c0.83,0.22,1.55,0.42,2.2,0.6c3.14,0.86,4.57,1.24,7.47,0.5
	c0.38-0.09,0.77-0.21,1.18-0.31c3.29-0.93,7.39-2.07,12.42,0.67l0.62,0.33c5.15,2.79,9.61,5.2,11.77,9.23
	c1.87,3.47,2.73,3.73,6.36,4.82c0.47,0.14,0.98,0.3,1.56,0.47c3.21,1.01,4.15,2.28,5.24,3.75c0.68,0.92,1.38,1.85,2.73,2.91
	c3.3,2.58,6.47,9.36,7.15,10.86c2.04-0.48,3.62-0.73,4.84-0.22c-0.16-2.07-0.17-7.67,4.06-10.77c1.36-1,2.73-1.8,4.04-2.57
	c3.5-2.06,6.26-3.68,6.7-7.73l0.1-0.89c0.55-5.12,0.75-6.84-0.69-9.85c-1.4-2.96-7.57-13.8-8.69-15.75
	c-1.42,0.69-3.16,1.04-5.35,1.04c-0.34,0-0.68,0-1.04-0.03c-1.24-0.04-2.54-0.07-3.84-0.08c-4.55-0.04-8.85-0.09-10.27-1.8
	c-1.32-0.03-10.29-0.2-19.34-0.2c-7.4,0-11.61-5.74-14.68-9.92c-1.15-1.59-2.15-2.95-3.13-3.81c-3.38-2.95-11.53-2.48-18.12-0.69
	c-5.79,1.56-8.2,1.77-13.08,0.16c-1.83-0.62-3.34-0.5-4.34,0.34c-1.42,1.17-1.91,3.79-1.42,7.36
	C260.4,298.74,259.37,299.81,258.42,300.23"/>
<path class="st0" d="M127.56,438.04c-1.78,3.77-3.32,7.05-2.61,9.99c1.44,5.88,1.6,7.12-1.64,11.01c-2.08,2.5-6.59,8.7-3.46,12.33
	c1.43,1.65,2.99,1.68,4.51,1.69c1.4,0.01,2.84,0.04,3.55,1.72c0.24,0.56,0.34,1.1,0.35,1.62c1.9,0,10.19-0.14,12.42-2.65
	c1.95-2.18,1.77-3.38,1.43-5.57c-0.09-0.62-0.2-1.31-0.28-2.12c-0.35-4.1,4.26-8.74,7.04-11.14c1.77-1.53,3.04-1.59,4.27-1.64
	c1.27-0.07,2.58-0.12,4.67-1.82c1.02-0.83,1.94-1.83,2.74-2.73c1.52-1.66,2.83-3.11,4.32-2.9c1.17,0.17,2.25,1.35,3.42,3.72
	c3.59,7.33,6.8,10.52,10.84,13.31c2.79,1.94,7.3,2.57,9.46,1.34c0.86-0.5,1.27-1.24,1.19-2.23c-0.33-4.48,1.87-10.22,5.14-13.33
	c2.02-1.91,3.35-3.97,4.64-5.98c0.79-1.21,1.53-2.36,2.38-3.38c0.46-0.56,0.92-1.21,1.4-1.89c1.77-2.48,3.79-5.29,6.42-4.19
	c2.57,1.09,5.92-2.49,8.39-5.1l0.42-0.45c0.93-1,2.18-1.89,3.37-2.27c0.25-1.82,1.94-12.83,7.64-17.35
	c3.97-3.14,2.92-4.95,1.47-7.44c-0.38-0.67-0.77-1.35-1.11-2.12c-1.15-2.66-0.83-4.39-0.33-7c0.2-1.09,0.43-2.32,0.62-3.85
	c0.58-4.97-11.06-8.57-17.31-10.51l-0.12-0.04c-4.43-1.36-5.07-2.62-6.24-4.89c-0.63-1.22-1.42-2.74-3.05-4.8
	c-1.14-1.45-2.15-2.27-3.14-2.7c0-0.01-0.01-0.01-0.03-0.01c-1.3-0.56-2.56-0.5-4.04-0.42c-1.82,0.1-3.88,0.22-6.57-0.83
	c-6.01-2.35-10.88,1.43-12.67,4.53c-1.8,3.11-2.73,4.11-6.76,4.11c-1.76,0-2.76,0.68-3.94,1.47c-1.28,0.85-2.73,1.82-5.31,1.82
	c-1.38,0-2.56,0.5-3.51,1.48c-1.7,1.76-2.62,5.01-2.52,8.92c0.09,3.28-1.61,4.76-3.26,6.19c-1.24,1.07-2.53,2.19-3.17,4.13
	c-1.1,3.28-4.57,2.79-9.38,2.11c-2.86-0.39-6.11-0.85-9.79-0.73c-3.32,0.1-5.32,1.01-5.82,2.62c-0.68,2.21,1.55,5.52,4,7.31
	c3.83,2.79,1.3,7.82,0.63,9c1.97,2.31,3.52,4.97,3,10.59C130.86,431.05,129.1,434.77,127.56,438.04"/>
<path class="st0" d="M30.47,371.21c1.06,1.06,2.88,1.19,5.28,0.39c6.74-2.25,9.43-2.86,13.31-0.92c1.43,0.71,2.57,0.47,3.58,0.26
	c1.72-0.37,2.91-0.37,3.68,2.82c0.22,0.92,0.39,1.69,0.52,2.35c0.63,2.96,0.66,3.08,3.2,3.3l0.63,0.07
	c2.99,0.25,3.79,0.33,6.54,3.52c3.24,3.79,6,4.53,9.53,2.57c5.03-2.79,8.86-1.62,13.2,4.02c4.59,5.96,6.41,7.39,10.25,8.01
	c1.09,0.17,2.07-0.01,3.03-0.2c2.33-0.43,4.53-0.84,6.53,4.68c1.73,4.78,1.99,4.69,3.41,4.22c0.71-0.24,1.69-0.56,3.12-0.56
	c4.04,0,5.19,1.72,7.3,4.84c0.41,0.58,0.84,1.22,1.32,1.91c0.75,1.02,1.52,1.9,2.28,2.74c0.17,0.18,0.34,0.37,0.51,0.56
	c0.75-1.38,2.58-5.44-0.55-7.72c-2.74-2-5.08-5.62-4.28-8.2c0.42-1.36,1.9-3.03,6.55-3.18c3.75-0.1,7.18,0.37,9.92,0.75
	c5.02,0.71,7.67,0.96,8.52-1.56c0.71-2.16,2.08-3.34,3.41-4.49c1.65-1.42,3.08-2.65,2.99-5.56c-0.12-4.13,0.88-7.6,2.74-9.51
	c1.11-1.13,2.49-1.72,4.09-1.72c2.33,0,3.62-0.85,4.86-1.68c0.45-0.3,0.89-0.6,1.38-0.85c-0.31-1.23-1.66-5.9-4.01-8.39
	c-1.14-1.19-2.57-1.28-3.96-1.36c-1.82-0.1-3.71-0.22-4.3-3.05c-0.12-0.58-0.26-1.17-0.42-1.77c-1.13-4.36-2.53-9.8,5.91-15.57
	c2.87-1.95,4.3-3.73,4.36-5.43c0.08-2.35-2.46-4.38-5.15-6.53c-0.76-0.6-1.51-1.21-2.23-1.83c-2.62-2.29-4.13-5.48-4.11-8.73
	c0.01-2.5,0.94-4.74,2.56-6.13c2.37-2.04,3.63-4.09,3.35-5.45c-0.16-0.81-0.88-1.44-2.12-1.86c-3.14-1.05-4.01-2.65-5.22-4.86
	c-0.5-0.9-1.06-1.94-1.89-3.12c-2.46-3.58-9.8-9.42-11.36-10.65c-0.13,0.16-0.25,0.31-0.37,0.48c-2.45,3.2-5.94,3.56-10.09,1.04
	c-3.46-2.11-8.05-0.72-16.39,3c-7.08,3.14-12.32,3.04-18.4,2.91c-1.28-0.03-2.61-0.05-4.01-0.05c-7.34,0-7.88,5.7-8.31,10.27
	l-0.08,0.8c-0.43,4.38-3.71,5.2-7.5,6.16c-0.56,0.14-1.14,0.29-1.72,0.46c-4.4,1.21-8.4,3.32-14.77,7.77
	c-5.9,4.13-6.38,6.72-7.26,11.41l-0.09,0.55c-0.83,4.38-4.93,7.34-8.54,9.95c-0.68,0.48-1.34,0.96-1.95,1.43
	c-3.26,2.48-9.58,7.17-11.53,8.62c0.54,0.22,1.06,0.52,1.55,0.96c1.17,1.04,2.87,3.52,1.21,8.52
	C28.94,366.18,28.94,369.67,30.47,371.21"/>
<path class="st0" d="M234.23,545.82c2.33,0.54,3.98,0.03,5.32-0.39c2.31-0.72,3.83-0.94,5.77,3.12c2.94,6.19,6.45,9.96,10.42,11.23
	c0.42,0.13,0.81,0.28,1.19,0.39c3.01,1.04,3.83,1.31,5.36-2.66c1.14-2.95,4.08-5.63,7.3-6.68c2.52-0.81,4.97-0.58,6.92,0.69
	c4.51,2.9,11.39,3.29,14.87,2.33c-1.76-1.87-8.02-8.79-8.58-13.39c-0.28-2.31,0.14-3.97,1.24-4.98c1.02-0.93,2.65-1.22,4.56-0.79
	c1.38,0.3,3.38,0.07,4.52-1.19c0.88-0.96,1.05-2.38,0.5-4.1c-1.34-4.17-2.63-8.74-1.04-10.42c0.63-0.66,1.61-0.8,2.94-0.42
	c2.67,0.75,3.67,0.41,4.04-0.01c0.45-0.51,0.35-1.56-0.28-3.05c-1.3-3.08-0.35-7.25,2-8.95c0.98-0.69,1.57-1.95,1.55-3.28
	c-0.04-1.6-0.9-3.04-2.46-4.05c-1.65-1.07-2.38-2.75-3.09-4.36c-0.89-2.03-1.65-3.79-4.09-4.04c-4.29-0.43-4.93-0.88-9.12-3.85
	c-0.51-0.37-1.09-0.77-1.73-1.23c-5.99-4.21-10.42-7.77-8.6-12.08c0.6-1.44,0.71-3.42,0.8-5.35c0.05-1.07,0.12-2.15,0.26-3.13
	c-1.59-0.35-8.03-1.78-11.01-2.04c-4.04-0.37-5.29-7.85-5.69-12.28c-0.24-2.67-1.49-3.42-3.41-4.56c-1.61-0.96-3.62-2.16-5.46-4.97
	c-1.52-2.31-3.07-3.56-4.72-3.84c-1.82-0.3-3.85,0.55-6.76,2.84c-4.3,3.38-6.66,5.23-10.69,1.7c-3.92-3.42-4.21-4.61-2.79-11.51
	c0.48-2.37,0.28-3.92-0.58-4.36c-1-0.51-2.95,0.37-4.55,2.06l-0.41,0.45c-2.76,2.94-6.2,6.59-9.28,5.29
	c-2.04-0.86-3.79,1.57-5.46,3.92c-0.5,0.68-0.96,1.34-1.44,1.91c-0.81,1-1.55,2.12-2.32,3.33c-1.26,1.94-2.69,4.13-4.76,6.12
	c-3.11,2.95-5.22,8.4-4.9,12.68c0.1,1.28-0.45,2.32-1.59,2.96c-2.44,1.4-7.26,0.76-10.31-1.36c-4.14-2.86-7.44-6.13-11.1-13.62
	c-1.02-2.08-1.94-3.16-2.82-3.29c-1.07-0.14-2.25,1.14-3.62,2.65c-0.83,0.9-1.77,1.94-2.83,2.8c-2.29,1.87-3.8,1.94-5.12,2
	c-1.21,0.05-2.24,0.09-3.8,1.44c-2.66,2.29-7.08,6.72-6.75,10.47c0.07,0.77,0.17,1.47,0.26,2.07c0.35,2.27,0.59,3.76-1.62,6.22
	c-2.44,2.73-10.72,2.91-12.91,2.91c-0.07,0-0.1,0-0.17,0c-0.42,2.29-2.78,4.27-5.41,6.49c-1.34,1.13-1.95,2.11-2.46,2.91
	c-1.09,1.74-1.8,2.57-5.81,2.36c-5.86-0.3-8.31,0.03-13.01,4.89c-3.68,3.81-5.63,7.36-4.98,9.08c0.29,0.76,1.14,1.21,2.52,1.3
	c3.58,0.25,6.74,2.29,7.05,4.56c0.14,1.1-0.26,3.17-4.67,4.76c-3.93,1.4-6.24,3.25-6.16,4.91c0.07,1.28,1.65,2.45,4.25,3.09
	c3.47,0.86,5.62,1.82,7.52,2.66c1.49,0.66,2.79,1.22,4.38,1.57c1.78,0.38,3.26,1.42,4.18,2.91c1,1.65,1.23,3.73,0.66,5.88
	c-1.11,4.14-1.65,11.92,0.73,15.5c2.4,3.6,3.98,11.53,1.89,16.37c1.13-0.52,2.42-0.81,3.71-1.09c2.03-0.46,3.97-0.88,4.82-2.27
	c1.38-2.21,3.87-3.66,5.81-3.37c1.22,0.18,2.08,1.04,2.44,2.38c0.46,1.74,0.92,2.69,1.38,2.79c0.37,0.09,0.93-0.34,1.7-1.23
	c0.92-1.09,2.04-2.18,3.29-1.98c1.06,0.16,1.97,1.17,2.86,3.17c1.8,4.04,4,5.4,8.73,5.4c0.79,0,1.53-0.01,2.24-0.03
	c1.62-0.04,3.03-0.05,4.18,0.17c0.48-1.35,2.5-6.28,6.7-6.72c4.32-0.45,5.48-1.04,6.87-5.82c1.05-3.58,3.22-6.3,5.83-7.29
	c2.38-0.9,5.06-0.42,7.93,1.42c1.24,0.8,2.35,1.53,3.35,2.2c4.9,3.28,7.14,4.78,11.52,3.39c5.19-1.62,12.06-1.69,18.84-0.16
	c4.84,1.09,6.3,0.71,6.68,0.2c0.34-0.45-0.01-1.31-0.38-1.97c-1.14-2.08-0.72-5.58,0.94-7.78
	C229.72,545.99,231.82,545.26,234.23,545.82"/>
<path class="st0" d="M413.39,528.3c3.17-1.23,7.42-1.11,11.51-1c3.29,0.09,6.68,0.2,9.38-0.43c1.59-0.37,2.95-0.88,4.17-1.32
	c3.47-1.3,6.22-2.33,10.46,1.42c2.84,2.53,4.39,3.85,5.62,3.67c1.06-0.16,2.11-1.49,3.64-3.9c3.6-5.62,7.51-8.48,11.62-8.48
	c3,0,6.19-0.16,7.47-0.22c-0.62-1.52-0.67-3.77-0.67-7.22c0-5.19-4.04-7.56-8.71-10.3c-1.81-1.06-3.67-2.16-5.39-3.47
	c-1.87-1.44-2.88-2.91-3.11-4.49c-1.51-0.8-12.59-6.74-15.44-10.64c-2.07-2.83-6.81-3.29-11.41-3.75c-1.73-0.17-3.51-0.34-5.11-0.64
	c-5.31-1.01-6.24-7.39-7.33-14.79c-0.16-1.1-0.33-2.24-0.51-3.39c-0.81-5.03-4.77-5.65-8.61-6.24c-2.57-0.41-5.01-0.79-6.21-2.53
	c-1.61-2.32-5.91-5.7-10.08-8.98c-3.04-2.37-6.19-4.84-8.36-6.95c-4.72-4.57-3.73-11.11,3.09-20.59c2.36-3.28,4.47-4.73,6.25-4.29
	c2.41,0.6,3.18,4.31,3.39,5.88c0.2,1.42,0.63,2.35,1.34,2.83c1.07,0.75,2.76,0.38,4.4,0.01l0.51-0.12c2.65-0.59,4.4-0.98,6.67,1.77
	c0.39,0.47,0.81,0.67,1.32,0.59c1.9-0.28,4.63-4.13,7.09-10.05c2.57-6.17,6.28-5.39,10.19-4.56c1.09,0.22,2.21,0.46,3.37,0.56
	c4.46,0.39,5.05-0.51,7.55-4.34c0.35-0.54,0.73-1.11,1.17-1.76c3.79-5.58,8.07-8.48,10.47-8.79c0.34-0.04,0.81-0.09,1.38-0.14
	c3.33-0.34,10.23-1.05,12.15-3.47c1.1-1.38,3.04-2.31,4.93-3.21c2.18-1.04,4.23-2.02,4.23-3.43c0-3.25,2.78-6.03,6.19-6.2
	c0.66-0.03,1.28,0,1.9,0.04c2.52,0.13,4.34,0.24,5.4-4.11c1.38-5.65,14.06-11.83,15.75-12.63c0.43-2.12,1.6-4.48,3.56-7.09
	c3.8-5.07,9.07-17.78,9.97-19.98c-2.24-1.1-4.11-3.11-6.04-5.37c-1.87-2.21-3.04-3.01-4.81-4.23c-0.13-0.09-0.28-0.18-0.41-0.28
	c-1.32,0.28-10.43,2.15-15.5,2.29c-3.97,0.1-5.71,0.47-8.35,1.02c-0.98,0.2-2.1,0.43-3.51,0.69c-1.28,0.24-2.62,0.54-4.04,0.85
	c-4.15,0.93-8.45,1.9-11.94,1.18c-1.89-0.39-2.61,0.17-3.72,1.04c-1.39,1.07-3.12,2.42-7.8,2.42c-8.31,0-18.2,8.56-20.19,11.27
	c-1.02,1.38-3.05,1.74-5.62,1.74c-1.43,0-3.01-0.12-4.68-0.24c-2.46-0.17-5.01-0.35-7.56-0.25c-6.91,0.29-9.09-1.68-13.08-5.23
	c-0.46-0.41-0.94-0.84-1.45-1.3c-2.88-2.52-5.77-1.82-8.81-1.07c-2.02,0.48-4.1,1-6.21,0.54c-3.85-0.81-4.27-0.5-6.32,1
	c-0.59,0.45-1.34,0.98-2.32,1.62c-4.18,2.69-11.71-3.41-13.31-4.77c-1.34,1.64-3.25,2.79-5.35,4.02c-1.3,0.76-2.63,1.55-3.96,2.53
	c-4.42,3.24-3.81,9.67-3.68,10.65c0.35,0.33,0.68,0.75,0.97,1.3c1.53,2.92,2.27,7.67,1.77,11.52c-0.48,3.71,0.26,6.93,1.55,10.63
	c1.49,4.34,2.24,7.56,2.83,12.3c0.47,3.72,2.52,5.79,5.35,8.67c0.86,0.89,1.76,1.8,2.71,2.86c4.25,4.74,4.27,15.34,1.47,20.97
	c-1.82,3.63-6.08,3.33-9.84,3.07c-2.37-0.17-4.6-0.33-5.81,0.52c-1.89,1.35-2.53,2.92-3.42,5.11c-0.62,1.49-1.31,3.2-2.58,5.28
	c-2.44,4.02-7.86,2.42-12.23,1.14c-1.52-0.45-2.95-0.88-3.97-0.96c-4.14-0.33-12.19-4.22-14.83-7.18l-0.21-0.24
	c-1.85-2.06-4.13-4.63-6.43-4.74c-0.94-0.05-1.81,0.31-2.66,1.09c-2.48,2.27-1.62,5.87-0.66,10.05c0.35,1.52,0.72,3.08,0.94,4.64
	c0.34,2.56-0.01,4.35-1.07,5.48c-1.42,1.52-3.92,1.55-5.94,1.4c-2.78-0.17-6.84,4.08-11.37,12.03c-2.06,3.6-4.11,5.69-8.5,5.69
	c-2.21,0-2.49,2.28-2.67,6.04c-0.1,1.98-0.21,4.05-0.86,5.62c-1.6,3.76,2.63,7.12,8.32,11.11c0.64,0.45,1.22,0.85,1.73,1.23
	c4.13,2.92,4.65,3.3,8.73,3.71c2.91,0.29,3.85,2.44,4.76,4.51c0.66,1.51,1.34,3.07,2.79,4.01c1.78,1.17,2.79,2.84,2.83,4.7
	c0.03,1.59-0.69,3.11-1.87,3.96c-2.1,1.49-2.91,5.22-1.74,7.98c0.77,1.85,0.81,3.12,0.13,3.89c-0.76,0.86-2.35,0.94-4.85,0.25
	c-1.01-0.29-1.73-0.21-2.14,0.21c-1.42,1.47,0.37,6.97,1.22,9.62c0.81,2.53,0.08,4.06-0.67,4.89c-1.36,1.49-3.63,1.8-5.28,1.43
	c-0.96-0.22-2.74-0.42-3.87,0.6c-0.89,0.81-1.23,2.25-0.98,4.28c0.56,4.61,7.57,12.11,8.66,13.24c1.27-0.37,2.96-0.22,4.74-0.07
	c3.49,0.33,7.44,0.68,9.85-2.4c4.35-5.57,8.49-7.48,11.37-5.24c1.31,1.02,1.99,2.28,1.95,3.63c-0.07,1.74-1.28,3.47-3.55,5.01
	c-3.83,2.61-4.42,4.14-4.23,4.98c0.22,1.07,1.91,1.91,4.86,2.45c1.11,0.2,2.16,0.39,3.16,0.59c6.96,1.34,10.8,2.07,12.07-2.5
	c2.06-7.43,5.9-10.59,11.43-9.37c4.69,1.02,9.24,0.38,11.06-1.56c0.88-0.93,1.11-2.14,0.69-3.58c-0.37-1.3-0.88-2.63-1.36-3.94
	c-1.61-4.26-3.28-8.67-0.08-11.36l0.77-0.66c3.93-3.34,10.51-8.95,15.76-3.38c5.25,5.57,7.84,6.42,10.3,5.99
	c2.57-0.46,7.22,0.54,8.75,5.12c1.17,3.51,4.32,8.28,5.27,9.64c1.51-1.47,3.7-1.82,5.84-2.15l0.5-0.08c3.73-0.6,5.14-1.22,4.98-5.39
	C406.2,533.73,408.43,530.24,413.39,528.3"/>
<path class="st0" d="M350.22,353.36c-1.23-2.33-3.07-1.87-7.1-0.88c-0.58,0.14-1.19,0.3-1.85,0.46c-2.95,0.69-9.08,2.14-10.25,5.03
	c-0.42,1.02-0.22,2.15,0.62,3.45c3.58,5.61,4.57,8.09,0.73,11.94c-3.39,3.38-5.86,3.18-9.58,2.87c-0.39-0.03-0.81-0.07-1.23-0.09
	c-4.82-0.34-8.27-0.29-8.82,3.58c-0.08,0.48-0.14,1.02-0.22,1.6c-0.6,4.65-1.52,11.68-5.33,16.92c-0.58,0.79-1.21,1.61-1.83,2.46
	c-3.8,5.08-8.53,11.4-7.51,14.73c1.05,3.39,5.33,6.22,6.39,6.88c0.9-0.76,1.87-1.15,2.88-1.15c0.07,0,0.13,0,0.2,0
	c2.65,0.14,5.06,2.84,7,5.01l0.21,0.24c2.49,2.79,10.38,6.6,14.3,6.92c1.11,0.09,2.52,0.51,4.14,0.98c4.09,1.22,9.2,2.71,11.32-0.79
	c1.22-2.03,1.91-3.7,2.52-5.18c0.9-2.21,1.62-3.96,3.7-5.44c1.43-1.02,3.81-0.85,6.32-0.68c3.7,0.26,7.5,0.52,9.07-2.62
	c2.71-5.4,2.71-15.57-1.35-20.08c-0.93-1.05-1.82-1.95-2.69-2.83c-2.82-2.88-5.06-5.15-5.56-9.15c-0.59-4.68-1.31-7.85-2.8-12.13
	c-1.31-3.8-2.08-7.13-1.59-10.99C352.38,360.7,351.68,356.16,350.22,353.36"/>
<path class="st0" d="M355.31,303.21c1.13,1.98,7.27,12.76,8.71,15.79c1.53,3.22,1.32,5.15,0.76,10.29l-0.1,0.9
	c-0.16,1.47-0.62,2.63-1.27,3.64c1.38,1.17,8.71,7.13,12.42,4.74c0.96-0.62,1.69-1.15,2.28-1.59c2.23-1.64,2.91-1.99,6.95-1.13
	c1.94,0.41,3.93-0.08,5.86-0.55c3.11-0.75,6.32-1.53,9.51,1.27c0.52,0.45,1.01,0.88,1.47,1.28c3.94,3.54,5.92,5.32,12.51,5.03
	c2.61-0.1,5.28,0.09,7.65,0.26c4.44,0.31,8.28,0.59,9.59-1.19c2.06-2.79,12.25-11.6,20.85-11.6c4.4,0,6.01-1.26,7.31-2.27
	c1.14-0.88,2.12-1.64,4.36-1.18c3.32,0.69,7.53-0.26,11.61-1.18c1.42-0.31,2.75-0.62,4.06-0.85c1.4-0.26,2.52-0.48,3.5-0.69
	c2.67-0.55,4.44-0.93,8.48-1.04c4.44-0.13,12.03-1.61,14.62-2.14c-1.26-0.89-2.82-2.06-4.97-3.89c-6.45-5.53-4.57-8.07-0.46-13.63
	l0.86-1.18c4.39-5.99,2.83-7.36-0.96-10.68l-0.24-0.22c-3.59-3.14-2.79-7.81-2.02-12.32c0.1-0.67,0.22-1.32,0.31-1.98
	c0.54-3.55,1.55-6.36,3.01-8.43c-4.98-4.36-9.63-3.7-17.26-2.59c-0.77,0.1-1.59,0.22-2.42,0.34c-1.36,0.2-2.53,0.37-3.55,0.51
	c-5.79,0.84-6.68,0.97-9.99-0.54c-4.3-1.98-6.97-5.6-6.97-9.46c0-3.63-2.12-5.06-8.73-5.87c-5.78-0.69-11.91-3.92-13.33-4.69
	c-0.55,0.68-1.24,1.3-2.07,1.82l-0.2,0.12c-2.86,1.81-4.74,3-8.98,1.81c-2.74-0.77-4.36,2.94-5.81,6.22c-0.51,1.17-1,2.28-1.51,3.08
	c-1.77,2.8-4.35,3.18-7.61,3.67c-0.42,0.07-0.84,0.13-1.28,0.2c-2.63,0.42-2.44,6.76-2.28,11.4c0.05,1.55,0.09,3.01,0.04,4.13
	c-0.09,1.69-0.72,3.07-1.87,4.1c-1.7,1.52-4.17,1.94-5.92,1.85c-2.41-0.14-4.25,0.69-5.77,2.66c-1.21,1.57-3.56,1.77-7.14,2.07
	c-1.45,0.12-3.11,0.25-4.95,0.51c-6.53,0.89-7.78-1.98-10.09-7.18l-0.04-0.1c-1.35-3.04-2.69-2.57-4.73-1.85
	c-1.21,0.43-2.57,0.92-4.13,0.67c-2.33-0.37-4.63,0.24-5.84,1.53c-0.72,0.76-0.98,1.69-0.76,2.69c0.62,2.8,1.36,10.17-0.42,13.81
	C357.6,301.22,356.6,302.4,355.31,303.21"/>
<g>
	<path class="st2" d="M357.6,427.15l-1.98,2.48h1.53l2.71-2.48H357.6z M357.49,444.64h-1.89v-6.09l-4.53-8.27h2.11l2.03,3.97
		c0.55,1.09,0.97,1.97,1.42,2.96h0.05c0.41-0.94,0.89-1.87,1.44-2.96l2.07-3.97h2.11l-4.81,8.26V444.64z M341,444.64h1.86v-5.46
		l1.36-1.59l4.73,7.05h2.2l-5.61-8.26l5.2-6.11h-2.31l-4.39,5.4c-0.37,0.47-0.75,0.98-1.13,1.53h-0.07v-6.93H341V444.64z
		 M329.77,443.94c0.77,0.51,2.28,0.92,3.67,0.92c3.39,0,5.03-1.93,5.03-4.14c0-2.11-1.23-3.28-3.67-4.22
		c-1.98-0.76-2.86-1.43-2.86-2.76c0-0.98,0.75-2.15,2.71-2.15c1.3,0,2.25,0.42,2.73,0.68l0.51-1.52c-0.64-0.35-1.7-0.69-3.17-0.69
		c-2.79,0-4.65,1.65-4.65,3.89c0,2.03,1.45,3.24,3.8,4.08c1.94,0.75,2.7,1.51,2.7,2.86c0,1.44-1.1,2.45-3,2.45
		c-1.28,0-2.49-0.43-3.33-0.94L329.77,443.94z M327.45,436.38h-5.58v-4.55h5.91v-1.56h-7.76v14.36h8.07v-1.55h-6.22v-5.18h5.58
		V436.38z M314.54,429.45l2.19-2.42h-1.53l-1.34,1.48h-0.05l-1.36-1.48h-1.57l2.24,2.42H314.54z M317.31,442.71
		c-0.75,0.35-1.9,0.59-3.03,0.59c-3.49,0-5.52-2.25-5.52-5.78c0-3.77,2.24-5.92,5.61-5.92c1.19,0,2.19,0.26,2.9,0.6l0.45-1.52
		c-0.48-0.25-1.61-0.63-3.41-0.63c-4.46,0-7.51,3.04-7.51,7.53c0,4.72,3.05,7.27,7.1,7.27c1.74,0,3.11-0.34,3.79-0.68L317.31,442.71
		z M298.71,431.56c3.08,0,4.57,2.99,4.57,5.84c0,3.25-1.66,5.96-4.6,5.96c-2.92,0-4.59-2.75-4.59-5.82
		C294.1,434.39,295.63,431.56,298.71,431.56 M298.79,430.05c-3.84,0-6.67,2.97-6.67,7.53c0,4.35,2.66,7.29,6.46,7.29
		c3.66,0,6.67-2.62,6.67-7.56C305.25,433.06,302.71,430.05,298.79,430.05 M280.64,431.84c0.48-0.1,1.21-0.2,2.16-0.2
		c3.93,0,5.84,2.16,5.82,5.54c0,3.88-2.15,6.09-6.11,6.09c-0.73,0-1.42-0.01-1.87-0.1V431.84z M278.78,444.6
		c0.94,0.1,2.04,0.17,3.37,0.17c2.79,0,5.01-0.72,6.36-2.06c1.34-1.32,2.06-3.25,2.06-5.6c0-2.32-0.75-3.98-2.02-5.15
		c-1.26-1.18-3.16-1.8-5.82-1.8c-1.47,0-2.82,0.13-3.94,0.3V444.6z M275.74,436.38h-5.6v-4.55h5.91v-1.56h-7.76v14.36h8.07v-1.55
		h-6.22v-5.18h5.6V436.38z M258.69,431.77c0.29-0.08,0.93-0.17,1.82-0.17c1.97,0.03,3.32,0.84,3.32,2.69c0,1.64-1.26,2.73-3.25,2.73
		h-1.89V431.77z M256.83,444.64h1.86v-6.21h1.74c1.68,0.05,2.45,0.8,2.87,2.79c0.41,1.78,0.73,3.03,0.97,3.42h1.91
		c-0.3-0.55-0.64-1.93-1.11-3.93c-0.34-1.49-1-2.52-2.11-2.91v-0.05c1.52-0.51,2.71-1.77,2.71-3.67c0-1.11-0.41-2.08-1.13-2.73
		c-0.89-0.81-2.18-1.18-4.15-1.18c-1.28,0-2.62,0.1-3.56,0.3V444.64z M248.97,444.64h1.87v-12.78h4.39v-1.59h-10.63v1.59h4.36
		V444.64z M235.02,443.94c0.76,0.51,2.28,0.92,3.67,0.92c3.38,0,5.02-1.93,5.02-4.14c0-2.11-1.23-3.28-3.66-4.22
		c-1.99-0.76-2.86-1.43-2.86-2.76c0-0.98,0.75-2.15,2.7-2.15c1.31,0,2.27,0.42,2.73,0.68l0.51-1.52c-0.63-0.35-1.7-0.69-3.17-0.69
		c-2.79,0-4.64,1.65-4.64,3.89c0,2.03,1.44,3.24,3.79,4.08c1.94,0.75,2.71,1.51,2.71,2.86c0,1.44-1.11,2.45-3.01,2.45
		c-1.27,0-2.49-0.43-3.32-0.94L235.02,443.94z"/>
</g>
</svg>
