<?xml version="1.0" encoding="utf-8"?>
<!-- Generator: Adobe Illustrator 26.2.1, SVG Export Plug-In . SVG Version: 6.00 Build 0)  -->
<svg version="1.1" id="Vrstva_1" xmlns="http://www.w3.org/2000/svg" xmlns:xlink="http://www.w3.org/1999/xlink" x="0px" y="0px"
	 viewBox="0 0 595.28 841.89" style="enable-background:new 0 0 595.28 841.89;" xml:space="preserve">
<style type="text/css">
	.st0{fill:#3379BE;}
	.st1{fill:#FFFFFF;}
</style>
<path class="st0" d="M330.7,134.08c-12.43-4.04-13.7-7.75-15.7-13.83c-0.28-0.9-0.59-1.81-0.96-2.82c-1.42-3.91-3.39-5.42-5.46-7.03
	c-1.99-1.53-4.06-3.1-5.74-6.75c-3.3-7.1-4.96-7.73-13.8-8.5c-5.92-0.5-7.73-5.46-9.35-9.85c-1.07-2.86-2.08-5.59-4.04-6.99
	c-4.96-3.49-8.43-4.87-13.74-2.66c-0.66,0.28-1.29,0.55-1.9,0.83c-4.24,1.88-7.58,3.36-11.55-2.1c-0.9-1.22-1.46-2.34-1.83-3.43
	c-2.01,0.31-9.28,1.59-13.63,4c-1.7,0.94-3.34,2.12-4.94,3.23c-3.25,2.34-6.62,4.74-10.94,5.46c-5.2,0.85-5.46,8.85-5.66,14.68
	l-0.07,1.66c-0.09,1.83,0.37,3.63,0.83,5.37c0.94,3.67,1.92,7.49-3.58,9.85c-5.66,2.42-5.24,4.06-4.32,7.69
	c0.17,0.7,0.37,1.44,0.55,2.27c0.44,2.18-0.02,4.19-1.35,5.94c-2.99,3.98-10.4,6.47-21.97,7.38c-17.61,1.42-19.53,11.45-21.41,21.14
	c-0.15,0.81-0.31,1.59-0.46,2.36c-2.21,10.72-16.36,10.72-25.73,10.72c-5.83,0-13,7.84-18.76,14.15c-3.01,3.3-5.61,6.16-7.75,7.67
	c-4,2.82-2.21,6.51,1.05,12.28c1,1.75,2.03,3.58,2.84,5.46c1.05,2.47,1.07,4.37,0.02,5.68c-1.75,2.21-6.33,2.51-14.85,0.98
	c-8.8-1.57-11.99,4.11-12.52,5.18c0.37,2.58,1.11,4.48,1.79,6.16c1.4,3.45,2.51,6.16-1.14,11.62c-3.25,4.89-6.05,4.57-9.02,4.22
	c-1.99-0.22-4.06-0.46-6.62,0.96c-5.24,2.95-3.63,7.03-0.02,14.63l0.83,1.75c3.54,7.6,4.81,15.42,3.98,24.62
	c-0.59,6.49,1.2,9.02,4.43,13.65c0.9,1.29,1.94,2.75,3.04,4.48c1.68,2.69,2.23,5.2,1.59,7.49c-0.31,1.11-0.87,2.01-1.46,2.75
	c2.45-0.61,4.87-0.96,7.16-0.87c1.05,0.02,2.05,0.07,3.01,0.11c7.51,0.31,12.04,0.5,14.9-6.49c1.97-4.89,2.32-7.73,2.73-11.01
	c0.26-2.29,0.55-4.65,1.42-7.97l0.28-1.16c2.03-7.84,4.35-16.75,3.6-22.1c-0.66-4.78,1.46-7.71,4.63-12.12c0.85-1.2,1.79-2.51,2.8-4
	c3.6-5.4,6.57-7.86,9.3-7.75c1.94,0.07,3.67,1.46,5.15,4.13c3.98,7.19,9.09,8.21,15.53,7.51c7.67-0.83,11.05,2.58,13.74,7.93
	c2.16,4.35,7.01,6.95,12.97,6.95c1.64,0,2.84-0.55,3.56-1.64c1.22-1.86,1.05-5.2-0.52-8.93c-1.42-3.43-1.46-6.27-0.15-8.26
	c1.38-2.08,4.11-3.1,8.08-3.1c7.97,0,9.94-1.97,11.99-4.94l0.24-0.35c1.44-2.1,3.41-4.96,6.79-5.48c2.66-0.41,5.64,0.66,9.06,3.32
	c8.26,6.36,10.16,5.53,15.2,3.28l1.11-0.48c3.54-1.55,6.66-5.81,7.08-9.72c0.2-1.86-0.13-4.46-2.77-6.38
	c-4.81-3.47-9.24-9.15-8.28-12.67c0.31-1.16,1.33-2.6,4.43-2.88c6.03-0.59,6.86-1.4,9.33-3.78c0.74-0.7,1.64-1.57,2.84-2.6
	c5.74-4.89,10.11-4.63,17.3,1.03l1.18,0.94c6.97,5.53,14.87,11.77,32.13,6.73c-0.7-3.36,0.07-7.08,1.09-10.44
	c0.41-1.35,0.83-2.93,1.27-4.61c2.45-9.24,5.81-21.89,15.44-28.4c11.38-7.67,15.33-9.5,22.24-10.29c1.59-0.2,2.66-0.9,3.15-2.08
	c1.35-3.28-1.38-9.94-6.99-16.97C331.01,137.88,330.11,135.61,330.7,134.08"/>
<path class="st0" d="M264.24,207.98l-1.18-0.94c-7.45-5.83-10.97-5-15.6-1.05c-1.18,0.98-2.03,1.81-2.77,2.53
	c-2.58,2.49-3.65,3.52-10.13,4.15c-1.9,0.17-2.99,0.83-3.3,1.92c-0.68,2.56,2.88,7.69,7.8,11.23c2.47,1.79,3.65,4.48,3.3,7.62
	c-0.46,4.39-3.84,9.02-7.86,10.77l-1.09,0.48c-5.29,2.36-7.69,3.41-16.56-3.43c-3.1-2.4-5.81-3.43-8.06-3.08
	c-2.82,0.46-4.52,2.95-5.9,4.94l-0.24,0.35c-2.58,3.74-5.2,5.5-13.08,5.5c-3.52,0-5.85,0.85-6.97,2.51
	c-1.07,1.59-0.96,4.02,0.28,7.01c1.75,4.22,1.9,7.93,0.39,10.18c-0.98,1.46-2.6,2.25-4.67,2.25c-6.47,0-11.77-2.88-14.18-7.69
	c-2.51-5-5.46-7.95-12.38-7.21c-8.26,0.87-13.13-1.49-16.86-8.17c-1.22-2.25-2.6-3.41-4.02-3.47c-2.18-0.09-4.89,2.27-8.15,7.16
	c-1.03,1.51-1.97,2.84-2.82,4.04c-3.1,4.3-4.98,6.92-4.39,11.16c0.76,5.61-1.57,14.66-3.65,22.63l-0.28,1.14
	c-0.85,3.25-1.14,5.57-1.4,7.82c-0.39,3.23-0.76,6.29-2.82,11.34c-3.19,7.86-8.63,7.62-16.19,7.32c-0.94-0.04-1.94-0.09-2.99-0.11
	c-8.08-0.2-17.78,4.89-25.58,9.02c-1.07,0.57-2.1,1.11-3.08,1.62c-7.95,4.11-12.3,9.44-16.75,15.46c-4.13,5.59-4.61,9.46-4.06,15.49
	c0.28,3.01,2.32,9.79,4.28,16.34c1.7,5.68,3.47,11.53,4.08,14.94c1.29,7.27,3.01,9.94,10.09,10.42c3.95,0.28,6.23,1.18,7.36,2.95
	c1.27,1.97,1.05,4.87-0.76,9.72c-1.7,4.52-3.65,5.9-5.9,7.51c-1.99,1.44-4.26,3.06-6.97,7.47c-5.11,8.39-9.26,27.61-10,31.13
	c5.59,2.12,13.48,2.12,19-0.46c6.73-3.12,20.16-5.72,22.78-6.23c1.97-10.94,5.5-25.47,8.1-36.13c0.52-2.14,1-4.08,1.4-5.77
	c2.95-12.25,16.78-15.6,30.16-18.83c1.33-0.33,2.69-0.66,4.02-0.98c13.48-3.39,31.48-6.88,34.03-7.38
	c2.29-5.44,8.21-9.81,12.93-13.3c1.05-0.76,2.03-1.49,2.93-2.18c7.01-5.46,7.95-8.1,5.29-14.9c-3.98-10.11-2.97-17.19,3.08-21.67
	c6.12-4.52,12.25-3.08,20.73-1.09c1.7,0.41,3.49,0.83,5.42,1.22c9.04,1.9,13.02-2.23,18.04-7.47c0.96-1,1.97-2.03,3.04-3.06
	c3.98-3.82,4.72-8.21,5.74-14.29c0.59-3.49,1.25-7.45,2.69-12.08c3.93-12.58,10.62-14.13,23.18-12.73
	c9.79,1.09,12.06-2.66,14.94-7.4c0.46-0.74,0.92-1.49,1.42-2.23c3.89-5.85,7.34-8.45,14.39-5.46c5.35,2.25,12.76,2.42,15.33,2.4
	c-0.11-0.37-0.2-0.72-0.24-1.11c-0.17-2.21,1.16-4.39,4.08-6.68c7.27-5.72,9.2-19.51,6.05-27.98c-2.66-7.16-5.07-7.95-10.35-9.68
	c-1.22-0.39-2.6-0.85-4.15-1.42c-4.43-1.66-6.71-4.22-7.67-7.12C279.64,220.17,271.1,213.44,264.24,207.98"/>
<path class="st0" d="M335.82,454.79c-5.55-1.59-7.43-2.12-18.48-10.03c-6.14-4.37-7.6-3.87-9.81-3.08c-1.7,0.59-3.82,1.33-8.23,0.31
	c-6.88-1.57-7.64-0.07-9.33,3.25c-0.66,1.29-1.46,2.91-2.8,4.61c-4.22,5.37-10.86,4.61-19.75-2.23c-1.64-1.27-3.28-2.32-4.7-3.25
	c-4.59-2.97-8.19-5.33-6.23-10.57c2.84-7.6,5.18-17.52,3.15-22.5c-2.16-5.26-4.96-5.07-15.36-4.3l-0.17,0.02
	c-10.48,0.76-14.13,1.53-21.45,3.04l-0.42,0.09c-5.05,1.05-6.25,2.73-8.87,6.4c-1.14,1.57-2.53,3.54-4.61,5.92
	c-5.96,6.88-16.69,0.17-24.53-4.72c-1.64-1.03-3.17-1.99-4.5-2.71c-8.56-4.72-15.99-13.67-19.37-23.35
	c-0.87-2.51-0.85-4.87-0.22-7.06c-4.28,0.85-20.69,4.08-33.2,7.23c-1.33,0.33-2.69,0.66-4.02,0.98
	c-13.61,3.28-26.43,6.38-29.18,17.85c-0.42,1.68-0.87,3.63-1.4,5.77c-3.41,13.98-9.11,37.37-9.57,46.85
	c-0.46,9.72,1.88,16.58,6.07,17.89c3.58,1.11,7.36,3.8,12.17,7.19c0.94,0.68,1.9,1.35,2.9,2.05c5.94,4.13,6.86,4.57,15.25,4.04
	c7.34-0.44,16.84,0.63,20.49,8.21c0.76,1.59,1.35,3.12,1.94,4.63c1.9,4.78,3.52,8.93,9.3,12.6c8.13,5.13,23.04,9.22,30.1,8.26
	c2.71-0.37,5.26-2.53,7.73-4.63c4.15-3.52,8.45-7.19,13.24-1.68c3.54,4.06,7.67,5.5,10.99,6.66c3.25,1.14,6.07,2.1,6.92,5.09
	c0.42,1.51,0.55,2.88,0.66,4.08c0.31,3.34,0.46,5,6.05,5.35c9.83,0.61,18.33,7.91,23.31,20.01c5.33,12.97,15.27,31.72,15.6,32.35
	c3.87-0.87,8.08-2.32,12.28-4.59c5.15-2.77,10.24-6.75,14.59-12.43c2.91-3.8,5.66-8.39,8.41-12.97
	c6.95-11.55,13.98-23.24,24.14-23.81c1.05-0.07,2.14-0.13,3.23-0.17c12.95-0.7,27.17-1.44,34.01-8.28c3.71-3.71,6.2-7.03,7.08-10.22
	c0.87-3.1,0.17-6.14-2.42-9.37c-2.84-3.49-4.04-7.38-4.37-11.55c-0.35-4.11,0.17-8.45,0.85-12.93l0.11-0.76
	c0.92-6.36,1.75-11.82,5.74-14.37c-1.68-1.03-6.84-4.13-12.36-7.75C346.9,459.72,340.04,455.99,335.82,454.79"/>
<path class="st0" d="M419.82,380.09c-3.32-4.74-8.87-6.03-12.63-5.22c-4.02,0.87-11.36-1.66-14.35-9.83c-1.38-3.76-3.28-5-5.09-6.2
	c-1.88-1.22-3.65-2.4-4.35-5.9c-1.25-6.23-4.72-9.52-10.68-13.41c-5.88-3.82-9.09-6.38-6.79-14.07c1.92-6.51-1.18-8.32-8.19-10.68
	c-6.55-2.18-12.06-9.35-16.36-21.3c-2.73-7.64-11.31-11.58-18.22-14.72c-2.01-0.92-3.91-1.79-5.5-2.69
	c-2.73-1.51-5.77-3.45-7.23-5.81c-1.88,0.04-10.29,0.11-16.47-2.51c-6.27-2.66-9.11-0.5-12.78,4.98c-0.48,0.72-0.92,1.46-1.38,2.18
	c-2.88,4.74-5.64,9.22-16.23,8.04c-12.08-1.35-18.06,0.04-21.73,11.82c-1.42,4.52-2.1,8.45-2.66,11.9
	c-1.03,6.07-1.83,10.88-6.14,15.01c-1.05,1-2.03,2.03-2.99,3.04c-5.11,5.31-9.5,9.89-19.29,7.84c-1.92-0.39-3.71-0.83-5.44-1.22
	c-8.13-1.92-14.02-3.3-19.61,0.85c-5.5,4.06-6.38,10.66-2.66,20.12c3.1,7.86,1.31,11.01-5.68,16.45c-0.92,0.7-1.92,1.44-2.95,2.21
	c-7.03,5.18-15.79,11.64-12.78,20.29c3.93,11.21,12.28,19.02,18.76,22.61c1.35,0.74,2.91,1.73,4.54,2.75
	c7.45,4.63,17.63,10.99,22.85,4.98c2.01-2.34,3.39-4.28,4.5-5.83c2.69-3.71,4.15-5.79,9.7-6.92l0.42-0.09
	c7.36-1.53,11.05-2.29,21.62-3.06l0.17-0.02c10.59-0.76,14.15-1.03,16.69,5.13c2.73,6.71-1.7,19.66-3.15,23.46
	c-1.51,4.06,0.79,5.79,5.7,8.98c1.46,0.96,3.12,2.03,4.81,3.32c8.3,6.4,14.15,7.21,17.87,2.47c1.27-1.59,2.01-3.08,2.66-4.39
	c1.92-3.78,3.28-5.68,10.81-3.93c4.04,0.92,5.88,0.28,7.49-0.28c2.69-0.94,4.65-1.29,11.03,3.25c10.88,7.78,12.69,8.3,18.06,9.83
	c4.35,1.25,11.34,5.02,21.34,11.58c6.71,4.37,12.84,8.02,12.89,8.06c0.04,0.02,0.04,0.07,0.09,0.11c1.31-0.55,2.91-0.87,4.87-0.87
	c2.53,0,5.53-0.22,8.69-0.46c8.69-0.66,18.63-1.4,23.76,2.14c6.29,4.35,10.55,0.26,16.45-5.4l0.31-0.28
	c3.17-3.04,7.73-9.5,11.86-16.4c3.95-6.64,7.49-13.65,8.87-18.35c1.44-4.78,2.27-8.85,2.47-12.56c0.2-3.67-0.26-6.99-1.4-10.31
	c-0.37-1.03-0.81-2.18-1.27-3.36c-2.18-5.64-4.78-12.41-2.66-18.57c-1.88-0.42-3.63-0.79-5.2-1.14
	C428.1,385.77,423.05,384.7,419.82,380.09"/>
<path class="st0" d="M531.33,206.39c-2.6-4.26-6.2-6.49-10-8.85c-3.39-2.1-6.88-4.26-10.29-8.04c-5.77-6.38-9.28-14.94-11.55-22.45
	c-3.47,0.63-21.56,3.65-29.84-1.73c-1.59-1.03-3.32-2.32-5.13-3.71c-8.54-6.44-20.23-15.27-35.82-9.79
	c-10.33,3.63-15.49,3.78-19.64,3.91c-3.67,0.11-6.31,0.17-11.1,2.58c-10.81,5.4-16.14,3.58-25.71-1.83
	c-5.31-3.01-7.06-6.71-8.47-9.65c-1.22-2.53-2.18-4.54-4.98-5.44c-2.42-0.79-4.72-1.07-6.95-1.38c-3.65-0.46-7.1-0.9-10-3.47
	c-2.71-2.38-8.21-3.76-9.63-2.4c-0.9,0.85-0.09,3.01,2.23,5.94c5.98,7.51,8.74,14.53,7.19,18.3c-0.68,1.64-2.14,2.64-4.24,2.88
	c-6.64,0.76-10.48,2.56-21.62,10.07c-9.24,6.23-12.52,18.59-14.92,27.63c-0.44,1.7-0.87,3.28-1.29,4.65
	c-2.84,9.39-1,14.53,6.14,17.21c1.53,0.57,2.86,1,4.08,1.4c5.53,1.81,8.3,2.71,11.18,10.48c3.32,8.93,1.49,23.24-6.47,29.49
	c-2.51,1.97-3.71,3.82-3.58,5.53c0.17,2.23,2.47,4.46,7.4,7.21c1.55,0.85,3.43,1.7,5.42,2.62c7.12,3.25,15.97,7.3,18.92,15.49
	c4.08,11.38,9.44,18.48,15.51,20.49c6.77,2.25,11.38,4.46,9.04,12.32c-1.92,6.51,0.2,8.61,6.25,12.56
	c6.29,4.11,9.94,7.58,11.27,14.29c0.59,2.95,1.99,3.87,3.76,5.05c1.92,1.27,4.08,2.69,5.61,6.86c2.82,7.69,9.74,9.63,12.82,8.98
	c4.17-0.9,10.35,0.52,14,5.77c2.93,4.17,7.49,5.13,16.6,7.06c1.66,0.35,3.47,0.74,5.44,1.18c0.26-0.55,0.52-1.09,0.87-1.62
	c4.22-6.66,3.32-8.15,1.53-11.16c-0.26-0.42-0.52-0.85-0.76-1.29c-1.22-2.18-1.97-4.3-1.9-6.77c0.07-2.45,0.94-5.22,2.95-8.69
	c1.94-3.36,3.8-7.19,4.94-10.92c1.11-3.69,1.51-7.3,0.5-10.29c-0.41-1.24-0.92-2.42-1.38-3.52c-1.83-4.37-3.28-7.84,0.37-14.7
	c1.25-2.38,2.23-5.83,3.25-9.55c2.64-9.41,5.74-20.42,15.27-20.82c11.49-0.46,18.74-3.71,28.31-7.99c1.14-0.5,2.25-0.98,3.06-1.35
	c6.47-2.86,14.98-6.99,22.69-10.75c5.72-2.77,11.01-5.35,14.66-7.01l0.63-0.28c7.91-3.58,11.03-5,11.03-13.54
	c0-1.14-0.02-2.14-0.04-3.17c-0.17-8.28-0.35-17.15,9.79-21.01C554.13,221.33,535.8,213.7,531.33,206.39"/>
<g>
	<path class="st1" d="M361.24,384.91l-3.49,4.35h2.71l4.76-4.35H361.24z M361,415.77h-3.3v-10.75l-8.02-14.59h3.74l3.56,6.99
		c0.98,1.92,1.73,3.47,2.53,5.22h0.07c0.72-1.64,1.57-3.3,2.56-5.22l3.65-6.99h3.74L361,404.98V415.77z M331.93,415.77h3.28v-9.65
		l2.4-2.8l8.37,12.45h3.87l-9.89-14.59l9.17-10.75h-4.06l-7.73,9.5c-0.66,0.83-1.33,1.75-2.01,2.71h-0.11v-12.21h-3.28V415.77z
		 M312.12,414.55c1.35,0.9,4.02,1.62,6.47,1.62c5.98,0,8.89-3.39,8.89-7.3c0-3.74-2.18-5.81-6.49-7.45
		c-3.49-1.35-5.02-2.53-5.02-4.89c0-1.73,1.31-3.8,4.76-3.8c2.29,0,4,0.74,4.83,1.2l0.9-2.66c-1.14-0.66-3.01-1.25-5.61-1.25
		c-4.91,0-8.19,2.93-8.19,6.88c0,3.58,2.56,5.72,6.71,7.19c3.41,1.31,4.76,2.66,4.76,5.05c0,2.56-1.94,4.32-5.29,4.32
		c-2.27,0-4.41-0.76-5.88-1.66L312.12,414.55z M291.74,415.77v-10.83c0-4.19-0.09-7.25-0.26-10.44l0.11-0.04
		c1.27,2.75,2.97,5.64,4.74,8.45l8.04,12.87h3.32v-25.34h-3.08v10.59c0,3.95,0.07,7.03,0.37,10.42l-0.09,0.04
		c-1.2-2.6-2.66-5.26-4.54-8.23l-8.13-12.82h-3.56v25.34H291.74z M282.79,384.67l-3.45,4.41H282l4.81-4.41H282.79z M279.66,415.77
		h3.28v-25.34h-3.28V415.77z M261.9,415.77h14.11v-2.73h-10.83v-22.61h-3.28V415.77z M239.39,415.77h18.5v-2.73h-14.18v-0.11
		l14-20.51v-1.99h-17.12v2.75h12.87v0.11l-14.07,20.58V415.77z"/>
</g>
</svg>
