<?xml version="1.0" encoding="utf-8"?>
<!-- Generator: Adobe Illustrator 26.2.1, SVG Export Plug-In . SVG Version: 6.00 Build 0)  -->
<svg version="1.1" id="Vrstva_1" xmlns="http://www.w3.org/2000/svg" xmlns:xlink="http://www.w3.org/1999/xlink" x="0px" y="0px"
	 viewBox="0 0 595.28 841.89" style="enable-background:new 0 0 595.28 841.89;" xml:space="preserve">
<style type="text/css">
	.st0{fill:#81B8D6;}
	.st1{fill:#FFFFFF;}
</style>
<path class="st0" d="M398.37,219.18c-0.24,2.85,0.81,6.5,1.82,10.02c0.89,3.14,1.76,6.11,1.8,8.66c0.02,0.87,0.06,1.62,0.1,2.31
	c0.16,3.64,0.24,5.46-2.59,10.58c-2.95,5.38-3.18,11.8-3.38,18.01l-0.04,1.44c-0.22,5.77-5.16,7.89-12.65,11.13
	c-1.8,0.77-3.76,1.62-5.87,2.61c-11.19,5.22-17.24,4.25-23.11,3.3c-5.85-0.93-8.84,0.26-11.09,4.41c-0.77,1.42-1.28,2.39-1.74,3.3
	c-1.01,1.94-1.82,3.48-4.55,8.22c-2.77,4.8-2.91,14.77-3.02,22.81c-0.04,3.24-0.08,6.29-0.28,8.64
	c-0.79,8.74-17.12,13.4-22.46,14.94c-6.25,1.78-15.72,3.44-21.88,4.25l-0.91,0.12c-5.75,0.73-7.1,0.89-9.15,4.98
	c-1.03,2.1-2.31,3.7-3.78,5.08c2.21,0.75,7.87,2.75,14.25,5.59c1.34,0.59,2.49,1.09,3.5,1.56c5.22,2.35,6.8,3.06,12.2,3.95
	c0.95,0.16,1.86,0.28,2.73,0.4c5,0.67,8.94,1.21,9.39,7.79c0.45,6.37,3.72,9.23,10.64,9.23h2.91c5.28,0.02,9.86,0.04,15.91-0.49
	c6.33-0.53,10.36-3.18,13.9-5.5l1.05-0.69c4.09-2.63,7.41-4.21,13.01-0.49c3.66,2.45,7.59,2.51,11.03,2.55
	c1.58,0.02,3.08,0.04,4.47,0.26c3.64,0.61,9.45-1.72,15.5-6.17c1.92-1.42,4.33-3.89,7.12-6.76c4.47-4.59,9.57-9.79,14.47-12.53
	c7.89-4.35,17.38-4.05,20.72-1.9c1.27,0.81,2.77,0.97,4.13,0.45c1.58-0.63,2.75-2.12,3.3-4.21c1.01-3.99,3.04-9.96,3.62-11.68
	c-0.65-0.69-1.25-1.48-1.84-2.45c-2.1-3.5-6.7-12.51-10.54-20.93c-2.83-6.19-5.24-12.08-5.97-15.3c-0.87-3.87-1.05-7.18,0.22-9.88
	c1.28-2.73,3.99-4.76,8.88-6.01c4.63-1.19,9.59-4.07,14.51-7.75c4.94-3.68,9.82-8.22,14.29-12.69c0.63-0.63,1.5-1.5,2.35-2.35
	c7.63-7.51,12.97-12.79,12.97-22.91c0-5.75,0.18-10.16,1.4-13.17c1.27-3.16,3.6-4.8,7.85-4.8c2.61,0,5-0.91,6.68-2.47
	c0.79-0.71,1.42-1.56,1.84-2.51c0.43-0.93,0.67-1.98,0.67-3.12c0-2.45-1.11-5.26-3.78-8.16c-4.09-4.47-12.79-12.39-21.09-19.47
	c-8.28-7.08-16.17-13.34-18.66-14.53c-2.49-1.19-5.16-1.9-8.07-2.33c-2.93-0.4-6.11-0.53-9.59-0.53c-3.46,0-6.66,0.22-9.01,1.27
	c-2.27,1.01-3.78,2.81-4.01,5.95c-0.24,3.46-0.69,6.62-2.23,9.29c-1.54,2.69-4.19,4.84-8.82,6.21c-9.35,2.77-10.46-0.71-12.22-6.23
	l-0.06-0.18c-0.79-2.49-2.33-3.97-4.21-4.82c-1.94-0.85-4.29-1.09-6.64-1.09c-1.68,0-4.17-0.14-6.92-0.3
	c-5.16-0.3-11.19-0.65-14.31-0.18c-2.65,0.4-5.99,1.78-8.54,4.57c-1.92,2.1-3.4,5.04-3.8,8.97c-0.28,2.75-0.16,4.82-0.08,6.44
	c0.04,0.81,0.08,1.52,0.08,2.19c2.77,0.32,14.89,1.78,19.35,2.75C395.84,210.1,398.83,213.86,398.37,219.18"/>
<path class="st0" d="M193.13,198.21c2.49,6.09,2.63,15.46,2.75,23.7c0.06,5.26,0.14,10.24,0.79,13.8
	c1.11,6.13,6.29,10.91,10.87,15.12c2.25,2.06,4.37,4.03,5.95,6.03c4.45,5.67-1.44,11.58-5.73,15.87c-0.75,0.75-1.46,1.46-2.04,2.1
	c-1.13,1.25-2.17,2.06-3.16,2.53c1.23,1.74,5.14,6.88,9.19,7.35c5.48,0.63,9.71,1.68,10.34,8.78c0.61,6.84,0.85,9.39,6.25,12.71
	c0.97,0.61,1.98,1.19,3.02,1.8c5.16,3,10.48,6.09,10.71,10.44l0.06,1.4c0.14,3.68,0.18,4.57,3.16,6.46
	c3.93,2.49,5.24,5.89,6.09,10.58c0.28,1.64,0.77,3.22,1.21,4.76c0.85,2.83,1.74,5.75,1.58,9.29c-0.16,3.6,1.52,7.08,3,10.14
	c0.65,1.34,1.25,2.57,1.68,3.78c0.67,1.84,1.88,3.18,3.42,3.72c1.72,0.63,3.72,0.3,5.85-0.91c4.67-2.69,7.91-4.78,10.16-9.31
	c2.35-4.65,4.29-4.92,10.1-5.65l0.91-0.12c6.11-0.79,15.5-2.45,21.69-4.21c13.84-3.97,21.09-8.62,21.57-13.86
	c0.2-2.29,0.24-5.34,0.28-8.56c0.1-8.16,0.24-18.33,3.18-23.39c2.71-4.7,3.52-6.23,4.53-8.18c0.47-0.89,0.97-1.88,1.74-3.3
	c2.51-4.65,5.99-6.07,12.39-5.04c5.93,0.95,11.54,1.84,22.38-3.22c2.12-0.99,4.11-1.84,5.91-2.63c7.31-3.16,11.7-5.06,11.88-10.02
	l0.06-1.46c0.2-6.35,0.42-12.91,3.54-18.54c2.65-4.84,2.59-6.33,2.43-9.96c-0.04-0.69-0.08-1.46-0.1-2.33
	c-0.04-2.41-0.87-5.28-1.76-8.36c-1.05-3.62-2.12-7.39-1.86-10.46c0.57-6.33-4.31-8.38-7.27-9.03c-4.31-0.93-16.33-2.39-19.18-2.73
	c-0.34,1.98-1.64,3.42-5.75,5.59c-7.24,3.85-9.86,1.25-12.91-1.8c-0.55-0.55-1.13-1.11-1.74-1.66c-2.02-1.76-1.62-4.09-1.05-7.22
	c0.59-3.4,1.38-7.85-0.79-13.56c-1.03-2.75-2-5.75-2.95-8.7c-2.77-8.58-5.44-16.88-9.51-18.07c-2.83-0.81-5.67-1.3-8.86-0.77
	c-3.22,0.55-6.84,2.08-11.23,5.3c-2.12,1.54-3.87,3.02-5.36,4.31c-5.08,4.31-7.69,6.54-13.19,2.21c-3.78-2.97-3.72-4.96-3.66-7.69
	c0.08-2.27,0.16-5.1-2.29-9.67l-1.4-2.59c-4.78-8.97-9.35-17.55-13.62-19.67c-3.38-1.7-6.25,0.3-9.98,2.87
	c-1.21,0.87-2.53,1.78-4.03,2.67c-5.42,3.26-6.48,3.28-15.14,3.4c-1.17,0.02-2.49,0.02-4.01,0.06c-1.56,0.02-3.08,0.08-4.55,0.12
	c-10.12,0.3-17.3,0.53-20.84-5.22c-1.88-3.08-4.03-5.69-7.43-7.71c-3.08-1.82-7.2-3.2-13.13-4.07c-2.1,3.62-12.99,22.65-14.49,31.12
	C181.19,165.46,188.53,186.94,193.13,198.21"/>
<path class="st0" d="M452.99,362.38c-1.72,0.67-3.62,0.47-5.24-0.57c-2.57-1.64-11.54-2.43-19.45,1.96
	c-4.76,2.63-9.77,7.77-14.21,12.3c-2.83,2.91-5.26,5.4-7.27,6.88c-3.04,2.25-10.69,7.35-16.43,6.42c-1.32-0.22-2.75-0.24-4.29-0.26
	c-3.62-0.04-7.73-0.1-11.7-2.75c-5-3.32-7.73-2.02-11.66,0.51l-1.03,0.67c-1.68,1.09-3.56,2.33-5.81,3.38
	c0.28,1.54,1.07,6.66,0.34,11.25c-0.89,5.52,0.02,14.13,4.03,20.88c4.01,6.76,7.47,12.59,7.47,18.09c0,0.93,0.08,2.02,0.14,3.2
	c0.36,5.54,0.85,13.13-5.16,15.18c-1.05,0.36-2.06,0.67-3.04,0.97c-5.1,1.58-8.48,2.63-8.76,7.33c-0.08,1.36,0.18,2.31,0.79,2.81
	c1.15,0.99,3.56,0.47,5.3,0.08c0.55-0.12,1.03-0.22,1.44-0.28c3.54-0.49,5.26,4.43,6.25,8.2c1.34,5.12,5.67,15.87,12.41,19.83
	c2.51,1.46,5.22,2.73,7.87,3.95c4.78,2.21,9.71,4.47,13.66,8.12c11.7,10.77,20.7,16.86,26.03,17.63c4.88,0.69,6.42,1.32,8.72,2.27
	c1.34,0.55,3,1.21,5.79,2.1c7.22,2.31,8.2,2.41,17.55,3.36l1.32,0.12c9.9,1.01,17.89,0.34,23.72-0.14l1.21-0.1
	c3.42-0.26,5.69-1.17,6.98-2.73c1.03-1.23,1.42-2.89,1.17-5.06c-0.12-1.05-0.42-2.41-0.79-3.95c-1.46-6.31-3.66-15.85,4.59-20.84
	c6.05-3.66,12.93-7.45,18.98-10.81c3.78-2.08,7.35-4.05,10.3-5.77c7.55-4.35,12.61-10.08,17.99-16.55c0.85-1.03,1.6-1.96,2.29-2.79
	c3.6-4.47,5.4-6.72,9.69-7.47c3.54-0.63,7.85-1.44,9.86-1.82c-2.06-2.87-2.65-6.25-3.32-10.22c-0.1-0.59-0.2-1.17-0.32-1.96
	c-0.73-4.01-2.73-12.67-5.36-21.01c-1.78-5.63-3.82-11.11-5.95-14.87c-3.97-7.02-11.62-16.66-17.42-23.98
	c-1.94-2.45-3.68-4.63-5.04-6.44c-2.61-3.44-4.43-5.2-6.17-6.01c-1.72-0.79-3.46-0.67-5.91-0.32c-2.59,0.38-5.32,0.57-7.87-0.16
	c-2.59-0.73-4.94-2.39-6.72-5.69c-1.9-3.52-4.78-8.48-7.53-12.79c-2.15-3.36-4.23-6.33-5.71-7.89c-1.54-1.68-3.66-2.53-6.05-2.63
	c-2.55-0.12-5.42,0.57-8.3,2.02c-3,1.5-5.71,2.31-8.16,1.94c-1.36-0.18-2.61-0.73-3.78-1.68c-0.73,2.19-2.49,7.45-3.42,11.07
	C456.39,359.81,454.95,361.61,452.99,362.38"/>
<path class="st0" d="M37.27,287.93c-2.25,6.09-0.59,9.75,1.03,13.32c0.38,0.87,0.81,1.78,1.15,2.71c1.72,4.72,1.96,6.03,1.36,13.7
	c-0.42,5.34,2.25,7.87,5.08,10.56c0.99,0.95,2.02,1.92,2.89,3.04c2.71,3.4,1.66,6.37,0.06,10.85c-0.49,1.36-1.01,2.87-1.52,4.59
	c-1.34,4.49-4.96,5.67-7.87,6.62c-2.1,0.67-3.91,1.25-4.49,2.85c-1.17,3.28-0.16,7.75,3.12,13.64c1.66,3.02,1.34,6.5-0.57,9.45
	c2.35,1.25,11.6,6.01,20.03,7.04c9.23,1.13,14.57,3.18,14.57,10.3c0,5.46,3.85,10.62,10.06,13.48c4.76,2.19,5.89,2.02,14.73,0.73
	c1.56-0.22,3.38-0.51,5.48-0.79c1.3-0.18,2.53-0.36,3.74-0.53c11.68-1.7,19.49-2.81,27.56,4.27c1.13-1.4,2.41-2.55,3.85-3.42
	c3.04-1.8,6.92-5.08,11.07-8.52c2.39-2,4.86-4.07,7.27-5.95c1.5-1.15,3.16-2.67,4.9-4.29c5.91-5.38,13.21-12.1,20.95-11.31
	c6.21,0.61,10.54,4.37,15.14,8.34c2.87,2.49,5.85,5.04,9.55,7.22c4.05,2.37,7.02,3.16,9.37,2.51c2.63-0.75,4.45-3.36,6.72-7.59
	c3.5-6.56,9.9-5.69,15.04-5c0.87,0.12,1.72,0.24,2.51,0.32l1.17,0.1c4.41,0.45,6.44,0.65,11.13-4.27c4.61-4.82,6.78-12.12,7.2-13.68
	c-0.81-0.79-1.46-1.78-1.88-2.97c-0.4-1.13-1.01-2.37-1.64-3.66c-1.54-3.2-3.3-6.82-3.12-10.75c0.16-3.32-0.65-6.01-1.52-8.86
	c-0.47-1.56-0.95-3.18-1.25-4.9c-0.79-4.35-1.98-7.51-5.52-9.75c-3.52-2.23-3.58-3.66-3.74-7.45l-0.06-1.4
	c-0.18-3.66-5.2-6.6-10.08-9.43c-1.03-0.61-2.08-1.21-3.06-1.8c-5.93-3.66-6.21-6.78-6.82-13.6c-0.55-6.27-4.03-7.12-9.27-7.73
	c-4.86-0.57-9.23-6.66-10.24-8.16c-0.24,0.06-0.49,0.12-0.73,0.12h-0.02c-1.8,0-3.34-1.27-5.12-3.18c-0.93-1.01-1.72-1.5-2.55-1.46
	c-1.38,0.04-2.73,1.56-4.51,3.72c-2.21,2.69-4.94,5.04-8.48,2.15c-2.71-2.21-8.16-11.15-11.19-18.4c-0.79-1.86-2.06-3.06-3.82-3.58
	c-3.32-0.97-7.95,0.69-10.87,2.65c-2.81,1.9-4.01,11.17-4.88,17.93c-0.32,2.53-0.61,4.72-0.91,6.25c-0.77,3.68-3.3,7.24-6.44,9.07
	c-1.6,0.93-3.26,1.4-4.94,1.4c-0.95,0-1.92-0.14-2.85-0.45c-5.91-1.9-9.05-6.35-13.01-11.98c-0.49-0.67-0.95-1.36-1.46-2.04
	c-3.52-4.92-16.68-5.22-23.76-5.38c-1.86-0.04-3.34-0.08-4.35-0.16c-2.61-0.26-4.63,0.2-6.01,1.34c-1.3,1.09-2.06,2.85-2.27,5.24
	c-0.26,2.85-1.68,5.38-3.95,6.96c-2.23,1.58-5.1,2.04-7.85,1.32c-0.93-0.24-1.88-0.47-2.87-0.69c-4.72-1.05-10.06-2.25-15.79-8.07
	c-5.44-5.52-9.84-4.8-11.15-4.41c0.12,2.02-0.65,3.64-1.78,5.99C39.07,283.6,38.18,285.45,37.27,287.93"/>
<path class="st0" d="M241.1,387.42l-1.17-0.12c-0.81-0.06-1.66-0.18-2.55-0.3c-5.02-0.69-10.71-1.46-13.78,4.35
	c-2.02,3.76-4.11,7.22-7.49,8.2c-2.67,0.75-5.95-0.08-10.32-2.63c-3.8-2.25-6.82-4.84-9.73-7.37c-4.63-4.01-8.64-7.47-14.45-8.05
	c-7.16-0.71-14.27,5.79-19.99,11.03c-1.76,1.62-3.44,3.16-4.98,4.33c-2.39,1.86-4.86,3.93-7.22,5.93
	c-4.17,3.48-8.12,6.78-11.23,8.64c-4.43,2.65-7.43,8.36-8.66,16.49c-0.14,1.03-0.32,2.06-0.49,3.08c-1.19,6.94-2.31,13.5,2.71,17.91
	l0.36,0.32c5.87,5.16,9.11,7.99,1.66,18.17l-1.34,1.82c-6.42,8.66-8.56,11.58,0.51,19.37c4.53,3.87,7.35,5.81,9.59,7.35
	c2.81,1.94,4.67,3.22,7.67,6.76c5.71,6.74,10.04,10.18,16.61,9.11c7.47-1.25,13.46-5.38,18.82-9.67c5.69-4.55,14.55-7.16,24.35-7.16
	c3.22,0,6.11-1.11,9.17-2.29c4.96-1.92,10.56-4.09,18.82-1.8c12.39,3.44,18.54,3.04,24.39-1.58c2.31-1.82,3.56-5.52,4.92-9.41
	c1.88-5.5,4.03-11.76,9.71-14.39c3.76-1.72,6.92-1.78,9.43-0.18c2.97,1.9,4.76,6.25,4.76,11.64c0,4.33,0.93,7.04,2.73,8.09
	c1.9,1.09,4.9,0.47,8.92-1.86c2.87-1.64,5.32-3.48,7.71-5.26c5.59-4.17,10.85-8.12,19.71-8.12c10.1,0,17.34-0.28,19.55-0.38
	c-0.08-0.51-0.14-1.05-0.1-1.68c0.34-5.54,4.45-6.82,9.63-8.42c0.95-0.3,1.96-0.61,3.02-0.97c5.1-1.72,4.67-8.5,4.33-13.92
	c-0.08-1.19-0.16-2.31-0.16-3.28c0-5.18-3.38-10.87-7.29-17.46c-4.17-7.02-5.1-15.97-4.19-21.71c0.65-4.11,0-8.78-0.28-10.56
	c-2.17,0.89-4.61,1.6-7.53,1.84c-5.1,0.42-9.15,0.51-13.44,0.51c-0.85,0-1.7-0.02-2.57-0.02h-2.91c-7.61,0-11.39-3.3-11.86-10.38
	c-0.38-5.59-3.22-5.95-8.34-6.64c-0.87-0.12-1.8-0.24-2.77-0.4c-5.55-0.93-7.31-1.72-12.51-4.07c-1.01-0.45-2.17-0.95-3.5-1.54
	c-7.16-3.18-13.42-5.32-14.81-5.79c-1.68,1.38-3.6,2.55-5.79,3.8c-1.62,0.93-3.2,1.4-4.65,1.4c-0.79,0-1.52-0.12-2.23-0.38
	c-0.45-0.16-0.87-0.38-1.25-0.63c-0.69,2.37-2.89,9.03-7.35,13.66C248.15,388.11,245.64,387.86,241.1,387.42"/>
<g>
	<path class="st1" d="M413.24,384.29l-3.06,3.82h2.37l4.19-3.82H413.24z M413.04,411.31h-2.89v-9.41l-7-12.77h3.26l3.12,6.11
		c0.87,1.68,1.52,3.04,2.21,4.59h0.08c0.63-1.46,1.38-2.91,2.23-4.59l3.2-6.11h3.26l-7.45,12.73V411.31z M387.6,411.31h2.87v-8.46
		l2.1-2.43l7.31,10.89h3.38l-8.64-12.77l8.03-9.41h-3.56l-6.78,8.32c-0.57,0.73-1.15,1.52-1.74,2.39h-0.1v-10.71h-2.87V411.31z
		 M383.43,408.31c-1.15,0.57-2.93,0.93-4.67,0.93c-5.4,0-8.52-3.5-8.52-8.92c0-5.83,3.44-9.15,8.64-9.15c1.86,0,3.4,0.38,4.49,0.91
		l0.69-2.33c-0.77-0.4-2.51-0.99-5.26-0.99c-6.88,0-11.6,4.72-11.6,11.66c0,7.27,4.72,11.21,10.97,11.21c2.69,0,4.8-0.53,5.85-1.05
		L383.43,408.31z M363.82,398.54h-8.62v-7h9.11v-2.41h-11.98v22.18h12.47v-2.41h-9.59v-7.99h8.62V398.54z M333.29,391.54
		c0.75-0.16,1.86-0.3,3.34-0.3c6.07,0,9.03,3.32,8.99,8.56c0,5.99-3.32,9.41-9.43,9.41c-1.13,0-2.19-0.04-2.89-0.16V391.54z
		 M330.41,411.25c1.46,0.16,3.16,0.26,5.2,0.26c4.31,0,7.73-1.13,9.82-3.2c2.06-2.04,3.18-5,3.18-8.62c0-3.58-1.15-6.15-3.12-7.97
		c-1.94-1.8-4.88-2.75-8.99-2.75c-2.27,0-4.35,0.2-6.09,0.47V411.25z M314.44,402.1l2.19-6.42c0.42-1.36,0.79-2.71,1.11-4.03h0.06
		c0.34,1.3,0.67,2.61,1.15,4.05l2.17,6.4H314.44z M321.73,404.33l2.37,6.98h3.06l-7.57-22.18h-3.46l-7.53,22.18h2.95l2.31-6.98
		H321.73z M295.26,391.43c0.47-0.14,1.46-0.26,2.83-0.26c3.04,0.02,5.1,1.27,5.1,4.15c0,2.53-1.94,4.21-5,4.21h-2.93V391.43z
		 M292.41,411.31h2.85v-9.61h2.71c2.59,0.1,3.78,1.25,4.43,4.31c0.63,2.77,1.13,4.67,1.48,5.3h2.97c-0.47-0.85-0.99-3-1.72-6.09
		c-0.53-2.31-1.54-3.89-3.26-4.47v-0.1c2.35-0.79,4.19-2.73,4.19-5.67c0-1.7-0.63-3.22-1.74-4.21c-1.4-1.25-3.36-1.8-6.44-1.8
		c-1.96,0-4.05,0.16-5.48,0.47V411.31z M270.95,389.13v22.18h2.85v-10.4h10.73v10.4h2.89v-22.18h-2.89v9.29h-10.73v-9.29H270.95z
		 M262.19,384.09l-3.06,3.85h2.37l4.17-3.85H262.19z M266.24,398.54h-8.62v-7h9.11v-2.41h-11.96v22.18h12.47v-2.41h-9.61v-7.99h8.62
		V398.54z M244.42,411.31l7.93-22.18h-3.06l-3.76,10.95c-0.99,2.91-1.9,5.71-2.53,8.28h-0.06c-0.59-2.61-1.42-5.3-2.37-8.3
		l-3.46-10.93h-3.1l7.24,22.18H244.42z M222.57,391.11c4.78,0,7.08,4.59,7.08,9.01c0,5.04-2.57,9.21-7.1,9.21
		c-4.51,0-7.08-4.23-7.08-8.99C215.46,395.48,217.83,391.11,222.57,391.11 M222.71,388.76c-5.93,0-10.3,4.61-10.3,11.66
		c0,6.72,4.11,11.25,9.96,11.25c5.67,0,10.3-4.05,10.3-11.68C232.67,393.4,228.76,388.76,222.71,388.76 M199.48,411.31h12.32v-2.41
		h-9.47v-19.77h-2.85V411.31z M188.29,384.09l-3.06,3.85h2.35l4.19-3.85H188.29z M183.51,402.1l2.17-6.42
		c0.42-1.36,0.79-2.71,1.13-4.03h0.06c0.32,1.3,0.65,2.61,1.15,4.05l2.17,6.4H183.51z M190.77,404.33l2.37,6.98h3.08l-7.57-22.18
		h-3.46l-7.55,22.18h2.97l2.31-6.98H190.77z M164.32,391.43c0.47-0.14,1.44-0.26,2.83-0.26c3.02,0.02,5.1,1.27,5.1,4.15
		c0,2.53-1.94,4.21-5,4.21h-2.93V391.43z M161.45,411.31h2.87v-9.61h2.69c2.61,0.1,3.78,1.25,4.45,4.31
		c0.63,2.77,1.11,4.67,1.48,5.3h2.95c-0.47-0.85-0.99-3-1.7-6.09c-0.53-2.31-1.56-3.89-3.26-4.47v-0.1
		c2.33-0.79,4.17-2.73,4.17-5.67c0-1.7-0.63-3.22-1.74-4.21c-1.38-1.25-3.36-1.8-6.42-1.8c-1.98,0-4.05,0.16-5.5,0.47V411.31z
		 M143.62,411.31h2.85v-8.46l2.1-2.43l7.31,10.89h3.4l-8.66-12.77l8.03-9.41h-3.56l-6.78,8.32c-0.55,0.73-1.13,1.52-1.74,2.39h-0.1
		v-10.71h-2.85V411.31z"/>
</g>
</svg>
