<?xml version="1.0" encoding="utf-8"?>
<!-- Generator: Adobe Illustrator 26.2.1, SVG Export Plug-In . SVG Version: 6.00 Build 0)  -->
<svg version="1.1" id="Vrstva_1" xmlns="http://www.w3.org/2000/svg" xmlns:xlink="http://www.w3.org/1999/xlink" x="0px" y="0px"
	 viewBox="0 0 595.28 841.89" style="enable-background:new 0 0 595.28 841.89;" xml:space="preserve">
<style type="text/css">
	.st0{fill:#C4E6F5;}
	.st1{fill:#FFFFFF;}
</style>
<path class="st0" d="M221.17,332.49c0.99,0.12,2.16,0.26,3.46,0.48c7.44,1.32,8.79,2.38,11.04,8.82l0.5,1.35
	c0.83,2.31,1.28,3.58,0.73,4.59c-0.62,1.13-2.16,1.49-5.52,2.26l-0.47,0.1c-1.56,0.36-2.58,0.96-3.1,1.85
	c-1.11,1.88-0.21,5.17,0.83,8.99c0.38,1.37,0.78,2.84,1.11,4.38c1.11,4.9,4.62,6.54,8.34,8.25c2.08,0.99,4.24,1.97,5.9,3.61
	c4.43,4.33,6.42,6.68,7.44,17c0.57,5.48,2.96,6.88,5.52,8.34c1.85,1.06,3.77,2.16,4.9,4.78c2.61,6.01,3.77,11.2,2.04,20
	c-1.09,5.48-0.4,7.31,0.62,10.12c0.54,1.51,1.16,3.22,1.66,5.82c0.17,0.96,0.19,1.83,0.09,2.64c2.49-0.26,9.21-0.96,13.19-1.2
	c5.4-0.31,7.75,1.49,11.54,6.78c2.42,3.37,5.02,3.46,8.98,3.61c1.75,0.07,3.74,0.14,5.99,0.55c5.64,1.03,6.21,2.86,6.8,6.28
	c0.17,0.91,0.36,1.97,0.71,3.15c1.37,4.54,6.16,4.64,11.27,4.64c0.5-0.6,1.52-1.68,3.29-3.53c3.53-3.7,8.88-9.33,10.75-12.36
	c1.33-2.16,4.03-3.82,6.89-5.58c3.48-2.16,7.46-4.62,9.36-8.32c2.27-4.42-1.07-11.42-3.74-17.02c-1.3-2.72-2.42-5.07-2.84-6.9
	c-0.36-1.56-0.81-2.91-1.23-4.21c-1.14-3.34-2.18-6.49-1.47-12.72c0.64-5.43,0.99-13.1,1.3-19.86c0.17-3.82,0.33-7.45,0.54-10.44
	c0.52-7.72,3.74-18.37,9.59-23.52c3.65-3.2,7.18-8.03,3.32-12.91c-0.83-1.03-2.08-2.21-3.55-3.58c-4.74-4.35-11.18-10.34-9.47-18.18
	c1.16-5.34,4.67-10.19,9.43-13.01c4.12-2.43,8.69-3.08,12.86-1.76c3.86,1.2,6.11,3.15,8.29,5.05c3.13,2.72,6.06,5.27,13.6,5.27
	c3.03,0,5.64,0.05,7.89,0.1c7.34,0.14,11.04,0.24,14.54-1.88c4.22-2.5,2.32-9.02,0.71-12.09l-0.07-0.17
	c-1.59-3.05-3.2-6.2,2.51-11.08c4.33-3.7,8.91-8.49,10.47-10.17c-0.88-1.03-1.73-2.31-2.51-3.82c-3.41-6.49-6.7-13.73-8.72-20.73
	c-2.06-7.02-2.84-13.85-1.26-19.43c0.36-1.27,0.73-2.43,1.07-3.58c2.7-8.87,4.76-15.63-4-24.52c-6.49-6.59-11.23-8.08-15.11-9.33
	c-2.23-0.7-4.17-1.3-6.06-2.69c-2.23-1.64-4.81-2.21-7.3-2.07c-2.94,0.14-5.76,1.3-7.79,2.91c-2.2,1.78-4.43,1.78-6.63,0.58
	c-2.08-1.13-4.15-3.37-6.18-6.16l-0.09-0.14c-1.21-1.66-2.32-3.2-3.41-4.3c-2.2-2.24-4.48-2.77-7.98,0.79
	c-2.96,3.01-4.97,4.35-7.48,4.38c-2.44,0.05-5.19-1.2-9.66-3.39c-5.23-2.57-9.76-3.61-14.31-4.62c-3.06-0.7-6.13-1.39-9.43-2.55
	c-3.98-1.39-7.53-1.47-10.59-0.17c-3.01,1.27-5.57,3.9-7.6,7.91c-2.08,4.09-3.77,7.55-3.79,9.91c-0.02,2.12,1.44,3.39,5.52,3.51
	c7.06,0.24,7.2,5.82,7.34,12.41c0.07,2.5,0.14,5.15,0.62,7.67l0.33,1.73c1.68,8.54,3.15,15.99-6.18,18.3
	c-4.5,1.11-6.8,1.78-7.53,3.15c-0.71,1.39-0.02,3.8,1.47,8.37c0.54,1.64,1.18,3.44,1.85,5.24c2.96,8.1,5.9,16.23,1.71,20.99
	c-2.82,3.2-7.75,6.88-12.84,8.39c-3.88,1.15-7.91,1.06-11.25-1.39c-1.18-0.91-2.37-1.85-3.51-2.74c-5.28-4.18-9.28-7.36-13.83-3.61
	c-6.13,5.03-12.44,2.28-16.56,0.48l-0.24-0.12c-3.36-1.44-10.71-1.18-12.46-1.08c-2.49,5.75-4.38,10.48-5.28,13.49
	c-0.31,1.01-0.64,2.16-0.97,3.29c-2.2,7.45-4.19,14.14-8.93,17.89c0.88,2.69,3.86,11.9,5.64,19.31
	C215.36,331.77,216.59,331.94,221.17,332.49"/>
<path class="st0" d="M418.16,282.11c-4.83,4.14-3.67,6.4-2.18,9.28l0.09,0.17c1.8,3.51,3.88,10.99-1.28,14.04
	c-3.86,2.33-7.7,2.24-15.3,2.09c-2.25-0.05-4.83-0.12-7.86-0.12c-8.05,0-11.35-2.84-14.52-5.6c-2.08-1.8-4.22-3.65-7.77-4.76
	c-3.79-1.2-7.96-0.6-11.72,1.61c-4.41,2.62-7.67,7.12-8.76,12.07c-1.52,7,4.6,12.65,9.05,16.78c1.52,1.39,2.82,2.62,3.7,3.73
	c3.6,4.52,2.37,9.83-3.48,14.96c-5.28,4.64-8.57,14.84-9.1,22.51c-0.21,2.96-0.36,6.59-0.54,10.39c-0.31,6.8-0.66,14.5-1.3,19.98
	c-0.69,5.89,0.28,8.75,1.4,12.07c0.45,1.35,0.9,2.72,1.28,4.35c0.38,1.66,1.52,4.04,2.72,6.59c1.89,3.97,4.1,8.58,4.55,12.74
	c4.07-0.48,24.25-2.84,35.62-3.08c18.85-0.43,31.38-3.32,37.21-8.58c2.58-2.33,4.43-4.09,5.92-5.48c2.96-2.81,4.43-4.21,7.22-5.96
	c3.96-2.5,4.74-5.07,4.74-8.44c0-6.37,2.79-10.41,7.82-11.35c5.61-1.03,7.06-3.13,6.23-8.94c-0.33-2.24-1.4-4.21-2.51-6.25
	c-1.71-3.13-3.6-6.64-3.17-11.73c0.31-3.53,0.88-5.51,1.35-7.09c0.62-2.14,1.07-3.68,0.5-7.86c-0.85-6.49,1.11-18.11,1.73-21.5
	c-1.23-0.38-2.51-1.01-3.81-1.97c-4.15-3.01-6.28-6.25-6.58-10.12c-0.28-3.8,1.23-8.18,4.43-13.46c2.98-4.95,2.84-9.45,1.33-13.37
	c-1.56-3.99-4.55-7.45-7.2-10.27c-1.97-2.09-4.76-2.48-7.79-2.91c-3.74-0.51-7.84-1.06-11.46-4.69
	C427.04,273.64,422.47,278.43,418.16,282.11"/>
<path class="st0" d="M134.43,290.12c-0.85,4.95-2.65,9.52-9.92,9.52c-0.54,0-1.09,0-1.63-0.02c-5.45-0.07-10.54-0.12-13.71,6.64
	c-3.67,7.93-8.55,12.21-11.75,15.05l-0.17,0.14c-1.16,1.03-2.82,1.47-4.74,1.25c-3.43-0.38-7.01-2.64-8.36-4.52
	c-2.25-3.1-6.23-6.37-12.36-4.35c-6.56,2.19-12.29,8.99-12.98,12.53c-0.45,2.4,1.44,3.87,3.46,5.41c0.64,0.48,1.3,1.01,1.85,1.54
	c2.46,2.33,4.17,6.56,1.56,11.37c-1.35,2.52-3.34,2.55-5.26,2.57c-1.99,0.05-4.07,0.07-6.3,2.6c-5.35,6.11-2.65,10.15-1.71,11.25
	c1.63,1.85,3.27,7.07,2.04,10.68c-0.71,2.12-2.3,3.46-4.57,3.9c-6.75,1.3-10.47,2.26-14.83,8.9c-2.34,3.56-4.15,7.67-5.9,11.64
	c-1.63,3.65-3.29,7.45-5.4,10.89c-4.52,7.41-5.76,18.61-2.91,26.11c3.39,8.92,7.03,15.2,10.85,18.68c0.99,0.91,2.11,1.71,3.27,2.55
	c3.74,2.72,7.98,5.79,9,12.98c0.4,2.93,0.5,5.1,0.54,6.66c0.12,3.32,0.14,4.11,2.79,5.77c0.95,0.58,1.97,1.06,2.94,1.54
	c3.62,1.76,7.37,3.58,8.86,10.41c1.07,4.76,3.2,7.21,5.9,10.31c1.85,2.12,3.93,4.5,5.92,8.03c4.71,8.3,9.45,9.43,15.61,10.12
	c5.59,0.63,17.6,0.6,23.38,0.58h1.89c2.98,0,6.7,0.29,8.76,2.62c1.18,1.35,1.68,3.2,1.42,5.53c-0.66,6.52,0.66,8.75,4.07,12.65
	c3.67,4.18,16.22,0.34,20.37-0.94c1.94-0.6,4.24-1.13,6.66-1.73c6.87-1.64,14.66-3.51,18.83-7.43c1.82-1.73,3.39-4.11,5.05-6.61
	c3.41-5.19,7.27-11.06,14.26-11.28c2.27-0.07,4.38,0.05,6.25,0.14c6.3,0.34,9.76,0.5,10.75-5.7c1.47-9.23,2.77-13.87,16.34-18.27
	c12.72-4.11,13-5.77,14.05-11.95l0.05-0.26c0.24-1.35,0.33-2.6,0.4-3.8c0.33-4.57,0.59-8.51,8.86-13.95
	c2.04-1.35,3.98-2.52,5.85-3.65c7.22-4.35,11.99-7.24,10.97-12.7c-0.47-2.48-1.07-4.14-1.61-5.6c-1.07-2.91-1.82-5.03-0.66-10.92
	c1.66-8.42,0.54-13.39-1.94-19.12c-0.92-2.19-2.56-3.13-4.29-4.11c-2.63-1.51-5.61-3.22-6.23-9.47c-0.99-9.81-2.75-11.9-7.01-16.09
	c-1.49-1.44-3.43-2.36-5.52-3.32c-3.86-1.8-7.86-3.65-9.12-9.26c-0.36-1.51-0.73-2.96-1.11-4.33c-1.16-4.3-2.08-7.72-0.66-10.12
	c0.73-1.25,2.06-2.09,4-2.52l0.5-0.12c2.56-0.58,4.26-0.96,4.55-1.51c0.24-0.43-0.21-1.66-0.83-3.37l-0.47-1.37
	c-2.01-5.7-2.77-6.61-9.92-7.86c-1.3-0.24-2.42-0.36-3.39-0.48c-4.81-0.6-6.8-0.84-8.67-8.56c-1.68-7-4.48-15.68-5.5-18.78
	c-2.01,1.25-4.45,2.07-7.53,2.28c-1.66,0.1-3.2,0.22-4.6,0.34c-8.95,0.72-12.13,0.99-17.95-3.65c-1.18-0.94-2.16-1.78-3.08-2.55
	c-4.24-3.61-6.82-5.82-14.05-5.36c-5.05,0.34-9.95-0.14-13.67-2.14c-3.15-1.71-5.45-4.47-6.25-8.73c-0.26-1.39-0.38-2.93-0.38-4.59
	C137.84,283.49,135.09,286.25,134.43,290.12"/>
<path class="st0" d="M459.48,350.02c0.59,4.47,0.09,6.23-0.54,8.46c-0.47,1.61-0.99,3.41-1.3,6.8c-0.4,4.66,1.33,7.81,2.98,10.89
	c1.21,2.19,2.32,4.23,2.68,6.76c0.95,6.56-1.04,9.43-7.37,10.6c-5.5,1.01-6.63,5.94-6.63,9.91c0,3.75-0.92,6.83-5.45,9.69
	c-2.65,1.66-4.1,3.03-6.99,5.77c-1.49,1.42-3.36,3.17-5.95,5.51c-6.11,5.51-18.92,8.51-38.13,8.94
	c-11.39,0.26-31.69,2.62-35.58,3.08c0,1.49-0.26,2.89-0.9,4.16c-2.08,4.06-6.23,6.61-9.9,8.87c-2.7,1.66-5.26,3.25-6.42,5.12
	c-1.94,3.15-7.37,8.82-10.94,12.6c-0.99,1.03-1.85,1.95-2.49,2.64c4.9,0.63,9.14,4.3,11.23,9.98c0.95,2.57,2.27,4.45,3.55,6.25
	c1.52,2.14,2.94,4.16,3.41,6.95c0.52,2.98,2.34,5.77,4.52,6.95c1.49,0.82,3.08,0.87,4.67,0.14c0.59-0.26,1.14-0.53,1.66-0.77
	c2.51-1.2,4.33-2.07,5.99-1.37c1.18,0.53,2.04,1.76,2.82,3.99c0.21,0.6,0.36,1.15,0.47,1.66c2.06-0.55,7.65-1.11,14.26,5.7
	c6.4,6.61,12.17,7.91,17.76,9.18c1.16,0.26,2.32,0.53,3.43,0.82c2.84,0.79,5.68,0.31,7.98-1.35c2.27-1.61,3.74-4.23,3.98-7.19
	c0.28-3.25,1.35-5.65,3.2-7.21c1.92-1.64,4.64-2.28,8.08-1.95c1.14,0.12,2.94,0.14,5,0.19c9.14,0.22,24.4,0.58,28.94,7.02
	c0.59,0.82,1.16,1.63,1.71,2.45c4.5,6.44,8.05,11.57,14.5,13.66c2.65,0.87,5.4,0.53,7.96-0.99c3.34-1.97,6.02-5.82,6.85-9.83
	c0.36-1.76,0.69-4.33,1.04-7.29c1.11-8.78,2.51-19.72,6.32-22.34s9.59-4.66,13.95-3.34c2.49,0.75,4.31,2.45,5.4,5.1
	c3.43,8.27,9.71,18.83,12.67,21.28c2.65,2.21,4.74,1.59,7.91-2.33c2.04-2.52,3.96-4.91,6.35-4.98c1.3-0.02,2.68,0.67,4.07,2.21
	c1.82,1.97,3.36,3.29,4.95,3.29c1.4,0,2.96-1.01,4.9-3.15c0.71-0.79,1.54-1.64,2.44-2.55c4.9-5,10.99-11.2,6.58-16.93
	c-1.78-2.28-4.22-4.57-6.8-7c-5.52-5.15-11.77-10.99-13.17-18.75c-0.78-4.38-0.85-10.34-0.95-16.64c-0.14-9.69-0.31-20.65-3.1-27.63
	c-1.52-3.75-14.57-36.86-12.22-50.3c1.75-10.07,13.71-31.5,16.82-36.93c-0.36-0.05-0.71-0.12-1.09-0.14
	c-5.5-0.65-11.49-1.15-17.34-1.66c-12.17-1.01-23.64-1.97-28.71-4.16c-1.63-0.7-3.34-1.66-5.12-2.64
	c-6.21-3.46-13.1-7.33-17.03-0.22c-2.75,4.98-5.71,8.9-9.05,10.82c-1.94,1.13-4,1.56-6.18,1.2
	C460.57,332.44,458.65,343.84,459.48,350.02"/>
<g>
	<path class="st1" d="M295.38,369.46l-3.58,4.52h2.77l4.88-4.52H295.38z M295.14,401.56h-3.39v-11.18l-8.2-15.17h3.81l3.65,7.26
		c0.99,2,1.78,3.61,2.58,5.43h0.07c0.73-1.71,1.63-3.44,2.63-5.43l3.74-7.26h3.81l-8.72,15.12V401.56z M265.37,401.56h3.36v-10.05
		l2.46-2.91l8.55,12.96h3.96l-10.14-15.17l9.4-11.18h-4.15l-7.93,9.88c-0.66,0.87-1.35,1.8-2.06,2.81h-0.09v-12.7h-3.36V401.56z
		 M260.49,398c-1.35,0.65-3.43,1.08-5.47,1.08c-6.32,0-9.97-4.14-9.97-10.58c0-6.92,4.03-10.89,10.11-10.89
		c2.16,0,3.98,0.48,5.23,1.11l0.81-2.79c-0.88-0.46-2.91-1.15-6.16-1.15c-8.05,0-13.55,5.58-13.55,13.83
		c0,8.66,5.5,13.34,12.81,13.34c3.17,0,5.64-0.63,6.87-1.25L260.49,398z M237.52,386.39h-10.09v-8.34h10.68v-2.84h-14.02v26.35
		h14.59v-2.86h-11.25v-9.5h10.09V386.39z M206.7,377.92c0.54-0.14,1.71-0.31,3.32-0.31c3.55,0.05,5.97,1.54,5.97,4.93
		c0,3.03-2.27,5.03-5.85,5.03h-3.43V377.92z M203.36,401.56h3.34v-11.42h3.17c3.03,0.12,4.43,1.49,5.19,5.12
		c0.73,3.27,1.33,5.55,1.75,6.3h3.46c-0.54-1.03-1.16-3.56-2.01-7.24c-0.62-2.74-1.8-4.62-3.81-5.31v-0.12
		c2.75-0.94,4.9-3.25,4.9-6.73c0-2.04-0.73-3.82-2.04-5c-1.63-1.49-3.93-2.14-7.51-2.14c-2.32,0-4.74,0.19-6.44,0.53V401.56z
		 M197.84,386.39h-10.09v-8.34h10.68v-2.84h-14.02v26.35H199v-2.86h-11.25v-9.5h10.09V386.39z M166.88,388.91h2.77
		c3.67,0,6.7,1.49,6.7,5.1c0,3.82-3.2,5.12-6.66,5.12c-1.21,0-2.16-0.05-2.82-0.17V388.91z M166.88,377.85
		c0.54-0.12,1.42-0.24,2.96-0.24c3.39,0,5.71,1.23,5.71,4.3c0,2.55-2.08,4.42-5.64,4.42h-3.03V377.85z M163.55,401.46
		c1.11,0.17,2.89,0.31,5.19,0.31c4.24,0,7.18-0.77,8.98-2.45c1.3-1.3,2.2-3.01,2.2-5.29c0-3.9-2.89-5.96-5.35-6.59v-0.1
		c2.72-1.01,4.38-3.25,4.38-5.77c0-2.07-0.81-3.65-2.16-4.66c-1.61-1.32-3.77-1.9-7.13-1.9c-2.34,0-4.67,0.22-6.11,0.53V401.46z
		 M154.33,401.56h3.34v-26.35h-3.34V401.56z M136.14,401.56h14.45v-2.86H139.5v-23.49h-3.36V401.56z"/>
</g>
</svg>
