<?xml version="1.0" encoding="utf-8"?>
<!-- Generator: Adobe Illustrator 17.0.0, SVG Export Plug-In . SVG Version: 6.00 Build 0)  -->
<!DOCTYPE svg PUBLIC "-//W3C//DTD SVG 1.1//EN" "http://www.w3.org/Graphics/SVG/1.1/DTD/svg11.dtd">
<svg version="1.1" xmlns="http://www.w3.org/2000/svg" xmlns:xlink="http://www.w3.org/1999/xlink" x="0px" y="0px"
	 width="1653.543px" height="472.441px" viewBox="0 0 1653.543 472.441" enable-background="new 0 0 1653.543 472.441"
	 xml:space="preserve">
<g id="_x30_">
</g>
<g id="Border">
	<path fill="none" stroke="#FFFFFF" stroke-miterlimit="10" d="M0,0"/>
	<path fill="none" stroke="#FFFFFF" stroke-miterlimit="10" d="M0,472.441"/>
	<path fill="none" stroke="#FFFFFF" stroke-miterlimit="10" d="M1653.543,472.441"/>
	<path fill="none" stroke="#FFFFFF" stroke-miterlimit="10" d="M1653.543,0"/>
</g>
<g id="Logo_EU">
	<g id="Text">
		<g>
			<path d="M567.28,149.606v-39.37h28.467v4.646H572.49v12.059h21.78v4.619h-21.78v13.4h24.17v4.646H567.28z"/>
			<path d="M627.288,110.236h5.21v22.747c0,3.956-0.448,7.099-1.343,9.426c-0.896,2.327-2.511,4.221-4.848,5.68
				c-2.336,1.46-5.402,2.189-9.198,2.189c-3.688,0-6.705-0.636-9.05-1.907c-2.346-1.271-4.02-3.11-5.022-5.519
				c-1.003-2.408-1.504-5.698-1.504-9.869v-22.747h5.21v22.72c0,3.42,0.318,5.939,0.954,7.56c0.635,1.621,1.728,2.869,3.276,3.747
				c1.548,0.877,3.441,1.315,5.68,1.315c3.831,0,6.562-0.868,8.191-2.604c1.629-1.737,2.444-5.076,2.444-10.018V110.236z"/>
			<path d="M640.588,149.606v-39.37h17.456c3.509,0,6.177,0.354,8.003,1.061c1.826,0.708,3.285,1.956,4.377,3.747
				c1.092,1.79,1.638,3.769,1.638,5.935c0,2.793-0.904,5.147-2.712,7.063c-1.809,1.915-4.602,3.133-8.379,3.652
				c1.378,0.662,2.426,1.315,3.142,1.96c1.521,1.396,2.963,3.142,4.324,5.237l6.848,10.715h-6.553l-5.21-8.191
				c-1.522-2.363-2.775-4.171-3.76-5.424c-0.985-1.254-1.867-2.131-2.645-2.633c-0.779-0.501-1.571-0.85-2.377-1.047
				c-0.591-0.125-1.558-0.188-2.9-0.188h-6.042v17.482H640.588z M645.798,127.612h11.199c2.381,0,4.243-0.246,5.586-0.739
				c1.343-0.492,2.363-1.279,3.062-2.363c0.698-1.083,1.047-2.26,1.047-3.531c0-1.862-0.676-3.393-2.028-4.593
				c-1.352-1.199-3.487-1.799-6.405-1.799h-12.461V127.612z"/>
			<path d="M676.937,130.431c0-6.535,1.754-11.65,5.264-15.348c3.509-3.697,8.039-5.546,13.589-5.546
				c3.634,0,6.911,0.868,9.829,2.605c2.918,1.736,5.143,4.158,6.673,7.264c1.531,3.106,2.296,6.629,2.296,10.568
				c0,3.992-0.806,7.563-2.417,10.715s-3.894,5.537-6.848,7.157s-6.141,2.431-9.561,2.431c-3.706,0-7.019-0.896-9.937-2.686
				c-2.918-1.791-5.129-4.234-6.633-7.332S676.937,133.886,676.937,130.431z M682.308,130.512c0,4.744,1.276,8.481,3.827,11.212
				c2.552,2.73,5.751,4.095,9.601,4.095c3.921,0,7.148-1.378,9.681-4.135c2.534-2.758,3.8-6.67,3.8-11.736
				c0-3.205-0.542-6.002-1.625-8.393c-1.083-2.39-2.668-4.243-4.754-5.559c-2.085-1.316-4.427-1.975-7.022-1.975
				c-3.688,0-6.861,1.268-9.521,3.801C683.638,120.356,682.308,124.586,682.308,130.512z"/>
			<path d="M720.752,149.606v-39.37h14.851c2.614,0,4.61,0.125,5.989,0.376c1.934,0.322,3.554,0.936,4.861,1.84
				c1.307,0.904,2.359,2.171,3.156,3.8c0.796,1.629,1.195,3.42,1.195,5.371c0,3.348-1.065,6.182-3.196,8.5
				c-2.131,2.318-5.98,3.478-11.548,3.478h-10.098v16.006H720.752z M725.962,128.954h10.178c3.366,0,5.756-0.626,7.17-1.879
				c1.414-1.254,2.122-3.018,2.122-5.291c0-1.647-0.417-3.057-1.249-4.229c-0.833-1.173-1.93-1.947-3.29-2.323
				c-0.877-0.232-2.498-0.35-4.861-0.35h-10.071V128.954z"/>
			<path d="M755.905,149.606v-39.37h28.467v4.646h-23.257v12.059h21.78v4.619h-21.78v13.4h24.17v4.646H755.905z"/>
			<path d="M788.615,149.606l15.12-39.37h5.613l16.113,39.37h-5.935l-4.592-11.924h-16.462l-4.324,11.924H788.615z M799.975,133.439
				h13.347l-4.109-10.903c-1.253-3.313-2.185-6.033-2.793-8.164c-0.501,2.524-1.208,5.031-2.122,7.52L799.975,133.439z"/>
			<path d="M829.344,149.606v-39.37h5.345l20.679,30.911v-30.911h4.995v39.37h-5.345l-20.679-30.937v30.937H829.344z"/>
			<path d="M910.232,110.236h5.21v22.747c0,3.956-0.447,7.099-1.343,9.426s-2.511,4.221-4.848,5.68
				c-2.336,1.46-5.402,2.189-9.197,2.189c-3.688,0-6.705-0.636-9.051-1.907s-4.02-3.11-5.021-5.519
				c-1.003-2.408-1.504-5.698-1.504-9.869v-22.747h5.21v22.72c0,3.42,0.317,5.939,0.953,7.56c0.636,1.621,1.728,2.869,3.276,3.747
				c1.549,0.877,3.441,1.315,5.68,1.315c3.831,0,6.562-0.868,8.191-2.604c1.629-1.737,2.443-5.076,2.443-10.018V110.236z"/>
			<path d="M923.458,149.606v-39.37h5.345l20.679,30.911v-30.911h4.995v39.37h-5.345l-20.679-30.937v30.937H923.458z"/>
			<path d="M963.072,149.606v-39.37h5.21v39.37H963.072z"/>
			<path d="M974.942,130.431c0-6.535,1.754-11.65,5.264-15.348c3.509-3.697,8.038-5.546,13.589-5.546
				c3.634,0,6.91,0.868,9.829,2.605c2.918,1.736,5.143,4.158,6.673,7.264c1.531,3.106,2.297,6.629,2.297,10.568
				c0,3.992-0.806,7.563-2.417,10.715s-3.895,5.537-6.849,7.157s-6.141,2.431-9.561,2.431c-3.706,0-7.019-0.896-9.937-2.686
				c-2.918-1.791-5.129-4.234-6.633-7.332S974.942,133.886,974.942,130.431z M980.313,130.512c0,4.744,1.275,8.481,3.826,11.212
				c2.552,2.73,5.752,4.095,9.602,4.095c3.921,0,7.147-1.378,9.681-4.135c2.534-2.758,3.801-6.67,3.801-11.736
				c0-3.205-0.542-6.002-1.625-8.393c-1.083-2.39-2.668-4.243-4.754-5.559c-2.085-1.316-4.427-1.975-7.022-1.975
				c-3.688,0-6.861,1.268-9.521,3.801C981.642,120.356,980.313,124.586,980.313,130.512z"/>
			<path d="M1018.73,149.606v-39.37h5.345l20.679,30.911v-30.911h4.995v39.37h-5.345l-20.679-30.937v30.937H1018.73z"/>
		</g>
		<g>
			<path d="M567.28,220.473v-39.37h28.467v4.646H572.49v12.059h21.78v4.619h-21.78v13.4h24.17v4.646H567.28z"/>
			<path d="M619.593,220.473v-4.189c-2.22,3.223-5.237,4.834-9.05,4.834c-1.683,0-3.254-0.322-4.713-0.967
				c-1.459-0.645-2.542-1.454-3.25-2.431c-0.707-0.976-1.204-2.171-1.49-3.585c-0.197-0.949-0.295-2.453-0.295-4.512v-17.671h4.834
				v15.817c0,2.525,0.098,4.226,0.295,5.104c0.304,1.271,0.949,2.269,1.934,2.994c0.984,0.725,2.202,1.088,3.652,1.088
				s2.811-0.372,4.082-1.115c1.271-0.742,2.171-1.754,2.699-3.034c0.528-1.28,0.792-3.138,0.792-5.573v-15.28h4.834v28.521H619.593z
				"/>
			<path d="M629.951,220.473v-28.521h4.351v4.323c1.11-2.022,2.135-3.356,3.075-4.001c0.94-0.645,1.974-0.967,3.102-0.967
				c1.629,0,3.285,0.52,4.968,1.558l-1.665,4.484c-1.182-0.697-2.363-1.047-3.545-1.047c-1.057,0-2.005,0.318-2.847,0.953
				c-0.842,0.636-1.441,1.518-1.799,2.646c-0.537,1.719-0.806,3.599-0.806,5.64v14.932H629.951z"/>
			<path d="M645.327,206.213c0-5.282,1.468-9.194,4.404-11.736c2.453-2.112,5.442-3.169,8.97-3.169c3.921,0,7.125,1.285,9.614,3.854
				c2.488,2.569,3.733,6.119,3.733,10.648c0,3.67-0.55,6.558-1.652,8.661c-1.101,2.104-2.703,3.737-4.807,4.9
				c-2.104,1.164-4.4,1.746-6.889,1.746c-3.993,0-7.22-1.28-9.682-3.84C646.558,214.717,645.327,211.029,645.327,206.213z
				 M650.296,206.213c0,3.652,0.796,6.387,2.39,8.204c1.593,1.817,3.599,2.726,6.016,2.726c2.399,0,4.395-0.913,5.989-2.739
				c1.593-1.826,2.39-4.61,2.39-8.353c0-3.526-0.801-6.198-2.403-8.016c-1.603-1.817-3.595-2.727-5.976-2.727
				c-2.417,0-4.422,0.904-6.016,2.713C651.092,199.83,650.296,202.561,650.296,206.213z"/>
			<path d="M676.571,231.403v-39.45h4.404v3.706c1.038-1.45,2.211-2.538,3.518-3.263c1.307-0.726,2.891-1.088,4.753-1.088
				c2.435,0,4.583,0.627,6.445,1.88c1.862,1.253,3.267,3.021,4.216,5.304c0.949,2.283,1.423,4.785,1.423,7.507
				c0,2.918-0.524,5.545-1.571,7.882c-1.048,2.336-2.569,4.127-4.565,5.371c-1.997,1.244-4.096,1.866-6.298,1.866
				c-1.611,0-3.057-0.34-4.337-1.021c-1.28-0.681-2.333-1.54-3.156-2.578v13.884H676.571z M680.949,206.373
				c0,3.671,0.743,6.383,2.229,8.138c1.486,1.755,3.285,2.632,5.398,2.632c2.148,0,3.988-0.908,5.519-2.726
				c1.531-1.817,2.296-4.633,2.296-8.446c0-3.635-0.748-6.355-2.243-8.164c-1.495-1.809-3.281-2.713-5.357-2.713
				c-2.059,0-3.881,0.963-5.465,2.888C681.741,199.906,680.949,202.703,680.949,206.373z"/>
			<path d="M725.539,211.288l4.995,0.618c-0.788,2.918-2.247,5.183-4.377,6.794c-2.131,1.611-4.852,2.417-8.164,2.417
				c-4.172,0-7.479-1.284-9.923-3.854c-2.443-2.569-3.666-6.173-3.666-10.81c0-4.798,1.235-8.522,3.706-11.172
				s5.675-3.975,9.614-3.975c3.813,0,6.929,1.298,9.346,3.894c2.417,2.597,3.625,6.249,3.625,10.957
				c0,0.287-0.009,0.717-0.027,1.289h-21.27c0.179,3.134,1.065,5.533,2.659,7.197c1.593,1.666,3.581,2.498,5.962,2.498
				c1.772,0,3.285-0.466,4.539-1.396C723.811,214.816,724.805,213.329,725.539,211.288z M709.668,203.473h15.925
				c-0.215-2.398-0.824-4.198-1.826-5.397c-1.54-1.862-3.536-2.793-5.989-2.793c-2.22,0-4.086,0.743-5.599,2.229
				C710.666,198.997,709.829,200.985,709.668,203.473z"/>
			<path d="M753.928,216.955c-1.791,1.521-3.514,2.596-5.17,3.223c-1.656,0.626-3.433,0.939-5.331,0.939
				c-3.133,0-5.542-0.766-7.224-2.296c-1.683-1.531-2.524-3.487-2.524-5.868c0-1.396,0.318-2.672,0.953-3.827
				c0.636-1.154,1.468-2.081,2.498-2.779c1.029-0.698,2.188-1.227,3.478-1.585c0.949-0.25,2.381-0.492,4.297-0.725
				c3.903-0.466,6.776-1.021,8.621-1.665c0.018-0.662,0.027-1.083,0.027-1.263c0-1.969-0.457-3.356-1.37-4.162
				c-1.235-1.092-3.071-1.639-5.505-1.639c-2.274,0-3.952,0.399-5.035,1.195c-1.083,0.797-1.885,2.207-2.404,4.23l-4.727-0.645
				c0.43-2.023,1.137-3.657,2.122-4.901c0.984-1.244,2.408-2.202,4.27-2.874c1.862-0.671,4.019-1.007,6.472-1.007
				c2.435,0,4.413,0.286,5.935,0.859c1.521,0.573,2.641,1.294,3.357,2.162c0.716,0.868,1.217,1.965,1.504,3.29
				c0.161,0.823,0.242,2.309,0.242,4.457v6.445c0,4.494,0.103,7.337,0.309,8.527c0.206,1.19,0.613,2.332,1.222,3.424h-5.049
				C754.393,219.47,754.071,218.297,753.928,216.955z M753.525,206.158c-1.755,0.717-4.387,1.325-7.896,1.826
				c-1.987,0.287-3.393,0.609-4.216,0.967c-0.824,0.358-1.459,0.883-1.907,1.571c-0.448,0.689-0.671,1.455-0.671,2.296
				c0,1.289,0.488,2.363,1.464,3.223c0.976,0.859,2.403,1.289,4.283,1.289c1.862,0,3.518-0.406,4.968-1.222
				c1.45-0.814,2.515-1.929,3.196-3.343c0.519-1.093,0.779-2.704,0.779-4.834V206.158z"/>
			<path d="M764.492,220.473v-28.521h4.351v4.056c2.095-3.134,5.12-4.7,9.077-4.7c1.719,0,3.299,0.309,4.74,0.927
				c1.441,0.617,2.52,1.428,3.236,2.43c0.716,1.003,1.217,2.193,1.504,3.572c0.179,0.896,0.269,2.462,0.269,4.699v17.537h-4.834
				v-17.349c0-1.97-0.188-3.441-0.564-4.418c-0.376-0.976-1.043-1.754-2-2.336c-0.958-0.582-2.082-0.873-3.371-0.873
				c-2.059,0-3.836,0.653-5.331,1.96c-1.495,1.308-2.243,3.787-2.243,7.439v15.576H764.492z"/>
			<path d="M808.656,207.824l4.915-0.43c0.232,1.969,0.774,3.585,1.625,4.847c0.851,1.263,2.171,2.283,3.961,3.062
				c1.79,0.779,3.804,1.168,6.042,1.168c1.987,0,3.741-0.295,5.264-0.886c1.521-0.591,2.654-1.4,3.397-2.431
				c0.742-1.029,1.114-2.152,1.114-3.37c0-1.235-0.358-2.313-1.074-3.236c-0.717-0.922-1.898-1.696-3.545-2.323
				c-1.057-0.411-3.394-1.051-7.01-1.92c-3.616-0.868-6.149-1.688-7.6-2.457c-1.88-0.984-3.281-2.206-4.203-3.666
				c-0.922-1.459-1.383-3.093-1.383-4.9c0-1.988,0.564-3.845,1.692-5.573c1.128-1.728,2.775-3.039,4.941-3.935
				c2.166-0.895,4.574-1.342,7.224-1.342c2.918,0,5.492,0.47,7.721,1.409c2.229,0.94,3.943,2.323,5.143,4.149
				s1.844,3.895,1.934,6.203l-4.995,0.377c-0.269-2.489-1.177-4.369-2.726-5.641c-1.549-1.271-3.836-1.906-6.861-1.906
				c-3.151,0-5.447,0.577-6.889,1.732c-1.441,1.154-2.162,2.547-2.162,4.176c0,1.414,0.51,2.578,1.531,3.491
				c1.002,0.913,3.621,1.849,7.855,2.807c4.233,0.958,7.139,1.795,8.714,2.511c2.292,1.057,3.983,2.395,5.076,4.015
				c1.092,1.621,1.638,3.487,1.638,5.6c0,2.095-0.6,4.068-1.799,5.922c-1.2,1.853-2.923,3.294-5.17,4.323s-4.776,1.545-7.587,1.545
				c-3.563,0-6.548-0.52-8.956-1.559c-2.408-1.038-4.297-2.6-5.666-4.686C809.448,212.815,808.727,210.455,808.656,207.824z"/>
			<path d="M855.773,216.149l0.698,4.271c-1.36,0.286-2.578,0.43-3.652,0.43c-1.755,0-3.115-0.277-4.082-0.833
				c-0.967-0.555-1.647-1.284-2.041-2.188c-0.394-0.903-0.591-2.806-0.591-5.706v-16.409h-3.545v-3.76h3.545v-7.063l4.808-2.9v9.964
				h4.86v3.76h-4.86v16.677c0,1.379,0.085,2.266,0.255,2.659s0.447,0.707,0.832,0.94c0.386,0.232,0.936,0.349,1.652,0.349
				C854.189,216.337,854.896,216.275,855.773,216.149z"/>
			<path d="M859.434,220.473v-28.521h4.351v4.323c1.11-2.022,2.136-3.356,3.075-4.001c0.94-0.645,1.974-0.967,3.102-0.967
				c1.629,0,3.285,0.52,4.969,1.558l-1.665,4.484c-1.182-0.697-2.363-1.047-3.545-1.047c-1.057,0-2.006,0.318-2.847,0.953
				c-0.842,0.636-1.441,1.518-1.8,2.646c-0.537,1.719-0.806,3.599-0.806,5.64v14.932H859.434z"/>
			<path d="M896.127,220.473v-4.189c-2.221,3.223-5.237,4.834-9.051,4.834c-1.683,0-3.254-0.322-4.713-0.967
				s-2.542-1.454-3.25-2.431c-0.707-0.976-1.204-2.171-1.49-3.585c-0.197-0.949-0.295-2.453-0.295-4.512v-17.671h4.834v15.817
				c0,2.525,0.098,4.226,0.295,5.104c0.305,1.271,0.949,2.269,1.934,2.994c0.984,0.725,2.202,1.088,3.652,1.088
				s2.811-0.372,4.082-1.115c1.271-0.742,2.171-1.754,2.699-3.034s0.792-3.138,0.792-5.573v-15.28h4.834v28.521H896.127z"/>
			<path d="M925.226,210.026l4.753,0.618c-0.52,3.276-1.849,5.841-3.987,7.694c-2.14,1.853-4.768,2.779-7.883,2.779
				c-3.903,0-7.04-1.275-9.412-3.827c-2.373-2.551-3.559-6.208-3.559-10.97c0-3.08,0.51-5.774,1.53-8.084s2.574-4.042,4.66-5.196
				c2.085-1.155,4.354-1.732,6.808-1.732c3.097,0,5.63,0.783,7.6,2.35c1.97,1.567,3.231,3.791,3.787,6.674l-4.7,0.726
				c-0.447-1.916-1.239-3.357-2.376-4.324c-1.138-0.967-2.512-1.45-4.123-1.45c-2.435,0-4.413,0.873-5.935,2.618
				c-1.522,1.746-2.283,4.508-2.283,8.285c0,3.831,0.734,6.615,2.202,8.352c1.468,1.737,3.384,2.605,5.747,2.605
				c1.897,0,3.482-0.582,4.754-1.746C924.08,214.234,924.886,212.444,925.226,210.026z"/>
			<path d="M943.943,216.149l0.698,4.271c-1.36,0.286-2.578,0.43-3.652,0.43c-1.755,0-3.115-0.277-4.082-0.833
				c-0.967-0.555-1.647-1.284-2.041-2.188c-0.394-0.903-0.591-2.806-0.591-5.706v-16.409h-3.545v-3.76h3.545v-7.063l4.808-2.9v9.964
				h4.86v3.76h-4.86v16.677c0,1.379,0.085,2.266,0.255,2.659s0.447,0.707,0.832,0.94c0.386,0.232,0.936,0.349,1.652,0.349
				C942.359,216.337,943.066,216.275,943.943,216.149z"/>
			<path d="M965.992,220.473v-4.189c-2.22,3.223-5.236,4.834-9.05,4.834c-1.684,0-3.254-0.322-4.713-0.967
				c-1.46-0.645-2.543-1.454-3.25-2.431c-0.707-0.976-1.204-2.171-1.49-3.585c-0.197-0.949-0.296-2.453-0.296-4.512v-17.671h4.834
				v15.817c0,2.525,0.099,4.226,0.296,5.104c0.304,1.271,0.948,2.269,1.934,2.994c0.984,0.725,2.202,1.088,3.652,1.088
				s2.811-0.372,4.082-1.115c1.271-0.742,2.171-1.754,2.699-3.034c0.527-1.28,0.792-3.138,0.792-5.573v-15.28h4.834v28.521H965.992z
				"/>
			<path d="M976.35,220.473v-28.521h4.351v4.323c1.109-2.022,2.135-3.356,3.074-4.001c0.94-0.645,1.975-0.967,3.103-0.967
				c1.629,0,3.285,0.52,4.968,1.558l-1.665,4.484c-1.182-0.697-2.363-1.047-3.545-1.047c-1.057,0-2.005,0.318-2.847,0.953
				c-0.842,0.636-1.441,1.518-1.799,2.646c-0.537,1.719-0.806,3.599-0.806,5.64v14.932H976.35z"/>
			<path d="M1012.192,216.955c-1.791,1.521-3.514,2.596-5.17,3.223c-1.656,0.626-3.434,0.939-5.331,0.939
				c-3.133,0-5.541-0.766-7.224-2.296c-1.684-1.531-2.524-3.487-2.524-5.868c0-1.396,0.317-2.672,0.953-3.827
				c0.636-1.154,1.468-2.081,2.498-2.779c1.029-0.698,2.188-1.227,3.478-1.585c0.948-0.25,2.381-0.492,4.297-0.725
				c3.902-0.466,6.776-1.021,8.62-1.665c0.018-0.662,0.027-1.083,0.027-1.263c0-1.969-0.457-3.356-1.37-4.162
				c-1.235-1.092-3.07-1.639-5.505-1.639c-2.274,0-3.952,0.399-5.035,1.195c-1.084,0.797-1.885,2.207-2.404,4.23l-4.727-0.645
				c0.43-2.023,1.137-3.657,2.122-4.901c0.984-1.244,2.407-2.202,4.27-2.874c1.862-0.671,4.02-1.007,6.473-1.007
				c2.435,0,4.413,0.286,5.935,0.859s2.641,1.294,3.357,2.162c0.716,0.868,1.217,1.965,1.504,3.29
				c0.161,0.823,0.241,2.309,0.241,4.457v6.445c0,4.494,0.104,7.337,0.31,8.527c0.205,1.19,0.612,2.332,1.222,3.424h-5.049
				C1012.657,219.47,1012.335,218.297,1012.192,216.955z M1011.789,206.158c-1.755,0.717-4.387,1.325-7.896,1.826
				c-1.987,0.287-3.393,0.609-4.216,0.967c-0.824,0.358-1.46,0.883-1.907,1.571c-0.447,0.689-0.671,1.455-0.671,2.296
				c0,1.289,0.487,2.363,1.464,3.223c0.976,0.859,2.403,1.289,4.283,1.289c1.861,0,3.518-0.406,4.968-1.222
				c1.45-0.814,2.516-1.929,3.196-3.343c0.519-1.093,0.778-2.704,0.778-4.834V206.158z"/>
			<path d="M1022.676,220.473v-39.37h4.834v39.37H1022.676z"/>
			<path d="M1068.345,216.955c-1.791,1.521-3.514,2.596-5.17,3.223c-1.656,0.626-3.434,0.939-5.331,0.939
				c-3.133,0-5.541-0.766-7.224-2.296c-1.684-1.531-2.524-3.487-2.524-5.868c0-1.396,0.317-2.672,0.953-3.827
				c0.636-1.154,1.468-2.081,2.498-2.779c1.029-0.698,2.188-1.227,3.478-1.585c0.948-0.25,2.381-0.492,4.297-0.725
				c3.902-0.466,6.776-1.021,8.62-1.665c0.018-0.662,0.027-1.083,0.027-1.263c0-1.969-0.457-3.356-1.37-4.162
				c-1.235-1.092-3.07-1.639-5.505-1.639c-2.274,0-3.952,0.399-5.035,1.195c-1.084,0.797-1.885,2.207-2.404,4.23l-4.727-0.645
				c0.43-2.023,1.137-3.657,2.122-4.901c0.984-1.244,2.407-2.202,4.27-2.874c1.862-0.671,4.02-1.007,6.473-1.007
				c2.435,0,4.413,0.286,5.935,0.859s2.641,1.294,3.357,2.162c0.716,0.868,1.217,1.965,1.504,3.29
				c0.161,0.823,0.241,2.309,0.241,4.457v6.445c0,4.494,0.104,7.337,0.31,8.527c0.205,1.19,0.612,2.332,1.222,3.424h-5.049
				C1068.809,219.47,1068.487,218.297,1068.345,216.955z M1067.941,206.158c-1.755,0.717-4.387,1.325-7.896,1.826
				c-1.987,0.287-3.393,0.609-4.216,0.967c-0.824,0.358-1.46,0.883-1.907,1.571c-0.447,0.689-0.671,1.455-0.671,2.296
				c0,1.289,0.487,2.363,1.464,3.223c0.976,0.859,2.403,1.289,4.283,1.289c1.861,0,3.518-0.406,4.968-1.222
				c1.45-0.814,2.516-1.929,3.196-3.343c0.519-1.093,0.778-2.704,0.778-4.834V206.158z"/>
			<path d="M1078.908,220.473v-28.521h4.351v4.056c2.095-3.134,5.12-4.7,9.077-4.7c1.719,0,3.299,0.309,4.74,0.927
				c1.441,0.617,2.52,1.428,3.236,2.43c0.716,1.003,1.217,2.193,1.504,3.572c0.179,0.896,0.269,2.462,0.269,4.699v17.537h-4.834
				v-17.349c0-1.97-0.188-3.441-0.564-4.418c-0.376-0.976-1.043-1.754-2-2.336c-0.958-0.582-2.082-0.873-3.371-0.873
				c-2.059,0-3.836,0.653-5.33,1.96c-1.495,1.308-2.243,3.787-2.243,7.439v15.576H1078.908z"/>
			<path d="M1126.735,220.473v-3.599c-1.809,2.829-4.468,4.243-7.977,4.243c-2.273,0-4.363-0.627-6.271-1.88
				c-1.906-1.253-3.384-3.003-4.431-5.25c-1.048-2.247-1.571-4.83-1.571-7.748c0-2.847,0.474-5.429,1.423-7.748
				c0.949-2.318,2.372-4.095,4.271-5.331c1.897-1.234,4.019-1.853,6.364-1.853c1.719,0,3.25,0.362,4.593,1.088
				c1.343,0.725,2.435,1.669,3.276,2.833v-14.126h4.807v39.37H1126.735z M1111.454,206.239c0,3.652,0.77,6.383,2.31,8.19
				c1.54,1.809,3.357,2.713,5.452,2.713c2.112,0,3.907-0.863,5.385-2.592c1.477-1.728,2.215-4.363,2.215-7.908
				c0-3.903-0.752-6.768-2.256-8.594s-3.356-2.74-5.559-2.74c-2.148,0-3.943,0.878-5.385,2.633
				C1112.175,199.696,1111.454,202.462,1111.454,206.239z"/>
			<path d="M1155.055,220.473v-39.37h5.21v39.37H1155.055z"/>
			<path d="M1167.418,220.473v-28.521h4.351v4.056c2.095-3.134,5.12-4.7,9.077-4.7c1.719,0,3.299,0.309,4.74,0.927
				c1.441,0.617,2.52,1.428,3.236,2.43c0.716,1.003,1.217,2.193,1.504,3.572c0.179,0.896,0.269,2.462,0.269,4.699v17.537h-4.834
				v-17.349c0-1.97-0.188-3.441-0.564-4.418c-0.376-0.976-1.043-1.754-2-2.336c-0.958-0.582-2.082-0.873-3.371-0.873
				c-2.059,0-3.836,0.653-5.33,1.96c-1.495,1.308-2.243,3.787-2.243,7.439v15.576H1167.418z"/>
			<path d="M1203.519,220.473l-10.85-28.521h5.103l6.123,17.08c0.662,1.844,1.271,3.76,1.826,5.747
				c0.43-1.504,1.029-3.313,1.8-5.425l6.338-17.402h4.968l-10.796,28.521H1203.519z"/>
			<path d="M1240.399,211.288l4.995,0.618c-0.788,2.918-2.247,5.183-4.377,6.794c-2.131,1.611-4.853,2.417-8.164,2.417
				c-4.172,0-7.479-1.284-9.924-3.854c-2.443-2.569-3.665-6.173-3.665-10.81c0-4.798,1.235-8.522,3.706-11.172
				s5.675-3.975,9.614-3.975c3.813,0,6.929,1.298,9.346,3.894c2.417,2.597,3.625,6.249,3.625,10.957
				c0,0.287-0.009,0.717-0.026,1.289h-21.27c0.179,3.134,1.064,5.533,2.658,7.197c1.594,1.666,3.581,2.498,5.962,2.498
				c1.772,0,3.285-0.466,4.539-1.396C1238.672,214.816,1239.665,213.329,1240.399,211.288z M1224.528,203.473h15.925
				c-0.215-2.398-0.823-4.198-1.826-5.397c-1.54-1.862-3.536-2.793-5.988-2.793c-2.221,0-4.087,0.743-5.6,2.229
				C1225.526,198.997,1224.689,200.985,1224.528,203.473z"/>
			<path d="M1248.42,211.959l4.78-0.752c0.269,1.916,1.016,3.385,2.242,4.404c1.227,1.021,2.94,1.531,5.143,1.531
				c2.22,0,3.867-0.452,4.941-1.356c1.074-0.903,1.611-1.965,1.611-3.183c0-1.092-0.475-1.951-1.423-2.578
				c-0.663-0.43-2.31-0.976-4.941-1.638c-3.545-0.896-6.003-1.669-7.372-2.323c-1.37-0.653-2.408-1.558-3.115-2.712
				c-0.707-1.155-1.061-2.431-1.061-3.827c0-1.271,0.291-2.448,0.872-3.531c0.582-1.083,1.374-1.983,2.377-2.699
				c0.752-0.555,1.777-1.024,3.075-1.41c1.298-0.385,2.689-0.577,4.176-0.577c2.238,0,4.203,0.322,5.895,0.967
				c1.692,0.645,2.941,1.518,3.746,2.618c0.807,1.102,1.361,2.574,1.666,4.418l-4.727,0.645c-0.215-1.468-0.837-2.614-1.867-3.438
				c-1.029-0.823-2.483-1.235-4.363-1.235c-2.221,0-3.805,0.367-4.754,1.101c-0.949,0.734-1.423,1.594-1.423,2.578
				c0,0.627,0.196,1.191,0.591,1.692c0.394,0.52,1.011,0.949,1.853,1.289c0.483,0.179,1.907,0.591,4.271,1.235
				c3.419,0.913,5.805,1.661,7.156,2.242c1.352,0.582,2.413,1.428,3.183,2.538s1.155,2.488,1.155,4.136
				c0,1.611-0.471,3.129-1.41,4.552c-0.94,1.424-2.297,2.524-4.068,3.304c-1.772,0.778-3.778,1.168-6.016,1.168
				c-3.706,0-6.53-0.77-8.474-2.31C1250.196,217.268,1248.957,214.986,1248.42,211.959z"/>
			<path d="M1286.829,216.149l0.698,4.271c-1.36,0.286-2.578,0.43-3.652,0.43c-1.755,0-3.115-0.277-4.082-0.833
				c-0.967-0.555-1.647-1.284-2.041-2.188c-0.394-0.903-0.591-2.806-0.591-5.706v-16.409h-3.545v-3.76h3.545v-7.063l4.807-2.9v9.964
				h4.861v3.76h-4.861v16.677c0,1.379,0.085,2.266,0.256,2.659c0.17,0.394,0.447,0.707,0.832,0.94
				c0.385,0.232,0.936,0.349,1.652,0.349C1285.245,216.337,1285.952,216.275,1286.829,216.149z"/>
			<path d="M1290.516,220.473v-28.521h4.324v4.001c0.896-1.396,2.086-2.52,3.572-3.37c1.485-0.85,3.178-1.275,5.075-1.275
				c2.112,0,3.845,0.438,5.196,1.315c1.352,0.878,2.306,2.104,2.86,3.68c2.256-3.33,5.192-4.995,8.809-4.995
				c2.829,0,5.004,0.783,6.526,2.35c1.521,1.567,2.282,3.979,2.282,7.237v19.578h-4.808v-17.967c0-1.934-0.156-3.325-0.47-4.176
				c-0.313-0.85-0.882-1.535-1.705-2.055c-0.823-0.519-1.79-0.778-2.9-0.778c-2.005,0-3.67,0.667-4.995,2.001
				s-1.987,3.469-1.987,6.404v16.57h-4.834v-18.53c0-2.148-0.394-3.76-1.182-4.834s-2.077-1.611-3.867-1.611
				c-1.36,0-2.618,0.358-3.773,1.074c-1.154,0.716-1.991,1.764-2.511,3.142c-0.52,1.379-0.779,3.366-0.779,5.963v14.797H1290.516z"
				/>
			<path d="M1354.657,211.288l4.995,0.618c-0.788,2.918-2.247,5.183-4.377,6.794c-2.131,1.611-4.853,2.417-8.164,2.417
				c-4.172,0-7.479-1.284-9.924-3.854c-2.443-2.569-3.666-6.173-3.666-10.81c0-4.798,1.236-8.522,3.707-11.172
				s5.675-3.975,9.613-3.975c3.814,0,6.93,1.298,9.346,3.894c2.418,2.597,3.626,6.249,3.626,10.957c0,0.287-0.009,0.717-0.026,1.289
				h-21.27c0.179,3.134,1.064,5.533,2.658,7.197c1.594,1.666,3.581,2.498,5.962,2.498c1.772,0,3.285-0.466,4.538-1.396
				C1352.93,214.816,1353.923,213.329,1354.657,211.288z M1338.785,203.473h15.926c-0.215-2.398-0.823-4.198-1.826-5.397
				c-1.54-1.862-3.536-2.793-5.988-2.793c-2.221,0-4.087,0.743-5.6,2.229C1339.783,198.997,1338.947,200.985,1338.785,203.473z"/>
			<path d="M1364.429,220.473v-28.521h4.352v4.056c2.094-3.134,5.12-4.7,9.076-4.7c1.719,0,3.299,0.309,4.74,0.927
				c1.441,0.617,2.521,1.428,3.236,2.43c0.716,1.003,1.218,2.193,1.504,3.572c0.179,0.896,0.269,2.462,0.269,4.699v17.537h-4.834
				v-17.349c0-1.97-0.188-3.441-0.563-4.418c-0.377-0.976-1.044-1.754-2.001-2.336c-0.958-0.582-2.081-0.873-3.37-0.873
				c-2.06,0-3.837,0.653-5.331,1.96c-1.495,1.308-2.243,3.787-2.243,7.439v15.576H1364.429z"/>
			<path d="M1403.718,216.149l0.698,4.271c-1.36,0.286-2.578,0.43-3.652,0.43c-1.755,0-3.115-0.277-4.082-0.833
				c-0.967-0.555-1.647-1.284-2.041-2.188c-0.394-0.903-0.591-2.806-0.591-5.706v-16.409h-3.545v-3.76h3.545v-7.063l4.807-2.9v9.964
				h4.861v3.76h-4.861v16.677c0,1.379,0.085,2.266,0.256,2.659c0.17,0.394,0.447,0.707,0.832,0.94
				c0.385,0.232,0.936,0.349,1.652,0.349C1402.134,216.337,1402.841,216.275,1403.718,216.149z"/>
			<path d="M1424.062,220.473v-39.37h26.561v4.646h-21.351v12.193h18.477v4.646h-18.477v17.886H1424.062z"/>
			<path d="M1472.097,220.473v-4.189c-2.22,3.223-5.236,4.834-9.05,4.834c-1.683,0-3.254-0.322-4.713-0.967
				c-1.46-0.645-2.543-1.454-3.25-2.431c-0.707-0.976-1.204-2.171-1.49-3.585c-0.197-0.949-0.296-2.453-0.296-4.512v-17.671h4.834
				v15.817c0,2.525,0.099,4.226,0.296,5.104c0.305,1.271,0.949,2.269,1.934,2.994c0.984,0.725,2.202,1.088,3.652,1.088
				s2.811-0.372,4.082-1.115c1.271-0.742,2.171-1.754,2.699-3.034c0.527-1.28,0.792-3.138,0.792-5.573v-15.28h4.834v28.521H1472.097
				z"/>
			<path d="M1482.48,220.473v-28.521h4.352v4.056c2.094-3.134,5.12-4.7,9.076-4.7c1.719,0,3.299,0.309,4.74,0.927
				c1.441,0.617,2.521,1.428,3.236,2.43c0.716,1.003,1.218,2.193,1.504,3.572c0.179,0.896,0.269,2.462,0.269,4.699v17.537h-4.834
				v-17.349c0-1.97-0.188-3.441-0.563-4.418c-0.377-0.976-1.044-1.754-2.001-2.336c-0.958-0.582-2.081-0.873-3.37-0.873
				c-2.06,0-3.837,0.653-5.331,1.96c-1.495,1.308-2.243,3.787-2.243,7.439v15.576H1482.48z"/>
			<path d="M1530.307,220.473v-3.599c-1.809,2.829-4.467,4.243-7.977,4.243c-2.273,0-4.363-0.627-6.271-1.88
				c-1.906-1.253-3.384-3.003-4.431-5.25c-1.048-2.247-1.571-4.83-1.571-7.748c0-2.847,0.475-5.429,1.423-7.748
				c0.949-2.318,2.373-4.095,4.271-5.331c1.897-1.234,4.02-1.853,6.364-1.853c1.719,0,3.25,0.362,4.593,1.088
				c1.343,0.725,2.435,1.669,3.276,2.833v-14.126h4.807v39.37H1530.307z M1515.026,206.239c0,3.652,0.771,6.383,2.311,8.19
				c1.539,1.809,3.356,2.713,5.451,2.713c2.112,0,3.907-0.863,5.385-2.592c1.477-1.728,2.215-4.363,2.215-7.908
				c0-3.903-0.752-6.768-2.256-8.594s-3.356-2.74-5.559-2.74c-2.148,0-3.943,0.878-5.385,2.633
				C1515.747,199.696,1515.026,202.462,1515.026,206.239z"/>
			<path d="M1538.995,211.959l4.781-0.752c0.268,1.916,1.016,3.385,2.242,4.404c1.226,1.021,2.94,1.531,5.143,1.531
				c2.22,0,3.867-0.452,4.941-1.356c1.074-0.903,1.611-1.965,1.611-3.183c0-1.092-0.475-1.951-1.424-2.578
				c-0.662-0.43-2.309-0.976-4.941-1.638c-3.545-0.896-6.002-1.669-7.371-2.323c-1.37-0.653-2.408-1.558-3.115-2.712
				c-0.708-1.155-1.061-2.431-1.061-3.827c0-1.271,0.29-2.448,0.872-3.531s1.374-1.983,2.377-2.699
				c0.752-0.555,1.776-1.024,3.075-1.41c1.298-0.385,2.689-0.577,4.176-0.577c2.238,0,4.203,0.322,5.895,0.967
				c1.692,0.645,2.941,1.518,3.746,2.618c0.807,1.102,1.361,2.574,1.666,4.418l-4.727,0.645c-0.215-1.468-0.838-2.614-1.867-3.438
				s-2.484-1.235-4.363-1.235c-2.221,0-3.805,0.367-4.754,1.101c-0.949,0.734-1.424,1.594-1.424,2.578
				c0,0.627,0.197,1.191,0.592,1.692c0.394,0.52,1.011,0.949,1.853,1.289c0.483,0.179,1.907,0.591,4.271,1.235
				c3.419,0.913,5.805,1.661,7.156,2.242c1.352,0.582,2.413,1.428,3.183,2.538s1.155,2.488,1.155,4.136
				c0,1.611-0.471,3.129-1.41,4.552c-0.94,1.424-2.297,2.524-4.068,3.304c-1.773,0.778-3.778,1.168-6.016,1.168
				c-3.707,0-6.531-0.77-8.474-2.31S1539.532,214.986,1538.995,211.959z"/>
		</g>
		<g>
			<path d="M565.588,272.163c0-6.535,1.754-11.65,5.264-15.348c3.509-3.697,8.039-5.546,13.589-5.546
				c3.634,0,6.911,0.868,9.829,2.605c2.918,1.736,5.143,4.158,6.673,7.264c1.531,3.106,2.296,6.629,2.296,10.568
				c0,3.992-0.806,7.563-2.417,10.715s-3.894,5.537-6.848,7.157s-6.141,2.431-9.561,2.431c-3.706,0-7.019-0.896-9.937-2.686
				c-2.918-1.791-5.129-4.234-6.633-7.332S565.588,275.618,565.588,272.163z M570.959,272.244c0,4.744,1.276,8.481,3.827,11.212
				c2.552,2.73,5.751,4.095,9.601,4.095c3.921,0,7.148-1.378,9.681-4.135c2.534-2.758,3.8-6.67,3.8-11.736
				c0-3.205-0.542-6.002-1.625-8.393c-1.083-2.39-2.668-4.243-4.754-5.559c-2.085-1.316-4.427-1.975-7.022-1.975
				c-3.688,0-6.861,1.268-9.521,3.801C572.288,262.088,570.959,266.318,570.959,272.244z"/>
			<path d="M608.873,302.268v-39.45h4.404v3.706c1.038-1.45,2.211-2.538,3.518-3.263c1.307-0.726,2.891-1.088,4.753-1.088
				c2.435,0,4.583,0.627,6.445,1.88c1.862,1.253,3.267,3.021,4.216,5.304c0.949,2.283,1.423,4.785,1.423,7.507
				c0,2.918-0.524,5.545-1.571,7.882c-1.048,2.336-2.569,4.127-4.565,5.371c-1.997,1.244-4.096,1.866-6.298,1.866
				c-1.611,0-3.057-0.34-4.337-1.021c-1.28-0.681-2.333-1.54-3.156-2.578v13.884H608.873z M613.251,277.238
				c0,3.671,0.743,6.383,2.229,8.138c1.486,1.755,3.285,2.632,5.398,2.632c2.148,0,3.988-0.908,5.519-2.726
				c1.531-1.817,2.296-4.633,2.296-8.446c0-3.635-0.748-6.355-2.243-8.164c-1.495-1.809-3.281-2.713-5.357-2.713
				c-2.059,0-3.881,0.963-5.465,2.888C614.043,270.772,613.251,273.569,613.251,277.238z"/>
			<path d="M658.122,282.154l4.995,0.618c-0.788,2.918-2.247,5.183-4.377,6.794c-2.131,1.611-4.852,2.417-8.164,2.417
				c-4.172,0-7.479-1.284-9.923-3.854c-2.443-2.569-3.666-6.173-3.666-10.81c0-4.798,1.235-8.522,3.706-11.172
				s5.675-3.975,9.614-3.975c3.813,0,6.929,1.298,9.346,3.894c2.417,2.597,3.625,6.249,3.625,10.957
				c0,0.287-0.009,0.717-0.027,1.289h-21.27c0.179,3.134,1.065,5.533,2.659,7.197c1.593,1.666,3.581,2.498,5.962,2.498
				c1.772,0,3.285-0.466,4.539-1.396C656.394,285.681,657.388,284.195,658.122,282.154z M642.25,274.338h15.925
				c-0.215-2.398-0.824-4.198-1.826-5.397c-1.54-1.862-3.536-2.793-5.989-2.793c-2.22,0-4.086,0.743-5.599,2.229
				C643.248,269.863,642.411,271.85,642.25,274.338z"/>
			<path d="M668.148,291.338v-28.521h4.351v4.323c1.11-2.022,2.135-3.356,3.075-4.001c0.94-0.645,1.974-0.967,3.102-0.967
				c1.629,0,3.285,0.52,4.968,1.558l-1.665,4.484c-1.182-0.697-2.363-1.047-3.545-1.047c-1.057,0-2.005,0.318-2.847,0.953
				c-0.842,0.636-1.441,1.518-1.799,2.646c-0.537,1.719-0.806,3.599-0.806,5.64v14.932H668.148z"/>
			<path d="M704.265,287.821c-1.791,1.521-3.514,2.596-5.17,3.223c-1.656,0.626-3.433,0.939-5.331,0.939
				c-3.133,0-5.542-0.766-7.224-2.296c-1.683-1.531-2.524-3.487-2.524-5.868c0-1.396,0.318-2.672,0.953-3.827
				c0.636-1.154,1.468-2.081,2.498-2.779c1.029-0.698,2.188-1.227,3.478-1.585c0.949-0.25,2.381-0.492,4.297-0.725
				c3.903-0.466,6.776-1.021,8.621-1.665c0.018-0.662,0.027-1.083,0.027-1.263c0-1.969-0.457-3.356-1.37-4.162
				c-1.235-1.092-3.071-1.639-5.505-1.639c-2.274,0-3.952,0.399-5.035,1.195c-1.083,0.797-1.885,2.207-2.404,4.23l-4.727-0.645
				c0.43-2.023,1.137-3.657,2.122-4.901c0.984-1.244,2.408-2.202,4.27-2.874c1.862-0.671,4.019-1.007,6.472-1.007
				c2.435,0,4.413,0.286,5.935,0.859c1.521,0.573,2.641,1.294,3.357,2.162c0.716,0.868,1.217,1.965,1.504,3.29
				c0.161,0.823,0.242,2.309,0.242,4.457v6.445c0,4.494,0.103,7.337,0.309,8.527c0.206,1.19,0.613,2.332,1.222,3.424h-5.049
				C704.73,290.335,704.408,289.162,704.265,287.821z M703.862,277.024c-1.755,0.717-4.387,1.325-7.896,1.826
				c-1.987,0.287-3.393,0.609-4.216,0.967c-0.824,0.358-1.459,0.883-1.907,1.571c-0.448,0.689-0.671,1.455-0.671,2.296
				c0,1.289,0.488,2.363,1.464,3.223c0.976,0.859,2.403,1.289,4.283,1.289c1.862,0,3.518-0.406,4.968-1.222
				c1.45-0.814,2.515-1.929,3.196-3.343c0.519-1.093,0.779-2.704,0.779-4.834V277.024z"/>
			<path d="M725.35,287.014l0.698,4.271c-1.361,0.286-2.578,0.43-3.652,0.43c-1.755,0-3.115-0.277-4.082-0.833
				c-0.967-0.555-1.647-1.284-2.041-2.188c-0.394-0.903-0.591-2.806-0.591-5.706v-16.409h-3.545v-3.76h3.545v-7.063l4.807-2.9v9.964
				h4.861v3.76h-4.861v16.677c0,1.379,0.085,2.266,0.255,2.659c0.17,0.394,0.447,0.707,0.832,0.94
				c0.385,0.232,0.936,0.349,1.652,0.349C723.765,287.202,724.472,287.14,725.35,287.014z"/>
			<path d="M729.306,257.528v-5.56h4.834v5.56H729.306z M729.306,291.338v-28.521h4.834v28.521H729.306z"/>
			<path d="M738.918,277.078c0-5.282,1.468-9.194,4.404-11.736c2.453-2.112,5.442-3.169,8.97-3.169c3.921,0,7.125,1.285,9.614,3.854
				c2.488,2.569,3.733,6.119,3.733,10.648c0,3.67-0.55,6.558-1.652,8.661c-1.101,2.104-2.703,3.737-4.807,4.9
				c-2.104,1.164-4.4,1.746-6.889,1.746c-3.993,0-7.22-1.28-9.682-3.84C740.149,285.582,738.918,281.894,738.918,277.078z
				 M743.886,277.078c0,3.652,0.796,6.387,2.39,8.204c1.593,1.817,3.599,2.726,6.016,2.726c2.399,0,4.395-0.913,5.989-2.739
				c1.593-1.826,2.39-4.61,2.39-8.353c0-3.526-0.801-6.198-2.403-8.016c-1.603-1.817-3.595-2.727-5.976-2.727
				c-2.417,0-4.422,0.904-6.016,2.713C744.682,270.696,743.886,273.426,743.886,277.078z"/>
			<path d="M770.442,291.338v-28.521h4.351v4.056c2.095-3.134,5.12-4.7,9.077-4.7c1.719,0,3.299,0.309,4.74,0.927
				c1.441,0.617,2.52,1.428,3.236,2.43c0.716,1.003,1.217,2.193,1.504,3.572c0.179,0.896,0.269,2.462,0.269,4.699v17.537h-4.834
				v-17.349c0-1.97-0.188-3.441-0.564-4.418c-0.376-0.976-1.043-1.754-2-2.336c-0.958-0.582-2.082-0.873-3.371-0.873
				c-2.059,0-3.836,0.653-5.331,1.96c-1.495,1.308-2.243,3.787-2.243,7.439v15.576H770.442z"/>
			<path d="M818.497,287.821c-1.791,1.521-3.514,2.596-5.17,3.223c-1.656,0.626-3.433,0.939-5.331,0.939
				c-3.133,0-5.542-0.766-7.224-2.296c-1.683-1.531-2.524-3.487-2.524-5.868c0-1.396,0.318-2.672,0.953-3.827
				c0.636-1.154,1.468-2.081,2.498-2.779c1.029-0.698,2.188-1.227,3.478-1.585c0.949-0.25,2.381-0.492,4.297-0.725
				c3.903-0.466,6.776-1.021,8.621-1.665c0.018-0.662,0.027-1.083,0.027-1.263c0-1.969-0.457-3.356-1.37-4.162
				c-1.235-1.092-3.071-1.639-5.505-1.639c-2.274,0-3.952,0.399-5.035,1.195c-1.083,0.797-1.885,2.207-2.404,4.23l-4.727-0.645
				c0.43-2.023,1.137-3.657,2.122-4.901c0.984-1.244,2.408-2.202,4.27-2.874c1.862-0.671,4.019-1.007,6.472-1.007
				c2.435,0,4.413,0.286,5.935,0.859c1.521,0.573,2.641,1.294,3.356,2.162s1.218,1.965,1.504,3.29
				c0.161,0.823,0.242,2.309,0.242,4.457v6.445c0,4.494,0.103,7.337,0.309,8.527s0.613,2.332,1.222,3.424h-5.048
				C818.963,290.335,818.64,289.162,818.497,287.821z M818.095,277.024c-1.755,0.717-4.387,1.325-7.896,1.826
				c-1.987,0.287-3.393,0.609-4.216,0.967c-0.824,0.358-1.459,0.883-1.907,1.571c-0.448,0.689-0.671,1.455-0.671,2.296
				c0,1.289,0.488,2.363,1.464,3.223c0.976,0.859,2.403,1.289,4.283,1.289c1.862,0,3.518-0.406,4.968-1.222
				c1.45-0.814,2.515-1.929,3.196-3.343c0.519-1.093,0.779-2.704,0.779-4.834V277.024z"/>
			<path d="M829.262,291.338v-39.37h4.834v39.37H829.262z"/>
			<path d="M857.487,291.338v-39.37h14.851c2.614,0,4.61,0.125,5.989,0.376c1.934,0.322,3.554,0.936,4.86,1.84
				s2.359,2.171,3.156,3.8c0.796,1.629,1.194,3.42,1.194,5.371c0,3.348-1.065,6.182-3.195,8.5c-2.131,2.318-5.98,3.478-11.548,3.478
				h-10.098v16.006H857.487z M862.697,270.686h10.178c3.366,0,5.756-0.626,7.171-1.879c1.414-1.254,2.121-3.018,2.121-5.291
				c0-1.647-0.416-3.057-1.248-4.229c-0.833-1.173-1.93-1.947-3.29-2.323c-0.878-0.232-2.498-0.35-4.861-0.35h-10.07V270.686z"/>
			<path d="M892.004,291.338v-28.521h4.351v4.323c1.11-2.022,2.136-3.356,3.075-4.001c0.94-0.645,1.974-0.967,3.102-0.967
				c1.629,0,3.285,0.52,4.969,1.558l-1.665,4.484c-1.182-0.697-2.363-1.047-3.545-1.047c-1.057,0-2.006,0.318-2.847,0.953
				c-0.842,0.636-1.441,1.518-1.8,2.646c-0.537,1.719-0.806,3.599-0.806,5.64v14.932H892.004z"/>
			<path d="M907.655,277.078c0-5.282,1.468-9.194,4.404-11.736c2.453-2.112,5.442-3.169,8.97-3.169c3.921,0,7.126,1.285,9.614,3.854
				c2.488,2.569,3.733,6.119,3.733,10.648c0,3.67-0.551,6.558-1.652,8.661c-1.101,2.104-2.703,3.737-4.807,4.9
				c-2.104,1.164-4.4,1.746-6.889,1.746c-3.992,0-7.22-1.28-9.682-3.84C908.887,285.582,907.655,281.894,907.655,277.078z
				 M912.624,277.078c0,3.652,0.796,6.387,2.39,8.204s3.599,2.726,6.016,2.726c2.399,0,4.396-0.913,5.989-2.739
				c1.593-1.826,2.39-4.61,2.39-8.353c0-3.526-0.801-6.198-2.403-8.016s-3.595-2.727-5.976-2.727c-2.417,0-4.422,0.904-6.016,2.713
				S912.624,273.426,912.624,277.078z"/>
			<path d="M938.497,293.701l4.699,0.698c0.197,1.45,0.743,2.507,1.639,3.169c1.199,0.896,2.837,1.343,4.914,1.343
				c2.238,0,3.966-0.447,5.184-1.343c1.217-0.896,2.041-2.148,2.471-3.76c0.25-0.984,0.366-3.053,0.349-6.203
				c-2.112,2.488-4.744,3.732-7.896,3.732c-3.921,0-6.955-1.414-9.104-4.243s-3.223-6.222-3.223-10.179
				c0-2.721,0.492-5.231,1.477-7.532s2.413-4.078,4.284-5.331c1.87-1.253,4.068-1.88,6.593-1.88c3.365,0,6.141,1.36,8.325,4.082
				v-3.438h4.458v24.653c0,4.44-0.452,7.587-1.356,9.439c-0.904,1.854-2.336,3.316-4.297,4.391c-1.96,1.074-4.373,1.611-7.237,1.611
				c-3.402,0-6.15-0.765-8.245-2.296C939.436,299.086,938.425,296.78,938.497,293.701z M942.498,276.568
				c0,3.742,0.743,6.472,2.229,8.19c1.485,1.719,3.348,2.578,5.586,2.578c2.22,0,4.082-0.854,5.586-2.564
				c1.504-1.709,2.256-4.391,2.256-8.043c0-3.491-0.774-6.123-2.323-7.896s-3.415-2.659-5.6-2.659c-2.148,0-3.975,0.873-5.479,2.619
				C943.25,270.538,942.498,273.13,942.498,276.568z"/>
			<path d="M968.856,291.338v-28.521h4.351v4.323c1.11-2.022,2.136-3.356,3.075-4.001c0.94-0.645,1.974-0.967,3.102-0.967
				c1.629,0,3.285,0.52,4.969,1.558l-1.665,4.484c-1.182-0.697-2.363-1.047-3.545-1.047c-1.057,0-2.006,0.318-2.847,0.953
				c-0.842,0.636-1.441,1.518-1.8,2.646c-0.537,1.719-0.806,3.599-0.806,5.64v14.932H968.856z"/>
			<path d="M1004.972,287.821c-1.79,1.521-3.514,2.596-5.17,3.223c-1.655,0.626-3.433,0.939-5.33,0.939
				c-3.134,0-5.542-0.766-7.225-2.296c-1.683-1.531-2.524-3.487-2.524-5.868c0-1.396,0.318-2.672,0.953-3.827
				c0.636-1.154,1.469-2.081,2.498-2.779s2.188-1.227,3.478-1.585c0.949-0.25,2.381-0.492,4.297-0.725
				c3.903-0.466,6.776-1.021,8.621-1.665c0.018-0.662,0.026-1.083,0.026-1.263c0-1.969-0.456-3.356-1.369-4.162
				c-1.235-1.092-3.071-1.639-5.506-1.639c-2.273,0-3.952,0.399-5.035,1.195c-1.083,0.797-1.885,2.207-2.403,4.23l-4.727-0.645
				c0.43-2.023,1.137-3.657,2.121-4.901s2.408-2.202,4.271-2.874c1.861-0.671,4.019-1.007,6.472-1.007
				c2.435,0,4.413,0.286,5.936,0.859c1.521,0.573,2.641,1.294,3.356,2.162s1.218,1.965,1.504,3.29
				c0.161,0.823,0.242,2.309,0.242,4.457v6.445c0,4.494,0.103,7.337,0.309,8.527s0.613,2.332,1.222,3.424h-5.049
				C1005.438,290.335,1005.116,289.162,1004.972,287.821z M1004.57,277.024c-1.755,0.717-4.387,1.325-7.896,1.826
				c-1.987,0.287-3.394,0.609-4.217,0.967c-0.823,0.358-1.459,0.883-1.906,1.571c-0.448,0.689-0.672,1.455-0.672,2.296
				c0,1.289,0.488,2.363,1.464,3.223s2.403,1.289,4.283,1.289c1.862,0,3.519-0.406,4.969-1.222c1.45-0.814,2.515-1.929,3.195-3.343
				c0.52-1.093,0.779-2.704,0.779-4.834V277.024z"/>
			<path d="M1015.811,291.338v-28.521h4.324v4.001c0.895-1.396,2.085-2.52,3.571-3.37c1.486-0.85,3.178-1.275,5.076-1.275
				c2.112,0,3.845,0.438,5.196,1.315c1.352,0.878,2.305,2.104,2.86,3.68c2.256-3.33,5.191-4.995,8.809-4.995
				c2.828,0,5.004,0.783,6.525,2.35c1.521,1.567,2.283,3.979,2.283,7.237v19.578h-4.808v-17.967c0-1.934-0.156-3.325-0.47-4.176
				c-0.313-0.85-0.882-1.535-1.705-2.055c-0.824-0.519-1.791-0.778-2.9-0.778c-2.006,0-3.671,0.667-4.995,2.001
				c-1.325,1.334-1.987,3.469-1.987,6.404v16.57h-4.834v-18.53c0-2.148-0.395-3.76-1.182-4.834
				c-0.788-1.074-2.077-1.611-3.867-1.611c-1.361,0-2.618,0.358-3.773,1.074c-1.154,0.716-1.992,1.764-2.511,3.142
				c-0.52,1.379-0.779,3.366-0.779,5.963v14.797H1015.811z"/>
			<path d="M1060.577,291.338v-28.521h4.323v4.001c0.896-1.396,2.086-2.52,3.572-3.37c1.485-0.85,3.178-1.275,5.075-1.275
				c2.112,0,3.845,0.438,5.196,1.315c1.353,0.878,2.306,2.104,2.86,3.68c2.256-3.33,5.192-4.995,8.809-4.995
				c2.829,0,5.004,0.783,6.526,2.35c1.521,1.567,2.282,3.979,2.282,7.237v19.578h-4.807v-17.967c0-1.934-0.157-3.325-0.471-4.176
				c-0.313-0.85-0.882-1.535-1.705-2.055c-0.823-0.519-1.79-0.778-2.9-0.778c-2.005,0-3.67,0.667-4.995,2.001
				s-1.987,3.469-1.987,6.404v16.57h-4.834v-18.53c0-2.148-0.394-3.76-1.182-4.834s-2.077-1.611-3.867-1.611
				c-1.36,0-2.618,0.358-3.773,1.074c-1.154,0.716-1.991,1.764-2.511,3.142c-0.52,1.379-0.778,3.366-0.778,5.963v14.797H1060.577z"
				/>
			<path d="M1124.992,282.154l4.995,0.618c-0.788,2.918-2.247,5.183-4.377,6.794c-2.131,1.611-4.853,2.417-8.164,2.417
				c-4.172,0-7.479-1.284-9.924-3.854c-2.443-2.569-3.665-6.173-3.665-10.81c0-4.798,1.235-8.522,3.706-11.172
				s5.675-3.975,9.614-3.975c3.813,0,6.929,1.298,9.346,3.894c2.417,2.597,3.625,6.249,3.625,10.957
				c0,0.287-0.009,0.717-0.026,1.289h-21.27c0.179,3.134,1.064,5.533,2.658,7.197c1.594,1.666,3.581,2.498,5.962,2.498
				c1.772,0,3.285-0.466,4.539-1.396C1123.265,285.681,1124.258,284.195,1124.992,282.154z M1109.121,274.338h15.925
				c-0.215-2.398-0.823-4.198-1.826-5.397c-1.54-1.862-3.536-2.793-5.988-2.793c-2.221,0-4.087,0.743-5.6,2.229
				C1110.119,269.863,1109.282,271.85,1109.121,274.338z"/>
			<path d="M1152.036,291.338v-39.37h17.456c3.509,0,6.177,0.354,8.003,1.061c1.826,0.708,3.285,1.956,4.377,3.747
				c1.092,1.79,1.639,3.769,1.639,5.935c0,2.793-0.904,5.147-2.713,7.063c-1.809,1.915-4.602,3.133-8.379,3.652
				c1.379,0.662,2.426,1.315,3.143,1.96c1.521,1.396,2.963,3.142,4.323,5.237l6.849,10.715h-6.553l-5.21-8.191
				c-1.522-2.363-2.775-4.171-3.76-5.424c-0.985-1.254-1.867-2.131-2.646-2.633c-0.779-0.501-1.571-0.85-2.377-1.047
				c-0.591-0.125-1.558-0.188-2.9-0.188h-6.042v17.482H1152.036z M1157.246,269.344h11.198c2.381,0,4.243-0.246,5.586-0.739
				c1.343-0.492,2.363-1.279,3.062-2.363c0.698-1.083,1.048-2.26,1.048-3.531c0-1.862-0.676-3.393-2.028-4.593
				c-1.352-1.199-3.486-1.799-6.404-1.799h-12.461V269.344z"/>
			<path d="M1208.782,282.154l4.995,0.618c-0.788,2.918-2.247,5.183-4.378,6.794s-4.852,2.417-8.164,2.417
				c-4.172,0-7.479-1.284-9.923-3.854c-2.443-2.569-3.666-6.173-3.666-10.81c0-4.798,1.235-8.522,3.706-11.172
				s5.676-3.975,9.614-3.975c3.813,0,6.929,1.298,9.346,3.894c2.417,2.597,3.626,6.249,3.626,10.957c0,0.287-0.01,0.717-0.027,1.289
				h-21.27c0.179,3.134,1.065,5.533,2.659,7.197c1.593,1.666,3.58,2.498,5.962,2.498c1.772,0,3.285-0.466,4.538-1.396
				S1208.048,284.195,1208.782,282.154z M1192.91,274.338h15.926c-0.215-2.398-0.824-4.198-1.826-5.397
				c-1.54-1.862-3.536-2.793-5.989-2.793c-2.22,0-4.086,0.743-5.599,2.229C1193.908,269.863,1193.071,271.85,1192.91,274.338z"/>
			<path d="M1217.077,282.824l4.78-0.752c0.269,1.916,1.016,3.385,2.242,4.404c1.227,1.021,2.94,1.531,5.143,1.531
				c2.22,0,3.867-0.452,4.941-1.356c1.074-0.903,1.611-1.965,1.611-3.183c0-1.092-0.475-1.951-1.423-2.578
				c-0.663-0.43-2.31-0.976-4.941-1.638c-3.545-0.896-6.003-1.669-7.372-2.323c-1.37-0.653-2.408-1.558-3.115-2.712
				c-0.707-1.155-1.061-2.431-1.061-3.827c0-1.271,0.291-2.448,0.872-3.531c0.582-1.083,1.374-1.983,2.377-2.699
				c0.752-0.555,1.777-1.024,3.075-1.41c1.298-0.385,2.689-0.577,4.176-0.577c2.238,0,4.203,0.322,5.895,0.967
				c1.692,0.645,2.941,1.518,3.747,2.618c0.806,1.102,1.36,2.574,1.665,4.418l-4.727,0.645c-0.215-1.468-0.837-2.614-1.867-3.438
				c-1.029-0.823-2.483-1.235-4.363-1.235c-2.221,0-3.805,0.367-4.754,1.101c-0.949,0.734-1.423,1.594-1.423,2.578
				c0,0.627,0.196,1.191,0.591,1.692c0.393,0.52,1.011,0.949,1.853,1.289c0.483,0.179,1.907,0.591,4.271,1.235
				c3.419,0.913,5.805,1.661,7.156,2.242c1.353,0.582,2.413,1.428,3.183,2.538s1.155,2.488,1.155,4.136
				c0,1.611-0.471,3.129-1.41,4.552c-0.94,1.424-2.296,2.524-4.068,3.304c-1.772,0.778-3.778,1.168-6.016,1.168
				c-3.706,0-6.53-0.77-8.474-2.31C1218.853,288.133,1217.614,285.851,1217.077,282.824z"/>
			<path d="M1265.028,282.154l4.994,0.618c-0.787,2.918-2.246,5.183-4.377,6.794s-4.852,2.417-8.164,2.417
				c-4.172,0-7.479-1.284-9.923-3.854c-2.443-2.569-3.666-6.173-3.666-10.81c0-4.798,1.235-8.522,3.706-11.172
				s5.676-3.975,9.614-3.975c3.813,0,6.929,1.298,9.346,3.894c2.417,2.597,3.626,6.249,3.626,10.957c0,0.287-0.01,0.717-0.027,1.289
				h-21.27c0.179,3.134,1.065,5.533,2.659,7.197c1.593,1.666,3.58,2.498,5.962,2.498c1.772,0,3.285-0.466,4.538-1.396
				S1264.294,284.195,1265.028,282.154z M1249.156,274.338h15.926c-0.215-2.398-0.824-4.198-1.826-5.397
				c-1.54-1.862-3.536-2.793-5.989-2.793c-2.22,0-4.086,0.743-5.599,2.229C1250.154,269.863,1249.317,271.85,1249.156,274.338z"/>
			<path d="M1293.691,287.821c-1.79,1.521-3.514,2.596-5.17,3.223c-1.656,0.626-3.433,0.939-5.33,0.939
				c-3.134,0-5.542-0.766-7.225-2.296c-1.683-1.531-2.524-3.487-2.524-5.868c0-1.396,0.317-2.672,0.953-3.827
				c0.636-1.154,1.468-2.081,2.498-2.779c1.029-0.698,2.188-1.227,3.478-1.585c0.949-0.25,2.381-0.492,4.297-0.725
				c3.903-0.466,6.776-1.021,8.621-1.665c0.018-0.662,0.026-1.083,0.026-1.263c0-1.969-0.456-3.356-1.37-4.162
				c-1.234-1.092-3.07-1.639-5.505-1.639c-2.273,0-3.952,0.399-5.035,1.195c-1.084,0.797-1.885,2.207-2.403,4.23l-4.727-0.645
				c0.43-2.023,1.137-3.657,2.121-4.901s2.408-2.202,4.27-2.874c1.862-0.671,4.02-1.007,6.473-1.007
				c2.435,0,4.413,0.286,5.936,0.859c1.521,0.573,2.641,1.294,3.356,2.162s1.218,1.965,1.504,3.29
				c0.161,0.823,0.241,2.309,0.241,4.457v6.445c0,4.494,0.104,7.337,0.31,8.527c0.205,1.19,0.613,2.332,1.222,3.424h-5.049
				C1294.157,290.335,1293.835,289.162,1293.691,287.821z M1293.289,277.024c-1.755,0.717-4.387,1.325-7.896,1.826
				c-1.986,0.287-3.393,0.609-4.216,0.967c-0.823,0.358-1.459,0.883-1.907,1.571c-0.447,0.689-0.671,1.455-0.671,2.296
				c0,1.289,0.487,2.363,1.464,3.223c0.976,0.859,2.403,1.289,4.283,1.289c1.862,0,3.518-0.406,4.969-1.222
				c1.449-0.814,2.515-1.929,3.195-3.343c0.52-1.093,0.779-2.704,0.779-4.834V277.024z"/>
			<path d="M1304.51,291.338v-28.521h4.35v4.323c1.11-2.022,2.136-3.356,3.075-4.001c0.94-0.645,1.974-0.967,3.103-0.967
				c1.629,0,3.285,0.52,4.968,1.558l-1.665,4.484c-1.182-0.697-2.363-1.047-3.545-1.047c-1.057,0-2.005,0.318-2.847,0.953
				c-0.842,0.636-1.441,1.518-1.8,2.646c-0.537,1.719-0.805,3.599-0.805,5.64v14.932H1304.51z"/>
			<path d="M1340.423,280.891l4.754,0.618c-0.52,3.276-1.85,5.841-3.988,7.694c-2.14,1.853-4.768,2.779-7.883,2.779
				c-3.902,0-7.04-1.275-9.412-3.827c-2.373-2.551-3.559-6.208-3.559-10.97c0-3.08,0.51-5.774,1.531-8.084
				c1.02-2.31,2.573-4.042,4.659-5.196c2.085-1.155,4.354-1.732,6.808-1.732c3.098,0,5.631,0.783,7.6,2.35
				c1.97,1.567,3.232,3.791,3.787,6.674l-4.699,0.726c-0.448-1.916-1.24-3.357-2.377-4.324c-1.138-0.967-2.512-1.45-4.123-1.45
				c-2.435,0-4.413,0.873-5.935,2.618c-1.521,1.746-2.282,4.508-2.282,8.285c0,3.831,0.733,6.615,2.201,8.352
				c1.469,1.737,3.385,2.605,5.748,2.605c1.897,0,3.481-0.582,4.753-1.746C1339.277,285.099,1340.083,283.309,1340.423,280.891z"/>
			<path d="M1348.844,291.338v-39.37h4.834v14.126c2.256-2.614,5.104-3.921,8.541-3.921c2.112,0,3.947,0.416,5.505,1.249
				c1.558,0.832,2.672,1.982,3.344,3.451c0.671,1.468,1.007,3.598,1.007,6.391v18.074h-4.834v-18.074
				c0-2.416-0.523-4.176-1.571-5.276c-1.047-1.102-2.528-1.651-4.444-1.651c-1.433,0-2.779,0.371-4.042,1.114
				c-1.262,0.743-2.161,1.75-2.698,3.021c-0.537,1.271-0.807,3.026-0.807,5.264v15.604H1348.844z"/>
			<path d="M1379.111,291.338v-5.506h5.505v5.506c0,2.023-0.357,3.656-1.074,4.901c-0.716,1.244-1.853,2.206-3.41,2.887
				l-1.343-2.067c1.021-0.448,1.772-1.106,2.256-1.975s0.752-2.117,0.806-3.746H1379.111z"/>
		</g>
		<g>
			<path d="M567.172,362.205v-39.37h13.562c3.062,0,5.398,0.188,7.009,0.563c2.256,0.52,4.18,1.46,5.774,2.82
				c2.077,1.755,3.63,3.997,4.66,6.728c1.029,2.73,1.544,5.85,1.544,9.358c0,2.99-0.349,5.641-1.047,7.949
				c-0.698,2.311-1.594,4.222-2.686,5.734c-1.092,1.513-2.287,2.703-3.585,3.571c-1.298,0.869-2.864,1.526-4.699,1.974
				c-1.835,0.448-3.944,0.672-6.325,0.672H567.172z M572.382,357.558h8.406c2.596,0,4.632-0.241,6.11-0.725
				c1.477-0.483,2.654-1.164,3.531-2.041c1.235-1.235,2.198-2.896,2.887-4.981c0.689-2.086,1.034-4.615,1.034-7.587
				c0-4.118-0.676-7.282-2.027-9.493c-1.352-2.211-2.995-3.692-4.928-4.444c-1.396-0.537-3.644-0.807-6.741-0.807h-8.271V357.558z"
				/>
			<path d="M625.049,353.02l4.995,0.618c-0.788,2.918-2.247,5.183-4.377,6.794c-2.131,1.611-4.852,2.417-8.164,2.417
				c-4.172,0-7.479-1.284-9.923-3.854c-2.443-2.569-3.666-6.173-3.666-10.81c0-4.798,1.235-8.522,3.706-11.172
				s5.675-3.975,9.614-3.975c3.813,0,6.929,1.298,9.346,3.894c2.417,2.597,3.625,6.249,3.625,10.957
				c0,0.287-0.009,0.717-0.027,1.289h-21.27c0.179,3.134,1.065,5.533,2.659,7.197c1.593,1.666,3.581,2.498,5.962,2.498
				c1.772,0,3.285-0.466,4.539-1.396C623.321,356.548,624.315,355.061,625.049,353.02z M609.178,345.205h15.925
				c-0.215-2.398-0.824-4.198-1.826-5.397c-1.54-1.862-3.536-2.793-5.989-2.793c-2.22,0-4.086,0.743-5.599,2.229
				C610.176,340.729,609.339,342.717,609.178,345.205z"/>
			<path d="M641.963,362.205l-10.85-28.521h5.103l6.123,17.08c0.662,1.844,1.271,3.76,1.826,5.747
				c0.43-1.504,1.029-3.313,1.799-5.425l6.338-17.402h4.968l-10.796,28.521H641.963z"/>
			<path d="M679.117,353.02l4.995,0.618c-0.788,2.918-2.247,5.183-4.377,6.794c-2.131,1.611-4.852,2.417-8.164,2.417
				c-4.172,0-7.479-1.284-9.923-3.854c-2.443-2.569-3.666-6.173-3.666-10.81c0-4.798,1.235-8.522,3.706-11.172
				s5.675-3.975,9.614-3.975c3.813,0,6.929,1.298,9.346,3.894c2.417,2.597,3.625,6.249,3.625,10.957
				c0,0.287-0.009,0.717-0.027,1.289h-21.27c0.179,3.134,1.065,5.533,2.659,7.197c1.593,1.666,3.581,2.498,5.962,2.498
				c1.772,0,3.285-0.466,4.539-1.396C677.389,356.548,678.383,355.061,679.117,353.02z M663.245,345.205h15.925
				c-0.215-2.398-0.824-4.198-1.826-5.397c-1.54-1.862-3.536-2.793-5.989-2.793c-2.22,0-4.086,0.743-5.599,2.229
				C664.243,340.729,663.407,342.717,663.245,345.205z"/>
			<path d="M689.172,362.205v-39.37h4.834v39.37H689.172z"/>
			<path d="M698.83,347.945c0-5.282,1.468-9.194,4.404-11.736c2.453-2.112,5.442-3.169,8.97-3.169c3.921,0,7.125,1.285,9.614,3.854
				c2.488,2.569,3.733,6.119,3.733,10.648c0,3.67-0.55,6.558-1.652,8.661c-1.101,2.104-2.703,3.737-4.807,4.9
				c-2.104,1.164-4.4,1.746-6.889,1.746c-3.993,0-7.22-1.28-9.682-3.84C700.061,356.449,698.83,352.76,698.83,347.945z
				 M703.799,347.945c0,3.652,0.796,6.387,2.39,8.204c1.593,1.817,3.599,2.726,6.016,2.726c2.399,0,4.395-0.913,5.989-2.739
				c1.593-1.826,2.39-4.61,2.39-8.353c0-3.526-0.801-6.198-2.403-8.016c-1.603-1.817-3.595-2.727-5.976-2.727
				c-2.417,0-4.422,0.904-6.016,2.713C704.595,341.562,703.799,344.293,703.799,347.945z"/>
			<path d="M730.355,373.134v-39.45h4.404v3.706c1.038-1.45,2.211-2.538,3.518-3.263c1.307-0.726,2.891-1.088,4.753-1.088
				c2.435,0,4.583,0.627,6.445,1.88c1.862,1.253,3.267,3.021,4.216,5.304c0.949,2.283,1.423,4.785,1.423,7.507
				c0,2.918-0.524,5.545-1.571,7.882c-1.048,2.336-2.569,4.127-4.565,5.371c-1.997,1.244-4.096,1.866-6.298,1.866
				c-1.611,0-3.057-0.34-4.337-1.021c-1.28-0.681-2.333-1.54-3.156-2.578v13.884H730.355z M734.732,348.105
				c0,3.671,0.743,6.383,2.229,8.138c1.486,1.755,3.285,2.632,5.398,2.632c2.148,0,3.988-0.908,5.519-2.726
				c1.531-1.817,2.296-4.633,2.296-8.446c0-3.635-0.748-6.355-2.243-8.164c-1.495-1.809-3.281-2.713-5.357-2.713
				c-2.059,0-3.881,0.963-5.465,2.888C735.524,341.638,734.732,344.435,734.732,348.105z"/>
			<path d="M759.992,362.205v-28.521h4.324v4.001c0.895-1.396,2.085-2.52,3.572-3.37c1.486-0.85,3.178-1.275,5.076-1.275
				c2.112,0,3.845,0.438,5.196,1.315c1.352,0.878,2.305,2.104,2.86,3.68c2.256-3.33,5.192-4.995,8.809-4.995
				c2.829,0,5.004,0.783,6.526,2.35c1.521,1.567,2.283,3.979,2.283,7.237v19.578h-4.807v-17.967c0-1.934-0.157-3.325-0.47-4.176
				c-0.313-0.85-0.882-1.535-1.705-2.055c-0.824-0.519-1.791-0.778-2.9-0.778c-2.005,0-3.67,0.667-4.995,2.001
				c-1.325,1.334-1.987,3.469-1.987,6.404v16.57h-4.834v-18.53c0-2.148-0.394-3.76-1.182-4.834
				c-0.788-1.074-2.077-1.611-3.867-1.611c-1.361,0-2.618,0.358-3.773,1.074c-1.154,0.716-1.992,1.764-2.511,3.142
				c-0.52,1.379-0.779,3.366-0.779,5.963v14.797H759.992z"/>
			<path d="M824.407,353.02l4.995,0.618c-0.788,2.918-2.247,5.183-4.377,6.794c-2.131,1.611-4.853,2.417-8.165,2.417
				c-4.172,0-7.479-1.284-9.923-3.854c-2.443-2.569-3.666-6.173-3.666-10.81c0-4.798,1.235-8.522,3.706-11.172
				s5.675-3.975,9.614-3.975c3.813,0,6.929,1.298,9.346,3.894c2.417,2.597,3.625,6.249,3.625,10.957
				c0,0.287-0.009,0.717-0.026,1.289h-21.27c0.179,3.134,1.065,5.533,2.659,7.197c1.593,1.666,3.581,2.498,5.962,2.498
				c1.772,0,3.285-0.466,4.539-1.396C822.68,356.548,823.673,355.061,824.407,353.02z M808.535,345.205h15.925
				c-0.215-2.398-0.823-4.198-1.826-5.397c-1.54-1.862-3.536-2.793-5.989-2.793c-2.22,0-4.086,0.743-5.599,2.229
				C809.534,340.729,808.697,342.717,808.535,345.205z"/>
			<path d="M834.46,362.205v-28.521h4.351v4.056c2.095-3.134,5.12-4.7,9.077-4.7c1.719,0,3.299,0.309,4.739,0.927
				c1.441,0.617,2.521,1.428,3.236,2.43c0.716,1.003,1.218,2.193,1.504,3.572c0.179,0.896,0.269,2.462,0.269,4.699v17.537h-4.834
				v-17.349c0-1.97-0.188-3.441-0.563-4.418c-0.376-0.976-1.043-1.754-2.001-2.336s-2.081-0.873-3.37-0.873
				c-2.06,0-3.836,0.653-5.331,1.96c-1.495,1.308-2.242,3.787-2.242,7.439v15.576H834.46z"/>
			<path d="M874.023,357.881l0.698,4.271c-1.36,0.286-2.578,0.43-3.652,0.43c-1.755,0-3.115-0.277-4.082-0.833
				c-0.967-0.555-1.647-1.284-2.041-2.188c-0.394-0.903-0.591-2.806-0.591-5.706v-16.409h-3.545v-3.76h3.545v-7.063l4.808-2.9v9.964
				h4.86v3.76h-4.86v16.677c0,1.379,0.085,2.266,0.255,2.659s0.447,0.707,0.832,0.94c0.386,0.232,0.936,0.349,1.652,0.349
				C872.439,358.069,873.146,358.007,874.023,357.881z"/>
			<path d="M912.641,358.687c-1.79,1.521-3.514,2.596-5.17,3.223c-1.655,0.626-3.433,0.939-5.33,0.939
				c-3.134,0-5.542-0.766-7.225-2.296c-1.683-1.531-2.524-3.487-2.524-5.868c0-1.396,0.318-2.672,0.953-3.827
				c0.636-1.154,1.469-2.081,2.498-2.779s2.188-1.227,3.478-1.585c0.949-0.25,2.381-0.492,4.297-0.725
				c3.903-0.466,6.776-1.021,8.621-1.665c0.018-0.662,0.026-1.083,0.026-1.263c0-1.969-0.456-3.356-1.369-4.162
				c-1.235-1.092-3.071-1.639-5.506-1.639c-2.273,0-3.952,0.399-5.035,1.195c-1.083,0.797-1.885,2.207-2.403,4.23l-4.727-0.645
				c0.43-2.023,1.137-3.657,2.121-4.901s2.408-2.202,4.271-2.874c1.861-0.671,4.019-1.007,6.472-1.007
				c2.435,0,4.413,0.286,5.936,0.859c1.521,0.573,2.641,1.294,3.356,2.162s1.218,1.965,1.504,3.29
				c0.161,0.823,0.242,2.309,0.242,4.457v6.445c0,4.494,0.103,7.337,0.309,8.527s0.613,2.332,1.222,3.424h-5.049
				C913.107,361.202,912.785,360.029,912.641,358.687z M912.239,347.89c-1.755,0.717-4.387,1.325-7.896,1.826
				c-1.987,0.287-3.394,0.609-4.217,0.967c-0.823,0.358-1.459,0.883-1.906,1.571c-0.448,0.689-0.672,1.455-0.672,2.296
				c0,1.289,0.488,2.363,1.464,3.223s2.403,1.289,4.283,1.289c1.862,0,3.519-0.406,4.969-1.222c1.45-0.814,2.515-1.929,3.195-3.343
				c0.52-1.093,0.779-2.704,0.779-4.834V347.89z"/>
			<path d="M923.481,362.205v-28.521h4.351v4.056c2.095-3.134,5.12-4.7,9.077-4.7c1.719,0,3.299,0.309,4.739,0.927
				c1.441,0.617,2.521,1.428,3.236,2.43c0.716,1.003,1.218,2.193,1.504,3.572c0.179,0.896,0.269,2.462,0.269,4.699v17.537h-4.834
				v-17.349c0-1.97-0.188-3.441-0.563-4.418c-0.376-0.976-1.043-1.754-2.001-2.336s-2.081-0.873-3.37-0.873
				c-2.06,0-3.836,0.653-5.331,1.96c-1.495,1.308-2.242,3.787-2.242,7.439v15.576H923.481z"/>
			<path d="M971.583,362.205v-3.599c-1.809,2.829-4.468,4.243-7.977,4.243c-2.273,0-4.363-0.627-6.271-1.88
				c-1.906-1.253-3.384-3.003-4.431-5.25c-1.048-2.247-1.571-4.83-1.571-7.748c0-2.847,0.474-5.429,1.423-7.748
				c0.949-2.318,2.372-4.095,4.271-5.331c1.897-1.234,4.019-1.853,6.364-1.853c1.719,0,3.25,0.362,4.593,1.088
				c1.343,0.725,2.435,1.669,3.276,2.833v-14.126h4.807v39.37H971.583z M956.302,347.971c0,3.652,0.77,6.383,2.31,8.19
				c1.54,1.809,3.357,2.713,5.452,2.713c2.112,0,3.907-0.863,5.385-2.592c1.477-1.728,2.215-4.363,2.215-7.908
				c0-3.903-0.752-6.768-2.256-8.594s-3.356-2.74-5.559-2.74c-2.148,0-3.943,0.878-5.385,2.633
				C957.022,341.427,956.302,344.194,956.302,347.971z"/>
			<path d="M999.674,362.205v-39.37h28.467v4.646h-23.257v12.059h21.779v4.619h-21.779v13.4h24.17v4.646H999.674z"/>
			<path d="M1052.14,362.205v-3.599c-1.809,2.829-4.467,4.243-7.976,4.243c-2.274,0-4.364-0.627-6.271-1.88
				c-1.906-1.253-3.384-3.003-4.431-5.25c-1.048-2.247-1.571-4.83-1.571-7.748c0-2.847,0.475-5.429,1.424-7.748
				c0.948-2.318,2.372-4.095,4.27-5.331c1.897-1.234,4.02-1.853,6.365-1.853c1.719,0,3.249,0.362,4.592,1.088
				c1.343,0.725,2.435,1.669,3.276,2.833v-14.126h4.808v39.37H1052.14z M1036.859,347.971c0,3.652,0.77,6.383,2.31,8.19
				c1.539,1.809,3.356,2.713,5.451,2.713c2.112,0,3.907-0.863,5.385-2.592c1.477-1.728,2.216-4.363,2.216-7.908
				c0-3.903-0.752-6.768-2.256-8.594s-3.357-2.74-5.56-2.74c-2.148,0-3.943,0.878-5.385,2.633
				C1037.58,341.427,1036.859,344.194,1036.859,347.971z"/>
			<path d="M1081.662,362.205v-4.189c-2.22,3.223-5.236,4.834-9.05,4.834c-1.684,0-3.254-0.322-4.713-0.967
				c-1.46-0.645-2.543-1.454-3.25-2.431c-0.707-0.976-1.204-2.171-1.49-3.585c-0.197-0.949-0.296-2.453-0.296-4.512v-17.671h4.834
				v15.817c0,2.525,0.099,4.226,0.296,5.104c0.304,1.271,0.948,2.269,1.934,2.994c0.984,0.725,2.202,1.088,3.652,1.088
				s2.811-0.372,4.082-1.115c1.271-0.742,2.171-1.754,2.699-3.034c0.527-1.28,0.792-3.138,0.792-5.573v-15.28h4.834v28.521H1081.662
				z"/>
			<path d="M1111.037,351.758l4.754,0.618c-0.52,3.276-1.849,5.841-3.988,7.694c-2.14,1.853-4.767,2.779-7.882,2.779
				c-3.903,0-7.041-1.275-9.413-3.827c-2.372-2.551-3.559-6.208-3.559-10.97c0-3.08,0.511-5.774,1.531-8.084
				s2.573-4.042,4.659-5.196c2.086-1.155,4.354-1.732,6.808-1.732c3.098,0,5.631,0.783,7.601,2.35
				c1.969,1.567,3.231,3.791,3.786,6.674l-4.699,0.726c-0.448-1.916-1.24-3.357-2.377-4.324s-2.511-1.45-4.122-1.45
				c-2.436,0-4.414,0.873-5.936,2.618c-1.521,1.746-2.282,4.508-2.282,8.285c0,3.831,0.733,6.615,2.202,8.352
				c1.468,1.737,3.384,2.605,5.747,2.605c1.897,0,3.481-0.582,4.753-1.746C1109.891,355.966,1110.697,354.176,1111.037,351.758z"/>
			<path d="M1138.531,358.687c-1.79,1.521-3.514,2.596-5.17,3.223c-1.655,0.626-3.433,0.939-5.33,0.939
				c-3.134,0-5.542-0.766-7.225-2.296c-1.683-1.531-2.524-3.487-2.524-5.868c0-1.396,0.318-2.672,0.953-3.827
				c0.636-1.154,1.469-2.081,2.498-2.779s2.188-1.227,3.478-1.585c0.949-0.25,2.381-0.492,4.297-0.725
				c3.903-0.466,6.776-1.021,8.621-1.665c0.018-0.662,0.026-1.083,0.026-1.263c0-1.969-0.456-3.356-1.369-4.162
				c-1.235-1.092-3.071-1.639-5.506-1.639c-2.273,0-3.952,0.399-5.035,1.195c-1.083,0.797-1.885,2.207-2.403,4.23l-4.727-0.645
				c0.43-2.023,1.137-3.657,2.121-4.901s2.408-2.202,4.271-2.874c1.861-0.671,4.019-1.007,6.472-1.007
				c2.435,0,4.413,0.286,5.936,0.859c1.521,0.573,2.641,1.294,3.356,2.162s1.218,1.965,1.504,3.29
				c0.161,0.823,0.242,2.309,0.242,4.457v6.445c0,4.494,0.103,7.337,0.309,8.527s0.613,2.332,1.222,3.424h-5.049
				C1138.997,361.202,1138.675,360.029,1138.531,358.687z M1138.129,347.89c-1.755,0.717-4.387,1.325-7.896,1.826
				c-1.987,0.287-3.394,0.609-4.217,0.967c-0.823,0.358-1.459,0.883-1.906,1.571c-0.448,0.689-0.672,1.455-0.672,2.296
				c0,1.289,0.488,2.363,1.464,3.223s2.403,1.289,4.283,1.289c1.862,0,3.519-0.406,4.969-1.222c1.45-0.814,2.515-1.929,3.195-3.343
				c0.52-1.093,0.779-2.704,0.779-4.834V347.89z"/>
			<path d="M1159.617,357.881l0.698,4.271c-1.361,0.286-2.578,0.43-3.652,0.43c-1.755,0-3.115-0.277-4.082-0.833
				c-0.967-0.555-1.647-1.284-2.041-2.188c-0.394-0.903-0.591-2.806-0.591-5.706v-16.409h-3.545v-3.76h3.545v-7.063l4.807-2.9v9.964
				h4.861v3.76h-4.861v16.677c0,1.379,0.085,2.266,0.256,2.659c0.17,0.394,0.447,0.707,0.832,0.94
				c0.385,0.232,0.936,0.349,1.651,0.349C1158.032,358.069,1158.739,358.007,1159.617,357.881z"/>
			<path d="M1163.573,328.394v-5.56h4.834v5.56H1163.573z M1163.573,362.205v-28.521h4.834v28.521H1163.573z"/>
			<path d="M1173.184,347.945c0-5.282,1.468-9.194,4.404-11.736c2.453-2.112,5.442-3.169,8.97-3.169
				c3.921,0,7.126,1.285,9.614,3.854c2.488,2.569,3.733,6.119,3.733,10.648c0,3.67-0.551,6.558-1.652,8.661
				c-1.101,2.104-2.703,3.737-4.807,4.9c-2.104,1.164-4.4,1.746-6.889,1.746c-3.992,0-7.22-1.28-9.682-3.84
				C1174.416,356.449,1173.184,352.76,1173.184,347.945z M1178.153,347.945c0,3.652,0.796,6.387,2.39,8.204s3.599,2.726,6.016,2.726
				c2.399,0,4.396-0.913,5.989-2.739c1.593-1.826,2.39-4.61,2.39-8.353c0-3.526-0.801-6.198-2.403-8.016s-3.595-2.727-5.976-2.727
				c-2.417,0-4.422,0.904-6.016,2.713S1178.153,344.293,1178.153,347.945z"/>
			<path d="M1204.709,362.205v-28.521h4.351v4.056c2.095-3.134,5.12-4.7,9.077-4.7c1.719,0,3.299,0.309,4.74,0.927
				c1.441,0.617,2.52,1.428,3.236,2.43c0.716,1.003,1.217,2.193,1.504,3.572c0.179,0.896,0.269,2.462,0.269,4.699v17.537h-4.834
				v-17.349c0-1.97-0.188-3.441-0.564-4.418c-0.376-0.976-1.043-1.754-2-2.336c-0.958-0.582-2.082-0.873-3.371-0.873
				c-2.059,0-3.836,0.653-5.33,1.96c-1.495,1.308-2.243,3.787-2.243,7.439v15.576H1204.709z"/>
		</g>
	</g>
	<g id="EU_flag">
		<g id="EU_flag_color">
			<rect x="83.15" y="83.15" fill="#FFFFFF" width="447.874" height="306.142"/>
			<rect x="94.488" y="94.488" fill="#003399" width="425.197" height="283.465"/>
			<g>
				<polygon fill="#FFCC00" points="307.087,147.748 316.343,154.473 312.807,143.591 322.064,136.866 310.622,136.866 
					307.087,125.984 303.551,136.866 292.109,136.866 301.366,143.591 297.83,154.473 				"/>
				<polygon fill="#FFCC00" points="259.843,160.407 269.099,167.132 265.563,156.25 274.82,149.525 263.378,149.525 
					259.843,138.643 256.307,149.525 244.865,149.525 254.122,156.25 250.586,167.132 				"/>
				<polygon fill="#FFCC00" points="225.257,194.992 234.514,201.717 230.978,190.835 240.235,184.11 228.793,184.11 
					225.257,173.228 221.722,184.11 210.28,184.11 219.537,190.835 216.001,201.717 				"/>
				<polygon fill="#FFCC00" points="212.598,242.236 221.855,248.961 218.319,238.079 227.576,231.354 216.134,231.354 
					212.598,220.472 209.063,231.354 197.621,231.354 206.878,238.079 203.342,248.961 				"/>
				<polygon fill="#FFCC00" points="401.575,242.236 410.831,248.961 407.296,238.079 416.552,231.354 405.11,231.354 
					401.575,220.472 398.039,231.354 386.598,231.354 395.854,238.079 392.318,248.961 				"/>
				<polygon fill="#FFCC00" points="388.916,194.992 398.172,201.717 394.637,190.835 403.893,184.11 392.451,184.11 
					388.916,173.228 385.38,184.11 373.939,184.11 383.195,190.835 379.659,201.717 				"/>
				<polygon fill="#FFCC00" points="354.331,160.407 363.587,167.132 360.052,156.25 369.308,149.525 357.866,149.525 
					354.331,138.643 350.795,149.525 339.353,149.525 348.61,156.25 345.074,167.132 				"/>
				<polygon fill="#FFCC00" points="388.916,289.48 398.172,296.205 394.637,285.323 403.893,278.598 392.451,278.598 
					388.916,267.717 385.38,278.598 373.939,278.598 383.195,285.323 379.659,296.205 				"/>
				<polygon fill="#FFCC00" points="354.331,324.065 363.587,330.79 360.052,319.908 369.308,313.183 357.866,313.183 
					354.331,302.302 350.795,313.183 339.353,313.183 348.61,319.908 345.074,330.79 				"/>
				<polygon fill="#FFCC00" points="307.087,336.724 316.343,343.449 312.807,332.568 322.064,325.842 310.622,325.842 
					307.087,314.961 303.551,325.842 292.109,325.842 301.366,332.568 297.83,343.449 				"/>
				<polygon fill="#FFCC00" points="259.843,324.065 269.099,330.79 265.563,319.908 274.82,313.183 263.378,313.183 
					259.843,302.302 256.307,313.183 244.865,313.183 254.122,319.908 250.586,330.79 				"/>
				<polygon fill="#FFCC00" points="225.257,289.48 234.514,296.205 230.978,285.323 240.235,278.598 228.793,278.598 
					225.257,267.717 221.722,278.598 210.28,278.598 219.537,285.323 216.001,296.205 				"/>
			</g>
		</g>
	</g>
</g>
</svg>
