<?xml version="1.0" encoding="utf-8"?>
<!-- Generator: Adobe Illustrator 26.2.1, SVG Export Plug-In . SVG Version: 6.00 Build 0)  -->
<svg version="1.1" id="Vrstva_1" xmlns="http://www.w3.org/2000/svg" xmlns:xlink="http://www.w3.org/1999/xlink" x="0px" y="0px"
	 viewBox="0 0 595.28 841.89" style="enable-background:new 0 0 595.28 841.89;" xml:space="preserve">
<style type="text/css">
	.st0{fill:#81B8D6;}
	.st1{fill:#C4E6F5;}
	.st2{fill:#265A80;}
</style>
<path class="st0" d="M553.58,388.13c-4.29-0.26-4.44-1.99-4.65-4.18c-0.07-0.74-0.14-1.57-0.39-2.45c-0.43-1.49-1.88-1.99-3.87-2.69
	c-2.21-0.77-4.97-1.73-7.37-4.48c-2.38-2.73-4.32-1.34-7.26,1.16c-1.67,1.42-3.38,2.88-5.36,3.15c-5.13,0.72-15-2.37-19.76-5.39
	c-3.93-2.48-5.07-5.38-6.27-8.44c-0.36-0.95-0.75-1.91-1.21-2.88c-2.13-4.41-7.83-5.03-12.26-4.76c-5.6,0.35-6.32,0-10.26-2.74
	c-0.63-0.45-1.25-0.88-1.85-1.3c-2.87-2.03-5.36-3.8-7.52-4.47c-3.11-0.97-4.78-5.56-4.46-12.26c0.07-1.56,0.36-3.68,0.78-6.1
	c-2.21,0.43-10.08,2.02-14,3.84c-3.86,1.8-9.22,1.75-13.02,0.22c0,0-0.01,0-0.03,0s-0.03-0.03-0.04-0.03
	c-1.13-0.46-2.12-1.06-2.87-1.77c-3.16-3.01-5.58-4.51-10-7.24l-0.58-0.38c-6.32-3.91-11.23-5.71-12.8-4.67
	c-0.54,0.36-0.72,1.11-0.56,2.26c0.15,0.97,0.35,1.91,0.53,2.8c0.58,2.94,1.09,5.46-0.26,7.12c-1.06,1.28-3.13,1.89-6.5,1.89h-0.77
	c-8.82,0.01-11.77-0.01-18.62,5.56c-2.95,2.41-3.87,4.92-3.93,7.55c-0.04,1.96,0.42,4,0.89,6.07c0.36,1.59,0.74,3.23,0.86,4.83
	c0.49,6.17,2.87,10.36,5.26,14.14l0.33,0.52c2.23,3.5,4,6.25,1.69,11.53c-1.13,2.6-1.42,4.25-0.95,5.36
	c0.39,0.91,1.31,1.55,3.2,2.23c2.17,0.79,3.66,3.25,3.4,5.58c-0.21,1.98-1.6,3.29-3.82,3.57c-1.82,0.24-3.13,1.2-3.7,2.7
	c-0.93,2.49,0.26,6.03,3.13,9.25c5.21,5.88,7.37,8.3,9.25,16.18l0.22,0.89c1.64,6.91,2.08,8.76,6.87,8.76
	c5.61,0,11.11,0.58,13.36,4.72c1.09,2.01,1.94,5.58,2.74,9.04c0.81,3.41,1.64,6.92,2.67,8.87c0.61-0.65,1.3-1.32,2.09-1.98
	c1.07-0.89,2.13-1.74,3.19-2.58c5.91-4.69,11.48-9.11,11.34-16.28c-0.08-4.39-0.04-7.03,0.84-9.14c0.89-2.13,2.59-3.64,5.84-5.68
	c1.45-0.92,2.95-2.06,4.5-3.25c5.19-3.98,10.85-8.31,17.31-5.95c2.1,0.78,4.11,1.56,5.96,2.27c5.08,1.98,9.04,3.51,12.42,3.87
	c2.38,0.25,3.97,0.52,5.47,1.34s2.91,2.17,4.94,4.62c1.96,2.37,3.66,3.93,5.36,4.62c1.67,0.68,3.36,0.56,5.33-0.39
	c1.78-0.85,3.3-0.75,4.71-0.67c1.85,0.13,3.48,0.22,5.14-2.35c0.35-0.56,0.64-1.03,0.92-1.48c2.35-3.83,3.43-5.56,9.33-3.84
	c2.34,0.67,4.96,0.5,7.37,0.35c4.12-0.26,7.65-0.5,8.54,3.43c0.65,2.83,1.24,4.39,2.1,5.1c0.82,0.67,1.98,0.58,3.77,0.11
	c1.49-0.39,1.77-1.74,2.02-2.95c0.08-0.4,0.17-0.79,0.29-1.16c0.42-1.24,1.2-2.01,3.55-1.21c2.41,0.79,3.75,1.04,4.69,0.64
	c0.92-0.42,1.56-1.53,2.52-3.45c1.85-3.72,4.08-3.87,8.83-4.22c0.58-0.04,1.23-0.08,1.96-0.15c1.04-0.08,2.19-0.24,3.38-0.49
	c-0.91-1.71-6.66-12.7-9.86-20.47C564.65,392.96,559.5,388.51,553.58,388.13"/>
<path class="st0" d="M240.56,220.9c0.54-0.74,1.02-1.45,1.48-2.1c2.16-3.18,3.72-5.46,8.31-5.89c5.21-0.5,7.19-0.43,10.54,4.16
	c0.49,0.65,0.89,1.23,1.24,1.73c1.95,2.74,2.2,3.11,5.01,3.77c3.82,0.91,7.35,4.72,9.94,10.74c2.49,5.72,8.36,13.37,13.7,12.41
	c5.63-1.03,9.23-1.52,12.03,1.28c2.65,2.65,5.46,3.22,10.03,3.37c4.58,0.15,8.12,1.89,11.14,5.47c2.02,2.41,3.55,2.35,6.94,2.24
	c0.81-0.03,1.71-0.06,2.73-0.06c4.8,0,18.16-1.77,20.47-2.09c0.06-1.57-0.31-3.48-1.38-5.97c-4.01-9.36-4.58-13.04-0.64-19.37
	c1.43-2.3,2.72-3.73,3.76-4.87c1.74-1.94,2.7-3.01,2.51-6.2c-0.06-0.97-0.06-1.82,0-2.62c-1.04-0.72-6.06-4.28-8.18-6.09
	c-0.5-0.43-1.18-0.89-1.91-1.38c-2.63-1.75-6.23-4.18-4.36-7.65c0.42-0.75,0.84-1.46,1.24-2.13c1.7-2.84,2.94-4.9,1.42-7.79
	c-0.64-1.25-1.6-2.02-2.62-2.83c-1.96-1.57-4.19-3.37-4.41-9.01c-0.11-2.79-0.61-4.96-1-6.7c-0.78-3.43-1.31-5.68,2.35-8.16
	l0.85-0.58c3.77-2.53,3.77-2.53,3.52-5.45l-0.07-0.75c-0.39-4.89-5-5.26-6.41-5.26c-3.48,0-6.02-1.53-7.53-4.57
	c-0.29-0.58-0.84-1.38-1.41-2.23c-1.62-2.4-3.62-5.36-2.63-7.21c0.53-1,1.81-1.49,3.91-1.49h0.53c4.18,0,6.7,0,7.62-1.18
	c0.64-0.86,0.58-2.48-0.22-5.45c-0.1-0.36-0.19-0.72-0.31-1.07c-2.41-0.78-25.29-8.11-31.57-10.29c-3.75-1.32-5.24-0.85-7.13-0.25
	c-1.36,0.43-2.91,0.91-5.57,0.77c-3.02-0.17-5.77,0.68-8.4,1.52c-2.6,0.81-5.31,1.64-8.26,1.48c-4.37-0.25-5.18,2.21-6.5,6.3
	c-0.32,0.99-0.64,2.01-1.06,3.09c-1.45,3.8-5.1,3.65-8.62,3.51c-2.09-0.07-4.25-0.15-5.93,0.57c-4.69,2.01-5.82,1.77-9.05-0.19
	c-2.65-1.63-4.46-0.42-8.05,1.99l-0.49,0.32c-1.87,1.25-2.77,1.95-3.26,3.43c-0.46,1.39-0.53,3.47-0.67,7.38l-0.04,1.18
	c-0.19,5.19,0.33,5.6,1.75,6.66c1.09,0.81,2.56,1.94,4.51,5.26c1.21,2.09,1.56,3.97,1.03,5.58c-0.95,2.91-4.48,4.46-7.33,5.7
	c-1.02,0.45-1.99,0.88-2.67,1.3c-0.79,0.49-1.25,1.09-1.41,1.85c-0.42,2.03,1.43,4.92,3.37,7.7c1.73,2.49,0.67,4.67-0.65,7.42
	c-0.91,1.85-1.92,3.96-2.45,6.71c-0.85,4.51,0.13,7.09,1.49,10.64c0.7,1.85,1.49,3.94,2.17,6.67c1.32,5.31,1.87,9.69,2.08,12.06
	C237.24,225.51,238.58,223.61,240.56,220.9"/>
<path class="st0" d="M445.72,308.35c1.38-0.99,2.47-1.77,3.45-4.4c1.03-2.77,1.21-4.44,0.57-5.45c-0.56-0.86-1.84-1.32-4.04-1.48
	c-5.11-0.35-6.35-2.55-7.21-7.34c-0.38-2.14-1.49-5.85-2.58-9.44c-1.32-4.4-2.58-8.58-2.76-10.58c-0.36-3.97-0.03-6.69,2.74-10.45
	c1.46-1.99,2.91-3.84,4.65-5.56c-0.39-1.32-2.34-7.92-3.23-14.64c-0.67-4.99-2.33-5.77-5.35-7.19c-1.31-0.61-2.95-1.38-4.8-2.67
	c-6.34-4.4-9.72-6.25-14.25-6.25c-4.64,0-8.08-2.23-10.85-7.03c-2.38-4.14-5.5-6.95-12.98-7.28l-0.33-0.01
	c-7.17-0.32-8.87-0.39-15.21-4.89c-1.84-1.31-3.37-1.82-4.67-1.57c-1.89,0.36-3.18,2.37-4.53,4.47c-0.39,0.61-0.79,1.24-1.21,1.82
	l-0.17,0.24c-2.7,3.83-4.07,5.74-3.75,10.82c0.22,3.55-0.96,4.85-2.73,6.82c-1.02,1.11-2.28,2.52-3.66,4.75
	c-3.77,6.06-3.24,9.41,0.7,18.59c1.18,2.77,1.53,4.89,1.43,6.62c0,0.01,0,0.01,0,0.01c-0.13,2.05-0.88,3.58-1.6,5.08
	c-0.78,1.57-1.57,3.2-1.63,5.45c-0.08,3.12,2.17,4.75,4.55,6.48c2.26,1.64,4.6,3.34,5.26,6.42c1.32,6.13-3.31,11.56-8.61,17.03
	c-4.62,4.79-8.05,14.48-9.04,21.57c-0.58,4.11,0.93,8.52,2.38,12.79c1.07,3.11,2.06,6.03,2.28,8.77c0.43,5.77,5.1,13.43,5.95,14.79
	c0.96-0.14,2.14-0.25,3.89-0.33c4.94-0.28,7.08-2.06,9.54-4.12c0.45-0.38,0.89-0.75,1.38-1.13c2.76-2.17,6.91-2.17,8.26-2.12
	c0.15-2.63,1.2-5.24,4.22-7.7c7.08-5.77,10.13-5.77,19.15-5.75h0.77c3.06,0,4.97-0.52,5.85-1.59c1.1-1.34,0.65-3.58,0.08-6.39
	c-0.18-0.91-0.38-1.87-0.53-2.86c-0.22-1.49,0.08-2.53,0.93-3.09c2.6-1.73,9.71,2.19,13.7,4.67l0.6,0.36
	c4.46,2.77,6.91,4.29,10.13,7.35c0.57,0.53,1.28,1,2.1,1.38c0.56-2.69,3.15-14.55,6.45-19.96
	C442.85,310.4,444.38,309.32,445.72,308.35"/>
<path class="st0" d="M326.19,285.33c-0.38,0.61-0.74,1.13-1.07,1.62c-1.27,1.81-2.03,2.91-1.53,6.59c0.13,0.95,0.29,1.81,0.45,2.56
	c0.61,3.18,1.03,5.28-2.05,8.77c-1.74,1.98-5.25,2.98-10.43,2.98c-4.42,0-8.96-0.74-11.28-1.18c-5.77-1.09-17.79-9.18-22.31-12.23
	l-0.99-0.65c-2.2-1.46-3.84-1.84-6.13-2.38c-1.28-0.29-2.74-0.64-4.6-1.24l-1.34-0.42c-4.62-1.45-8.61-2.72-7.6-6.74
	c0.36-1.43,0.89-2.33,1.31-3.04c0.77-1.28,1.14-1.92-0.28-4.67c-2.47-4.75-0.96-8.8,1.63-10.7c0.74-0.54,1.6-0.82,2.53-0.82
	c2.2,0,4.94,1.41,9.46,4.82c1.98,1.5,3.4,3.06,4.65,4.43c2.2,2.41,3.8,4.15,6.96,4.15h0.28c1.42-0.04,2.35-0.35,2.81-0.92
	c0.72-0.89,0.43-2.52,0.07-4.6c-0.17-0.91-0.36-1.94-0.46-3.01c-0.06-2.3,0.57-4.21,1.75-5.43c0.85-0.86,1.96-1.35,3.13-1.35
	c2.17,0,4.19,1.63,5.25,4.25c2.6,6.41,3.51,8.27,7.16,8.73c2.4,0.29,3.64,1.57,5.06,3.05c1.07,1.11,2.28,2.37,4.26,3.5
	c1.88,1.07,3.18,1.78,3.98,1.78c0.85,0,1.36-0.86,2.23-3.7c2.02-6.74,4.97-9.8,8.36-8.77c0.79,0.24,1.36,0.81,1.69,1.67
	C330.47,275.83,327.53,283.13,326.19,285.33 M345.5,331.36c-1.49-4.36-3.04-8.87-2.44-13.18c1.02-7.23,4.53-17.13,9.28-22.05
	c5.13-5.31,9.62-10.54,8.38-16.27c-0.6-2.76-2.8-4.36-4.93-5.91c-2.45-1.78-5-3.64-4.9-7.19c0.07-2.44,0.91-4.14,1.71-5.79
	c0.64-1.31,1.25-2.58,1.46-4.18c-2.83,0.39-15.6,2.08-20.4,2.08c-1,0-1.89,0.03-2.69,0.06c-3.45,0.13-5.33,0.18-7.63-2.53
	c-2.84-3.38-6.18-5.03-10.52-5.18c-4.69-0.17-7.77-0.79-10.6-3.62c-2.51-2.51-5.75-2.05-11.28-1.04
	c-6.13,1.11-12.21-7.33-14.62-12.91c-2.49-5.77-5.82-9.4-9.37-10.25c-3.12-0.74-3.54-1.32-5.52-4.11c-0.35-0.49-0.75-1.06-1.23-1.71
	c-3.11-4.25-4.69-4.3-9.78-3.83c-4.21,0.4-5.52,2.33-7.7,5.53c-0.45,0.67-0.93,1.38-1.49,2.13c-3.25,4.44-4.64,6.55-6.59,13.84
	c-1.34,5.03-6.13,7.08-10.77,9.07c-2.58,1.1-5,2.14-6.87,3.65c-5.35,4.35-5.85,7.51-6,11.84c-0.08,2.4-1.07,3.91-1.94,5.25
	c-0.92,1.41-1.71,2.63-1.56,4.69c0.18,2.4,0.1,5.52-1.32,6.85c-0.54,0.52-1.21,0.71-1.99,0.6c-0.52-0.08-1.04,0.11-1.57,0.57
	c-1.55,1.28-2.66,4.23-2.77,7.35c-0.17,4.78,2.48,6.69,5.08,7.92c3.3,1.56,4.46,5.4,3.23,10.81c-0.61,2.72-1.82,3.66-2.99,4.58
	c-1.13,0.88-2.2,1.71-2.83,4.25c-1.36,5.43-1.04,6.55,2.45,8.52c3.57,2.01,3.36,3.84,3.04,6.89c-0.06,0.47-0.11,0.96-0.15,1.5
	c-0.28,3.41-0.5,8.31-0.56,9.62c1.92,0.57,3.7,1.78,4.85,2.67c2.67,2.1,4.67,2.24,6.96,2.42c0.89,0.07,1.81,0.14,2.84,0.32
	c3.47,0.64,6.59,3.4,9.29,8.2c1.18,2.13,2.45,3.29,3.73,3.45c1.07,0.14,2.23-0.45,3.41-1.7c3.43-3.64,7.53-1.03,10.74,1.63
	c2.1,1.74,4.22,3.19,6.48,4.72c2.08,1.41,4.22,2.87,6.67,4.76c4.64,3.58,13.77,5.84,15.26,6.2c2.12-2.34,4.72-2.79,8.44-1.43
	c1.6,0.58,3.59,2.12,5.7,3.75c2.76,2.12,5.88,4.53,8.37,4.89c1.5,0.24,2.56-0.25,2.84-1.27c0.36-1.34-0.71-3.33-3.4-4.41
	c-3.41-1.36-5.26-2.83-5.68-4.5c-0.29-1.14,0.11-2.38,1.18-3.66c1.98-2.34,7.08-2.37,12.98-2.41c2.56-0.01,5.21-0.03,7.8-0.24
	c6.95-0.54,8.41-1.62,10.43-3.12c0.42-0.31,0.85-0.63,1.36-0.96c2.76-1.85,5.75-1.87,9.41-0.03c2.79,1.39,4.75,1.17,10.47-1.18
	c1.2-0.5,2.12-0.91,2.87-1.24c1.43-0.63,2.31-1.02,3.48-1.28c-1.24-1.99-5.47-9.19-5.91-14.89
	C347.52,337.29,346.54,334.41,345.5,331.36"/>
<path class="st1" d="M327.21,271.52c-0.35-0.11-0.71-0.17-1.04-0.17c-3.09,0-5.11,4.55-6.25,8.37c-0.78,2.6-1.41,4.32-3.04,4.32
	c-1.03,0-2.35-0.72-4.41-1.89c-2.08-1.2-3.33-2.51-4.44-3.65c-1.36-1.42-2.45-2.53-4.55-2.8c-4.3-0.54-5.4-3.27-7.83-9.25
	c-0.93-2.3-2.65-3.72-4.47-3.72c-0.93,0-1.82,0.39-2.52,1.09c-1.03,1.06-1.57,2.76-1.52,4.79c0.1,1,0.28,1.98,0.45,2.91
	c0.4,2.28,0.72,4.08-0.25,5.28c-0.63,0.79-1.73,1.18-3.44,1.24h-0.31c-3.54,0-5.32-1.95-7.59-4.43c-1.23-1.35-2.62-2.87-4.53-4.32
	c-4.3-3.26-6.98-4.65-8.96-4.65c-0.77,0-1.43,0.21-2.03,0.65c-2.3,1.69-3.61,5.31-1.38,9.62c1.57,3.01,1.17,3.96,0.25,5.49
	c-0.4,0.7-0.88,1.49-1.21,2.8c-0.77,3.11,2.02,4.15,7.03,5.72l1.35,0.43c1.81,0.58,3.26,0.92,4.53,1.23
	c2.28,0.53,4.08,0.95,6.41,2.49l0.99,0.65c4.48,3.02,16.41,11.04,21.99,12.1c2.3,0.43,6.78,1.16,11.13,1.16
	c4.93,0,8.23-0.91,9.79-2.69c2.8-3.18,2.47-4.9,1.85-8.05c-0.14-0.77-0.32-1.63-0.45-2.6c-0.56-4.01,0.38-5.35,1.67-7.2
	c0.32-0.46,0.68-0.96,1.04-1.57c1.6-2.6,3.96-9.39,2.88-12.2C328.13,272.06,327.75,271.69,327.21,271.52"/>
<path class="st0" d="M417.67,444.2c-2.03-3.76-7.27-4.28-12.62-4.28c-5.45,0-6.02-2.37-7.69-9.43l-0.22-0.89
	c-1.82-7.66-3.79-9.87-9.05-15.79c-3.12-3.51-4.36-7.3-3.3-10.11c0.68-1.82,2.24-2.98,4.39-3.26c2.45-0.31,2.99-1.89,3.09-2.81
	c0.22-1.94-1.06-4.04-2.84-4.69c-1.56-0.56-3.09-1.28-3.7-2.7c-0.57-1.34-0.28-3.19,0.96-6.02c2.13-4.87,0.56-7.33-1.63-10.74
	l-0.33-0.53c-2.45-3.86-4.89-8.15-5.4-14.51c-0.11-1.55-0.49-3.16-0.84-4.72c-0.45-1.95-0.89-3.94-0.91-5.91
	c-1.23-0.06-5.21-0.06-7.73,1.92c-0.46,0.38-0.91,0.75-1.35,1.11c-2.47,2.08-4.8,4.02-10.04,4.32c-4.64,0.25-5.21,0.5-7.97,1.73
	c-0.75,0.33-1.67,0.74-2.88,1.24c-5.54,2.28-7.94,2.77-11.18,1.16c-3.36-1.69-6.07-1.69-8.57-0.03c-0.49,0.32-0.92,0.64-1.32,0.95
	c-2.05,1.52-3.68,2.72-10.86,3.29c-2.62,0.19-5.29,0.22-7.87,0.24c-5.45,0.03-10.6,0.06-12.33,2.1c-0.91,1.07-1.24,2.03-1.02,2.91
	c0.35,1.38,2.03,2.66,5.18,3.91c3.15,1.25,4.35,3.73,3.9,5.42c-0.31,1.14-1.46,2.24-3.79,1.89c-2.72-0.4-5.78-2.77-8.76-5.07
	c-2.06-1.57-4-3.08-5.47-3.61c-3.48-1.27-5.78-0.86-7.7,1.38c-2.08,2.42-6.84,4.79-8.91,5.13c-1.64,0.28-3.63,2.13-3.8,6.43
	c-0.06,1.52-0.75,3.44-1.49,5.49c-1.41,3.91-2.86,7.97-0.33,9.99c4.09,3.27,4.97,6.49,3.13,11.46c-0.42,1.13-1.02,2.34-1.71,3.76
	c-2.06,4.22-4.89,9.99-4.76,17.58c0.18,11.28,2.35,18.83,6.45,22.46c0.06-0.04,0.1-0.11,0.15-0.15c1.18-1.03,2.94-0.86,5.32,0.1
	c1.92,0.79,3.77,0.97,5.47,0.81c2.16-0.22,4.07-1.03,5.52-1.94c0.31-0.19,0.64-0.39,1-0.58c1.38-0.75,3.11-1.45,4.75-1.56
	c1.71-0.11,3.33,0.4,4.41,2.14c0.06,0.08,0.13,0.19,0.18,0.31c0.88,1.62,2.06,1.52,3.61,1.38c2.05-0.2,4.65-0.43,7.97,2.52
	l0.91,0.79c5.07,4.51,6.34,5.64,10.79,6.1c0.67,0.07,1.31,0.11,1.91,0.14c3.87,0.22,6.07,0.36,5.92,7.66
	c-0.07,3.96-0.11,6.39,0.56,7.28c0.58,0.78,1.99,0.25,4.86-1.62c3.15-2.05,5.65-3.11,7.92-2.9c2.28,0.21,4.26,1.69,6.34,4.75
	c1.96,2.91,3.18,4.48,4.41,5.32c1.2,0.81,2.51,0.92,4.68,0.92c1.73,0,2.91-1.04,4.09-2.1c1.82-1.62,3.66-3.25,7.37-1.7
	c2.95,1.24,4.71,1.77,6.24,1.74c1.53-0.01,2.92-0.58,5.13-1.56c2.35-1.04,3.9-1.3,5.15-0.75c1.24,0.54,2.12,1.85,3.16,3.93
	c0.63,1.25,1.91,2.63,3.36,4.19c3.06,3.31,6.88,7.42,7.34,13.26c0.28,3.54-0.04,6.92-0.35,10.04c-0.4,4.35-0.78,8.13,0.64,10.97
	c0.68,1.36,1.1,2.79,1.31,4.23c1.43-0.45,6.42-2.58,6.98-11.59c0.13-2.12,0.17-4.09,0.21-5.97c0.15-7.88,0.28-13.97,6.57-19.43
	c3.8-3.31,6.24-5.63,7.7-7.79c1.42-2.1,1.91-4.08,1.82-6.74c0-0.42-0.03-0.85-0.04-1.28c-0.17-4.36-0.33-8.91,3.5-13.51
	c-1.17-1.99-2.05-5.74-2.91-9.36C419.52,449.61,418.7,446.09,417.67,444.2"/>
<path class="st0" d="M259.08,432.51c-0.13-7.79,2.74-13.66,4.85-17.95c0.68-1.41,1.28-2.6,1.67-3.68c1.71-4.62,0.93-7.48-2.86-10.52
	c-3.01-2.4-1.36-6.94,0.07-10.95c0.71-1.96,1.38-3.83,1.43-5.22c0.18-4.82,2.55-6.91,4.51-7.23c1.81-0.31,5.79-2.3,7.9-4.35
	c-2.49-0.61-10.63-2.79-15.08-6.23c-2.42-1.88-4.55-3.33-6.62-4.74c-2.27-1.55-4.41-2.99-6.55-4.76c-4.44-3.72-7.21-4.21-9.58-1.71
	c-1.38,1.48-2.79,2.13-4.14,1.96c-1.56-0.19-3.04-1.5-4.37-3.87c-2.56-4.58-5.49-7.2-8.69-7.79c-0.99-0.18-1.89-0.25-2.76-0.32
	c-2.34-0.17-4.54-0.33-7.42-2.59c-1.71-1.35-5-3.48-7.67-2.65c-1.5,0.47-2.62,1.85-3.31,4.09l-0.46,1.49
	c-1.74,5.81-2.21,7.35-9.87,8.63l-0.88,0.14c-7.52,1.25-11.3,1.88-13.45,7.42c-1.49,3.86-4.46,8.52-8.29,10.03
	c-1.7,0.67-3.36,0.63-4.94-0.14c-1.62-0.78-3.15-1.96-4.62-3.11c-3.3-2.53-6.14-4.72-8.89-1.98c-4,4-4.5,4.02-9.97,3.08
	c-0.53-0.08-1.09-0.19-1.71-0.29c-4.44-0.74-4.82-2.31-5.19-3.82c-0.24-0.97-0.46-1.89-1.8-2.74c-1.98-1.25-3.19-1.66-4.04-1.32
	c-0.88,0.33-1.56,1.53-2.14,3.75c-1.04,3.9-2.73,4.65-4.86,5.58c-0.74,0.32-1.49,0.65-2.33,1.16c-3.26,1.96-5.89,4.09-8.18,8.18
	c-0.4,0.72-0.71,1.36-0.99,1.92c-1.41,2.94-2.13,3.84-7.91,3.29c-6.87-0.65-9.35,1.27-11.75,5.29c-2.52,4.21-4.25,5.11-7.35,6.74
	l-0.14,0.08c-0.96,0.5-1.75,1.62-2.66,2.91c-1.89,2.69-4.26,6.04-9.72,5.79c-1.75-0.07-3.29-0.18-4.61-0.26
	c-4.53-0.29-6.78-0.45-8.59,1c-2.53,2.02-3.44,2.59-7.28,2.42c-0.5-0.03-1.06-0.07-1.66-0.11c-3.73-0.31-8.37-0.67-8.89,3.25
	c-0.33,2.51-2.33,4.76-4.25,6.95c-2.02,2.3-3.93,4.46-3.61,6.55c10.46,2.23,19.37,4.23,23.23,7.94c1.59,1.53,2.74,3.58,3.84,5.52
	c1.87,3.3,3.54,6.27,6.78,5.39v-0.01l0.08-0.01c5.56-1.52,6.77-1.84,10.39,0.57c1.69,1.13,3.25,1.98,4.47,1.98
	c1.13,0,1.99-0.79,2.44-2.91c0.53-2.44,1.46-4.01,3.23-5.01c1.73-0.97,4.23-1.36,7.97-1.45c2.87-0.06,4.72-0.54,6.41-0.99
	c2.6-0.7,4.85-1.28,9.83-0.17c1.13,0.26,2.28,0.49,3.41,0.71c7.01,1.36,13.29,2.6,15.35,10.56c1.16,4.46,2.6,8.76,5.15,12.48
	c2.55,3.7,6.2,6.87,11.78,9.08c1.99,0.79,4.01,1.66,6.11,2.55c9.96,4.26,21.62,9.25,36.55,9.25c6.25,0,11.94-0.1,17.12-0.18
	c10.15-0.17,18.38-0.31,24.22,0.35c4.37,0.5,7.1,0.71,9.65,0.18c2.53-0.54,4.97-1.81,8.76-4.29c1.71-1.11,3.59-2.2,5.5-3.3
	c6.5-3.76,13.13-7.6,13.13-12.7c0-2.74,0.33-4.61,1.03-5.78C261.56,451.85,259.28,444.06,259.08,432.51"/>
<g>
	<path class="st2" d="M384.77,332.82l-2.23,2.79h1.71l3.05-2.79H384.77z M384.62,352.51h-2.1v-6.87l-5.11-9.3h2.37l2.28,4.46
		c0.63,1.23,1.1,2.21,1.6,3.34h0.06c0.46-1.06,1-2.12,1.63-3.34l2.33-4.46h2.37l-5.42,9.29V352.51z M366.08,352.51h2.09v-6.17
		l1.53-1.77l5.33,7.94h2.47l-6.31-9.3l5.85-6.87h-2.59l-4.93,6.07c-0.42,0.53-0.85,1.1-1.28,1.73h-0.07v-7.8h-2.09V352.51z
		 M353.45,351.72c0.86,0.57,2.56,1.03,4.12,1.03c3.82,0,5.65-2.16,5.65-4.65c0-2.38-1.38-3.69-4.12-4.75
		c-2.23-0.86-3.2-1.6-3.2-3.12c0-1.1,0.84-2.42,3.04-2.42c1.46,0,2.55,0.49,3.08,0.77l0.57-1.7c-0.72-0.4-1.92-0.79-3.58-0.79
		c-3.13,0-5.22,1.88-5.22,4.39c0,2.28,1.63,3.65,4.28,4.58c2.17,0.85,3.04,1.71,3.04,3.22c0,1.63-1.24,2.76-3.38,2.76
		c-1.43,0-2.8-0.47-3.73-1.06L353.45,351.72z M346.73,352.51h-2.31l-5.26-16.17h2.26l2.51,7.97c0.7,2.19,1.3,4.15,1.73,6.04h0.06
		c0.46-1.87,1.13-3.91,1.84-6.02l2.74-7.99h2.23L346.73,352.51z M330.52,345.8l1.57-4.68c0.32-0.99,0.58-1.96,0.82-2.92h0.06
		c0.24,0.93,0.47,1.89,0.84,2.95l1.57,4.65H330.52z M335.82,347.43l1.73,5.08h2.24l-5.53-16.17h-2.51l-5.5,16.17h2.16l1.69-5.08
		H335.82z M316.54,338.03c0.33-0.1,1.06-0.19,2.06-0.19c2.21,0.03,3.72,0.93,3.72,3.02c0,1.84-1.42,3.06-3.65,3.06h-2.13V338.03z
		 M314.45,352.51h2.09v-7.01h1.96c1.89,0.07,2.76,0.91,3.24,3.13c0.45,2.02,0.81,3.41,1.07,3.87h2.16
		c-0.33-0.63-0.72-2.19-1.24-4.44c-0.39-1.67-1.13-2.83-2.38-3.26v-0.07c1.7-0.57,3.05-1.99,3.05-4.12c0-1.25-0.46-2.35-1.27-3.08
		c-1.02-0.91-2.45-1.31-4.68-1.31c-1.45,0-2.95,0.11-4.01,0.33V352.51z M304.38,337.79c3.48,0,5.15,3.36,5.15,6.56
		c0,3.68-1.87,6.71-5.18,6.71c-3.29,0-5.15-3.09-5.15-6.55C299.2,340.98,300.93,337.79,304.38,337.79 M304.48,336.08
		c-4.32,0-7.51,3.36-7.51,8.5c0,4.89,2.99,8.2,7.27,8.2c4.12,0,7.51-2.95,7.51-8.52C311.75,339.47,308.89,336.08,304.48,336.08
		 M292.68,352.51h2.03l-1-16.17h-2.66l-2.88,7.83c-0.72,2.03-1.3,3.8-1.7,5.43h-0.07c-0.42-1.67-0.96-3.45-1.63-5.43l-2.76-7.83
		h-2.67l-1.13,16.17h1.99l0.43-6.94c0.15-2.42,0.26-5.13,0.32-7.14H281c0.46,1.92,1.1,4.01,1.88,6.28l2.6,7.7h1.59l2.86-7.84
		c0.81-2.23,1.49-4.25,2.03-6.14h0.07c-0.01,2.02,0.13,4.72,0.24,6.98L292.68,352.51z M268.57,337.79c3.48,0,5.15,3.36,5.15,6.56
		c0,3.68-1.87,6.71-5.17,6.71c-3.29,0-5.17-3.09-5.17-6.55C263.39,340.98,265.12,337.79,268.57,337.79 M268.67,336.08
		c-4.32,0-7.51,3.36-7.51,8.5c0,4.89,3.01,8.2,7.27,8.2c4.12,0,7.51-2.95,7.51-8.52C275.94,339.47,273.09,336.08,268.67,336.08
		 M246.5,336.35v16.17h2.08v-7.58h7.83v7.58h2.1v-16.17h-2.1v6.77h-7.83v-6.77H246.5z M240.76,352.51h2.09v-16.17h-2.09V352.51z
		 M235.2,347c0,3.16-1.11,4-2.98,4c-0.7,0-1.32-0.14-1.75-0.31l-0.31,1.7c0.53,0.22,1.46,0.39,2.23,0.39c2.79,0,4.89-1.32,4.89-5.61
		v-10.82h-2.08V347z"/>
</g>
</svg>
