<?xml version="1.0" encoding="utf-8"?>
<!-- Generator: Adobe Illustrator 26.2.1, SVG Export Plug-In . SVG Version: 6.00 Build 0)  -->
<svg version="1.1" id="Vrstva_1" xmlns="http://www.w3.org/2000/svg" xmlns:xlink="http://www.w3.org/1999/xlink" x="0px" y="0px"
	 viewBox="0 0 595.28 841.89" style="enable-background:new 0 0 595.28 841.89;" xml:space="preserve">
<style type="text/css">
	.st0{fill:#3379BE;}
	.st1{fill:#FFFFFF;}
</style>
<path class="st0" d="M283.52,263.15c-1.49,2.99-2.91,5.83-2.91,7.78c0,3.24,3.15,5.99,6.5,8.87c1.93,1.69,3.93,3.42,5.32,5.32
	c0.38,0.51,0.75,1.02,1.13,1.57c3.39,4.72,7.25,10.09,16.59,13.84c9.05,3.62,9.78,9.69,10.49,15.55c0.16,1.24,0.31,2.55,0.53,3.77
	c0.6,3.15,0.78,6.14,0.95,9.34c0.2,3.77,0.42,7.67,1.44,11.84c1.15,4.86,3.04,6.23,4.86,7.56c0.95,0.69,1.95,1.4,2.73,2.57
	c1.8,2.71,7.61,2.15,12.18,0.29c1.84-0.75,3.7-0.75,5.39,0.02c2.31,1.06,4.24,3.5,5.32,6.74c1.06,3.22,0.78,8.41,0.42,14.44
	c-0.2,3.3-0.4,6.72-0.4,10.18c0,7.16-2.04,12.6-4.24,18.34c-0.82,2.17-1.66,4.41-2.42,6.79c-1.95,6.25-0.62,14.08,0.47,20.38
	c0.35,2.11,0.69,4.08,0.89,5.85c0.69,6.1-5.77,10.45-8.49,12c2.42,1.84,2.95,6.92,3.48,12.29c0.27,2.55,0.53,5.19,1.02,7.32
	c0.71,3.19,0.07,5.79-1.86,7.34c-2.24,1.84-5.81,1.91-9.56,0.2c-3.02-1.38-5.15-1.73-6.32-1c-0.95,0.58-1.49,1.93-1.6,4.13
	c-0.2,3.64,3.59,9.76,7.98,16.88c1.24,2.04,2.55,4.15,3.86,6.34c4.88,8.27,1.69,15.24,0.18,17.76c3.28,0.33,5.92,1.49,10,3.26
	l1.04,0.44c7.9,3.42,13,4.61,17.32,1.15c4.88-3.9,6.56-4.15,13.88-1.97c6.52,1.93,9,1.4,13.95,0.35l1.11-0.24
	c2.66-0.55,5.21-0.18,7.47,0.75c0.62-2.73,2.82-12.15,4.61-18.43c0.47-1.6,0.73-2.99,0.98-4.21c0.86-4.46,1.4-7.12,8.94-10.78
	c9.16-4.46,17.7-10.4,23.91-14.73c2.06-1.44,3.75-3.7,5.54-6.08c3.55-4.79,7.61-10.2,14.73-8.69c2.11,0.44,4.61,0.89,7.27,1.35
	c10.33,1.84,23.2,4.15,28.56,8.87c4.28,3.77,8.65,7.14,11.62,6.41c1.38-0.35,2.42-1.57,3.22-3.75c1.26-3.44,2.73-5.34,3.93-6.88
	c1.55-2.02,2.33-3.04,1.38-5.92c-0.27-0.8-0.58-1.6-0.86-2.37c-1.11-2.93-2.17-5.68-0.84-7.54c0.98-1.35,2.99-1.95,6.34-1.86
	c4.08,0.13,6.52-0.31,7.41-1.29c0.71-0.78,0.55-2.04,0.35-3.61l-0.04-0.42c-0.4-3.28-3.28-6.48-7.19-7.94
	c-1.77-0.69-5.99-2.59-6.88-5.88c-0.47-1.62-0.02-3.28,1.31-4.95c3.68-4.64,2.13-9.54-0.53-12.57c-2.77-3.15-2.44-7.45,0.89-12.11
	c0.51-0.71,1.02-1.49,1.57-2.33c2.37-3.59,5.34-8.05,10.27-11.24c1.66-1.06,3.37-1.8,4.88-2.44c4.1-1.77,7.07-3.04,6.36-9.25
	c-0.47-4.04-1.42-6.34-2.17-8.21c-0.91-2.24-1.57-3.86-0.29-6.61c1.06-2.24,1.26-4.15,0.53-5.08c-0.64-0.84-1.97-0.78-2.97-0.6
	c-4.08,0.8-7.32,1.42-13.17-1.64c-1.93-1.02-3.28-2.73-3.95-4.99c-1.24-4.21-0.02-10.22,3.28-16.1c4.64-8.25,5.68-11.8,2.66-16.54
	c-1.4-2.24-1.82-4.3-2.2-6.1c-0.49-2.4-0.91-4.46-3.48-6.45c-5.1-3.97-4.81-5.94-1.51-12c3.08-5.63,1.73-12.53-0.04-19.67
	c-0.86-3.44,0.38-5.37,1.38-6.94c1.22-1.89,1.89-2.95-2.22-6.21c-7.83-6.28-11.71-6.74-20.76-6.5c-9.16,0.29-17.1-3.66-17.41-8.58
	c-0.18-2.71-3.35-3.86-9.69-6.19c-2.28-0.84-4.9-1.8-7.92-3.04c-6.79-2.77-9.65-3.39-12.66-4.04c-2.22-0.49-4.52-0.98-8.52-2.31
	c-9.36-3.13-12.29-2.59-14.7-0.4c-1.49,1.33-4.08,1.89-6.76,1.49c-2.08-0.31-5.94-1.49-8.6-5.9c-3.42-5.72-5.63-16.88-6.25-20.29
	c-2.04,0.55-4.26,0.91-6.83,1.15c-5.48,0.53-12.2,0.75-18.01,0.13c-4.55-0.49-8.56-1.49-11.02-3.3c-2.33-1.69-4.83-3.57-7.12-5.3
	c-2.88-2.15-5.46-4.08-7.21-5.3c-1.35-0.95-2.57-1.26-4.19-0.84c-1.73,0.47-3.93,1.75-7.19,4.04c-3.64,2.55-12.46,8.23-20.8,13.37
	c-6.92,4.3-13.51,8.23-16.52,9.74c-6.34,3.17-9.16,2.35-14.81,0.71l-1.4-0.4c-3.22-0.93-6.99-1.91-11.27-2.15
	c-0.18,0-0.35-0.02-0.53-0.02c1.75,5.32,8.83,26.7,11.6,34.29C289.29,251.5,286.09,257.96,283.52,263.15"/>
<path class="st0" d="M204.48,317.92c1.95,6.12,5.99,15.13,8.98,20.85c2.95,5.66,1.91,7.63-0.16,11.55
	c-0.27,0.55-0.58,1.13-0.91,1.77c-1.97,3.95-0.29,5.7,2.77,8.89c0.69,0.69,1.42,1.44,2.17,2.31c4.44,4.99,2.51,7.5-2.15,13.57
	l-0.62,0.8c-4.81,6.32-2.59,10.25,1.06,15.1c2.57,3.39,3.42,6.83,4.37,10.84c0.49,1.95,0.98,3.97,1.71,6.19
	c2.35,7.03,11.4,11.55,16.59,13.64c6.56,2.62,8.54,5.17,8.09,10.49c-0.02,0.44-0.07,0.84-0.11,1.24c-0.16,1.44-0.24,2.51,0.16,2.88
	c0.64,0.64,3.24,0.4,5.97,0.04c1.75-0.22,3.37-0.38,4.83-0.53c5.15-0.49,8.25-0.78,9.34-3.42c0.47-1.11,0.75-2.11,1.02-3.08
	c0.64-2.28,1.22-4.28,3.81-5.61c2.04-1.06,3.81-1.31,5.41-0.78c1.89,0.67,3.46,2.4,4.79,5.32c1.57,3.46,3.28,5.54,4.57,5.59
	c0.62-0.02,1.15-0.44,1.64-1.38c1.89-3.5,4.39-8.16,9.8-11.4c4.88-2.93,10.73-0.62,16.52,6.52c1.84,2.28,3.75,3.77,5.57,5.21
	c2.51,2,5.12,4.04,7.47,8.14c2.4,4.12,4.48,3.68,7.12,3.1c1.33-0.29,2.82-0.58,4.37-0.29c1.26-0.64,9.43-5.03,8.74-11.16
	c-0.18-1.73-0.51-3.7-0.86-5.77c-1.11-6.45-2.48-14.46-0.42-21.02c0.75-2.42,1.62-4.68,2.44-6.88c2.13-5.61,4.15-10.93,4.15-17.85
	c0-3.5,0.2-6.94,0.4-10.27c0.33-5.88,0.62-10.96-0.35-13.91c-0.95-2.88-2.64-5.06-4.61-5.94c-1.35-0.62-2.79-0.64-4.3-0.02
	c-5.01,2.06-11.49,2.71-13.82-0.78c-0.64-0.98-1.44-1.55-2.4-2.24c-1.91-1.4-4.1-2.97-5.39-8.32c-1.04-4.3-1.26-8.27-1.46-12.11
	c-0.18-3.13-0.33-6.1-0.93-9.14c-0.24-1.29-0.4-2.59-0.55-3.86c-0.69-5.74-1.33-11.16-9.63-14.46c-9.71-3.9-13.68-9.43-17.21-14.33
	c-0.38-0.53-0.75-1.04-1.13-1.55c-1.29-1.77-3.24-3.46-5.1-5.1c-3.42-2.97-6.96-6.03-6.96-9.89c0-2.26,1.42-5.1,3.04-8.38
	c2.59-5.21,5.52-11.13,3.64-16.3c-2.84-7.85-10.29-30.36-11.75-34.77c-3.73,0-7.83,0.6-12.24,2.31c-3.79,1.49-9.45,3.42-15.44,5.46
	c-10.8,3.68-22.67,7.74-26.37,10.02c-5.43,3.33-4.99,6.5-3.99,13.53l0.04,0.18c0.53,3.84,0.89,6.28-0.07,7.9
	c-0.98,1.66-3.13,2.28-7.56,2.35c-1.49,0.02-2.79-0.02-3.97-0.04c-5.37-0.13-8.36-0.2-15.83,5.37c-1.31,0.95-2.57,1.89-3.75,2.73
	c-6.92,5.01-11.18,8.07-13.4,15.39c-1.09,3.55-2.93,8.49-5.03,13.73c3.57,1.84,21.29,10.98,27.17,13.33
	C200.87,306.57,202.71,312.33,204.48,317.92"/>
<path class="st0" d="M262.24,539.86c0.82-0.98,1.73-2.04,2.75-3.15c2.48-2.71,4.5-3.95,6.54-3.99c2.86-0.04,5.46,2.26,9.27,6.08
	c2.37,2.37,3.93,3.37,4.77,3.15c1.2-0.35,1.91-3.75,2.59-7.03c1.69-8.16,2.77-9.54,14.11-10.62c6.34-0.6,10.4-1.89,14.68-3.26
	c3.15-1,6.41-2.04,10.73-2.84c3.46-0.62,6.01-0.89,8.23-0.82c1-1.4,5.34-8.29,0.2-16.99c-1.31-2.17-2.62-4.3-3.86-6.32
	c-4.68-7.61-8.41-13.62-8.18-17.65c0.16-2.68,0.89-4.39,2.26-5.21c1.64-1,4.06-0.71,7.58,0.91c3.22,1.46,6.34,1.46,8.16,0
	c1.49-1.22,1.97-3.35,1.38-5.99c-0.51-2.22-0.78-4.9-1.04-7.5c-0.55-5.48-1.11-11.13-3.77-11.75c-1.38-0.33-2.73-0.04-4.04,0.24
	c-2.82,0.6-5.7,1.24-8.58-3.75c-2.24-3.86-4.61-5.74-7.14-7.74c-1.89-1.49-3.84-3.02-5.79-5.43c-3.06-3.79-9.07-9.65-14.77-6.21
	c-5.08,3.06-7.39,7.32-9.25,10.76c-1,1.89-2.15,2.24-2.95,2.2c-2.4-0.07-4.44-3.5-5.74-6.36c-1.15-2.53-2.51-4.08-4.01-4.59
	c-1.22-0.42-2.64-0.2-4.35,0.67c-2.06,1.09-2.48,2.57-3.13,4.81c-0.27,0.95-0.58,2.04-1.06,3.22c-1.4,3.39-5.01,3.73-10.47,4.26
	c-1.44,0.13-3.04,0.29-4.79,0.53c-4.44,0.58-6.17,0.47-7.07-0.42c-0.86-0.84-0.73-2.17-0.55-4.01c0.04-0.38,0.07-0.78,0.11-1.2
	c0.35-4.17-0.62-6.48-7.25-9.14c-5.41-2.15-14.86-6.92-17.37-14.46c-0.75-2.28-1.26-4.32-1.73-6.3c-0.93-3.86-1.75-7.19-4.15-10.36
	c-3.9-5.15-6.45-9.67-1.04-16.72l0.6-0.82c4.66-6.05,5.9-7.7,2.22-11.84c-0.75-0.84-1.46-1.57-2.13-2.26
	c-3.15-3.26-5.41-5.63-3.02-10.42c0.33-0.67,0.64-1.26,0.93-1.82c2.02-3.84,2.75-5.26,0.13-10.29c-3.02-5.77-7.07-14.86-9.05-21.07
	c-1.69-5.28-3.44-10.76-9.96-13.35c-5.99-2.4-23.38-11.38-27.17-13.35c-0.02,0.04-0.02,0.09-0.04,0.11
	c-2.97,7.34-6.37,15.1-8.76,20.25c-0.71,1.53-1.42,2.99-2.11,4.37c-3.26,6.65-5.77,11.8-5.68,21.25c0.09,7.43-0.2,13.15-0.42,17.45
	c-0.13,2.35-0.22,4.3-0.22,5.88c0,2.48-0.62,4.15-2.4,4.59c-1.6,0.4-4.13-0.33-8.05-2.62c-1.22-0.69-2.28-1.26-3.19-1.75
	c-4.77-2.53-5.15-2.73-5.72-10.91c-0.18-2.37-0.2-4.75-0.24-7.07c-0.09-6.74-0.18-13.15-3.66-19.05c-1.64-2.79-2.93-5.83-4.13-8.69
	c-2.26-5.37-4.24-10.07-7.67-10.78c-2.91-0.62-5.85-1.4-8.43-2.91c-2.62-1.55-4.81-3.81-6.21-7.41c-1.57-4.15-4.9-11.69-9.58-18.39
	c-3.04-4.35-6.65-8.34-10.71-10.76c-5.15-3.06-8.21-4.5-10.93-4.52c-2.68-0.02-5.17,1.33-9.12,3.86c-7.05,4.5-5.7,8.83-4.06,14.11
	c0.16,0.53,0.33,1.09,0.47,1.51c0.31,1.06,0.64,2,0.93,2.88c1.62,4.59,2.82,8.05-0.69,16.88c-2.02,5.1-3.5,9.05-3.3,11.6
	c0.18,2.31,1.89,3.48,6.19,3.35c0.64,0,1.29-0.02,1.89-0.04c8.21-0.31,11.2-0.42,18.27,12.97c3.73,7.05,6.74,12.95,8.76,18.3
	c2.04,5.39,3.06,10.18,2.71,14.9c-0.4,5.63-0.55,18.54,0.93,29.47c0.95,6.96,2.55,13.11,5.15,15.97c3.42,3.73,7.76,7.21,12.22,10.29
	c4.46,3.08,9.05,5.74,12.95,7.87c3.95,2.13,7.47,4.28,10.73,6.9c3.26,2.62,6.23,5.7,8.98,9.74c2.53,3.7,9.4,10.56,16.9,17.37
	c8.41,7.65,17.56,15.21,22.16,18.14c4.35,2.75,7.05,4.26,9.58,5.1c2.48,0.84,4.83,1.02,8.43,1.15c0.8,0.04,1.55,0.13,2.26,0.31
	c2.62,0.64,4.66,2.17,6.01,4.26c1.35,2.08,2.02,4.72,1.93,7.61c-0.04,1.11-0.2,2.26-0.49,3.42c-0.22,0.93-0.44,1.8-0.67,2.62
	c-1.51,5.83-2.42,9.29,2.55,15.7c2.88,3.75,4.77,5.83,6.48,7.1c1.69,1.22,3.26,1.66,5.5,2.11c2.37,0.47,4.7,1.06,6.68,2.57
	c2,1.51,3.57,3.9,4.39,7.96c0.24,1.18,0.22,2.37,0.04,3.61c2.55,0.31,11.07,1.53,17.68,4.26
	C256.27,546.94,258.38,544.43,262.24,539.86"/>
<g>
	<path class="st1" d="M447.5,390.57l-3.37,4.19h2.59l4.59-4.19H447.5z M447.27,420.18h-3.17v-10.31l-7.7-13.99h3.57l3.44,6.7
		c0.93,1.84,1.66,3.33,2.42,5.01h0.07c0.69-1.57,1.51-3.17,2.46-5.01l3.48-6.7h3.57l-8.14,13.95V420.18z M419.4,420.18h3.13v-9.27
		l2.31-2.66l8.01,11.93h3.73l-9.49-13.99l8.8-10.31h-3.9l-7.43,9.12c-0.6,0.8-1.26,1.66-1.91,2.59h-0.11v-11.71h-3.13V420.18z
		 M400.39,418.98c1.29,0.86,3.86,1.55,6.19,1.55c5.74,0,8.52-3.24,8.52-6.99c0-3.57-2.08-5.57-6.19-7.14
		c-3.37-1.31-4.83-2.42-4.83-4.7c0-1.64,1.26-3.64,4.57-3.64c2.2,0,3.81,0.73,4.61,1.15l0.86-2.55c-1.06-0.62-2.88-1.2-5.37-1.2
		c-4.72,0-7.87,2.82-7.87,6.61c0,3.42,2.46,5.48,6.43,6.88c3.28,1.26,4.59,2.57,4.59,4.83c0,2.46-1.89,4.15-5.1,4.15
		c-2.15,0-4.21-0.71-5.61-1.57L400.39,418.98z M385.35,398.4c0.49-0.16,1.57-0.29,3.08-0.29c3.33,0.02,5.61,1.4,5.61,4.55
		c0,2.77-2.13,4.61-5.5,4.61h-3.19V398.4z M382.2,420.18h3.15v-10.53h2.95c2.84,0.11,4.15,1.38,4.88,4.72
		c0.67,3.04,1.22,5.12,1.62,5.81h3.24c-0.51-0.93-1.09-3.28-1.89-6.68c-0.58-2.53-1.69-4.26-3.57-4.9v-0.11
		c2.57-0.86,4.59-2.99,4.59-6.21c0-1.86-0.69-3.53-1.91-4.61c-1.51-1.38-3.68-1.97-7.03-1.97c-2.17,0-4.44,0.18-6.03,0.51V420.18z
		 M364.71,410.08h7.34l-2.4-7.01c-0.53-1.57-0.89-3.02-1.26-4.44h-0.07c-0.35,1.44-0.75,2.93-1.22,4.41L364.71,410.08z
		 M372.69,412.52h-8.63l-2.53,7.65h-3.24l8.25-24.31h3.79l8.29,24.31h-3.35L372.69,412.52z M350.87,420.18l8.69-24.31h-3.35
		l-4.12,12c-1.09,3.19-2.08,6.25-2.77,9.07h-0.07c-0.64-2.86-1.55-5.81-2.59-9.09l-3.79-11.98h-3.39l7.94,24.31H350.87z
		 M326.91,398.02c5.23,0,7.76,5.06,7.76,9.89c0,5.52-2.82,10.09-7.78,10.09c-4.95,0-7.76-4.64-7.76-9.85
		C319.13,402.83,321.72,398.02,326.91,398.02 M327.07,395.47c-6.5,0-11.29,5.06-11.29,12.77c0,7.34,4.5,12.33,10.93,12.33
		c6.19,0,11.27-4.44,11.27-12.8C337.98,400.55,333.7,395.47,327.07,395.47 M301.61,420.18h13.51v-2.64h-10.38v-21.67h-3.13V420.18z
		 M285.33,398.4c0.51-0.16,1.6-0.29,3.1-0.29c3.33,0.02,5.59,1.4,5.59,4.55c0,2.77-2.13,4.61-5.48,4.61h-3.22V398.4z M282.2,420.18
		h3.13v-10.53h2.97c2.84,0.11,4.15,1.38,4.86,4.72c0.69,3.04,1.22,5.12,1.62,5.81h3.26c-0.51-0.93-1.09-3.28-1.89-6.68
		c-0.58-2.53-1.69-4.26-3.57-4.9v-0.11c2.57-0.86,4.59-2.99,4.59-6.21c0-1.86-0.69-3.53-1.93-4.61c-1.51-1.38-3.66-1.97-7.03-1.97
		c-2.15,0-4.44,0.18-6.01,0.51V420.18z M264.71,410.08l2.37-7.03c0.49-1.49,0.86-2.97,1.24-4.41h0.07c0.35,1.42,0.71,2.86,1.26,4.44
		l2.37,7.01H264.71z M272.67,412.52l2.62,7.65h3.35l-8.29-24.31h-3.79l-8.25,24.31h3.24l2.53-7.65H272.67z M240.22,420.18h3.13
		v-9.27l2.31-2.66l8.01,11.93h3.73l-9.49-13.99l8.8-10.31h-3.9l-7.43,9.12c-0.6,0.8-1.24,1.66-1.91,2.59h-0.11v-11.71h-3.13V420.18z
		"/>
</g>
</svg>
