<?xml version="1.0" encoding="utf-8"?>
<!-- Generator: Adobe Illustrator 26.2.1, SVG Export Plug-In . SVG Version: 6.00 Build 0)  -->
<svg version="1.1" id="Vrstva_1" xmlns="http://www.w3.org/2000/svg" xmlns:xlink="http://www.w3.org/1999/xlink" x="0px" y="0px"
	 viewBox="0 0 595.28 841.89" style="enable-background:new 0 0 595.28 841.89;" xml:space="preserve">
<style type="text/css">
	.st0{fill:#C4E6F5;}
	.st1{fill:#FFFFFF;}
</style>
<path class="st0" d="M202.01,250.28c-2.19-0.77-4.49-0.42-6.49,1c-2.42,1.7-3.91,4.63-3.91,7.61c0,4.61-0.47,5.53-1.89,8.28
	c-0.44,0.84-0.96,1.88-1.61,3.28c-2.63,5.65-1.1,11.03,1,13.93c0.54,0.75,1.3,1.63,2.1,2.54c2.58,2.93,5.49,6.23,4.35,8.89
	c-1.49,3.44-6.19,5.77-16.87,10.03c-10.17,4.07-9.23,8.98-7.91,15.79l0.18,0.82c1.44,7.58-0.39,11-4.05,14.33
	c-3.28,3-3.3,4.65-3.37,10.14l-0.02,1.12c-0.09,5.33-3.37,8.81-6.84,12.49c-0.84,0.89-1.7,1.79-2.53,2.74
	c-3.98,4.6-3.49,13.86-0.95,20.64c1.11,2.93,1.23,5.03,0.39,6.6c-0.05,0.11-0.12,0.18-0.19,0.28c3.02,1.07,15.56,5.45,21.89,6
	c2.88,0.23,4.49-1.53,6.17-3.4c2.25-2.49,4.79-5.31,10.59-2.32c2.88,1.49,5.35,3.03,7.51,4.4c4.89,3.09,8.12,5.12,10.68,3
	c1.96-1.6,3.96-1.16,5.74-0.77c2.25,0.51,4.03,0.89,5.65-2.6c2.07-4.46,3.09-6.68,4.63-7.1c1.03-0.28,2.1,0.32,3.09,1.02
	c1.46,1.02,2.65,1.77,3.67,1.46c1.07-0.33,2.16-1.93,3.3-4.88c2.12-5.54,3.21-5.72,6.67-5.42c0.81,0.07,1.72,0.14,2.84,0.14
	c5.33,0,9.33-0.98,12.79-5.86c3.84-5.42,8.16-6.12,13.82-6.51c5.79-0.4,6.26-0.44,7.68-7.33c0.95-4.56,2.91-10.38,7.02-12.31
	c2.16-1.03,4.65-0.82,7.38,0.61c2.26,1.19,3.81,2.23,5.05,3.05c3.28,2.21,3.88,2.6,9.12-0.32c1.35-0.75,2.56-1.4,3.67-2.02
	c5.16-2.81,8-4.37,12.61-8.21c5.56-4.63,7.52-6.56,9.61-11.73c0.25-0.65,0.53-1.35,0.81-2.09c2.05-5.33,4.88-12.61,10.8-19.66
	c5.98-7.1,13.65-6.91,20.43-6.75c1.03,0.04,2.05,0.05,3.05,0.05c7.91,0,11.66-0.98,14.28-3.81c2.19-2.33,3.75-5.88,4.37-7.4
	c-1.61-0.56-2.63-2.3-2.84-5.61c-0.21-3.32-0.58-7.47-1.91-10.8c-1.3-3.24-3.53-5.75-7.49-5.95c-2.09-0.11-4.26-0.02-6.35,0.07
	c-1.37,0.07-2.68,0.12-3.89,0.12c-4.72,0-8.26-0.81-8.26-5.28c0-1.84-0.25-3.32-0.72-4.4c-0.39-0.89-0.91-1.53-1.56-1.86
	c-0.65-0.33-1.44-0.4-2.32-0.16c-0.96,0.25-2.05,0.82-3.23,1.75c-2.6,2.05-4.98,3.14-7.84,3.33c-2.82,0.18-6.07-0.51-10.44-2
	c-4.39-1.49-6.91-2.84-8.56-4.75c-1.67-1.91-2.42-4.31-3.28-7.96c-0.39-1.61-0.65-3.19-0.91-4.68c-0.84-4.93-1.53-8.82-5.4-9.42
	l-0.23-0.04c-2.56-0.33-5.3,0.39-7.47,1.74s-3.79,3.32-4.12,5.51l-0.02,0.14c-0.3,2.3-0.26,3.58,0.3,4.49
	c0.56,0.91,1.74,1.56,3.65,2.58c0.74,0.39,1.25,0.81,1.56,1.25c0.46,0.61,0.53,1.25,0.33,1.88c-0.18,0.56-0.6,1.12-1.18,1.65
	c-1.05,0.93-2.67,1.77-4.35,2.39c-1.37,0.51-3.4,0.44-5.79,0.33c-4.79-0.18-11.12-0.42-16.07,3.98c-2,1.77-3.42,3.3-4.67,4.63
	c-3.6,3.84-5.65,6.02-13.86,6.81c-5.51,0.53-9.21,0.68-11.94,0.07c-2.82-0.63-4.6-2.07-6.14-4.7c-1.42-2.46-2.79-3.96-4.42-5
	c-1.65-1.03-3.6-1.6-6.16-2.12c-0.63-0.12-1.11-0.21-1.56-0.28c-4.51-0.82-7.63-1.4-10.73-8.59c-0.47-1.05-1.02-2.26-1.63-3.56
	C213.75,253.1,207.5,252.21,202.01,250.28"/>
<path class="st0" d="M60.67,148.58c-1.65,1.82-3.37,3.72-5.49,6.61c-2.54,3.47-0.93,12.86,0.37,20.4c0.39,2.28,0.75,4.42,1,6.26
	c0.84,6.6-0.84,9-4.53,14.24c-1.03,1.47-2.21,3.14-3.54,5.21c-5.44,8.44-4.88,14.75-3.96,25.19c0.11,1.03,0.19,2.09,0.28,3.21
	c0.68,8.09-2.51,13.77-6.54,20.98c-2.37,4.26-5.07,9.07-7.54,15.33c-4.96,12.59-1.95,17.61,0.49,21.64c0.77,1.3,1.51,2.51,1.84,3.82
	c1.23,4.91-0.28,11.44-1.49,16.66l-0.19,0.79c-0.58,2.56-1.65,6.24-2.75,10.16c-1.26,4.39-2.54,8.91-3.21,11.96
	c-0.42,1.89-1.46,3.26-2.77,4.39c1.91,2.61,13.12,17.54,22.59,21.75c7.61,3.4,11.54,4.05,16.1,4.81c1.72,0.28,3.51,0.58,5.61,1.03
	l0.53,0.12c6.98,1.54,7.88,1.75,15.17,1.54c4.4-0.12,7.72,1.61,10.89,3.3c2.39,1.26,4.65,2.46,7.35,2.89
	c6.37,1.03,9.07,2.86,10.7,7.28c1.16,3.16,3.23,6.52,9.63,7.4c6.21,0.86,10,3.79,13.33,6.38c3.07,2.37,4.91,2.84,11.23,1.39
	c3.58-0.82,5.98-1.67,6.88-3.33c0.68-1.26,0.54-3.09-0.44-5.7c-2.67-7.09-3.12-16.82,1.14-21.73c0.84-0.95,1.7-1.88,2.54-2.77
	c3.33-3.53,6.47-6.84,6.56-11.77l0.02-1.11c0.07-5.54,0.11-7.61,3.72-10.93c3.46-3.16,5.07-6.23,3.72-13.35l-0.16-0.81
	c-1.32-6.75-2.44-12.58,8.56-16.98c10.38-4.16,14.94-6.38,16.28-9.47c0.88-2.03-1.91-5.21-4.16-7.75c-0.82-0.95-1.61-1.84-2.19-2.63
	c-2.26-3.12-3.91-8.95-1.09-15.01c0.65-1.4,1.19-2.46,1.63-3.32c1.4-2.72,1.77-3.44,1.77-7.77c0-3.35,1.67-6.6,4.37-8.51
	c2.28-1.61,4.93-2.02,7.45-1.12c5.49,1.91,11.19,2.65,15.91-4.82c-1.1-2.25-2.35-4.72-3.67-7.23c-3.35-6.42-7.03-13.07-9.03-16.56
	c-1.4-2.46-3.35-4.7-5.42-6.65c-2.81-2.65-5.88-4.75-8.26-6.19c-2.05-1.23-4.16-2.21-6.37-2.74c-2.17-0.54-4.47-0.65-6.91-0.14
	c-0.81,0.18-1.58,0.37-2.3,0.54c-4.19,1-7.35,1.77-8.33-2.58c-0.51-2.21-1.26-3.72-2.49-5.07c-1.25-1.39-3-2.63-5.49-4.28
	c-1.98-1.32-4.24-3.3-5.61-5.42c-0.79-1.19-1.3-2.46-1.3-3.67c-0.02-1.26,0.47-2.46,1.7-3.47c1.05-0.86,2.65-1.61,4.95-2.14
	c1.67-0.4,3.65-0.84,5.72-1.3c11.17-2.49,25.17-5.61,27.73-10.23c0.82-1.46,1.42-2.67,1.91-3.65c1.42-2.89,2.03-4.09,4.79-5.56
	c1.63-0.86,2.46-2.33,2.88-4.14c0.44-1.88,0.44-4.16,0.44-6.54c0-0.21,0-0.67,0-1.12c0.05-4.12,0.09-7.58-5.89-8.49
	c-3.6-0.54-5.91-1.6-7.09-3.37c-1.19-1.79-1.21-4.23-0.21-7.51c0.84-2.84,3.91-3.95,6.75-4.96c1.42-0.51,2.79-1,3.68-1.65
	c1.32-0.98,1.61-2.46-0.51-5.35c-1.05-1.42-1.93-2.65-2.75-3.77c-4.6-6.35-7.19-9.95-11.47-11.16c-1.81-0.49-3.72-0.7-5.33-0.37
	c-0.89,0.18-1.7,0.51-2.35,1.05c-0.63,0.53-1.12,1.26-1.4,2.25c-0.32,1.14-0.33,2.63,0.04,4.49c1.72,8.59-2.03,11.61-9.58,17.68
	l-0.25,0.19l-0.6,0.49c-7.4,5.96-12.82,10.33-18.01,6.44l-0.11-0.07c-4.7-3.53-5.72-4.28-10.21-0.56c-2.53,2.09-4.16,2.84-5.6,2.7
	c-1.47-0.14-2.63-1.19-4.26-2.72c-1.65-1.54-3.65-2.65-5.84-2.68c-1.82-0.04-3.82,0.67-5.91,2.47c-0.61,0.54-1.18,1.07-1.74,1.58
	c-4.05,3.7-7.44,6.81-14.68,3.75c-4.07-1.72-6.38-3.17-7.7-4.81c-1.33-1.68-1.61-3.51-1.61-5.91c0-0.98-0.21-1.81-0.58-2.46
	c-0.39-0.67-0.95-1.14-1.61-1.4c-0.67-0.26-1.47-0.3-2.35-0.07c-1.03,0.28-2.14,0.91-3.26,1.96c-1.33,1.28-2.44,2.75-3.49,4.16
	c-2.26,3.02-4.28,5.68-7.82,5.61c-1.16,1.81-5.31,8.24-7.7,11.17C62.71,146.33,61.73,147.42,60.67,148.58"/>
<path class="st0" d="M383.69,299.12c1.67,1.86,9.07,9.7,13.96,8.65c3.4-0.74,6.86-1.16,9,0.56c1.44,1.18,2.14,3.14,2.14,6.05
	c0,7.12,0,7.12,6.35,14.1c1.23,1.33,2.28,2.44,3.21,3.39c4.03,4.14,5.54,5.68,5.54,12.72c0,8.47,0.23,10.86,5.88,15.29
	c2.51,1.98,5.68,2.63,9.05,3.32c4.16,0.86,8.47,1.74,11.37,5.38c4.93,6.14,7.82,7.4,15.47,9.66c2.61,0.77,5.81,2.12,9.17,3.54
	c6.45,2.7,13.79,5.79,17.38,4.84c4.67-1.19,11.82-5.86,13.98-7.31c-1.7-1.79-2.91-4.17-4.12-6.56c-0.21-0.42-0.44-0.84-0.56-1.11
	c-0.86-1.63-1.67-3.46-2.51-5.38c-2.05-4.67-4.37-9.93-8.35-14.66c-1.19-1.42-2.68-2.93-4.26-4.53c-5.91-6-12.98-13.17-10.93-21.68
	c0.95-3.98,3.28-7.59,5.51-11.07c3.63-5.67,7-10.93,3.35-16.45c-3.02-4.6-6.67-9.96-10.59-13.28c-3.81-3.21-7.91-4.47-11.98-1.09
	c-7.12,5.89-10.33,4.68-15.49,2.75c-1.21-0.47-2.53-0.96-4.03-1.4c-1.51-0.46-3.02-0.86-4.53-1.25c-6.37-1.67-12.45-3.26-15.26-8
	c-1.63-2.75-3.56-4.58-5.68-5.72c-2.12-1.14-4.46-1.6-6.91-1.6h-1.05c-4.14-0.05-6.74-0.07-7.28,6.7l-0.09,1.23
	c-0.54,6.84-0.63,8-5.79,11.49c-2.4,1.65-4.54,2.6-6.24,2.53c-0.6,1.49-2.25,5.33-4.67,7.93
	C384.41,298.53,384.04,298.82,383.69,299.12"/>
<path class="st0" d="M391.61,483.46c-6.35-3.81-7.81-6.75-7.81-15.77c0-5.21-4.49-10.45-8.44-15.08c-2.47-2.89-4.79-5.61-5.98-8.17
	c-3.09-6.58-5.3-24.71-5.51-34.83c-0.18-7.7-2.32-9.24-5.58-11.58c-0.68-0.49-1.42-1.02-2.19-1.65c-3.72-3-3.89-5.38-4.24-10.16
	c-0.09-1.18-0.19-2.51-0.37-4.03c-0.88-8.19-2.17-13.79-4.35-18.73c-2.14-4.86-1.12-7.93,0.74-13.51c0.21-0.68,0.46-1.4,0.7-2.17
	c0.96-2.96,0.65-5.42-0.84-6.75c-1.74-1.51-4.89-1.42-8.49,0.26c-2.74,1.3-5.16,1.56-7.17,0.77c-1.7-0.65-2.67-1.88-3.14-2.63
	c-0.95,0.86-2.03,1.79-3.3,2.84c-4.68,3.91-7.74,5.58-12.79,8.31c-1.1,0.61-2.32,1.26-3.65,2.02c-5.61,3.12-6.67,2.67-10.24,0.28
	c-1.23-0.82-2.74-1.84-4.95-3c-2.44-1.28-4.6-1.47-6.44-0.61c-3.89,1.84-5.7,8.03-6.42,11.58c-1.53,7.4-2.39,7.75-8.66,8.17
	c-6.35,0.44-9.73,1.42-13.03,6.07c-3.72,5.26-7.98,6.31-13.65,6.31c-1.16,0-2.14-0.09-2.93-0.16c-2.95-0.25-3.65-0.3-5.6,4.74
	c-1.3,3.39-2.53,5.09-3.98,5.53c-1.47,0.46-2.95-0.46-4.58-1.6c-1.05-0.74-1.7-1-2.19-0.88c-1.07,0.3-2.14,2.63-3.95,6.52
	c-1.96,4.28-4.56,3.7-6.86,3.21c-1.67-0.39-3.26-0.74-4.82,0.54c-0.95,0.79-1.95,1.12-3.02,1.12c-0.09,0-0.18-0.02-0.26-0.02
	c-0.7,0.79-3.86,4.82-4.12,12.12c-0.11,2.65-0.37,4.75-0.6,6.45c-0.49,3.75-0.75,5.82,1.44,8.84c2.68,3.68,4.56,2.84,7.98,1.33
	c0.49-0.23,1.02-0.46,1.56-0.68c4.68-1.93,7.84-0.7,12.05,2.26c1.84,1.32,2.75,3.75,3.63,6.12c1.3,3.53,2.53,6.86,6.58,7.21
	c7.42,0.63,9.12,1.3,11.98,7.44c1.25,2.68,2.72,3.82,4.3,5.03c1.7,1.32,3.47,2.68,4.74,6.12c0.3,0.81,0.54,1.56,0.79,2.28
	c1.58,4.79,2.47,7.44,12.31,10.56c2-1.42,6.77,0.18,8.93,2.07c2.09,1.84,4.58,2.16,7.45,2.53c1.84,0.25,3.74,0.49,5.77,1.14
	c2.68,0.86,3.63,2.84,4.63,4.93c1.14,2.35,2.42,5.03,6.38,7.28c7.51,4.26,11.37,5.58,19.63,1.46c4.05-2.03,6.4-2.1,9.37-2.19
	c3.26-0.11,7.3-0.23,15.44-3.09c13.07-4.6,22.71,2.7,29.77,8.03c1.46,1.11,2.82,2.14,4.05,2.93c6.16,3.98,20.14,1.77,23.08,1.25
	c-0.47-1.63-0.89-3.21-1.23-4.65C401.66,489.5,397.66,487.09,391.61,483.46"/>
<path class="st0" d="M581.24,456.45c-1.07-1.44-2.33-2.91-3.63-4.42c-4.56-5.3-9.59-11.17-9.26-19.15
	c0.19-4.63-0.42-10.23-1.44-15.68c-1.18-6.35-2.93-12.49-4.61-16.65c-0.74-1.82-1.65-3.4-2.7-4.67c-1.28-1.54-2.75-2.63-4.33-3.16
	c-1.56-0.51-3.24-0.46-4.95,0.23c-0.93,0.37-1.86,0.95-2.79,1.7c-0.51,0.42-1.03,0.79-1.56,1.09c-2.58,1.47-5.4,1.61-8.09,0.74
	c-2.65-0.88-5.16-2.72-7.23-5.21c-0.75-0.91-1.47-1.93-2.09-3.03c-0.44-0.75-0.84-1.49-1.21-2.16c-2.81-5.1-3.16-5.72-10.87-4.1
	c-4.42,0.93-7.33-0.04-9.49-1.89c-1.96,1.33-9.49,6.3-14.51,7.59c-0.54,0.14-1.14,0.21-1.79,0.21c-4.12,0-10.3-2.6-16.28-5.12
	c-3.35-1.4-6.52-2.74-9.07-3.49c-7.89-2.35-10.87-3.65-16-10.03c-2.67-3.33-6.6-4.14-10.75-4.98c-3.33-0.68-6.79-1.39-9.51-3.53
	c-6-4.72-6.28-7.63-6.28-16.15c0-6.6-1.21-7.84-5.23-11.96c-0.93-0.96-2-2.07-3.23-3.4c-6.6-7.23-6.65-7.37-6.65-14.84
	c0-2.56-0.56-4.26-1.74-5.21c-1.79-1.44-4.95-1.02-8.1-0.35c-5.58,1.19-13.45-7.26-15.05-9.05c-3.12,2.07-7.35,2.56-13.17,2.56
	c-1,0-2.03-0.02-3.07-0.05c-6.84-0.18-13.93-0.35-19.59,6.37c-5.82,6.91-8.59,14.1-10.61,19.36c-0.3,0.74-0.56,1.44-0.82,2.09
	c-1.53,3.81-3.07,6-5.81,8.59c0.32,0.56,1.16,1.79,2.74,2.39c1.74,0.67,3.86,0.4,6.31-0.75c4.03-1.89,7.56-1.93,9.65-0.09
	c1.84,1.61,2.26,4.47,1.16,7.88c-0.25,0.77-0.49,1.49-0.72,2.19c-1.82,5.49-2.74,8.24-0.75,12.73c2.21,5.05,3.54,10.73,4.44,19.03
	c0.18,1.56,0.26,2.89,0.35,4.09c0.37,4.74,0.51,6.68,3.86,9.4c0.75,0.61,1.47,1.12,2.16,1.61c3.39,2.42,5.82,4.17,6.02,12.42
	c0.21,10.02,2.37,27.94,5.4,34.4c1.14,2.44,3.42,5.1,5.82,7.93c4.07,4.77,8.7,10.19,8.7,15.79c0,8.61,1.28,11.26,7.28,14.86
	c6.07,3.63,10.44,6.26,12.42,14.38c1.65,6.79,4.54,16.58,10.58,23.26c2.63,2.91,5.37,4.61,8.03,6.26c3.16,1.96,6.14,3.81,8.37,7.44
	c3.86,6.28,22.1,13.28,22.29,13.35c0.09,0.04,0.12,0.11,0.18,0.18c8.07-2.7,10.37-6.79,13.26-11.98c0.42-0.75,0.86-1.54,1.3-2.32
	c1.81-3.1,5.07-8.44,8.3-13.59c3.56-5.68,7.07-11.19,8.51-13.28c1.28-1.88,1.47-3.53,1.14-5.02c-0.35-1.51-1.26-2.88-2.17-4.09
	c-1.03-1.39-1.49-2.93-0.82-4.91c0.61-1.89,2.28-4.16,5.49-7.05c3.24-2.91,5.54-4.16,7.88-4.19c2.32-0.02,4.58,1.16,7.79,3.09
	l0.54,0.32c5.7,3.44,8.02,4.82,15.1-0.09c3.84-2.67,6.3-4.1,9.14-4.35c2.82-0.25,5.91,0.7,11.03,2.82
	c4.96,2.09,8.26,3.17,10.96,3.07c2.63-0.11,4.75-1.37,7.38-4.02v0.02l0.46-0.47c4.6-4.6,10-10.02,18.96-10.58
	C579.24,469.68,585.48,462.17,581.24,456.45"/>
<g>
	<path class="st1" d="M400.22,355.57l-2.81,3.51h2.17l3.82-3.51H400.22z M400.04,380.37h-2.67v-8.65l-6.44-11.72h3l2.86,5.61
		c0.79,1.54,1.4,2.79,2.03,4.21h0.05c0.58-1.33,1.28-2.67,2.05-4.21l2.93-5.61h3l-6.82,11.68V380.37z M376.7,380.37h2.61v-7.77
		l1.95-2.23l6.7,10h3.1l-7.95-11.73l7.37-8.63h-3.25l-6.23,7.65c-0.51,0.65-1.05,1.39-1.6,2.17h-0.11v-9.82h-2.61V380.37z
		 M360.77,379.37c1.09,0.72,3.24,1.3,5.19,1.3c4.81,0,7.14-2.72,7.14-5.86c0-3-1.75-4.65-5.19-5.98c-2.82-1.09-4.05-2.03-4.05-3.93
		c0-1.39,1.05-3.05,3.84-3.05c1.84,0,3.19,0.6,3.86,0.96l0.72-2.14c-0.89-0.51-2.42-1-4.49-1c-3.96,0-6.6,2.35-6.6,5.53
		c0,2.88,2.05,4.6,5.38,5.77c2.75,1.05,3.84,2.14,3.84,4.05c0,2.05-1.58,3.47-4.26,3.47c-1.82,0-3.54-0.61-4.72-1.33L360.77,379.37z
		 M343.71,380.37h14.86v-2.21h-11.38v-0.09l11.24-16.47v-1.6h-13.73v2.21H355v0.09l-11.3,16.52V380.37z M340.78,368.64h-7.91v-6.42
		h8.37v-2.21h-11v20.36h11.45v-2.21h-8.82v-7.35h7.91V368.64z M315.99,380.37h11.31v-2.21h-8.68v-18.15h-2.63V380.37z
		 M300.07,379.37c1.09,0.72,3.24,1.3,5.19,1.3c4.81,0,7.14-2.72,7.14-5.86c0-3-1.75-4.65-5.19-5.98c-2.81-1.09-4.05-2.03-4.05-3.93
		c0-1.39,1.05-3.05,3.84-3.05c1.84,0,3.19,0.6,3.86,0.96l0.72-2.14c-0.89-0.51-2.4-1-4.49-1c-3.96,0-6.6,2.35-6.6,5.53
		c0,2.88,2.07,4.6,5.38,5.77c2.75,1.05,3.84,2.14,3.84,4.05c0,2.05-1.58,3.47-4.26,3.47c-1.82,0-3.54-0.61-4.72-1.33L300.07,379.37z
		 M288.42,361.81c4.37,0,6.49,4.23,6.49,8.28c0,4.61-2.35,8.45-6.52,8.45c-4.14,0-6.49-3.89-6.49-8.24
		C281.89,365.83,284.07,361.81,288.42,361.81 M288.54,359.67c-5.44,0-9.45,4.23-9.45,10.7c0,6.16,3.77,10.31,9.14,10.31
		c5.19,0,9.45-3.7,9.45-10.72C297.68,363.94,294.08,359.67,288.54,359.67 M264.42,380.37h2.63v-7.77l1.95-2.23l6.7,10h3.1
		l-7.95-11.73l7.37-8.63h-3.26l-6.21,7.65c-0.51,0.65-1.07,1.39-1.61,2.17h-0.09v-9.82h-2.63V380.37z M248.51,379.37
		c1.09,0.72,3.23,1.3,5.19,1.3c4.81,0,7.14-2.72,7.14-5.86c0-3-1.75-4.65-5.19-5.98c-2.82-1.09-4.05-2.03-4.05-3.93
		c0-1.39,1.05-3.05,3.82-3.05c1.84,0,3.21,0.6,3.88,0.96l0.72-2.14c-0.91-0.51-2.42-1-4.49-1c-3.96,0-6.6,2.35-6.6,5.53
		c0,2.88,2.05,4.6,5.38,5.77c2.74,1.05,3.82,2.14,3.82,4.05c0,2.05-1.56,3.47-4.24,3.47c-1.82,0-3.54-0.61-4.72-1.33L248.51,379.37z
		 M240.06,380.37h-2.89l-6.65-20.36h2.84l3.17,10.03c0.88,2.74,1.63,5.21,2.17,7.61h0.05c0.58-2.37,1.42-4.93,2.33-7.59l3.44-10.05
		h2.81L240.06,380.37z M219.64,371.9l2-5.88c0.39-1.25,0.72-2.49,1.02-3.68h0.07c0.3,1.18,0.6,2.39,1.05,3.7l2,5.86H219.64z
		 M226.33,373.95l2.17,6.42h2.81l-6.95-20.36h-3.17l-6.91,20.36H217l2.1-6.42H226.33z M202.03,362.13c0.42-0.12,1.33-0.25,2.6-0.25
		c2.79,0.02,4.68,1.18,4.68,3.81c0,2.32-1.77,3.86-4.6,3.86h-2.68V362.13z M199.4,380.37h2.63v-8.82h2.47
		c2.39,0.09,3.47,1.14,4.09,3.95c0.58,2.54,1.02,4.3,1.35,4.88h2.72c-0.42-0.79-0.89-2.75-1.56-5.6c-0.49-2.12-1.42-3.56-3-4.1
		v-0.09c2.16-0.74,3.84-2.51,3.84-5.21c0-1.56-0.58-2.95-1.6-3.86c-1.28-1.14-3.09-1.67-5.89-1.67c-1.81,0-3.72,0.16-5.05,0.42
		V380.37z M186.72,361.81c4.39,0,6.49,4.23,6.49,8.28c0,4.61-2.35,8.45-6.51,8.45c-4.14,0-6.51-3.89-6.51-8.24
		C180.2,365.83,182.37,361.81,186.72,361.81 M186.84,359.67c-5.44,0-9.45,4.23-9.45,10.7c0,6.16,3.77,10.31,9.16,10.31
		c5.19,0,9.45-3.7,9.45-10.72C196,363.94,192.4,359.67,186.84,359.67 M171.99,380.37h2.56l-1.26-20.36h-3.35l-3.63,9.84
		c-0.89,2.58-1.63,4.81-2.14,6.86h-0.09c-0.51-2.1-1.21-4.35-2.05-6.86l-3.47-9.84h-3.35l-1.42,20.36h2.51l0.54-8.73
		c0.18-3.05,0.33-6.47,0.39-9h0.05c0.58,2.4,1.4,5.03,2.37,7.91l3.28,9.7h2l3.6-9.88c1.02-2.82,1.88-5.35,2.56-7.74h0.09
		c-0.02,2.53,0.16,5.95,0.32,8.79L171.99,380.37z"/>
</g>
</svg>
