<?xml version="1.0" encoding="utf-8"?>
<!-- Generator: Adobe Illustrator 26.2.1, SVG Export Plug-In . SVG Version: 6.00 Build 0)  -->
<svg version="1.1" id="Vrstva_1" xmlns="http://www.w3.org/2000/svg" xmlns:xlink="http://www.w3.org/1999/xlink" x="0px" y="0px"
	 viewBox="0 0 595.28 841.89" style="enable-background:new 0 0 595.28 841.89;" xml:space="preserve">
<style type="text/css">
	.st0{fill:#45B0E5;}
	.st1{fill:#FFFFFF;}
</style>
<path class="st0" d="M206.33,235.56c-1.95,3.47-5.73,9.05-9.72,14.95c-2.56,3.78-5.21,7.69-7.43,11.11
	c-5.34,8.3-3.04,16.34-1.16,22.79l0.15,0.53c1.93,6.68,4.31,14.97,2.92,20.77c-1.32,5.52-6.93,12.56-15.1,15.37
	c-2.06,0.71-4.1,1.16-6.07,1.62c-5.33,1.22-9.16,2.1-9.16,6.49c0,3.68,1.15,6.01,2.37,8.48c0.9,1.85,1.85,3.76,2.29,6.26
	c0.67,3.72,4.05,7.83,7.01,11.45c1.41,1.72,2.75,3.36,3.65,4.77c2.75,4.33,5.31,13.04,6.24,21.13c0.67,5.73-2.41,12.03-5.13,17.6
	c-1.15,2.35-2.23,4.58-3,6.62c-0.11,0.34-0.27,0.65-0.44,0.94c0.06,1.28,0.59,10.25,4.6,16.02c1.22,1.76,3.04,3.84,4.96,6.05
	c5.06,5.8,11.36,13.06,12.69,20.77c1.81,10.4,4.1,14.13,11.13,18.08c3.47,1.95,5,4.37,6.22,6.3c1.41,2.27,2.44,3.89,5.86,4.12
	c2.71,0.17,5.08-1.99,7.56-4.29c3.25-3,6.93-6.39,12.03-4.33c7.54,3.05,13.29,1.78,17.56-3.91c1.68-2.23,3.49-6.72,5.4-11.45
	c2.73-6.74,5.82-14.39,9.49-18.06c1.72-1.72,3.3-2.9,4.56-3.88c3.38-2.56,4.41-3.34,1.51-8.21c-4.52-7.64-6.28-11.82-2.71-17.05
	c2.14-3.13,4.41-2.14,6.41-1.24c1.64,0.73,3.19,1.43,4.96,0.38c1.85-1.11,2.84-2.23,3.05-3.46c0.19-1.24-0.44-2.71-1.95-4.45
	c-2.94-3.42-5.1-10.21-1.32-13.61c2.98-2.69,7.35-1.53,12.98,3.44c2.16,1.91,3.72,2.67,5.08,2.52c1.18-0.13,2.31-1.01,3.53-2.77
	c1.28-1.83,3.42-3.02,5.67-4.26c3.09-1.72,6.26-3.47,7.02-6.95c0.73-3.36,2.14-8.3,3.51-13.08c1.2-4.24,2.35-8.25,3-11.01l0.19-0.86
	c1.3-5.57,2.9-12.5,1.62-17.58c-0.31-1.26-1.03-2.44-1.87-3.84c-2.63-4.37-6.22-10.35-0.61-24.59c2.73-6.89,5.67-12.16,8.28-16.82
	c4.45-7.98,7.67-13.72,6.97-22.18c-0.1-1.2-0.19-2.37-0.29-3.47c-1.03-11.61-1.66-18.63,4.49-28.16c1.45-2.27,2.73-4.08,3.88-5.71
	c3.93-5.63,5.57-7.96,4.71-14.68c-0.27-1.99-0.65-4.31-1.09-6.76c-1.51-8.88-3.25-18.92-0.17-23.1c2.33-3.19,4.22-5.27,6.05-7.29
	c1.13-1.24,2.2-2.42,3.32-3.8c2.33-2.88,6.41-9.16,7.98-11.59c-2.58-0.61-3.02-3.04-2.88-6.22c0.04-0.99,0.15-2.08,0.25-3.21
	c0.15-1.62,0.31-3.34,0.31-5.08c0-3.32-0.1-5.54-0.92-6.85c-0.78-1.26-2.31-1.76-5.17-1.76c-3.15,0-5.82-0.46-9.6-1.79
	c-3.72-1.32-8.53-3.49-15.96-6.93c-1.41-0.65-2.48-1.15-3.47-1.58c-12.39-5.67-16.68-7.64-16.68-15.08c0-0.48,0-1.18,0.02-1.87
	c0.02-2.23,0.04-4.05-0.32-5.27c-0.57-2.06-2.42-2.56-7.71-1.03c-4.91,1.39-8.36,1.37-11.01,0.61c-2.67-0.76-4.5-2.29-6.15-3.95
	c-1.57-1.57-3.25-2.88-5.04-3.78c-1.78-0.88-3.67-1.3-5.75-1.09c-3.8,0.4-6.38-1.18-10.14-3.49c-0.71-0.44-1.47-0.9-2.27-1.37
	c-2.69-1.58-5.99-3.05-9.53-3.91c-2.94-0.71-6.03-0.99-9.09-0.57c-3.47,0.46-6.89,0.34-10.33-0.15c-3.42-0.48-6.85-1.36-10.42-2.39
	c-2.77-0.8-5.21-1.97-7.62-3.09c-3.78-1.79-7.39-3.49-11.64-3.49c-3.32,0-5.78,0.82-7.48,2.33c-1.78,1.6-2.73,3.97-2.96,7.01
	c-0.04,0.46-0.06,0.84-0.1,1.24c-0.46,5.42-0.82,9.95,7.81,14.47c4.87,2.54,7.54,4.3,9.01,6.15c1.53,1.93,1.78,3.89,1.78,6.85
	c0,2.81,0.21,5.33,0.88,7.46c0.65,2.1,1.74,3.84,3.47,5.13c1.89,1.41,3.25,2.67,3.97,4.2c0.74,1.55,0.82,3.3,0.1,5.73
	c-0.63,2.1-0.82,3.57-0.06,4.45c0.82,0.94,2.71,1.39,6.2,1.51l0.36,0.02c7.22,0.21,11.15,0.34,17.12,7.23
	c3.04,3.49,4.6,5.96,5.12,8.42c0.5,2.5-0.08,4.91-1.37,8.3c-0.31,0.82-0.63,1.62-0.95,2.39c-1.89,4.66-2.81,6.89,2.84,11.42
	c1.26,0.99,2.58,1.95,3.82,2.84c5.44,3.89,9.43,6.76,5.67,12.88l-0.17,0.29c-2.21,3.49-4.66,5.36-7.12,6.03
	c-2.48,0.67-4.96,0.11-7.2-1.26h-0.02l-0.13-0.1c-2.25-1.43-2.6-3.46-2.92-5.55c-0.34-2.04-0.69-4.18-3.23-5.61
	c-2.37-1.34-3.76-1.39-4.58-0.5c-0.9,0.97-1.28,3.05-1.49,5.78c-0.27,3.15-0.9,4.62-2.33,4.75c-1.28,0.13-3.07-0.99-5.8-3
	c-2.48-1.83-4.1-2.44-5.36-2.06c-1.26,0.38-2.27,1.78-3.46,3.95c-1.28,2.31-2.63,4.58-4.85,6.55c-1.47,1.3-3.3,2.42-5.73,3.36
	c0.1,2.08,0.42,8.46,0.42,11.03C210.17,226.52,208.91,230.94,206.33,235.56"/>
<path class="st0" d="M225.62,500.71c5.19,4.01,7.08,4.01,9.37,2.48c1.47-0.97,3.47-1.18,5.34-0.52c1.93,0.69,3.38,2.16,3.97,4.03
	c0.5,1.62,1.24,2.62,2.18,3c1.01,0.4,2.37,0.13,4.07-0.82l0.57-0.32c3.32-1.89,5.94-3.36,9.26,0.21c3.26,3.47,4.1,7.37,2.65,12.2
	c-0.82,2.69,0.32,3.55,3.09,5.67c1.37,1.05,3.07,2.35,4.96,4.26c1.85,1.85,3.49,3.17,5.1,4.43c3.21,2.56,5.97,4.77,8.49,10.12
	l0.32,0.71c3.3,7.02,3.49,7.44,13.11,8.09c8.02,0.52,9.3,2.69,11.24,5.97c0.63,1.05,1.36,2.27,2.41,3.59
	c4.96,6.26,13.76,1.15,16.34-0.57c5.86-3.91,10-2.08,14.41,1.87c0.63,0.57,15.73,14.16,19.78,24.41c1.09,2.75,2.27,5.4,3.44,7.96
	c2.25,4.96,4.35,9.68,5.23,14.14c1.43-1.97,4.85-5.15,11.43-3.97c2.5,0.44,10.08,1.81,11.87-0.44c0.63-0.78,0.55-2.04-0.19-3.78
	c-0.67-1.58-1.55-3.15-2.41-4.66c-2.52-4.45-5.12-9.05-0.59-12.26c1.76-1.24,4.1-3.8,6.59-6.53c5.46-5.97,11.66-12.75,17.28-12.75
	c7.81,0,19.6,0,21.34-8.44c0.13-0.67,0.27-1.36,0.4-2.04c1.62-8.49,3.47-18.12,19.74-19.41c9.66-0.78,16.02-2.84,18.38-5.99
	c0.95-1.26,1.28-2.69,0.95-4.28c-0.13-0.71-0.31-1.34-0.44-1.93c-0.94-3.67-1.16-5.69,4.43-8.07c3.89-1.66,3.3-4.01,2.46-7.25
	c-0.38-1.53-0.82-3.26-0.74-5.02l0.04-1.45c0.19-5.5,0.46-13.02,5.92-13.93c3.51-0.59,6.22-2.52,9.09-4.56
	c1.41-1.01,2.86-2.06,4.43-2.9c3.91-2.16,10.17-3.28,12.14-3.61c-0.4-1.91-0.17-3.82,0.17-6.34c0.25-1.91,0.52-4.08,0.63-6.91
	c0.27-7.29,3.02-11.68,4.31-13.36c-2.33-0.55-4.94-2.2-8.06-4.16c-2.35-1.47-5.02-3.15-8.09-4.75c-5.54-2.84-7.67-0.48-10.14,2.27
	c-1.87,2.06-3.95,4.41-7.67,4.08c-7.44-0.65-22.07-5.84-24.53-6.74c-1.45,1.37-3.86,2.18-7.25,2.96c-2.65,0.59-4.64,0.92-6.32,0.92
	c-2.65,0-4.49-0.82-6.83-2.63c-3.55-2.75-7.54-5.84-13.99-6.72c-6.03-0.84-9.45-3.47-11.42-8.84c-1.41-3.82-3.46-5.97-10.73-7.16
	c-3.15-0.5-5.8-1.91-8.36-3.26c-3.32-1.76-6.78-3.61-11.28-3.46c-8.09,0.23-9.09,0-16.8-1.72l-0.57-0.11
	c-2.25-0.52-4.18-0.82-6.05-1.13c-4.83-0.8-9.37-1.57-17.79-5.31c-10.67-4.75-22.81-20.96-25.04-24.01
	c-1.15,0.82-2.41,1.51-3.65,2.21c-2.14,1.18-4.16,2.31-5.29,3.91c-1.43,2.04-2.83,3.07-4.37,3.25c-1.68,0.21-3.53-0.67-5.97-2.81
	c-5.1-4.5-8.95-5.67-11.43-3.44c-3.09,2.81-1.26,8.86,1.43,11.97c1.74,2.04,2.46,3.8,2.2,5.42c-0.25,1.58-1.43,2.98-3.61,4.26
	c-2.29,1.34-4.28,0.46-6.03-0.32c-1.95-0.86-3.38-1.49-4.96,0.84c-3.21,4.7-1.62,8.42,2.77,15.81c3.28,5.52,1.81,6.97-1.81,9.72
	c-1.24,0.95-2.79,2.12-4.45,3.78c-3.49,3.49-6.55,11.01-9.24,17.66c-1.95,4.83-3.78,9.37-5.54,11.72
	c-4.64,6.18-10.84,7.58-18.96,4.29c-4.39-1.79-7.5,1.09-10.77,4.12c-2.46,2.27-4.98,4.6-8.06,4.6c-0.13,0-0.27,0-0.4,0
	c-1.34-0.1-2.35-0.4-3.19-0.82c-0.27,1.47-0.71,4.98,0.31,8.97C217.56,492.41,220.64,496.86,225.62,500.71"/>
<path class="st0" d="M357.81,648.19l-0.71-1.51c-2.94-6.2-5.25-11.09,0.5-14.32c2.56-1.43,4.66-1.18,6.49-0.97
	c2.42,0.29,4.31,0.52,6.78-3.17c2.84-4.26,2.06-6.18,0.9-9.07c-0.65-1.58-1.36-3.36-1.68-5.84c-0.61-4.73-2.94-9.89-5.4-15.35
	c-1.16-2.58-2.37-5.25-3.47-8.02c-3.15-8-14.11-19.18-19.47-23.98c-4.12-3.68-7.73-5.27-12.98-1.78c-7.44,4.96-14.13,5.1-17.91,0.34
	c-1.09-1.39-1.83-2.63-2.48-3.74c-1.89-3.17-2.92-4.91-10.33-5.4c-10-0.67-10.61-1.37-14.09-8.76l-0.32-0.71
	c-2.41-5.1-4.94-7.12-8.17-9.7c-1.55-1.22-3.28-2.62-5.19-4.52c-1.83-1.83-3.51-3.11-4.85-4.14c-2.83-2.18-4.54-3.47-3.51-6.93
	c1.34-4.47,0.61-7.88-2.37-11.07c-2.71-2.9-4.54-1.87-7.85,0l-0.57,0.34c-2.04,1.13-3.68,1.43-5.06,0.88
	c-1.28-0.52-2.25-1.76-2.86-3.74c-0.48-1.51-1.66-2.71-3.25-3.26c-1.53-0.53-3.15-0.4-4.33,0.38c-3.02,2.02-5.63,1.41-10.71-2.52
	c-3.53-2.73-6.11-5.76-7.86-9.16c-2.04,2.04-9.47,9.85-14.09,19.66c-4.94,10.5-3.04,17.33-0.63,25.98c0.23,0.78,0.44,1.57,0.67,2.37
	c1.22,4.5,1.26,6.97,0.1,8.48c-1.58,2.08-5.25,2.08-11.36,2.08h-0.73c-2.37,0-3.84,0.48-4.35,1.43c-1.01,1.91,1.64,5.84,3.57,8.7
	c0.84,1.24,1.57,2.31,2,3.17c1.85,3.72,4.98,5.61,9.3,5.61c4.47,0,9.45,2.2,9.93,8.3l0.1,1.03c0.4,4.66,0.17,4.81-5.33,8.51
	l-1.18,0.8c-4.35,2.94-3.82,5.29-2.75,9.96c0.55,2.44,1.24,5.46,1.41,9.39c0.29,7.22,3,9.39,5.63,11.49
	c1.41,1.15,2.88,2.31,3.89,4.24c2.37,4.54,0.34,7.9-1.99,11.82c-0.55,0.9-1.13,1.85-1.68,2.88c-1.91,3.53,1.26,6.03,5.59,8.95
	c1.03,0.69,1.99,1.34,2.71,1.97c2.56,2.2,8.46,6.39,10.59,7.9c0.57-4.1,2.44-6.74,5.23-10.67l0.23-0.32
	c0.55-0.78,1.09-1.62,1.62-2.44c1.99-3.11,3.88-6.05,6.97-6.66c2.1-0.4,4.49,0.36,7.27,2.35c8.4,5.97,10.44,6.07,20.21,6.49
	l0.48,0.04c11.42,0.5,15.75,5.36,18.75,10.56c3.61,6.26,7.88,9.07,13.88,9.07c7.04,0,12.31,3.32,20.18,8.78
	c2.46,1.7,4.56,2.69,6.41,3.55c4.22,1.99,6.99,3.3,8,10.77c1.11,8.4,3.46,16.68,4.22,19.32c2.16-1.97,4.62-3.76,7.71-5.36
	c0.86-0.44,1.76-0.92,2.69-1.41c4.26-2.25,9.16-4.85,14.01-6.47c0.48-0.27,2.27-1.43,2.83-3.51c0.46-1.66,0.04-3.55-1.26-5.59
	c-0.95-1.49-1.83-2.75-2.62-3.88c-2.9-4.1-4.64-6.6-4.09-12.69C361.89,661.28,360.82,654.64,357.81,648.19"/>
<g>
	<path class="st1" d="M430.84,540.91l-2.88,3.61h2.23l3.93-3.61H430.84z M430.64,566.4h-2.73v-8.88l-6.6-12.04h3.07l2.94,5.76
		c0.8,1.58,1.43,2.86,2.08,4.31h0.06c0.59-1.36,1.32-2.73,2.12-4.31l3.02-5.76h3.07l-7.02,12.01V566.4z M406.65,566.4h2.71v-7.98
		l1.99-2.29l6.89,10.27h3.19l-8.17-12.04l7.58-8.88h-3.34l-6.39,7.85c-0.53,0.69-1.09,1.43-1.66,2.23h-0.08v-10.08h-2.71V566.4z
		 M402.72,563.57c-1.09,0.53-2.77,0.88-4.41,0.88c-5.1,0-8.04-3.3-8.04-8.42c0-5.5,3.25-8.63,8.15-8.63c1.74,0,3.21,0.36,4.22,0.86
		l0.65-2.2c-0.71-0.38-2.35-0.94-4.96-0.94c-6.49,0-10.92,4.45-10.92,11c0,6.85,4.43,10.58,10.33,10.58c2.56,0,4.54-0.5,5.54-0.99
		L402.72,563.57z M368.53,545.48v12.31c0,6.49,3.23,8.95,7.52,8.95c4.52,0,7.9-2.63,7.9-9.07v-12.2h-2.73v12.39
		c0,4.62-1.99,6.66-5.08,6.66c-2.81,0-4.89-1.99-4.89-6.66v-12.39H368.53z M355.53,547.33c4.5,0,6.66,4.35,6.66,8.51
		c0,4.75-2.41,8.69-6.7,8.69c-4.26,0-6.66-3.99-6.66-8.48C348.83,551.47,351.06,547.33,355.53,547.33 M355.64,545.13
		c-5.57,0-9.72,4.35-9.72,11c0,6.32,3.89,10.61,9.41,10.61c5.34,0,9.72-3.82,9.72-11.01C365.06,549.5,361.37,545.13,355.64,545.13
		 M340.37,566.4h2.63l-1.3-20.92h-3.44l-3.72,10.12c-0.94,2.63-1.68,4.94-2.21,7.04h-0.1c-0.53-2.18-1.24-4.47-2.1-7.04l-3.57-10.12
		h-3.46l-1.45,20.92h2.58l0.55-8.97c0.19-3.13,0.34-6.64,0.4-9.26h0.06c0.59,2.48,1.43,5.19,2.42,8.13l3.38,9.96h2.06l3.68-10.14
		c1.05-2.9,1.93-5.5,2.63-7.96h0.1c-0.02,2.62,0.15,6.13,0.32,9.05L340.37,566.4z M309.18,547.33c4.5,0,6.68,4.35,6.68,8.51
		c0,4.75-2.42,8.69-6.72,8.69c-4.24,0-6.66-3.99-6.66-8.48C302.48,551.47,304.72,547.33,309.18,547.33 M309.3,545.13
		c-5.57,0-9.72,4.35-9.72,11c0,6.32,3.89,10.61,9.41,10.61c5.34,0,9.72-3.82,9.72-11.01C318.71,549.5,315.02,545.13,309.3,545.13
		 M287.38,566.4h11.64v-2.27h-8.93v-18.65h-2.71V566.4z M274.35,547.33c4.5,0,6.68,4.35,6.68,8.51c0,4.75-2.42,8.69-6.7,8.69
		c-4.26,0-6.68-3.99-6.68-8.48C267.65,551.47,269.88,547.33,274.35,547.33 M274.48,545.13c-5.59,0-9.72,4.35-9.72,11
		c0,6.32,3.88,10.61,9.41,10.61c5.33,0,9.72-3.82,9.72-11.01C283.89,549.5,280.19,545.13,274.48,545.13"/>
</g>
</svg>
