<?xml version="1.0" encoding="utf-8"?>
<!-- Generator: Adobe Illustrator 26.2.1, SVG Export Plug-In . SVG Version: 6.00 Build 0)  -->
<svg version="1.1" id="Vrstva_1" xmlns="http://www.w3.org/2000/svg" xmlns:xlink="http://www.w3.org/1999/xlink" x="0px" y="0px"
	 viewBox="0 0 595.28 841.89" style="enable-background:new 0 0 595.28 841.89;" xml:space="preserve">
<style type="text/css">
	.st0{fill:#C4E6F5;}
	.st1{fill:#FFFFFF;}
</style>
<path class="st0" d="M409.71,176.8c-0.65,0.8-1.36,1.68-2.16,2.66c-5.16,6.22-10.02,11.71-17.31,15.91
	c-2.81,1.63-6.2,3.48-9.75,5.47c-5.72,3.16-12.2,6.73-17.92,10.19c-7.06,4.27-5.18,12.45-3.79,18.42c0.34,1.51,0.63,2.81,0.77,3.88
	c0.25,2.35-0.21,4.25-1.38,5.66c-1.43,1.72-3.84,2.7-7.4,2.98l-1.15,0.1c-3.42,0.29-7.65,0.65-12.59,0.65
	c-3.08,0-6.43-0.13-10.04-0.52l-1.24-0.13c-8.93-0.9-9.87-0.99-16.83-3.21c-2.68-0.84-4.28-1.49-5.57-2.03
	c-2.16-0.88-3.48-1.42-7.94-2.07c-0.67-0.1-1.38-0.29-2.1-0.52c-1.05,3.12-6.29,18.88-8.13,25.61c-0.63,2.31-0.88,4.53-1.13,6.69
	c-0.55,4.72-1.01,8.8-5.43,11.38l-0.44,0.25c-5.74,3.37-10.69,6.25-10.69,12.39c0,1.61-0.17,3.02-0.33,4.27
	c-0.46,4.04-0.77,6.69,4.57,11.3c5.26,4.51,6.16,7.36,7.21,10.67c0.44,1.4,0.9,2.87,1.74,4.61c2.81,5.81,3.77,7.46,9.33,10
	c4.99,2.31,12.7,4.36,17.98,2.62c4.74-1.59,4.97-5.37,4.97-12.49c0-1.42-0.06-2.66-0.11-3.75c-0.21-4.42-0.33-6.85,4.27-9.77
	c5.39-3.44,8.03-4.25,14.31,1.07c12.85,10.88,22.99,16.83,30.1,17.71c3.5,0.42,7.42,0.17,11.21-0.06c7.38-0.48,14.36-0.92,17.77,3.6
	c0.71,0.92,1.36,1.84,1.97,2.7c3.83,5.34,6.6,9.2,14.15,9.2c4.48,0,10.4-0.38,16.68-0.78c6.27-0.4,12.78-0.82,17.73-0.82
	c2.37,0,4.36,0.08,6.12,0.15c5.47,0.23,8.78,0.36,14.8-2.28c8.42-3.67,11.36-4.04,20.91-2.56c2.39,0.38,5.03,1.01,7.8,1.68
	c8.24,1.97,16.75,4.02,18.55-0.84c0.78-2.12,1.87-4.36,3.04-6.75c2.66-5.43,5.66-11.59,5.05-16.98c-0.94-7.98-3.44-16.47-6.1-20.69
	c-0.86-1.36-2.18-2.96-3.58-4.67c-3.06-3.73-6.52-7.98-7.25-12.01c-0.42-2.33-1.32-4.19-2.2-5.95c-1.22-2.49-2.51-5.07-2.51-9.01
	c0-5.34,4.69-6.41,10.1-7.65c1.95-0.44,3.96-0.9,5.97-1.59c7.78-2.68,13.12-9.35,14.36-14.57c1.34-5.51-1.01-13.66-2.91-20.2
	l-0.15-0.54c-1.93-6.71-4.34-15.05,1.32-23.81c2.22-3.44,4.88-7.36,7.44-11.15c4-5.89,7.77-11.46,9.7-14.88
	c2.49-4.46,3.69-8.7,3.69-12.99c0-2.41-0.29-8.26-0.42-10.62c-0.98,0.33-2.05,0.61-3.23,0.88l-0.9,0.19
	c-9.26,2.03-23.03,5.03-24.08,13.08c-0.17,1.34-0.31,2.68-0.44,4c-0.73,7.19-1.38,13.6-8.7,18.55c-7.75,5.22-8.05,6.73-9.14,12.16
	l-0.25,1.22c-0.73,3.48-2.12,5.49-4.36,6.68c-2.16,1.17-5.09,1.51-8.93,1.74c-3.83,0.25-7.42-0.06-11.04-1.09
	c-3.6-1.05-7.19-2.85-11.02-5.62c-2.85-2.08-7.25-5.49-11.9-9.08c-7.52-5.83-15.74-12.2-19.39-14.46c-1.38-0.84-2.43-1.72-3.29-2.68
	c-1.45,0.29-6.14,1.19-9.95,1.84C414.55,170.81,413.03,172.68,409.71,176.8"/>
<path class="st0" d="M302.69,358.4c-0.9,3.39-1.87,6.04-2.74,8.4c-1.53,4.17-2.74,7.46-2.74,12.49c0,1.93,0.29,3.86,0.57,5.72
	c0.88,5.8,1.7,11.28-6.66,14.73c-10.63,4.38-11.4,13.14-10.16,19.7c1.32,7.08,11.04,13.48,22.13,14.61
	c11.88,1.22,19.66,4.07,27.73,10.19c3.29,2.49,5.72,3.6,7.86,4.57c3.33,1.53,5.95,2.74,9.64,8.13c5.95,8.68,6.69,9.79,11.36,9.35
	c1.13-0.1,2.07-0.27,2.89-0.44c2.96-0.57,4.74-0.94,8.15,3.42c1.68,2.14,3.84,2.47,6.14,2.81c2.89,0.44,6.18,0.92,8.34,5.53
	c2.91,6.18,7.38,8.76,8.87,9.49c0.76-1.84,2.14-3,4.69-4.71l0.65-0.42c5.03-3.37,8.05-5.39,12.32-2.79
	c3.94,2.41,5.11,2.87,11.36,0.19c2.56-1.09,5.66-0.98,8.64-0.86c4.84,0.19,9.03,0.36,10.71-4.07c0.55-1.47,1.01-2.85,1.43-4.19
	c1.78-5.49,3.14-9.81,10.12-9.45c3.83,0.23,7.29-0.84,10.92-1.99c3.71-1.17,7.55-2.37,11.95-2.12c3.4,0.19,5.36-0.42,7.23-1.01
	c2.7-0.84,5.01-1.57,10.54,0.36c8.15,2.85,36.8,12.03,42.59,13.89c-2.43-8.68-4.23-15.65,0.82-26.39
	c4.93-10.48,13.01-18.71,14.61-20.29c-0.57-1.28-1.03-2.62-1.38-4c-1.19-4.74-0.5-8.76-0.23-9.96c-1.05-0.84-1.76-1.97-2.52-3.17
	c-1.2-1.93-2.58-4.11-5.81-5.91c-7.42-4.19-9.83-8.07-11.72-18.93c-1.28-7.42-7.48-14.54-12.45-20.25
	c-1.95-2.24-3.79-4.34-5.05-6.16c-3.58-5.13-4.51-12.43-4.74-15.45c-3.5,2.95-11.04,1.15-18.38-0.61c-2.75-0.67-5.37-1.3-7.71-1.66
	c-9.26-1.42-12.11-1.07-20.25,2.49c-6.27,2.74-9.87,2.58-15.32,2.37c-1.76-0.08-3.73-0.15-6.08-0.15c-4.92,0-11.4,0.42-17.65,0.82
	c-6.29,0.4-12.22,0.78-16.75,0.78c-8.17,0-11.23-4.28-15.09-9.68c-0.63-0.88-1.26-1.76-1.95-2.68c-3.02-4.02-9.72-3.6-16.77-3.16
	c-3.84,0.25-7.8,0.5-11.42,0.06c-7.36-0.9-17.69-6.94-30.72-17.98c-5.6-4.72-7.57-4.38-12.93-0.98c-4.02,2.56-3.92,4.38-3.73,8.74
	c0.06,1.11,0.11,2.37,0.11,3.81c0,7.44-0.27,11.74-5.78,13.58c-1.61,0.54-3.4,0.73-5.28,0.71
	C303.49,338.72,304.93,350.08,302.69,358.4"/>
<path class="st0" d="M239.24,282.8c-4.36,5.57-8.87,2.07-16.37-3.71l-0.69-0.54c-4.44-3.42-7.88-3.27-11.53-3.1
	c-2.75,0.11-5.58,0.25-8.91-1.17c-7.17-3.04-14.94,0.73-22.45,4.36l-0.38,0.19c-7.04,3.42-14.33,6.94-25,1.38
	c-6.41-3.37-8.91-1.22-12.07,1.49c-1.55,1.34-3.33,2.85-5.76,3.79c-6.9,2.68-13.31,5.87-21.69,17.86c-3.42,4.9-6.85,6.31-10.02,6.31
	c-2.33,0-4.55-0.77-6.56-1.43c-2.24-0.77-4.36-1.47-6.14-0.99c-2.96,0.8-4.86,0.9-6.27,0.31c-1.55,0.84-10.65,5.91-10.46,10.77
	c0.21,5.43-1.21,8.13-3.56,12.6l-0.63,1.19c-0.71,1.36-1.7,2.72-2.75,4.13c-3.16,4.23-6.39,8.61-3.63,14.8
	c1.82,4.04,7.88,5.76,14.31,7.57c6.71,1.91,13.68,3.88,16.33,8.86l1.07,2.01c4.13,7.8,5.37,10.16,13.45,9.35
	c2.07-0.21,4.57-0.71,7.23-1.24c8.99-1.78,20.2-4.02,23.54,3.63c4.49,10.21,11.46,11.19,15.21,10.86l0.65-0.06
	c5.05-0.44,9.05-0.8,12.28,6.83c3.08,7.25,12.16,8.32,17.31,8.32c3.35,0,11.46,1.07,14.29,10.94c2.07,7.29,12.45,17.46,13.85,18.8
	c3.39,0.08,6.31,0.44,8.91,0.77c7.15,0.9,11.09,1.4,14.1-5.24c0.46-0.99,0.88-1.97,1.32-2.95c3.65-8.34,7.11-16.22,15.4-13.6
	c7.44,2.33,22.65,4.51,26.59,5.07c-0.15-0.44-0.27-0.88-0.34-1.32c-1.07-5.72-1.09-16.05,10.86-21c7.52-3.1,6.83-7.67,5.95-13.46
	c-0.29-1.89-0.59-3.86-0.59-5.89c0-5.24,1.24-8.63,2.81-12.89c0.84-2.33,1.82-4.95,2.7-8.3c2.22-8.24,0.67-19.95,0.33-22.28
	c-4.28-0.29-8.82-1.68-12.36-3.31c-5.91-2.74-7-4.57-9.89-10.58c-0.88-1.82-1.38-3.39-1.82-4.76c-1.03-3.27-1.84-5.85-6.85-10.14
	c-5.81-5.01-5.45-8.24-4.97-12.32c0.15-1.28,0.31-2.6,0.31-4.13c0-2.68,0.86-4.8,2.24-6.58c-2.66-0.69-10.73-2.89-15.19-5.39
	C248.6,275.89,243.45,277.42,239.24,282.8"/>
<path class="st0" d="M225.17,179.27c-1.66,0.08-8.76,0.38-18.86,0.38c-7.99,0-12.6,3.44-17.94,7.44c-2.28,1.7-4.63,3.46-7.38,5.05
	c-4.27,2.47-7.4,3.02-9.6,1.76c-2.14-1.24-3.17-4.07-3.17-8.66c0-4.69-1.47-8.43-3.96-10.02c-2.01-1.28-4.63-1.19-7.78,0.27
	c-4.93,2.28-6.79,7.67-8.59,12.91c-1.32,3.84-2.58,7.48-5.03,9.43c-5.87,4.65-11.93,5.07-24.06,1.7
	c-7.42-2.07-12.32-0.17-17.06,1.66c-2.98,1.15-5.81,2.24-9.08,2.24c-8.99,0-17.12,2.37-22.28,6.5c-5.18,4.17-11,8.17-18.34,9.39
	c-0.82,0.13-1.61,0.21-2.37,0.21c-1.64,0-3.12-0.33-4.51-0.88c-1.4,3.42-9.01,21.78-14.69,29.38c-2.87,3.83-4.57,7.21-5.07,10.19
	c-0.02,0.04,0,0.06-0.02,0.08c-0.63,3.81,0.67,7,3.86,9.74c2.33,2.01,5.3,2.96,8.45,3.98c5.36,1.74,11.44,3.69,16.79,11.23
	c7.25,10.19,7.94,10.25,13.18,10.71c0.78,0.08,1.64,0.13,2.66,0.25c7.63,0.88,11.11,1.28,12.6,7.31c0.69,2.7,1.43,4.13,2.54,4.78
	c1.15,0.69,2.93,0.63,5.89-0.17c2.14-0.57,4.42,0.19,6.83,1.01c4.84,1.64,9.83,3.33,15.26-4.44c8.55-12.26,15.13-15.53,22.22-18.28
	c2.24-0.86,3.84-2.26,5.41-3.6c3.21-2.75,6.25-5.36,13.35-1.63c10.16,5.3,17.18,1.89,23.97-1.4l0.38-0.19
	c7.38-3.58,15.76-7.63,23.41-4.38c3.08,1.3,5.66,1.19,8.42,1.07c3.69-0.17,7.52-0.34,12.3,3.35l0.69,0.52
	c7.61,5.89,11.09,8.59,14.75,3.92c4.51-5.78,10.35-7.46,15.61-4.49c4.65,2.64,13.73,4.99,15.45,5.43c2.12-2.28,5.11-4.02,8.21-5.83
	l0.44-0.25c3.9-2.3,4.32-5.91,4.84-10.52c0.25-2.08,0.52-4.44,1.19-6.87c1.84-6.77,7.12-22.63,8.13-25.69
	c-6.56-2.62-15.34-9.89-22.03-16.03c-3.6-3.31-8.17-5.43-12.6-7.48c-2.52-1.17-5.13-2.37-7.54-3.77
	c-6.69-3.94-10.96-14.46-12.26-19.47c-1.28-4.9-2.79-7.15-4.63-6.89c-0.34,0.06-0.78,0.15-1.26,0.25c-1.89,0.42-4.48,0.99-6.02-0.31
	C225.56,179.92,225.35,179.61,225.17,179.27"/>
<g>
	<path class="st1" d="M341.56,349.37l-2.91,3.61h2.26l3.94-3.61H341.56z M341.36,374.9h-2.74v-8.89l-6.64-12.07h3.08l2.96,5.78
		c0.8,1.59,1.43,2.87,2.08,4.32h0.06c0.59-1.36,1.3-2.74,2.12-4.32l3-5.78h3.08l-7.02,12.03V374.9z M317.32,374.9h2.7v-7.99
		l1.99-2.3l6.9,10.29h3.21l-8.19-12.07l7.59-8.89h-3.37l-6.41,7.86c-0.52,0.69-1.09,1.43-1.64,2.24h-0.1v-10.1h-2.7V374.9z
		 M313.36,372.07c-1.09,0.54-2.75,0.88-4.42,0.88c-5.09,0-8.05-3.31-8.05-8.43c0-5.51,3.27-8.65,8.19-8.65
		c1.74,0,3.19,0.36,4.23,0.86l0.65-2.2c-0.71-0.38-2.35-0.94-4.97-0.94c-6.5,0-10.94,4.46-10.94,11.02c0,6.87,4.44,10.6,10.35,10.6
		c2.54,0,4.55-0.5,5.55-0.99L313.36,372.07z M291.85,374.9h2.7v-20.96h-2.7V374.9z M277.69,364.86h2.24c2.96,0,5.41,1.19,5.41,4.04
		c0,3.04-2.58,4.07-5.37,4.07c-0.98,0-1.74-0.02-2.28-0.11V364.86z M277.69,356.06c0.44-0.1,1.15-0.19,2.39-0.19
		c2.74,0,4.61,0.96,4.61,3.42c0,2.01-1.68,3.5-4.53,3.5h-2.47V356.06z M275,374.85c0.9,0.11,2.33,0.25,4.19,0.25
		c3.42,0,5.8-0.63,7.25-1.97c1.05-1.01,1.78-2.39,1.78-4.19c0-3.12-2.33-4.76-4.32-5.26v-0.06c2.2-0.82,3.54-2.58,3.54-4.61
		c0-1.64-0.65-2.89-1.74-3.71c-1.3-1.05-3.04-1.51-5.76-1.51c-1.89,0-3.77,0.19-4.93,0.44V374.85z M254.84,353.94v12.36
		c0,6.48,3.23,8.95,7.52,8.95c4.55,0,7.94-2.64,7.94-9.08v-12.22h-2.74v12.41c0,4.63-1.99,6.68-5.11,6.68
		c-2.79,0-4.88-1.99-4.88-6.68v-12.41H254.84z M236.86,356.22c0.71-0.15,1.78-0.29,3.17-0.29c5.72,0,8.51,3.14,8.49,8.09
		c0,5.66-3.14,8.89-8.93,8.89c-1.05,0-2.05-0.04-2.74-0.15V356.22z M234.14,374.85c1.38,0.15,3,0.25,4.92,0.25
		c4.07,0,7.33-1.07,9.28-3.02c1.95-1.93,3.02-4.72,3.02-8.15c0-3.39-1.09-5.81-2.96-7.54c-1.84-1.7-4.59-2.6-8.49-2.6
		c-2.14,0-4.09,0.19-5.76,0.44V374.85z M220.12,356.12c0.44-0.13,1.38-0.25,2.68-0.25c2.87,0.02,4.82,1.2,4.82,3.92
		c0,2.39-1.84,3.98-4.72,3.98h-2.77V356.12z M217.43,374.9h2.7v-9.08h2.54c2.47,0.1,3.58,1.19,4.21,4.07
		c0.59,2.62,1.05,4.42,1.4,5.01h2.79c-0.42-0.8-0.92-2.83-1.61-5.76c-0.5-2.18-1.45-3.67-3.08-4.23v-0.1
		c2.2-0.75,3.94-2.58,3.94-5.36c0-1.61-0.57-3.04-1.64-3.98c-1.3-1.19-3.17-1.7-6.06-1.7c-1.86,0-3.83,0.15-5.18,0.44V374.9z
		 M202.34,366.2h6.31l-2.05-6.04c-0.48-1.36-0.78-2.6-1.09-3.83h-0.06c-0.33,1.24-0.67,2.52-1.07,3.81L202.34,366.2z M209.2,368.3
		h-7.42l-2.18,6.6h-2.81l7.13-20.96h3.27l7.15,20.96h-2.91L209.2,368.3z M187.15,356.14c0.48-0.11,1.38-0.21,2.56-0.21
		c2.98,0,4.93,1.34,4.93,4.11c0,2.89-1.99,4.48-5.26,4.48c-0.9,0-1.64-0.06-2.24-0.23V356.14z M184.45,374.9h2.7v-8.4
		c0.63,0.15,1.38,0.19,2.18,0.19c2.64,0,4.97-0.78,6.41-2.31c1.07-1.09,1.63-2.58,1.63-4.48c0-1.86-0.69-3.39-1.84-4.38
		c-1.24-1.13-3.21-1.74-5.89-1.74c-2.16,0-3.88,0.19-5.18,0.4V374.9z"/>
</g>
</svg>
