<?xml version="1.0" encoding="utf-8"?>
<!-- Generator: Adobe Illustrator 26.2.1, SVG Export Plug-In . SVG Version: 6.00 Build 0)  -->
<svg version="1.1" id="Vrstva_1" xmlns="http://www.w3.org/2000/svg" xmlns:xlink="http://www.w3.org/1999/xlink" x="0px" y="0px"
	 viewBox="0 0 595.28 841.89" style="enable-background:new 0 0 595.28 841.89;" xml:space="preserve">
<style type="text/css">
	.st0{fill:#45B0E5;}
	.st1{fill:#FFFFFF;}
</style>
<path class="st0" d="M333.09,398.87c0.94,2.68,0.67,5.61-0.82,8.47c-2.09,4.07-1.42,5.51,0.22,9.01c0.65,1.37,1.46,3.09,2.26,5.35
	c1.32,3.69,0.63,8.2-0.03,12.57c-0.81,5.33-1.58,10.4,1.27,13.5c2.21,2.42,5.09,4.19,7.91,5.88c3.95,2.4,8.05,4.89,10.02,9.23
	c0.98,2.14,1.01,3.83,0.53,5.21c2.16,0.17,8.92,0.55,13.83-0.79c5.97-1.61,9.04-1.77,16.47-1.44c7,0.29,9.21-0.53,12.35-3.17
	c0.75-0.63,1.41-1.24,2.02-1.84c1.99-1.9,3.57-3.41,6.72-3.41c3.64,0,5.01-0.94,6.07-4.25c1.2-3.69,2.9-4.82,9.11-6.09
	c5.69-1.15,7.51-3.71,8.63-7.43c0.72-2.42,2.13-5.09,4.19-6.98c-1.01-0.84-3.53-3.07-6.96-7.2c-1.77-2.14-2.71-3.84-3.55-5.33
	c-1.25-2.26-2.26-4.07-5.57-6.47c-2.06-1.51-4.13-3.83-6.14-6.09c-3.43-3.86-6.98-7.84-10.03-7.07c-0.96,0.26-1.77,0.51-2.45,0.74
	c-3.41,1.1-4.53,1.2-7.46-3.53c-1.1-1.78-1.77-3.16-2.28-4.24c-1.11-2.3-1.58-3.24-4.56-4.58c-6.11-2.71-8.8-6.26-7.99-10.52
	c0.33-1.7,0.86-2.88,1.27-3.84c0.79-1.78,1.06-2.38-0.87-3.96c-2.73-2.23-3.96-5.8-4.41-7.36c-0.77,0.15-1.7,0.17-2.8-0.02
	c-4.89-0.86-7.29-2.01-10.79-3.65c-0.75-0.36-1.54-0.74-2.35-1.1c-2.35-1.08-4.13-1.44-5.56-0.91c-1.41,0.53-2.54,1.96-3.57,4.44
	c-0.26,0.67-0.51,1.32-0.77,1.97c-1.92,5.01-3.95,10.27-9.95,8.15c-1.48-0.53-2.66-1.03-3.67-1.46c-3.24-1.39-4.6-1.96-7.46,0.55
	c-1.06,0.91-2.14,1.97-3.07,3.1c-1.15,1.37-2.08,2.85-2.44,4.25c-0.34,1.34-0.19,2.64,0.79,3.76c0.17,0.19,0.38,0.39,0.6,0.58
	c4.03,3.34,3.22,5.39,2.06,7.38C328.75,392.55,331.88,395.43,333.09,398.87"/>
<path class="st0" d="M377.88,369.78c2.56,2.09,2.01,3.33,1.17,5.2c-0.39,0.91-0.89,2.04-1.18,3.62c-0.72,3.77,1.68,6.83,7.38,9.37
	c3.34,1.48,3.93,2.68,5.08,5.06c0.51,1.08,1.15,2.42,2.25,4.17c2.61,4.24,3.24,4.03,6.23,3.07c0.72-0.22,1.54-0.5,2.52-0.74
	c3.67-0.94,7.27,3.1,11.08,7.38c1.96,2.21,4,4.49,5.97,5.94c3.5,2.54,4.61,4.51,5.88,6.81c0.81,1.46,1.73,3.1,3.45,5.18
	c3.55,4.29,6.16,6.52,6.98,7.19c1.46-1.1,3.19-1.8,5.21-1.85c1.92-0.03,3.48-0.43,4.87-0.79c2.47-0.62,4.6-1.17,7.34,0.79
	c3.91,2.81,10.4,3.69,14.41,2.01c-0.91-5.3,0.19-11.65,3.04-16.26c1.49-2.4,2.69-5.06,3.84-7.65c1.29-2.86,2.62-5.83,4.37-8.46
	c3.38-5.06,6.38-5.85,11.41-6.79c1.27-0.24,2.13-0.94,2.52-2.08c0.79-2.32-0.38-5.57-1.27-6.6c-1.73-1.94-2.3-5.44,1.24-9.4
	c1.9-2.16,3.81-2.18,5.33-2.21c1.32-0.02,2.21-0.03,2.9-1.29c1.6-2.92,0.57-5.45-0.93-6.84c-0.38-0.36-0.81-0.69-1.27-1.05
	c-1.56-1.18-3.34-2.52-2.88-4.87c0.51-2.74,4.82-8.01,10.09-9.74c5.32-1.73,8.63,1.44,10.12,3.48c0.86,1.15,3.21,2.56,5.33,2.8
	c0.77,0.09,1.85,0.05,2.62-0.63l0.12-0.1c2.4-2.08,5.68-4.94,8.27-10.39c2.56-5.44,6.79-5.37,10.88-5.33
	c0.39,0.02,0.79,0.02,1.18,0.02c3.72,0,5.39-1.61,6.14-5.94c0.7-4,4.07-6.43,4.63-6.81c0.15-3.38,0.82-7.26,1.51-11.08
	c0.6-3.41,1.18-6.78,1.37-9.64c0.19-2.85,0.05-5.47-0.57-7.27c-0.33-0.93-0.75-1.63-1.3-2.04c-0.53-0.38-1.2-0.48-2.04-0.27
	c-0.96,0.26-2.13,0.96-3.52,2.18c-3.16,2.76-6.23,4.67-8.8,5.21c-0.99,0.21-1.94,0.22-2.78,0c-0.86-0.22-1.61-0.67-2.25-1.39
	c-0.72-0.82-1.27-2.01-1.6-3.57c-0.75-3.55,1.03-5.7,3.16-8.25c2.38-2.83,5.2-6.21,5.04-12.75c-0.26-9.73-4.25-11.54-9.31-13.83
	c-1.24-0.55-2.56-1.15-3.89-1.89c-2.81-1.56-4.43-2.93-5.69-4.01c-1.78-1.51-2.86-2.44-5.88-2.49c-2.73-0.05-4.39-0.1-5.54-0.67
	c-1.24-0.58-1.84-1.63-2.38-3.67c-0.39-1.46-1.03-3.04-1.84-4.13c-0.41-0.57-0.87-0.98-1.34-1.18c-0.43-0.17-0.89-0.15-1.39,0.14
	c-0.43,0.26-0.89,0.7-1.37,1.42c-3.19,4.67-3.33,4.58-7.63,1.84l-0.58-0.38c-1.46-0.93-2.95-1.58-4.32-1.84
	c-0.94-0.15-1.82-0.14-2.59,0.14c-0.74,0.26-1.37,0.75-1.87,1.51c-0.39,0.63-0.69,1.44-0.87,2.44c-0.55,3.09-1.49,4.53-2.83,4.85
	c-1.32,0.33-2.92-0.48-4.87-1.89c-3.31-2.38-3.84-3.98-4.67-6.48c-0.12-0.36-0.26-0.74-0.41-1.22c-0.07-0.19-0.15-0.36-0.24-0.5
	c-0.33-0.48-0.82-0.7-1.44-0.74c-0.67-0.05-1.49,0.12-2.35,0.43c-1.46,0.51-3.04,1.42-4.31,2.26c-1.63,1.08-3.31,1.78-5.2,1.48
	c-1.87-0.29-3.86-1.58-6.09-4.44c-1.13-1.46-2.18-2.35-3.12-2.78c-0.62-0.27-1.2-0.36-1.73-0.29c-0.53,0.09-1.05,0.33-1.53,0.7
	c-0.96,0.74-1.78,1.97-2.47,3.5c-0.74,1.61-1.54,2.76-2.23,3.72c-1.15,1.63-1.87,2.66-0.86,4.48c0.36,0.67,0.84,1.32,1.27,1.9
	c0.69,0.91,1.27,1.7,1.3,2.42c0.03,1.13-1.12,1.85-4.92,2.01c-3.76,0.15-4.97,0.82-4.92,1.92c0.03,0.98,0.94,2.4,2.02,4.08l0.1,0.15
	c0.53,0.84,1.01,1.78,1.49,2.71c1.66,3.24,3.22,6.31,7.43,4.1c3.02-1.6,5.35-2.11,7.31-1.77c1.97,0.36,3.52,1.6,4.97,3.53
	c1.46,1.94,2.38,3.65,2.28,4.94c-0.1,1.44-1.32,2.32-4.19,2.37c-2.47,0.05-4.43,0.31-5.59,1.1c-1.08,0.74-1.49,1.99-1.03,4.08
	c0.86,3.89,6.54,3.88,12.8,3.84h1.61c1.22,0,2.38-0.05,3.5-0.09c5.94-0.24,11.01-0.43,11.84,5.61l0.1,0.7
	c0.46,3.48,1.05,7.7,0.62,10.91c-0.45,3.28-1.9,5.51-5.44,5.03c-3.33-0.46-5.28-0.67-6.62-0.19c-1.3,0.45-2.14,1.58-3.28,3.83
	c-0.55,1.12-0.79,2.04-0.98,2.8c-0.65,2.68-0.87,3.52-9.59,3.52c-4.03,0-7.7-0.7-10.94-1.32c-5.54-1.05-9.76-1.85-12.14,1.63
	c-0.91,1.3-1.68,2.64-2.45,3.95c-2.71,4.61-5.16,8.78-11.1,9.69c-2.66,0.39-5.47,0.34-8.27,0.29c-4.94-0.1-9.88-0.19-13.91,2.3
	c-3.21,1.99-6.76,4.37-9.76,6.86c-2.95,2.47-5.37,5.06-6.36,7.48c-0.38,0.94-0.69,1.85-0.98,2.71c-0.98,2.81-1.84,5.27-3.93,6.21
	C374.21,364.34,375.39,367.74,377.88,369.78"/>
<path class="st0" d="M243.51,430.9c1.18,3.07,2.42,6.26,3.48,13.04c1.36,8.63,5.57,11.84,9.64,14.92c0.77,0.58,1.54,1.17,2.28,1.78
	c3.34,2.76,3.38,5.33,3.43,9.21c0.02,1.89,0.05,4.03,0.45,6.69c1.13,7.6,5.13,8.35,10.17,9.33l0.48,0.09
	c5.44,1.05,8.66,4.89,8.22,9.79c-0.34,3.84,2.16,6.76,5.04,10.14l0.99,1.17c2.49,2.95,3.83,8.68,4.19,12.97
	c0.99-0.26,3.02-0.55,6,0.19c3.77,0.94,5.68,0.29,7.86-2.68c2.45-3.34,6.86-5.32,10.93-4.92c4.31,0.43,6.72-2.25,7.43-8.17
	c0.22-1.72-0.09-4.08-0.39-6.59c-0.62-4.92-1.3-10.53,1.48-13.79c1.42-1.65,3.64-2.54,6.6-2.64c12.75-0.39,13.38-1.99,14.92-5.82
	c0.6-1.53,2.01-2.71,3.34-3.84c2.52-2.11,4.91-4.12,2.92-8.46c-1.85-4.05-5.63-6.35-9.61-8.77c-2.86-1.75-5.83-3.55-8.15-6.07
	c-3.19-3.5-2.33-9.02-1.53-14.37c0.65-4.24,1.32-8.63,0.09-12.06c-0.79-2.21-1.58-3.89-2.21-5.25c-1.7-3.62-2.56-5.42-0.22-9.93
	c1.37-2.66,1.63-5.23,0.77-7.65c-1.11-3.16-4.19-5.92-8.87-8.05c-0.67,0.86-1.94,1.03-3.6,1.22c-2.3,0.27-5.37,0.63-8.22,3.12
	c-2.57,2.26-4.46,3.52-6.76,3.91c-2.28,0.39-4.94-0.1-9.06-1.36c-4.08-1.24-6.52-1.01-8.63-0.82s-3.91,0.36-6.6-0.84
	c-0.26-0.1-0.67-0.31-1.1-0.5c-0.94-0.41-1.8-0.81-2.66-1.15c-3.04-1.2-5.2-1.37-6.48,1.9c-1.03,2.57-2.33,4.22-4.05,5.11
	c-1.72,0.89-3.81,1.05-6.42,0.62c-0.79-0.14-1.56-0.29-2.37-0.45c-4.36-0.84-9.18-1.78-13.26,1.48c-0.84,0.65-1.54,1.27-2.18,1.78
	c-1.77,1.49-2.9,2.44-4.39,2.92c0.6,2.62,2.8,12.08,4.19,17.31C242.22,427.59,242.86,429.21,243.51,430.9"/>
<path class="st0" d="M166.46,462.13c0.24,0.26,0.45,0.53,0.67,0.82c1.29,1.63,2.61,3.34,8.51,2.49c3.28-0.46,4.99,0.75,5.87,1.85
	c1.77,2.23,1.66,6.07,0.63,8.71c-0.29,0.75-0.31,1.36-0.05,1.8c0.72,1.29,3.69,1.84,7.44,2.52l1.66,0.29
	c6.07,1.15,6.69,4.36,7.72,9.69c0.15,0.75,0.31,1.56,0.48,2.42c1.29,6.04,4.96,6.55,8.32,6.55c0.45,0,0.94-0.05,1.46-0.1
	c1.63-0.17,3.65-0.38,5.06,0.91c1.13,1.05,1.65,2.92,1.58,5.68c-0.21,8.18,2.62,20.05,5.28,25.18l0.33,0.63
	c1.72,3.28,3.79,7.29,4.67,11.75c1.11,0.7,8.15,4.99,11.44,2.21c5.39-4.53,11.85-5.57,19.76-3.17c9.21,2.81,14.03,2.85,17.14,0.1
	c1.44-1.24,4.53-1.36,7.8-1.49c3.36-0.12,7.17-0.27,8.35-1.78c0.38-0.5,0.48-1.13,0.29-1.96c-1.2-5.47-0.7-8.75-0.26-11.65
	c0.09-0.62,0.19-1.23,0.26-1.85c0.39-3.4-0.84-12.28-3.98-16l-0.98-1.15c-2.93-3.43-5.69-6.66-5.3-10.93
	c0.39-4.41-2.42-7.72-7.38-8.68l-0.48-0.09c-5.23-0.99-9.76-1.87-11.01-10.19c-0.41-2.74-0.43-4.92-0.46-6.83
	c-0.03-3.72-0.07-5.99-3.04-8.44c-0.74-0.6-1.49-1.17-2.25-1.75c-4.24-3.22-8.63-6.55-10.05-15.59c-1.05-6.67-2.25-9.79-3.41-12.83
	c-0.67-1.72-1.3-3.34-1.9-5.57c-1.39-5.23-3.57-14.68-4.19-17.33c-1.01,0.17-2.25,0.19-3.91,0.07c-0.58-0.03-1.29-0.1-2.04-0.17
	c-1.24-0.1-2.57-0.22-3.93-0.27c-4.72-0.19-9.43,0.48-9.64,5.54c-0.1,2.64,0.19,4.63,0.41,6.18c0.48,3.22,0.69,4.61-3,5.75
	c-2.37,0.72-3.64,1.78-4.29,3.17c-0.65,1.44-0.7,3.24-0.6,5.39c0.02,0.51,0.07,1.1,0.1,1.66c0.31,4.05,0.58,7.77-5.13,8.46
	c-2.93,0.34-4.51,0.57-5.27,1.27c-0.72,0.69-0.79,1.99-0.69,4.51l0.02,0.45c0.1,2.49,0.15,3.74-0.7,4.77
	c-0.82,1.01-2.42,1.66-5.63,2.95l-0.45,0.17c-3.5,1.42-5.51,2.08-7.48,1.78c-1.96-0.27-3.77-1.49-6.91-3.79
	c-5.66-4.15-6.18-8.13-6.67-12.01c-0.05-0.41-0.1-0.82-0.17-1.32c-0.51-3.5-0.65-3.55-4.44-4.92c-0.53-0.19-1.11-0.39-1.51-0.55
	c-2.54-0.94-4.05-0.69-4.89,0.45c-0.89,1.18-1.17,3.36-1.17,6.09c0,1.39,0.17,2.83,0.34,4.22c0.34,2.81,0.65,5.45-0.39,7.32
	C160.05,456.76,165.06,460.54,166.46,462.13"/>
<path class="st0" d="M41.35,561.54c1.77,0.26,3.48-0.09,4.37-0.91c2.18-1.96,4.68-2.47,12.42,0.1c3.02,1.01,4.77,1.39,6.47,1.75
	c2.38,0.51,4.63,0.99,9.97,3.19c2.32,0.94,4.32,1.68,6.11,2.33c5.15,1.89,7.99,2.92,8.17,5.7c0.19,2.85,5.32,5.88,12.38,5.66
	c7.15-0.19,10.45,0.21,16.76,5.25c3.62,2.9,3.12,4.34,1.92,6.19c-0.72,1.15-1.48,2.33-0.93,4.55c1.44,5.75,2.5,11.29-0.05,15.97
	c-2.38,4.39-2.52,5.3,0.89,7.96c2.28,1.77,2.66,3.64,3.07,5.59c0.27,1.39,0.57,2.81,1.56,4.37c1.84,2.9,1.9,5.32,0.48,8.83
	c1.11,0.12,3.48,0.39,6.36,0.99c2.26,0.46,4.8,0.77,6.62-0.43c1.2-0.79,1.99-2.16,2.4-4.19c1.29-6.3,2.69-10.33,6.54-13.53
	c2.52-2.11,5.37-4.51,7.86-3.91c1.34,0.31,2.38,1.39,3.21,3.28c2.45,5.59,2.62,5.71,6.19,4.24c3.62-1.48,6.45-5.59,6.45-9.35v-0.34
	c0-3.53,0-4.72,3.29-7.07c1.41-0.99,2.21-3.19,3.07-5.52c0.96-2.66,1.97-5.4,4.01-6.88c3.64-2.62,4.85-3.89,4.1-7.67
	c-0.1-0.5-0.22-0.99-0.33-1.49c-0.86-3.76-1.92-8.41,4-9.79c0.74-0.17,1.46-0.33,2.14-0.48c4.96-1.06,8.54-1.85,11.68-7.07
	c3.74-6.23,4.32-6.42,9.47-6.42c3.02,0,10.27-0.99,12.83-10.27c0.81-2.92,0.79-5.73,0.29-8.39c0-0.02,0-0.02,0-0.03
	c-0.81-4.32-2.85-8.27-4.63-11.68l-0.34-0.65c-3.07-5.92-5.57-17.93-5.39-25.68c0.07-2.42-0.36-4.07-1.25-4.89
	c-1.05-0.96-2.66-0.81-4.24-0.63c-0.55,0.05-1.1,0.1-1.58,0.1c-2.52,0-7.75,0-9.33-7.38c-0.17-0.86-0.33-1.68-0.48-2.44
	c-1.01-5.21-1.51-7.84-6.9-8.85l-1.65-0.31c-4.19-0.75-7.22-1.3-8.18-3.02c-0.41-0.75-0.41-1.63,0-2.71
	c0.89-2.3,1.03-5.78-0.48-7.68c-1.03-1.29-2.68-1.77-4.91-1.46c-6.5,0.93-8.08-1.1-9.49-2.88c-0.19-0.27-0.39-0.53-0.62-0.77
	c-1.32-1.49-6.26-5.23-7.89-6.45c-0.62,0.65-1.49,1.17-2.73,1.49c-1.29,0.33-2.38,0.53-3.33,0.7c-3.16,0.58-4.53,0.84-5.88,5.54
	c-1.48,5.08-4.12,5.42-7.65,4.39c-1.05-0.29-2.14-0.72-3.33-1.17l-0.41-0.15c-2.49-0.94-4.68-1.48-6.95-1.15
	c-2.3,0.33-4.7,1.49-7.67,3.95c-2.98,2.49-5.57,4.87-7.5,7.43c-1.89,2.54-3.1,5.23-3.41,8.35c-0.19,2.08,0.22,4.53,0.65,6.96
	c0.87,5.2,1.77,10.38-2.97,12.59c-3.4,1.6-6.24,1.7-8.75,0.96c-2.47-0.72-4.58-2.26-6.52-4c-0.43-0.39-0.87-0.72-1.32-0.98
	c-1.37-0.81-2.85-1.08-4.31-0.79c-1.48,0.31-2.95,1.18-4.29,2.69c-0.6,0.67-1.15,1.44-1.68,2.33c-2.92,4.99-6.91,5.61-10.45,6.16
	c-0.81,0.12-1.6,0.24-2.37,0.43c-3.21,0.75-4.67-0.87-6.12-2.52c-0.43-0.48-0.87-0.96-1.36-1.37c-0.91-0.77-2.13-0.96-3.74-0.74
	c-1.7,0.24-3.83,0.93-6.47,1.85c-2.57,0.87-4.12,1.75-4.94,3.07c-0.84,1.32-0.99,3.17-0.81,5.99c0.1,1.32,0.27,2.42,0.43,3.41
	c0.57,3.5,0.94,5.76-2.97,11.44c-2.5,3.65-4.72,5.95-7.29,7.44c-0.93,0.53-1.92,0.94-2.97,1.29c0.43,2.4,2.16,11.18,4.73,15.49
	C37.28,560.52,39.93,561.34,41.35,561.54"/>
<path class="st0" d="M327.02,534.28c3.34,4.32,8.25,4.72,16.14,3.89c2.14-0.21,3.81,0.24,4.96,1.34c2.42,2.32,2.14,7.03,1.9,11.2
	c-0.05,0.82-0.1,1.61-0.12,2.37c-0.19,5.51,0.94,7.75,3.21,12.23l0.62,1.25c2.04,4.08,4.72,4.05,8.78,4c0.91,0,1.87-0.02,2.88,0.03
	c5.59,0.21,8.97,2.26,10.33,6.3c0.12,0.39,0.17,0.79,0.15,1.17c2.16,0.67,12.56,3.79,20.16,5.04c6.38,1.06,6.6,1.01,10.4,0.03
	c1.27-0.33,2.86-0.74,5.2-1.25c6.91-1.51,10.89-1.37,16.4-1.18c2.04,0.07,4.34,0.14,7.1,0.14c3.09,0,5.45,0.81,7.32,2.04
	c0.09-0.87,0.39-2.13,1.46-3.33c2.11-2.38,6.12-3.48,11.96-3.21c8.65,0.36,13.17,0.15,15.51-2.08c1.54-1.48,2.2-3.88,2.2-8.08
	c0-11.66,2.45-20.96,6.9-26.18c2.66-3.12,6.74-4.12,11.08-5.18c3.72-0.91,7.58-1.84,11.18-4.15c7.14-4.56,11.78-28.63,12.49-32.51
	c-4.36-0.53-8.01-1.6-11.53-7.67c-1.39-2.44-2.86-4.1-4.17-5.57c-1.97-2.23-3.69-4.15-4.49-7.8c-0.99-4.39-3.36-5.52-5.87-6.72
	c-0.72-0.34-1.48-0.7-2.21-1.15c-2.4-1.48-2.44-2.5-2.52-4.97c-0.03-1.15-0.09-2.59-0.38-4.63c-0.67-4.7-3.43-6.66-6.09-8.56
	c-0.87-0.62-1.72-1.22-2.47-1.89c-2.88-2.61-5.63-7.22-8.13-13.74c-0.27-0.72-0.5-1.46-0.69-2.25c-4.37,1.72-11.01,0.81-15.18-2.2
	c-2.35-1.68-4.08-1.24-6.48-0.62c-1.42,0.36-3.05,0.77-5.09,0.82c-4.94,0.09-8.08,4.77-9.26,8.75c-1.18,3.98-3.24,6.9-9.42,8.15
	c-6.16,1.27-7.31,2.28-8.32,5.4c-1.2,3.72-2.98,4.97-7.07,4.97c-2.74,0-4.12,1.3-6,3.12c-0.6,0.57-1.29,1.24-2.06,1.89
	c-3.33,2.78-5.8,3.71-13.09,3.4c-7.31-0.31-10.31-0.15-16.14,1.42c-2.95,0.81-6.48,1.01-9.37,1.01c-2.45,0-4.43-0.15-5.2-0.22
	c-0.79,1.37-2.06,2.45-3.26,3.48c-1.3,1.1-2.54,2.13-3.05,3.41c-1.8,4.49-3.07,6.07-15.85,6.48c-2.71,0.09-4.61,0.82-5.85,2.28
	c-2.49,2.9-1.82,8.25-1.24,12.97c0.33,2.57,0.62,5.01,0.39,6.84c-0.62,5.13-2.52,7.53-4.7,8.53c2.44,3.26,3.22,7.96,3.91,12.14
	C324.95,528.89,325.51,532.34,327.02,534.28"/>
<path class="st0" d="M145.83,703.77c2.62,3.65,3.5,4.89,7.29,3.4c2.44-0.96,4.77-0.91,6.57,0.1c1.58,0.89,2.62,2.47,2.95,4.41
	c0.17,0.96,0.58,1.6,1.27,1.97c1.25,0.65,3.41,0.38,5.8-0.72c0.82-0.39,2.01-0.5,3.24-0.26c1.39-1.03,11-8.15,15.71-11.73
	c0.81-0.62,1.68-1.25,2.57-1.89c4.58-3.31,9.76-7.05,10.76-12.37l0.14-0.72c1.15-6.21,1.85-9.95,9.93-15.61
	c8.44-5.9,13.76-8.7,19.64-10.33c0.77-0.21,1.53-0.41,2.26-0.58c4.96-1.27,8.54-2.18,9.04-7.17l0.1-1.03
	c0.57-6.09,1.36-14.41,11.9-14.41c1.85,0,3.6,0.03,5.28,0.07c8.15,0.17,14.58,0.31,23.64-3.72c11.27-5.01,17.5-6.86,22.44-3.86
	c4.97,3.04,8.95,2.66,11.82-1.1c0.26-0.36,0.53-0.7,0.81-1.03v-0.02c0,0,0,0,0.02,0c3-3.69,6.72-6.9,14.53-10.81
	c7.89-3.95,10.46-5.37,12.06-9.37c1.7-4.24,4.29-6.83,7.92-7.89c2.02-0.6,3.89-1.22,4.46-2.38c0.29-0.58,0.27-1.32-0.09-2.26
	c-0.1-0.29-0.22-0.58-0.34-0.87c-0.7-1.77-1.51-3.79-0.63-5.63c0.69-1.46,2.33-2.57,5.01-3.41l0.99-0.31
	c5.18-1.63,10.55-3.31,11.68-5.52c0.26-0.48,0.29-0.96,0.1-1.49c-1.2-3.62-4.19-5.4-9.37-5.59c-0.99-0.03-1.94-0.03-2.83-0.02
	c-4.12,0.03-7.39,0.07-9.71-4.58l-0.63-1.25c-2.26-4.49-3.52-6.96-3.33-12.75c0.03-0.75,0.09-1.56,0.12-2.38
	c0.24-3.95,0.5-8.41-1.56-10.4c-0.94-0.89-2.3-1.24-4.13-1.05c-8.06,0.84-13.45,0.39-17.08-4.29c-1.66-2.16-2.25-5.73-2.86-9.5
	c-0.72-4.39-1.48-8.92-3.91-11.96c-0.96,0.26-1.92,0.29-2.85,0.19c-3.72-0.36-7.74,1.44-9.98,4.51c-1.77,2.42-3.5,3.5-5.94,3.5
	c-0.89,0-1.89-0.14-3.02-0.43c-3-0.75-4.94-0.36-5.66-0.15c0.05,1.1,0.03,2.06-0.05,2.78c-0.07,0.63-0.17,1.27-0.26,1.9
	c-0.45,2.93-0.91,5.97,0.26,11.25c0.24,1.13,0.07,2.08-0.5,2.81c-1.48,1.9-5.37,2.06-9.14,2.21c-2.95,0.1-6,0.22-7.15,1.23
	c-3.43,3-8.51,3.04-18.13,0.1c-7.55-2.3-13.69-1.32-18.78,2.97c-0.99,0.84-2.23,1.17-3.55,1.17c-3.12,0-6.66-1.84-8.34-2.81
	c0.33,2.47,0.27,5.08-0.46,7.75c-2.83,10.26-11.3,11.05-13.84,11.05c-4.85,0-5.04,0-8.58,5.9c-3.36,5.61-7.32,6.47-12.35,7.56
	c-0.69,0.14-1.39,0.29-2.13,0.46c-4.92,1.15-4.1,4.73-3.22,8.54c0.12,0.51,0.24,1.03,0.33,1.51c0.87,4.34-0.7,5.99-4.51,8.73
	c-1.78,1.29-2.73,3.88-3.64,6.38c-0.91,2.5-1.77,4.85-3.43,6.04c-2.86,2.02-2.86,2.74-2.86,6.19v0.36c0,4.22-3.05,8.66-7.1,10.33
	c-4.48,1.84-5.09,0.84-7.55-4.79c-0.69-1.58-1.49-2.47-2.49-2.69c-1.97-0.46-4.61,1.75-6.95,3.71c-3.62,3.02-4.92,6.72-6.18,12.92
	c-0.46,2.28-1.42,3.93-2.85,4.87c-1.15,0.74-2.47,1.01-3.84,1.01c-1.2,0-2.42-0.21-3.57-0.45c-3.19-0.65-5.73-0.91-6.6-0.99
	c-0.53,1.2-1.22,2.5-2.08,4.03c-2.42,4.29-3.33,8.65-2.44,11.65c0.43,1.48,1.29,2.56,2.54,3.21c4.2,2.21,6.42,1.78,9.5,1.18
	c1.9-0.36,2.86,0.26,3.33,0.86c0.82,1.06,0.72,2.85-0.31,5.01c-0.79,1.7-0.45,2.56,0.26,4.27c0.57,1.42,1.37,3.36,1.75,6.62
	c0.63,5.57-2.23,6.81-5.54,8.23c-0.38,0.15-0.77,0.33-1.15,0.5c2.11,2.5,11.29,13.4,14.34,17.57
	C145.11,702.77,145.49,703.29,145.83,703.77"/>
<g>
	<path class="st1" d="M396.65,536.22l-2.61,3.22h2.01l3.55-3.22H396.65z M396.48,559.12h-2.45v-7.98l-5.95-10.82h2.76l2.66,5.18
		c0.72,1.42,1.29,2.57,1.87,3.88h0.05c0.53-1.22,1.17-2.45,1.9-3.88l2.69-5.18h2.76l-6.3,10.79V559.12z M374.92,559.12h2.42v-7.17
		l1.78-2.06l6.19,9.23h2.88l-7.34-10.82l6.81-7.98h-3.02l-5.75,7.05c-0.46,0.62-0.98,1.29-1.48,2.01h-0.09v-9.06h-2.42V559.12z
		 M371.37,556.58c-0.98,0.48-2.47,0.77-3.96,0.77c-4.56,0-7.22-2.95-7.22-7.55c0-4.94,2.93-7.75,7.34-7.75
		c1.56,0,2.86,0.33,3.79,0.77l0.58-1.97c-0.63-0.34-2.11-0.84-4.46-0.84c-5.83,0-9.81,4-9.81,9.88c0,6.16,3.98,9.5,9.28,9.5
		c2.28,0,4.08-0.45,4.97-0.89L371.37,556.58z M354.74,548.29h-7.31v-5.94h7.74v-2.04h-10.15v18.8h10.57v-2.04h-8.15v-6.78h7.31
		V548.29z M334.73,559.12h2.45v-16.74h5.75v-2.06H329v2.06h5.73V559.12z M316.44,558.19c1.01,0.67,2.98,1.2,4.8,1.2
		c4.44,0,6.59-2.5,6.59-5.4c0-2.76-1.61-4.31-4.8-5.52c-2.59-1.01-3.74-1.87-3.74-3.64c0-1.27,0.98-2.81,3.55-2.81
		c1.7,0,2.95,0.57,3.57,0.89l0.67-1.97c-0.84-0.48-2.23-0.93-4.15-0.93c-3.65,0-6.09,2.18-6.09,5.11c0,2.64,1.9,4.24,4.97,5.32
		c2.54,0.98,3.53,1.99,3.53,3.74c0,1.9-1.44,3.21-3.93,3.21c-1.68,0-3.26-0.55-4.36-1.22L316.44,558.19z M307.44,536.04l-2.56,3.26
		h1.97l3.57-3.26H307.44z M299.32,540.32v11.06c0,5.83,2.9,8.05,6.74,8.05c4.08,0,7.12-2.37,7.12-8.15v-10.96h-2.45v11.13
		c0,4.15-1.78,5.99-4.58,5.99c-2.5,0-4.37-1.78-4.37-5.99v-11.13H299.32z"/>
</g>
</svg>
