<?xml version="1.0" encoding="utf-8"?>
<!-- Generator: Adobe Illustrator 26.2.1, SVG Export Plug-In . SVG Version: 6.00 Build 0)  -->
<svg version="1.1" id="Vrstva_1" xmlns="http://www.w3.org/2000/svg" xmlns:xlink="http://www.w3.org/1999/xlink" x="0px" y="0px"
	 viewBox="0 0 595.28 841.89" style="enable-background:new 0 0 595.28 841.89;" xml:space="preserve">
<style type="text/css">
	.st0{fill:#3887C7;}
	.st1{fill:#FFFFFF;}
</style>
<path class="st0" d="M303.38,483.37c0.38-3.22,0.91-5.74,1.33-7.76c0.78-3.78,1.22-5.85,0.04-8.23c-0.38-0.74-0.8-1.47-1.18-2.18
	c-1.67-2.96-3.25-5.78-2.34-10.34c1.05-5.27,0.89-7.94-2.11-13.3c-0.4-0.71-0.85-1.49-1.34-2.33c-3.45-5.87-8.19-13.93-5.41-19.49
	c1.2-2.4,3.02-4.12,4.61-5.67c2.53-2.42,4.34-4.16,2.78-7.3c-0.74-1.47-1.63-2.76-2.4-3.89c-2.2-3.18-3.94-5.69-0.11-9.36
	c2.27-2.16,4.34-3.14,6.45-3c2.14,0.15,4.21,1.49,6.32,4.14c3.29,4.11,9.1,3.83,11.86,2.05c1.09-0.71,2.8-0.89,4.61-1.09
	c2.29-0.24,4.67-0.49,5.52-1.8c0.45-0.71,0.47-1.69,0.05-3c-0.73-2.36-1.94-4.32-3.12-6.19c-2.2-3.54-4.11-6.61-1.36-10.57
	c1.31-1.89,1.83-4.16,2.31-6.18c0.53-2.33,1-4.34,2.54-5c1.16-0.51,2.76-0.11,5.01,1.24c7.03,4.18,9.56,2.22,14.13-1.34
	c0.42-0.33,0.87-0.67,1.33-1.02l0.18-0.15c3.25-2.47,5.81-4.41,8.36-4.54c-1.65-2.07-4.76-7.08-3.76-14.5
	c0.65-4.72,2.73-8.27,4.41-11.12c1.76-3.02,3.16-5.4,2.34-7.98c-0.65-2.02-0.82-4.74-1.02-7.61c-0.29-4.74-0.64-10.12-3.36-12.32
	c-0.91-0.73-1.63-1.27-2.25-1.73c-2.67-2-3.14-2.47-4.03-7.08c-1.09-5.63-4.18-10.3-10.01-15.1l-1.47-1.18
	c-4.94-4.01-7.47-6.12-7.61-11.57c-1.36-0.22-5.69-0.94-10.72-2.56c-1.71-0.56-2.83-0.6-3.51-0.16c-1.27,0.82-1.56,3.56-2.03,8.08
	c-0.13,1.27-0.27,2.67-0.47,4.21c-0.29,2.47-1.34,4.16-3.09,5.01c-3.8,1.85-10.59-0.24-20.76-6.34c-2.82-1.69-5.89-1.69-8.01-0.02
	c-2.29,1.82-2.98,5.07-1.82,8.72c1.56,4.94,2.02,6.54,1.27,7.32c-0.25,0.27-0.58,0.38-1,0.38c-0.56,0-1.27-0.18-2.2-0.42
	c-0.35-0.09-0.71-0.18-1.13-0.29c-2.25-0.53-13.77-3.51-20.24-9.46c-4.61-4.27-10.28-4.16-18.15-4.03
	c-1.44,0.02-2.92,0.05-4.51,0.05c-5.76,0-9.85-2.07-13.44-3.91c-2.18-1.09-4.27-2.16-6.56-2.69c-1.14,1.33-6.92,8.32-7.68,14.57
	c-0.49,4.16-3,6.96-5.2,9.43c-1.74,1.94-3.38,3.78-3.92,6.07c-0.91,3.78-3.67,15.28,0.93,19.66l1.16,1.11
	c3.94,3.69,6.32,5.92,4.63,11.21c-1.69,5.25-0.62,7.03,2.73,11.43c0.33,0.44,0.67,0.85,1,1.29c3.18,4.03,6.79,8.61,1.38,15.04
	c-1.58,1.91-3.12,3.47-4.6,4.98c-3.69,3.76-6.87,6.99-8.54,13.28c-0.64,2.36-0.93,5.21-1.2,7.98c-0.78,7.92-1.6,16.11-10.21,16.11
	c-1.05,0-2.03,0-2.94-0.02c-8.65-0.07-10.43-0.07-13.04,6.83c-2,5.27-3.78,8.28-5.36,10.95c-0.82,1.36-1.58,2.65-2.25,4.07
	c-1.63,3.43-3.74,8.25-4.38,9.7c0.69,0.44,1.34,1.16,1.91,2.34c0.6,1.27,1.33,2,2.23,2.31c2.31,0.78,6.01-1.11,11.59-3.98l0.64-0.33
	c7.76-3.98,16.24-1.64,23.25,6.43c5.2,5.96,5.1,11.55-0.25,16.62c-1,0.94-1.45,1.82-1.38,2.63c0.16,1.87,2.91,3.71,6.09,5.83
	l1.31,0.89c3.78,2.56,5.1,4.23,6.65,6.18c0.73,0.93,1.47,1.87,2.56,3.02c3.47,3.69,6.27,4.14,10.85,3.74
	c5.25-0.45,8.19,0.07,14.97,1.98c6.83,1.91,11.03,0.62,17.84-3c6.49-3.45,11.19-3.2,14.39,0.8l0.78,0.98c2.2,2.8,4.11,5.21,9.3,8.67
	c3.07,2.05,4.78,3.32,5.6,4.81C291.33,493.96,302.45,491.16,303.38,483.37"/>
<path class="st0" d="M166.5,420.17c1.56-2.62,3.32-5.6,5.29-10.79c2.89-7.63,5.49-7.59,14.1-7.54c0.91,0.02,1.87,0.02,2.92,0.02
	c7.59,0,8.34-7.34,9.1-15.11c0.29-2.8,0.58-5.7,1.24-8.16c1.76-6.56,5.03-9.9,8.81-13.77c1.47-1.49,2.98-3.03,4.54-4.9
	c4.83-5.74,1.8-9.59-1.4-13.64c-0.33-0.44-0.67-0.87-1-1.29c-3.6-4.72-4.71-6.89-2.91-12.46c1.47-4.61-0.47-6.43-4.32-10.05
	l-1.18-1.11c-4.54-4.32-2.89-13.9-1.25-20.73c0.62-2.56,2.34-4.51,4.18-6.56c2.2-2.45,4.47-5,4.94-8.81
	c0.73-6.07,5.74-12.53,7.52-14.68c-0.36-0.05-0.74-0.11-1.14-0.13c-1.76-0.09-3.07-0.64-3.96-1.67c-2-2.27-1.71-6.5-1.31-12.35
	c0.18-2.71,0.4-5.8,0.4-9.12c0-3.58-1.22-6.56-3.6-8.83c-5.74-5.43-16.2-5.32-19.27-5.16c-9.59,0.51-18.46-0.2-24.22-0.87
	c-3.62-0.44-5.65-1.24-6.79-2.94c-1.31,0.07-6.29,0.33-10.94,0.33c-5.3,0-10.41,3.8-15.17,11.26c-2.36,3.71-3.92,5.63-5.85,5.9
	c-2.18,0.29-4.36-1.53-8.67-5.36c-5.38-4.74-8.56-3.56-13.39-1.76c-1.71,0.65-3.63,1.36-5.9,1.89c-3.87,0.89-8.67,0.76-13.28,0.64
	c-5.58-0.16-11.34-0.33-15.53,1.29c-6.47,2.53-9.25,6.92-8.97,14.24c0.24,6.58-2.34,7.72-7.87,8.59l-0.69,0.13
	c-5.1,0.8-9.52,1.49-9.92,9.36c-0.35,6.99,1.73,8.5,5.47,11.23c0.73,0.53,1.53,1.11,2.36,1.78c4.41,3.49,4.38,6.01,4.32,10.19
	c-0.02,0.96-0.02,2.03,0.02,3.25c0.22,6.34-0.02,8.65-2.85,16.71c-1.31,3.71-1.76,7.5-2.22,11.17c-0.53,4.34-1.04,8.45-2.8,12.34
	c-3.14,6.89-2.6,11.17,1.74,13.86c3.52,2.18,2.91,8.17,2.36,13.44c-0.22,2.11-0.44,4.09-0.36,5.69c0.18,4.92,5.2,14.04,6.21,15.84
	c0.15-0.02,0.29-0.04,0.44-0.02c1.71,0.07,3.07,1.85,4.51,3.72c0.96,1.25,1.96,2.54,3.11,3.42c0.8,0.6,1.54,1.4,2.27,2.16
	c1.56,1.67,3.05,3.23,5.07,3.27c1.71,0.05,3.71-1.11,6.05-3.43c2.49-2.49,5-3.51,7.47-3.07c4.49,0.82,7.61,6.32,9.07,9.54
	c1.56,3.42,5.43,4.34,11.52,2.73c1.71-0.44,3.27-0.2,4.52,0.69c1.53,1.11,2.54,3.14,2.69,5.45c0.13,1.87,0.25,3.92,1.38,4.63
	c0.74,0.47,2.02,0.36,3.72-0.33c1.38-0.54,2.62-0.54,3.69,0.02c2.6,1.36,3.6,5.8,4.49,9.72c0.13,0.6,0.25,1.18,0.4,1.73
	c0.51,2.14,2.02,2.94,3.2,3.23c3.05,0.76,7.14-0.93,9.96-4.12c3.92-4.43,7.3-1.74,10.28,0.64c1.16,0.93,2.27,1.8,3.38,2.27
	c1.51,0.62,2.91,0.45,4.29,0.27c1.04-0.15,2.09-0.27,3.09,0.02c0.64-1.49,2.74-6.29,4.38-9.72
	C164.9,422.87,165.68,421.55,166.5,420.17"/>
<path class="st0" d="M507.41,460.79c-5.29-2.98-5.52-5.18-3.74-12.35c0.93-3.65,2.53-4.92,4.09-6.14c1.44-1.13,2.8-2.18,3.51-5.36
	c1.05-4.58,1.25-10.54-3.6-12.84c-3.51-1.65-7.52-4.45-7.27-11.37c0.13-3.74,1.34-7.34,3.09-9.46c-9.61,0.78-16.73-0.74-22.13-9.68
	c-3.18-5.25-6.18-5.09-9.96-4.87c-2.58,0.15-5.5,0.31-8.74-1.45c-4.81-2.62-10.21-1.58-14.55-0.76c-2.4,0.45-4.47,0.85-6.12,0.62
	l-0.29-0.05c-4.63-0.65-10.97-1.54-16.64-13.08c-4.2-8.57-6.99-7.74-10.86-6.59c-1.13,0.33-2.27,0.67-3.56,0.82
	c-1.49,0.18-2.89,0.45-4.23,0.71c-3.63,0.69-7.07,1.34-11.03-0.31c-6.23-2.6-12.34-4.09-16.73-4.09c-4.94,0-8.79-0.31-13.19-4.49
	c-3.74-3.54-6.39-1.53-11.7,2.51l-0.18,0.15c-0.47,0.35-0.91,0.67-1.33,1c-4.63,3.62-7.68,5.99-15.37,1.42
	c-1.89-1.13-3.22-1.51-4.03-1.16c-1.02,0.44-1.42,2.2-1.89,4.21c-0.49,2.11-1.04,4.51-2.47,6.56c-2.33,3.38-0.76,5.89,1.4,9.36
	c1.14,1.85,2.45,3.96,3.25,6.47c0.51,1.65,0.44,2.92-0.2,3.92c-1.14,1.74-3.8,2.03-6.34,2.31c-1.67,0.18-3.25,0.35-4.12,0.91
	c-3.18,2.05-9.59,2.4-13.33-2.29c-1.91-2.38-3.71-3.6-5.52-3.72c-1.76-0.13-3.58,0.76-5.61,2.69c-3.14,3.02-1.94,4.76,0.25,7.94
	c0.8,1.14,1.69,2.45,2.47,4.01c1.93,3.85-0.47,6.16-3,8.59c-1.54,1.47-3.27,3.14-4.38,5.38c-2.53,5.01,2.22,13.08,5.36,18.42
	c0.49,0.85,0.96,1.63,1.36,2.34c3.14,5.63,3.32,8.57,2.22,14.06c-0.82,4.16,0.58,6.67,2.23,9.57c0.4,0.73,0.82,1.45,1.2,2.23
	c1.36,2.71,0.87,5.05,0.07,8.94c-0.42,2-0.94,4.49-1.33,7.67c-1,8.43-12.15,11.37-14.91,11.97c0.29,1.16,0.2,2.53-0.13,4.49
	c-0.94,5.36-1.74,7.19-11.21,6.98c-0.07,0-0.15,0-0.2,0c-8.03,0-8.76,11.21-9.32,20.24l-0.13,1.83c-0.4,5.81-5.7,9.52-9.97,12.48
	c-2.92,2.03-5.45,3.8-5.45,5.52c0,2.98,0.85,5.32,2.18,5.98c0.82,0.4,1.83,0.15,3.02-0.78c1.51-1.18,2.78-1.56,3.89-1.16
	c1.74,0.64,2.51,3.07,3.07,5.61c0.4,1.76,1.58,2.82,2.53,3.4c1.45,0.91,3.12,1.18,3.96,0.96c0.29-0.07,0.58-0.18,0.89-0.29
	c1.73-0.65,4.32-1.62,8.88,1.24c4.67,2.91,8.96,10.26,10.01,12.19c2.73-1.24,6.59-0.93,9.54-0.71c0.76,0.07,1.47,0.13,2.13,0.16
	c4.67,0.2,5.58-0.38,8.76-2.92c2.69-2.16,5.8-1.96,11.97-1.54c1.73,0.11,3.71,0.24,5.99,0.35c6.45,0.24,9.28-3.65,11.72-7.1
	c1.22-1.73,2.36-3.36,3.85-4.14l0.18-0.09c4.01-2.11,6.03-3.18,9.16-8.39c3.32-5.52,6.9-8.34,16.39-7.43
	c7.14,0.69,7.63-0.33,9.23-3.67c0.36-0.74,0.78-1.6,1.33-2.56c3.09-5.54,6.65-8.43,11.05-11.06c1.16-0.69,2.22-1.16,3.16-1.58
	c2.71-1.2,4.49-1.98,5.72-6.56c0.87-3.31,1.94-5.05,3.47-5.63c1.85-0.73,4.11,0.45,6.27,1.82c2.13,1.36,2.49,2.89,2.82,4.25
	c0.45,1.83,0.82,3.31,5.89,4.14c0.82,0.15,1.56,0.27,2.23,0.38c6.83,1.2,7.1,1.24,12.04-3.69c4.27-4.29,8.74-0.84,13.04,2.47
	c1.89,1.45,3.83,2.96,5.85,3.92c1.76,0.87,3.63,0.93,5.56,0.16c3.83-1.51,7.83-6.39,10.19-12.46c3.03-7.81,8.48-8.72,18.38-10.35
	l1.14-0.2c9.3-1.54,9.77-3.09,12.01-10.48l0.6-1.94c1.02-3.31,2.71-5.36,5.03-6.09c1.18-0.36,2.4-0.35,3.62-0.13
	c0.09-1.98,0.36-8.07,0.73-12.37c0.05-0.71,0.13-1.36,0.2-1.98C511.23,464.82,511.41,463.06,507.41,460.79"/>
<path class="st0" d="M285.39,274.27c2.49-1.96,6.05-2,9.26-0.07c9.7,5.83,16.33,7.96,19.71,6.3c1.42-0.69,2.23-2.05,2.49-4.14
	c0.18-1.54,0.33-2.94,0.47-4.2c0.53-5.03,0.82-7.79,2.53-8.9c1-0.65,2.36-0.64,4.45,0.04c4.8,1.54,8.94,2.27,10.39,2.49
	c0.27-2.31,1.96-4.9,3.91-7.88c3.32-5.09,7.1-10.85,4.78-16.91c-4.07-10.63-5.69-17.86-1.11-21.07c1.27-0.89,2.85-1.65,4.54-2.47
	c3.98-1.93,8.08-3.92,7.39-7.39c-1.2-5.96,0.62-9.1,5.87-10.21c3.71-0.76,3.58-2.54,3.36-5.8c-0.05-0.8-0.11-1.65-0.11-2.56
	c0-0.33-0.02-0.67-0.02-1.04c-0.05-3.05-0.11-7.21,2.67-9.99c1.69-1.69,4.23-2.63,7.63-2.76c-2.8-2.78-10.81-11.12-12.64-17.55
	c-2.49-8.67-9.57-9.59-12.52-9.59c-5.14,0-14.28-1.13-17.44-8.59c-2.76-6.5-5.87-6.21-10.55-5.8l-0.62,0.05
	c-3.87,0.33-11.01-0.65-15.55-10.97c-2.83-6.47-12.99-4.45-21.15-2.82c-2.54,0.51-4.94,0.98-6.96,1.18
	c-8.39,0.84-9.9-1.96-13.88-9.46l-1-1.91c-2.31-4.29-8.68-6.1-14.84-7.85c-2.58-0.73-5.07-1.45-7.28-2.33
	c-1.16,0.15-17,2.47-19.42,13.73c-0.53,2.43-0.89,4.85-1.24,7.21c-1.4,9.3-2.58,17.33-12.84,16.24c-11.03-1.18-12.12,2.18-13.5,6.45
	l-0.25,0.78c-1.53,4.6-4.45,5.94-9.79,4.49c-4.49-1.22-10.83,2.98-13.12,5.69c-0.36,0.44-0.67,0.84-0.93,1.22
	c-0.69,0.93-1.22,1.65-2.16,1.8c-1.11,0.16-2.54-0.54-5.49-2.71c-3.63-2.71-9.03-5.3-12.24-3.72c-1.74,0.85-2.65,2.91-2.73,6.1
	c-0.04,2.4,0.02,4.47,0.07,6.3c0.18,6.5,0.29,10.43-4.81,15.17c-4.41,4.11-8.07,7.81-7.88,11.57c0.11,2.11,1.4,4.07,3.94,6.03
	c2.33,1.8,4.89,3.31,7.36,4.76c6.5,3.8,12.63,7.39,12.63,15.24c0,10.54,0.45,12.1,7.34,12.92c5.7,0.67,14.5,1.36,24.02,0.85
	c3.18-0.16,14.04-0.25,20.09,5.49c2.62,2.47,3.94,5.72,3.94,9.63c0,3.36-0.22,6.47-0.4,9.19c-0.38,5.38-0.67,9.63,1.04,11.55
	c0.69,0.78,1.73,1.22,3.2,1.29c3.52,0.2,6.38,1.65,9.39,3.18c3.65,1.85,7.45,3.78,12.93,3.78c1.58,0,3.07-0.04,4.49-0.05
	c7.81-0.13,13.97-0.24,18.91,4.32c6.27,5.78,17.55,8.68,19.75,9.21c0.42,0.09,0.8,0.2,1.14,0.29c0.85,0.2,1.93,0.49,2.13,0.35
	c0.31-0.4-0.67-3.51-1.53-6.23C281.91,280.09,282.72,276.38,285.39,274.27"/>
<path class="st0" d="M514.95,379.7c0.2-5.78,0.93-10.32,8.25-16.26c2.54-2.07,5.92-3.52,9.21-4.92c5.8-2.49,11.79-5.07,13.41-11.08
	c0.67-2.56,1.31-4.63,1.96-6.43c-0.04-0.89-0.44-8.21-2.83-17.86c-0.87-3.49-1.91-6.18-2.82-8.56c-1.76-4.63-3.16-8.28-1.98-14.48
	c0.73-3.74,2.14-6.69,3.29-9.03c1.69-3.54,2.82-5.87,0.93-8.57c-2.76-4-5.2-7.83-4.56-10.92c0.27-1.27,1.05-2.33,2.34-3.12
	c0.94-0.6,2.25-1.16,3.63-1.76c3.51-1.53,7.85-3.43,8.94-6.76c0.6-1.83,0.18-3.91-1.25-6.38c-2.42-4.16-4.25-5.54-5.6-6.54
	c-2.23-1.67-2.98-2.62-2.72-9.61l0.05-1.54c0.16-4.71,0.27-7.48,0.8-9.46c-1.45-0.67-6.07-3.22-9.07-9.59
	c-1.8-3.83-4.36-4.21-7.08-4.61c-2.29-0.35-4.65-0.71-6.54-3.11c-2.8-3.58-4.01-3.34-6.65-2.83c-0.8,0.16-1.73,0.35-2.85,0.44
	c-5.07,0.47-6.09-1.02-11.72-9.25c-3.42-4.98-5.67-6.01-8.79-7.45c-2.09-0.96-4.45-2.05-7.67-4.49c-7.59-5.74-14.59-8.3-25.8-9.45
	c-9.74-0.98-18.4-6.19-21.2-12.35c-2.36-0.33-18.42-2.53-26.05-4.94c-6.94-2.18-9.74,4.21-13.28,12.32
	c-0.42,0.93-0.82,1.87-1.25,2.82c-3.18,7.03-7.7,6.47-14.53,5.61c-2.51-0.33-5.32-0.67-8.57-0.73c-3.71-0.07-6.49,0.76-8.18,2.45
	c-2.45,2.43-2.4,6.34-2.34,9.17c0,0.38,0.02,0.73,0.02,1.07c0,0.87,0.05,1.71,0.11,2.49c0.22,3.22,0.42,5.98-4.25,6.96
	c-4.69,0.98-6.09,3.47-5,8.9c0.85,4.31-3.85,6.59-7.99,8.61c-1.65,0.78-3.2,1.54-4.4,2.38c-4,2.8-2.38,9.63,1.49,19.77
	c2.53,6.59-1.58,12.88-4.87,17.91c-1.94,2.98-3.78,5.78-3.78,7.92c0,5.3,2.27,7.16,7.25,11.19l1.45,1.2
	c6.07,4.98,9.26,9.83,10.41,15.75c0.84,4.31,1.14,4.54,3.62,6.38c0.62,0.47,1.36,1.02,2.27,1.76c3.09,2.51,3.45,7.9,3.78,13.1
	c0.18,2.82,0.35,5.47,0.96,7.36c0.96,3.05-0.62,5.74-2.45,8.87c-1.71,2.91-3.65,6.21-4.27,10.72c-1.16,8.54,3.62,13.82,4.29,14.53
	c1.02,0.27,2.05,0.89,3.16,1.93c4.11,3.91,7.59,4.2,12.43,4.2c4.54,0,10.79,1.53,17.15,4.18c3.67,1.53,6.79,0.93,10.41,0.24
	c1.36-0.27,2.78-0.55,4.31-0.71c1.18-0.15,2.29-0.47,3.36-0.8c3.89-1.14,7.58-2.23,12.19,7.18c5.4,11.01,11.41,11.84,15.79,12.48
	l0.31,0.04c1.49,0.22,3.45-0.16,5.76-0.6c4.51-0.85,10.1-1.93,15.28,0.87c2.96,1.62,5.6,1.45,8.16,1.33
	c3.81-0.22,7.43-0.44,10.95,5.4c5.36,8.87,12.59,10.05,22.51,9.03c0.82-0.56,1.67-0.82,2.51-0.69c0.69,0.09,1.24-0.07,1.69-0.49
	c1.18-1.11,1.69-4.05,1.38-8.05c-0.24-3.07,1-4.98,2.2-6.83C513.7,384.28,514.84,382.52,514.95,379.7"/>
<g>
	<path class="st1" d="M413.14,411.02l1.96-5.76c0.38-1.2,0.71-2.42,1-3.6h0.05c0.29,1.14,0.6,2.33,1.04,3.63l1.94,5.72H413.14z
		 M419.68,413.03l2.13,6.27h2.74l-6.79-19.91h-3.11l-6.76,19.91h2.65l2.07-6.27H419.68z M392.37,419.3v-8.52
		c0-3.31-0.05-5.7-0.2-8.21l0.09-0.02c1,2.14,2.33,4.43,3.72,6.65l6.32,10.1h2.6v-19.91h-2.43v8.32c0,3.11,0.07,5.52,0.31,8.19
		l-0.07,0.02c-0.94-2.03-2.09-4.12-3.56-6.47l-6.39-10.06h-2.8v19.91H392.37z M382.89,419.3h2.56v-19.91h-2.56V419.3z M375.3,398.23
		l3.05-3.36h-2.13l-1.87,2.07h-0.05l-1.89-2.07h-2.2l3.11,3.36H375.3z M379.15,416.61c-1.04,0.49-2.63,0.82-4.2,0.82
		c-4.85,0-7.65-3.12-7.65-7.99c0-5.23,3.09-8.23,7.76-8.23c1.65,0,3.05,0.36,4.01,0.84l0.62-2.09c-0.67-0.36-2.23-0.89-4.72-0.89
		c-6.18,0-10.39,4.21-10.39,10.45c0,6.54,4.21,10.08,9.83,10.08c2.43,0,4.32-0.47,5.27-0.94L379.15,416.61z M353.35,401.15
		c4.29,0,6.36,4.14,6.36,8.1c0,4.52-2.31,8.27-6.39,8.27c-4.03,0-6.34-3.82-6.34-8.07C346.98,405.08,349.1,401.15,353.35,401.15
		 M353.46,399.06c-5.3,0-9.25,4.12-9.25,10.45c0,6.03,3.71,10.12,8.96,10.12c5.09,0,9.25-3.63,9.25-10.5
		C362.42,403.22,358.91,399.06,353.46,399.06 M329.85,418.32c1.05,0.71,3.16,1.27,5.07,1.27c4.71,0,6.98-2.65,6.98-5.74
		c0-2.91-1.71-4.54-5.09-5.83c-2.74-1.07-3.96-1.98-3.96-3.85c0-1.36,1.04-2.98,3.76-2.98c1.8,0,3.12,0.58,3.78,0.94l0.71-2.11
		c-0.89-0.49-2.36-0.96-4.4-0.96c-3.87,0-6.45,2.31-6.45,5.4c0,2.82,2.02,4.51,5.27,5.65c2.69,1.04,3.74,2.09,3.74,3.96
		c0,2-1.53,3.4-4.16,3.4c-1.78,0-3.45-0.6-4.61-1.31L329.85,418.32z M322.27,419.3v-8.48l6.69-11.43h-2.92l-2.87,5.49
		c-0.76,1.51-1.45,2.82-2.02,4.11h-0.05c-0.62-1.38-1.2-2.6-1.98-4.11l-2.8-5.49h-2.92l6.29,11.46v8.45H322.27z M305.97,419.3
		l7.1-19.91h-2.74l-3.36,9.83c-0.89,2.6-1.71,5.12-2.27,7.41h-0.07c-0.53-2.33-1.27-4.74-2.13-7.43l-3.09-9.81h-2.78l6.49,19.91
		H305.97z"/>
</g>
</svg>
